%TF.GenerationSoftware,KiCad,Pcbnew,10.0.3-10.0.3~ubuntu24.04.1*%
%TF.CreationDate,2026-05-25T17:23:03+02:00*%
%TF.ProjectId,Driver interface card,44726976-6572-4206-996e-746572666163,rev?*%
%TF.SameCoordinates,Original*%
%TF.FileFunction,Legend,Top*%
%TF.FilePolarity,Positive*%
%FSLAX46Y46*%
G04 Gerber Fmt 4.6, Leading zero omitted, Abs format (unit mm)*
G04 Created by KiCad (PCBNEW 10.0.3-10.0.3~ubuntu24.04.1) date 2026-05-25 17:23:03*
%MOMM*%
%LPD*%
G01*
G04 APERTURE LIST*
%ADD10C,0.150000*%
%ADD11C,0.100000*%
%ADD12C,0.120000*%
%ADD13C,0.152400*%
%ADD14C,0.508000*%
G04 APERTURE END LIST*
D10*
X182754819Y-57738094D02*
X181754819Y-57738094D01*
X181754819Y-57738094D02*
X181754819Y-57499999D01*
X181754819Y-57499999D02*
X181802438Y-57357142D01*
X181802438Y-57357142D02*
X181897676Y-57261904D01*
X181897676Y-57261904D02*
X181992914Y-57214285D01*
X181992914Y-57214285D02*
X182183390Y-57166666D01*
X182183390Y-57166666D02*
X182326247Y-57166666D01*
X182326247Y-57166666D02*
X182516723Y-57214285D01*
X182516723Y-57214285D02*
X182611961Y-57261904D01*
X182611961Y-57261904D02*
X182707200Y-57357142D01*
X182707200Y-57357142D02*
X182754819Y-57499999D01*
X182754819Y-57499999D02*
X182754819Y-57738094D01*
X181754819Y-56833332D02*
X181754819Y-56214285D01*
X181754819Y-56214285D02*
X182135771Y-56547618D01*
X182135771Y-56547618D02*
X182135771Y-56404761D01*
X182135771Y-56404761D02*
X182183390Y-56309523D01*
X182183390Y-56309523D02*
X182231009Y-56261904D01*
X182231009Y-56261904D02*
X182326247Y-56214285D01*
X182326247Y-56214285D02*
X182564342Y-56214285D01*
X182564342Y-56214285D02*
X182659580Y-56261904D01*
X182659580Y-56261904D02*
X182707200Y-56309523D01*
X182707200Y-56309523D02*
X182754819Y-56404761D01*
X182754819Y-56404761D02*
X182754819Y-56690475D01*
X182754819Y-56690475D02*
X182707200Y-56785713D01*
X182707200Y-56785713D02*
X182659580Y-56833332D01*
X169254819Y-64914285D02*
X168254819Y-64914285D01*
X168254819Y-64914285D02*
X168254819Y-64676190D01*
X168254819Y-64676190D02*
X168302438Y-64533333D01*
X168302438Y-64533333D02*
X168397676Y-64438095D01*
X168397676Y-64438095D02*
X168492914Y-64390476D01*
X168492914Y-64390476D02*
X168683390Y-64342857D01*
X168683390Y-64342857D02*
X168826247Y-64342857D01*
X168826247Y-64342857D02*
X169016723Y-64390476D01*
X169016723Y-64390476D02*
X169111961Y-64438095D01*
X169111961Y-64438095D02*
X169207200Y-64533333D01*
X169207200Y-64533333D02*
X169254819Y-64676190D01*
X169254819Y-64676190D02*
X169254819Y-64914285D01*
X169254819Y-63390476D02*
X169254819Y-63961904D01*
X169254819Y-63676190D02*
X168254819Y-63676190D01*
X168254819Y-63676190D02*
X168397676Y-63771428D01*
X168397676Y-63771428D02*
X168492914Y-63866666D01*
X168492914Y-63866666D02*
X168540533Y-63961904D01*
X168254819Y-63057142D02*
X168254819Y-62438095D01*
X168254819Y-62438095D02*
X168635771Y-62771428D01*
X168635771Y-62771428D02*
X168635771Y-62628571D01*
X168635771Y-62628571D02*
X168683390Y-62533333D01*
X168683390Y-62533333D02*
X168731009Y-62485714D01*
X168731009Y-62485714D02*
X168826247Y-62438095D01*
X168826247Y-62438095D02*
X169064342Y-62438095D01*
X169064342Y-62438095D02*
X169159580Y-62485714D01*
X169159580Y-62485714D02*
X169207200Y-62533333D01*
X169207200Y-62533333D02*
X169254819Y-62628571D01*
X169254819Y-62628571D02*
X169254819Y-62914285D01*
X169254819Y-62914285D02*
X169207200Y-63009523D01*
X169207200Y-63009523D02*
X169159580Y-63057142D01*
X160254819Y-66714285D02*
X159254819Y-66714285D01*
X159254819Y-66714285D02*
X159254819Y-66476190D01*
X159254819Y-66476190D02*
X159302438Y-66333333D01*
X159302438Y-66333333D02*
X159397676Y-66238095D01*
X159397676Y-66238095D02*
X159492914Y-66190476D01*
X159492914Y-66190476D02*
X159683390Y-66142857D01*
X159683390Y-66142857D02*
X159826247Y-66142857D01*
X159826247Y-66142857D02*
X160016723Y-66190476D01*
X160016723Y-66190476D02*
X160111961Y-66238095D01*
X160111961Y-66238095D02*
X160207200Y-66333333D01*
X160207200Y-66333333D02*
X160254819Y-66476190D01*
X160254819Y-66476190D02*
X160254819Y-66714285D01*
X160254819Y-65190476D02*
X160254819Y-65761904D01*
X160254819Y-65476190D02*
X159254819Y-65476190D01*
X159254819Y-65476190D02*
X159397676Y-65571428D01*
X159397676Y-65571428D02*
X159492914Y-65666666D01*
X159492914Y-65666666D02*
X159540533Y-65761904D01*
X159588152Y-64333333D02*
X160254819Y-64333333D01*
X159207200Y-64571428D02*
X159921485Y-64809523D01*
X159921485Y-64809523D02*
X159921485Y-64190476D01*
X172354819Y-64138094D02*
X171354819Y-64138094D01*
X171354819Y-64138094D02*
X171354819Y-63899999D01*
X171354819Y-63899999D02*
X171402438Y-63757142D01*
X171402438Y-63757142D02*
X171497676Y-63661904D01*
X171497676Y-63661904D02*
X171592914Y-63614285D01*
X171592914Y-63614285D02*
X171783390Y-63566666D01*
X171783390Y-63566666D02*
X171926247Y-63566666D01*
X171926247Y-63566666D02*
X172116723Y-63614285D01*
X172116723Y-63614285D02*
X172211961Y-63661904D01*
X172211961Y-63661904D02*
X172307200Y-63757142D01*
X172307200Y-63757142D02*
X172354819Y-63899999D01*
X172354819Y-63899999D02*
X172354819Y-64138094D01*
X171688152Y-62709523D02*
X172354819Y-62709523D01*
X171307200Y-62947618D02*
X172021485Y-63185713D01*
X172021485Y-63185713D02*
X172021485Y-62566666D01*
X201761905Y-58704819D02*
X201761905Y-57704819D01*
X201761905Y-57704819D02*
X202000000Y-57704819D01*
X202000000Y-57704819D02*
X202142857Y-57752438D01*
X202142857Y-57752438D02*
X202238095Y-57847676D01*
X202238095Y-57847676D02*
X202285714Y-57942914D01*
X202285714Y-57942914D02*
X202333333Y-58133390D01*
X202333333Y-58133390D02*
X202333333Y-58276247D01*
X202333333Y-58276247D02*
X202285714Y-58466723D01*
X202285714Y-58466723D02*
X202238095Y-58561961D01*
X202238095Y-58561961D02*
X202142857Y-58657200D01*
X202142857Y-58657200D02*
X202000000Y-58704819D01*
X202000000Y-58704819D02*
X201761905Y-58704819D01*
X203285714Y-58704819D02*
X202714286Y-58704819D01*
X203000000Y-58704819D02*
X203000000Y-57704819D01*
X203000000Y-57704819D02*
X202904762Y-57847676D01*
X202904762Y-57847676D02*
X202809524Y-57942914D01*
X202809524Y-57942914D02*
X202714286Y-57990533D01*
X184704761Y-68650057D02*
X184609523Y-68602438D01*
X184609523Y-68602438D02*
X184514285Y-68507200D01*
X184514285Y-68507200D02*
X184371428Y-68364342D01*
X184371428Y-68364342D02*
X184276190Y-68316723D01*
X184276190Y-68316723D02*
X184180952Y-68316723D01*
X184228571Y-68554819D02*
X184133333Y-68507200D01*
X184133333Y-68507200D02*
X184038095Y-68411961D01*
X184038095Y-68411961D02*
X183990476Y-68221485D01*
X183990476Y-68221485D02*
X183990476Y-67888152D01*
X183990476Y-67888152D02*
X184038095Y-67697676D01*
X184038095Y-67697676D02*
X184133333Y-67602438D01*
X184133333Y-67602438D02*
X184228571Y-67554819D01*
X184228571Y-67554819D02*
X184419047Y-67554819D01*
X184419047Y-67554819D02*
X184514285Y-67602438D01*
X184514285Y-67602438D02*
X184609523Y-67697676D01*
X184609523Y-67697676D02*
X184657142Y-67888152D01*
X184657142Y-67888152D02*
X184657142Y-68221485D01*
X184657142Y-68221485D02*
X184609523Y-68411961D01*
X184609523Y-68411961D02*
X184514285Y-68507200D01*
X184514285Y-68507200D02*
X184419047Y-68554819D01*
X184419047Y-68554819D02*
X184228571Y-68554819D01*
X185514285Y-67554819D02*
X185323809Y-67554819D01*
X185323809Y-67554819D02*
X185228571Y-67602438D01*
X185228571Y-67602438D02*
X185180952Y-67650057D01*
X185180952Y-67650057D02*
X185085714Y-67792914D01*
X185085714Y-67792914D02*
X185038095Y-67983390D01*
X185038095Y-67983390D02*
X185038095Y-68364342D01*
X185038095Y-68364342D02*
X185085714Y-68459580D01*
X185085714Y-68459580D02*
X185133333Y-68507200D01*
X185133333Y-68507200D02*
X185228571Y-68554819D01*
X185228571Y-68554819D02*
X185419047Y-68554819D01*
X185419047Y-68554819D02*
X185514285Y-68507200D01*
X185514285Y-68507200D02*
X185561904Y-68459580D01*
X185561904Y-68459580D02*
X185609523Y-68364342D01*
X185609523Y-68364342D02*
X185609523Y-68126247D01*
X185609523Y-68126247D02*
X185561904Y-68031009D01*
X185561904Y-68031009D02*
X185514285Y-67983390D01*
X185514285Y-67983390D02*
X185419047Y-67935771D01*
X185419047Y-67935771D02*
X185228571Y-67935771D01*
X185228571Y-67935771D02*
X185133333Y-67983390D01*
X185133333Y-67983390D02*
X185085714Y-68031009D01*
X185085714Y-68031009D02*
X185038095Y-68126247D01*
X187833333Y-95659580D02*
X187785714Y-95707200D01*
X187785714Y-95707200D02*
X187642857Y-95754819D01*
X187642857Y-95754819D02*
X187547619Y-95754819D01*
X187547619Y-95754819D02*
X187404762Y-95707200D01*
X187404762Y-95707200D02*
X187309524Y-95611961D01*
X187309524Y-95611961D02*
X187261905Y-95516723D01*
X187261905Y-95516723D02*
X187214286Y-95326247D01*
X187214286Y-95326247D02*
X187214286Y-95183390D01*
X187214286Y-95183390D02*
X187261905Y-94992914D01*
X187261905Y-94992914D02*
X187309524Y-94897676D01*
X187309524Y-94897676D02*
X187404762Y-94802438D01*
X187404762Y-94802438D02*
X187547619Y-94754819D01*
X187547619Y-94754819D02*
X187642857Y-94754819D01*
X187642857Y-94754819D02*
X187785714Y-94802438D01*
X187785714Y-94802438D02*
X187833333Y-94850057D01*
X188690476Y-95088152D02*
X188690476Y-95754819D01*
X188452381Y-94707200D02*
X188214286Y-95421485D01*
X188214286Y-95421485D02*
X188833333Y-95421485D01*
X189004761Y-68850057D02*
X188909523Y-68802438D01*
X188909523Y-68802438D02*
X188814285Y-68707200D01*
X188814285Y-68707200D02*
X188671428Y-68564342D01*
X188671428Y-68564342D02*
X188576190Y-68516723D01*
X188576190Y-68516723D02*
X188480952Y-68516723D01*
X188528571Y-68754819D02*
X188433333Y-68707200D01*
X188433333Y-68707200D02*
X188338095Y-68611961D01*
X188338095Y-68611961D02*
X188290476Y-68421485D01*
X188290476Y-68421485D02*
X188290476Y-68088152D01*
X188290476Y-68088152D02*
X188338095Y-67897676D01*
X188338095Y-67897676D02*
X188433333Y-67802438D01*
X188433333Y-67802438D02*
X188528571Y-67754819D01*
X188528571Y-67754819D02*
X188719047Y-67754819D01*
X188719047Y-67754819D02*
X188814285Y-67802438D01*
X188814285Y-67802438D02*
X188909523Y-67897676D01*
X188909523Y-67897676D02*
X188957142Y-68088152D01*
X188957142Y-68088152D02*
X188957142Y-68421485D01*
X188957142Y-68421485D02*
X188909523Y-68611961D01*
X188909523Y-68611961D02*
X188814285Y-68707200D01*
X188814285Y-68707200D02*
X188719047Y-68754819D01*
X188719047Y-68754819D02*
X188528571Y-68754819D01*
X189861904Y-67754819D02*
X189385714Y-67754819D01*
X189385714Y-67754819D02*
X189338095Y-68231009D01*
X189338095Y-68231009D02*
X189385714Y-68183390D01*
X189385714Y-68183390D02*
X189480952Y-68135771D01*
X189480952Y-68135771D02*
X189719047Y-68135771D01*
X189719047Y-68135771D02*
X189814285Y-68183390D01*
X189814285Y-68183390D02*
X189861904Y-68231009D01*
X189861904Y-68231009D02*
X189909523Y-68326247D01*
X189909523Y-68326247D02*
X189909523Y-68564342D01*
X189909523Y-68564342D02*
X189861904Y-68659580D01*
X189861904Y-68659580D02*
X189814285Y-68707200D01*
X189814285Y-68707200D02*
X189719047Y-68754819D01*
X189719047Y-68754819D02*
X189480952Y-68754819D01*
X189480952Y-68754819D02*
X189385714Y-68707200D01*
X189385714Y-68707200D02*
X189338095Y-68659580D01*
X150083333Y-67289580D02*
X150035714Y-67337200D01*
X150035714Y-67337200D02*
X149892857Y-67384819D01*
X149892857Y-67384819D02*
X149797619Y-67384819D01*
X149797619Y-67384819D02*
X149654762Y-67337200D01*
X149654762Y-67337200D02*
X149559524Y-67241961D01*
X149559524Y-67241961D02*
X149511905Y-67146723D01*
X149511905Y-67146723D02*
X149464286Y-66956247D01*
X149464286Y-66956247D02*
X149464286Y-66813390D01*
X149464286Y-66813390D02*
X149511905Y-66622914D01*
X149511905Y-66622914D02*
X149559524Y-66527676D01*
X149559524Y-66527676D02*
X149654762Y-66432438D01*
X149654762Y-66432438D02*
X149797619Y-66384819D01*
X149797619Y-66384819D02*
X149892857Y-66384819D01*
X149892857Y-66384819D02*
X150035714Y-66432438D01*
X150035714Y-66432438D02*
X150083333Y-66480057D01*
X150464286Y-66480057D02*
X150511905Y-66432438D01*
X150511905Y-66432438D02*
X150607143Y-66384819D01*
X150607143Y-66384819D02*
X150845238Y-66384819D01*
X150845238Y-66384819D02*
X150940476Y-66432438D01*
X150940476Y-66432438D02*
X150988095Y-66480057D01*
X150988095Y-66480057D02*
X151035714Y-66575295D01*
X151035714Y-66575295D02*
X151035714Y-66670533D01*
X151035714Y-66670533D02*
X150988095Y-66813390D01*
X150988095Y-66813390D02*
X150416667Y-67384819D01*
X150416667Y-67384819D02*
X151035714Y-67384819D01*
X181658333Y-95874819D02*
X181325000Y-95398628D01*
X181086905Y-95874819D02*
X181086905Y-94874819D01*
X181086905Y-94874819D02*
X181467857Y-94874819D01*
X181467857Y-94874819D02*
X181563095Y-94922438D01*
X181563095Y-94922438D02*
X181610714Y-94970057D01*
X181610714Y-94970057D02*
X181658333Y-95065295D01*
X181658333Y-95065295D02*
X181658333Y-95208152D01*
X181658333Y-95208152D02*
X181610714Y-95303390D01*
X181610714Y-95303390D02*
X181563095Y-95351009D01*
X181563095Y-95351009D02*
X181467857Y-95398628D01*
X181467857Y-95398628D02*
X181086905Y-95398628D01*
X181991667Y-94874819D02*
X182658333Y-94874819D01*
X182658333Y-94874819D02*
X182229762Y-95874819D01*
X209854819Y-64638094D02*
X208854819Y-64638094D01*
X208854819Y-64638094D02*
X208854819Y-64399999D01*
X208854819Y-64399999D02*
X208902438Y-64257142D01*
X208902438Y-64257142D02*
X208997676Y-64161904D01*
X208997676Y-64161904D02*
X209092914Y-64114285D01*
X209092914Y-64114285D02*
X209283390Y-64066666D01*
X209283390Y-64066666D02*
X209426247Y-64066666D01*
X209426247Y-64066666D02*
X209616723Y-64114285D01*
X209616723Y-64114285D02*
X209711961Y-64161904D01*
X209711961Y-64161904D02*
X209807200Y-64257142D01*
X209807200Y-64257142D02*
X209854819Y-64399999D01*
X209854819Y-64399999D02*
X209854819Y-64638094D01*
X209283390Y-63495237D02*
X209235771Y-63590475D01*
X209235771Y-63590475D02*
X209188152Y-63638094D01*
X209188152Y-63638094D02*
X209092914Y-63685713D01*
X209092914Y-63685713D02*
X209045295Y-63685713D01*
X209045295Y-63685713D02*
X208950057Y-63638094D01*
X208950057Y-63638094D02*
X208902438Y-63590475D01*
X208902438Y-63590475D02*
X208854819Y-63495237D01*
X208854819Y-63495237D02*
X208854819Y-63304761D01*
X208854819Y-63304761D02*
X208902438Y-63209523D01*
X208902438Y-63209523D02*
X208950057Y-63161904D01*
X208950057Y-63161904D02*
X209045295Y-63114285D01*
X209045295Y-63114285D02*
X209092914Y-63114285D01*
X209092914Y-63114285D02*
X209188152Y-63161904D01*
X209188152Y-63161904D02*
X209235771Y-63209523D01*
X209235771Y-63209523D02*
X209283390Y-63304761D01*
X209283390Y-63304761D02*
X209283390Y-63495237D01*
X209283390Y-63495237D02*
X209331009Y-63590475D01*
X209331009Y-63590475D02*
X209378628Y-63638094D01*
X209378628Y-63638094D02*
X209473866Y-63685713D01*
X209473866Y-63685713D02*
X209664342Y-63685713D01*
X209664342Y-63685713D02*
X209759580Y-63638094D01*
X209759580Y-63638094D02*
X209807200Y-63590475D01*
X209807200Y-63590475D02*
X209854819Y-63495237D01*
X209854819Y-63495237D02*
X209854819Y-63304761D01*
X209854819Y-63304761D02*
X209807200Y-63209523D01*
X209807200Y-63209523D02*
X209759580Y-63161904D01*
X209759580Y-63161904D02*
X209664342Y-63114285D01*
X209664342Y-63114285D02*
X209473866Y-63114285D01*
X209473866Y-63114285D02*
X209378628Y-63161904D01*
X209378628Y-63161904D02*
X209331009Y-63209523D01*
X209331009Y-63209523D02*
X209283390Y-63304761D01*
X206404819Y-67342857D02*
X205928628Y-67676190D01*
X206404819Y-67914285D02*
X205404819Y-67914285D01*
X205404819Y-67914285D02*
X205404819Y-67533333D01*
X205404819Y-67533333D02*
X205452438Y-67438095D01*
X205452438Y-67438095D02*
X205500057Y-67390476D01*
X205500057Y-67390476D02*
X205595295Y-67342857D01*
X205595295Y-67342857D02*
X205738152Y-67342857D01*
X205738152Y-67342857D02*
X205833390Y-67390476D01*
X205833390Y-67390476D02*
X205881009Y-67438095D01*
X205881009Y-67438095D02*
X205928628Y-67533333D01*
X205928628Y-67533333D02*
X205928628Y-67914285D01*
X205500057Y-66961904D02*
X205452438Y-66914285D01*
X205452438Y-66914285D02*
X205404819Y-66819047D01*
X205404819Y-66819047D02*
X205404819Y-66580952D01*
X205404819Y-66580952D02*
X205452438Y-66485714D01*
X205452438Y-66485714D02*
X205500057Y-66438095D01*
X205500057Y-66438095D02*
X205595295Y-66390476D01*
X205595295Y-66390476D02*
X205690533Y-66390476D01*
X205690533Y-66390476D02*
X205833390Y-66438095D01*
X205833390Y-66438095D02*
X206404819Y-67009523D01*
X206404819Y-67009523D02*
X206404819Y-66390476D01*
X205738152Y-65533333D02*
X206404819Y-65533333D01*
X205357200Y-65771428D02*
X206071485Y-66009523D01*
X206071485Y-66009523D02*
X206071485Y-65390476D01*
D11*
X147366666Y-94757419D02*
X147366666Y-95471704D01*
X147366666Y-95471704D02*
X147319047Y-95614561D01*
X147319047Y-95614561D02*
X147223809Y-95709800D01*
X147223809Y-95709800D02*
X147080952Y-95757419D01*
X147080952Y-95757419D02*
X146985714Y-95757419D01*
X148366666Y-95757419D02*
X147795238Y-95757419D01*
X148080952Y-95757419D02*
X148080952Y-94757419D01*
X148080952Y-94757419D02*
X147985714Y-94900276D01*
X147985714Y-94900276D02*
X147890476Y-94995514D01*
X147890476Y-94995514D02*
X147795238Y-95043133D01*
D10*
X188833333Y-75859580D02*
X188785714Y-75907200D01*
X188785714Y-75907200D02*
X188642857Y-75954819D01*
X188642857Y-75954819D02*
X188547619Y-75954819D01*
X188547619Y-75954819D02*
X188404762Y-75907200D01*
X188404762Y-75907200D02*
X188309524Y-75811961D01*
X188309524Y-75811961D02*
X188261905Y-75716723D01*
X188261905Y-75716723D02*
X188214286Y-75526247D01*
X188214286Y-75526247D02*
X188214286Y-75383390D01*
X188214286Y-75383390D02*
X188261905Y-75192914D01*
X188261905Y-75192914D02*
X188309524Y-75097676D01*
X188309524Y-75097676D02*
X188404762Y-75002438D01*
X188404762Y-75002438D02*
X188547619Y-74954819D01*
X188547619Y-74954819D02*
X188642857Y-74954819D01*
X188642857Y-74954819D02*
X188785714Y-75002438D01*
X188785714Y-75002438D02*
X188833333Y-75050057D01*
X189690476Y-74954819D02*
X189500000Y-74954819D01*
X189500000Y-74954819D02*
X189404762Y-75002438D01*
X189404762Y-75002438D02*
X189357143Y-75050057D01*
X189357143Y-75050057D02*
X189261905Y-75192914D01*
X189261905Y-75192914D02*
X189214286Y-75383390D01*
X189214286Y-75383390D02*
X189214286Y-75764342D01*
X189214286Y-75764342D02*
X189261905Y-75859580D01*
X189261905Y-75859580D02*
X189309524Y-75907200D01*
X189309524Y-75907200D02*
X189404762Y-75954819D01*
X189404762Y-75954819D02*
X189595238Y-75954819D01*
X189595238Y-75954819D02*
X189690476Y-75907200D01*
X189690476Y-75907200D02*
X189738095Y-75859580D01*
X189738095Y-75859580D02*
X189785714Y-75764342D01*
X189785714Y-75764342D02*
X189785714Y-75526247D01*
X189785714Y-75526247D02*
X189738095Y-75431009D01*
X189738095Y-75431009D02*
X189690476Y-75383390D01*
X189690476Y-75383390D02*
X189595238Y-75335771D01*
X189595238Y-75335771D02*
X189404762Y-75335771D01*
X189404762Y-75335771D02*
X189309524Y-75383390D01*
X189309524Y-75383390D02*
X189261905Y-75431009D01*
X189261905Y-75431009D02*
X189214286Y-75526247D01*
X196157142Y-101754819D02*
X195823809Y-101278628D01*
X195585714Y-101754819D02*
X195585714Y-100754819D01*
X195585714Y-100754819D02*
X195966666Y-100754819D01*
X195966666Y-100754819D02*
X196061904Y-100802438D01*
X196061904Y-100802438D02*
X196109523Y-100850057D01*
X196109523Y-100850057D02*
X196157142Y-100945295D01*
X196157142Y-100945295D02*
X196157142Y-101088152D01*
X196157142Y-101088152D02*
X196109523Y-101183390D01*
X196109523Y-101183390D02*
X196061904Y-101231009D01*
X196061904Y-101231009D02*
X195966666Y-101278628D01*
X195966666Y-101278628D02*
X195585714Y-101278628D01*
X197109523Y-101754819D02*
X196538095Y-101754819D01*
X196823809Y-101754819D02*
X196823809Y-100754819D01*
X196823809Y-100754819D02*
X196728571Y-100897676D01*
X196728571Y-100897676D02*
X196633333Y-100992914D01*
X196633333Y-100992914D02*
X196538095Y-101040533D01*
X197490476Y-100850057D02*
X197538095Y-100802438D01*
X197538095Y-100802438D02*
X197633333Y-100754819D01*
X197633333Y-100754819D02*
X197871428Y-100754819D01*
X197871428Y-100754819D02*
X197966666Y-100802438D01*
X197966666Y-100802438D02*
X198014285Y-100850057D01*
X198014285Y-100850057D02*
X198061904Y-100945295D01*
X198061904Y-100945295D02*
X198061904Y-101040533D01*
X198061904Y-101040533D02*
X198014285Y-101183390D01*
X198014285Y-101183390D02*
X197442857Y-101754819D01*
X197442857Y-101754819D02*
X198061904Y-101754819D01*
X183908333Y-103054819D02*
X183575000Y-102578628D01*
X183336905Y-103054819D02*
X183336905Y-102054819D01*
X183336905Y-102054819D02*
X183717857Y-102054819D01*
X183717857Y-102054819D02*
X183813095Y-102102438D01*
X183813095Y-102102438D02*
X183860714Y-102150057D01*
X183860714Y-102150057D02*
X183908333Y-102245295D01*
X183908333Y-102245295D02*
X183908333Y-102388152D01*
X183908333Y-102388152D02*
X183860714Y-102483390D01*
X183860714Y-102483390D02*
X183813095Y-102531009D01*
X183813095Y-102531009D02*
X183717857Y-102578628D01*
X183717857Y-102578628D02*
X183336905Y-102578628D01*
X184765476Y-102054819D02*
X184575000Y-102054819D01*
X184575000Y-102054819D02*
X184479762Y-102102438D01*
X184479762Y-102102438D02*
X184432143Y-102150057D01*
X184432143Y-102150057D02*
X184336905Y-102292914D01*
X184336905Y-102292914D02*
X184289286Y-102483390D01*
X184289286Y-102483390D02*
X184289286Y-102864342D01*
X184289286Y-102864342D02*
X184336905Y-102959580D01*
X184336905Y-102959580D02*
X184384524Y-103007200D01*
X184384524Y-103007200D02*
X184479762Y-103054819D01*
X184479762Y-103054819D02*
X184670238Y-103054819D01*
X184670238Y-103054819D02*
X184765476Y-103007200D01*
X184765476Y-103007200D02*
X184813095Y-102959580D01*
X184813095Y-102959580D02*
X184860714Y-102864342D01*
X184860714Y-102864342D02*
X184860714Y-102626247D01*
X184860714Y-102626247D02*
X184813095Y-102531009D01*
X184813095Y-102531009D02*
X184765476Y-102483390D01*
X184765476Y-102483390D02*
X184670238Y-102435771D01*
X184670238Y-102435771D02*
X184479762Y-102435771D01*
X184479762Y-102435771D02*
X184384524Y-102483390D01*
X184384524Y-102483390D02*
X184336905Y-102531009D01*
X184336905Y-102531009D02*
X184289286Y-102626247D01*
X198185714Y-96854819D02*
X198185714Y-95854819D01*
X198185714Y-95854819D02*
X198423809Y-95854819D01*
X198423809Y-95854819D02*
X198566666Y-95902438D01*
X198566666Y-95902438D02*
X198661904Y-95997676D01*
X198661904Y-95997676D02*
X198709523Y-96092914D01*
X198709523Y-96092914D02*
X198757142Y-96283390D01*
X198757142Y-96283390D02*
X198757142Y-96426247D01*
X198757142Y-96426247D02*
X198709523Y-96616723D01*
X198709523Y-96616723D02*
X198661904Y-96711961D01*
X198661904Y-96711961D02*
X198566666Y-96807200D01*
X198566666Y-96807200D02*
X198423809Y-96854819D01*
X198423809Y-96854819D02*
X198185714Y-96854819D01*
X199709523Y-96854819D02*
X199138095Y-96854819D01*
X199423809Y-96854819D02*
X199423809Y-95854819D01*
X199423809Y-95854819D02*
X199328571Y-95997676D01*
X199328571Y-95997676D02*
X199233333Y-96092914D01*
X199233333Y-96092914D02*
X199138095Y-96140533D01*
X200328571Y-95854819D02*
X200423809Y-95854819D01*
X200423809Y-95854819D02*
X200519047Y-95902438D01*
X200519047Y-95902438D02*
X200566666Y-95950057D01*
X200566666Y-95950057D02*
X200614285Y-96045295D01*
X200614285Y-96045295D02*
X200661904Y-96235771D01*
X200661904Y-96235771D02*
X200661904Y-96473866D01*
X200661904Y-96473866D02*
X200614285Y-96664342D01*
X200614285Y-96664342D02*
X200566666Y-96759580D01*
X200566666Y-96759580D02*
X200519047Y-96807200D01*
X200519047Y-96807200D02*
X200423809Y-96854819D01*
X200423809Y-96854819D02*
X200328571Y-96854819D01*
X200328571Y-96854819D02*
X200233333Y-96807200D01*
X200233333Y-96807200D02*
X200185714Y-96759580D01*
X200185714Y-96759580D02*
X200138095Y-96664342D01*
X200138095Y-96664342D02*
X200090476Y-96473866D01*
X200090476Y-96473866D02*
X200090476Y-96235771D01*
X200090476Y-96235771D02*
X200138095Y-96045295D01*
X200138095Y-96045295D02*
X200185714Y-95950057D01*
X200185714Y-95950057D02*
X200233333Y-95902438D01*
X200233333Y-95902438D02*
X200328571Y-95854819D01*
X185245833Y-95874819D02*
X184912500Y-95398628D01*
X184674405Y-95874819D02*
X184674405Y-94874819D01*
X184674405Y-94874819D02*
X185055357Y-94874819D01*
X185055357Y-94874819D02*
X185150595Y-94922438D01*
X185150595Y-94922438D02*
X185198214Y-94970057D01*
X185198214Y-94970057D02*
X185245833Y-95065295D01*
X185245833Y-95065295D02*
X185245833Y-95208152D01*
X185245833Y-95208152D02*
X185198214Y-95303390D01*
X185198214Y-95303390D02*
X185150595Y-95351009D01*
X185150595Y-95351009D02*
X185055357Y-95398628D01*
X185055357Y-95398628D02*
X184674405Y-95398628D01*
X185817262Y-95303390D02*
X185722024Y-95255771D01*
X185722024Y-95255771D02*
X185674405Y-95208152D01*
X185674405Y-95208152D02*
X185626786Y-95112914D01*
X185626786Y-95112914D02*
X185626786Y-95065295D01*
X185626786Y-95065295D02*
X185674405Y-94970057D01*
X185674405Y-94970057D02*
X185722024Y-94922438D01*
X185722024Y-94922438D02*
X185817262Y-94874819D01*
X185817262Y-94874819D02*
X186007738Y-94874819D01*
X186007738Y-94874819D02*
X186102976Y-94922438D01*
X186102976Y-94922438D02*
X186150595Y-94970057D01*
X186150595Y-94970057D02*
X186198214Y-95065295D01*
X186198214Y-95065295D02*
X186198214Y-95112914D01*
X186198214Y-95112914D02*
X186150595Y-95208152D01*
X186150595Y-95208152D02*
X186102976Y-95255771D01*
X186102976Y-95255771D02*
X186007738Y-95303390D01*
X186007738Y-95303390D02*
X185817262Y-95303390D01*
X185817262Y-95303390D02*
X185722024Y-95351009D01*
X185722024Y-95351009D02*
X185674405Y-95398628D01*
X185674405Y-95398628D02*
X185626786Y-95493866D01*
X185626786Y-95493866D02*
X185626786Y-95684342D01*
X185626786Y-95684342D02*
X185674405Y-95779580D01*
X185674405Y-95779580D02*
X185722024Y-95827200D01*
X185722024Y-95827200D02*
X185817262Y-95874819D01*
X185817262Y-95874819D02*
X186007738Y-95874819D01*
X186007738Y-95874819D02*
X186102976Y-95827200D01*
X186102976Y-95827200D02*
X186150595Y-95779580D01*
X186150595Y-95779580D02*
X186198214Y-95684342D01*
X186198214Y-95684342D02*
X186198214Y-95493866D01*
X186198214Y-95493866D02*
X186150595Y-95398628D01*
X186150595Y-95398628D02*
X186102976Y-95351009D01*
X186102976Y-95351009D02*
X186007738Y-95303390D01*
X190133333Y-104859580D02*
X190085714Y-104907200D01*
X190085714Y-104907200D02*
X189942857Y-104954819D01*
X189942857Y-104954819D02*
X189847619Y-104954819D01*
X189847619Y-104954819D02*
X189704762Y-104907200D01*
X189704762Y-104907200D02*
X189609524Y-104811961D01*
X189609524Y-104811961D02*
X189561905Y-104716723D01*
X189561905Y-104716723D02*
X189514286Y-104526247D01*
X189514286Y-104526247D02*
X189514286Y-104383390D01*
X189514286Y-104383390D02*
X189561905Y-104192914D01*
X189561905Y-104192914D02*
X189609524Y-104097676D01*
X189609524Y-104097676D02*
X189704762Y-104002438D01*
X189704762Y-104002438D02*
X189847619Y-103954819D01*
X189847619Y-103954819D02*
X189942857Y-103954819D01*
X189942857Y-103954819D02*
X190085714Y-104002438D01*
X190085714Y-104002438D02*
X190133333Y-104050057D01*
X190466667Y-103954819D02*
X191085714Y-103954819D01*
X191085714Y-103954819D02*
X190752381Y-104335771D01*
X190752381Y-104335771D02*
X190895238Y-104335771D01*
X190895238Y-104335771D02*
X190990476Y-104383390D01*
X190990476Y-104383390D02*
X191038095Y-104431009D01*
X191038095Y-104431009D02*
X191085714Y-104526247D01*
X191085714Y-104526247D02*
X191085714Y-104764342D01*
X191085714Y-104764342D02*
X191038095Y-104859580D01*
X191038095Y-104859580D02*
X190990476Y-104907200D01*
X190990476Y-104907200D02*
X190895238Y-104954819D01*
X190895238Y-104954819D02*
X190609524Y-104954819D01*
X190609524Y-104954819D02*
X190514286Y-104907200D01*
X190514286Y-104907200D02*
X190466667Y-104859580D01*
X193844642Y-94054819D02*
X193511309Y-93578628D01*
X193273214Y-94054819D02*
X193273214Y-93054819D01*
X193273214Y-93054819D02*
X193654166Y-93054819D01*
X193654166Y-93054819D02*
X193749404Y-93102438D01*
X193749404Y-93102438D02*
X193797023Y-93150057D01*
X193797023Y-93150057D02*
X193844642Y-93245295D01*
X193844642Y-93245295D02*
X193844642Y-93388152D01*
X193844642Y-93388152D02*
X193797023Y-93483390D01*
X193797023Y-93483390D02*
X193749404Y-93531009D01*
X193749404Y-93531009D02*
X193654166Y-93578628D01*
X193654166Y-93578628D02*
X193273214Y-93578628D01*
X194797023Y-94054819D02*
X194225595Y-94054819D01*
X194511309Y-94054819D02*
X194511309Y-93054819D01*
X194511309Y-93054819D02*
X194416071Y-93197676D01*
X194416071Y-93197676D02*
X194320833Y-93292914D01*
X194320833Y-93292914D02*
X194225595Y-93340533D01*
X195130357Y-93054819D02*
X195749404Y-93054819D01*
X195749404Y-93054819D02*
X195416071Y-93435771D01*
X195416071Y-93435771D02*
X195558928Y-93435771D01*
X195558928Y-93435771D02*
X195654166Y-93483390D01*
X195654166Y-93483390D02*
X195701785Y-93531009D01*
X195701785Y-93531009D02*
X195749404Y-93626247D01*
X195749404Y-93626247D02*
X195749404Y-93864342D01*
X195749404Y-93864342D02*
X195701785Y-93959580D01*
X195701785Y-93959580D02*
X195654166Y-94007200D01*
X195654166Y-94007200D02*
X195558928Y-94054819D01*
X195558928Y-94054819D02*
X195273214Y-94054819D01*
X195273214Y-94054819D02*
X195177976Y-94007200D01*
X195177976Y-94007200D02*
X195130357Y-93959580D01*
X211604819Y-64638094D02*
X210604819Y-64638094D01*
X210604819Y-64638094D02*
X210604819Y-64399999D01*
X210604819Y-64399999D02*
X210652438Y-64257142D01*
X210652438Y-64257142D02*
X210747676Y-64161904D01*
X210747676Y-64161904D02*
X210842914Y-64114285D01*
X210842914Y-64114285D02*
X211033390Y-64066666D01*
X211033390Y-64066666D02*
X211176247Y-64066666D01*
X211176247Y-64066666D02*
X211366723Y-64114285D01*
X211366723Y-64114285D02*
X211461961Y-64161904D01*
X211461961Y-64161904D02*
X211557200Y-64257142D01*
X211557200Y-64257142D02*
X211604819Y-64399999D01*
X211604819Y-64399999D02*
X211604819Y-64638094D01*
X210604819Y-63733332D02*
X210604819Y-63066666D01*
X210604819Y-63066666D02*
X211604819Y-63495237D01*
X157066666Y-65154819D02*
X157066666Y-65869104D01*
X157066666Y-65869104D02*
X157019047Y-66011961D01*
X157019047Y-66011961D02*
X156923809Y-66107200D01*
X156923809Y-66107200D02*
X156780952Y-66154819D01*
X156780952Y-66154819D02*
X156685714Y-66154819D01*
X157495238Y-65250057D02*
X157542857Y-65202438D01*
X157542857Y-65202438D02*
X157638095Y-65154819D01*
X157638095Y-65154819D02*
X157876190Y-65154819D01*
X157876190Y-65154819D02*
X157971428Y-65202438D01*
X157971428Y-65202438D02*
X158019047Y-65250057D01*
X158019047Y-65250057D02*
X158066666Y-65345295D01*
X158066666Y-65345295D02*
X158066666Y-65440533D01*
X158066666Y-65440533D02*
X158019047Y-65583390D01*
X158019047Y-65583390D02*
X157447619Y-66154819D01*
X157447619Y-66154819D02*
X158066666Y-66154819D01*
X202754819Y-69633333D02*
X203469104Y-69633333D01*
X203469104Y-69633333D02*
X203611961Y-69680952D01*
X203611961Y-69680952D02*
X203707200Y-69776190D01*
X203707200Y-69776190D02*
X203754819Y-69919047D01*
X203754819Y-69919047D02*
X203754819Y-70014285D01*
X203088152Y-68728571D02*
X203754819Y-68728571D01*
X202707200Y-68966666D02*
X203421485Y-69204761D01*
X203421485Y-69204761D02*
X203421485Y-68585714D01*
X193504761Y-105050057D02*
X193409523Y-105002438D01*
X193409523Y-105002438D02*
X193314285Y-104907200D01*
X193314285Y-104907200D02*
X193171428Y-104764342D01*
X193171428Y-104764342D02*
X193076190Y-104716723D01*
X193076190Y-104716723D02*
X192980952Y-104716723D01*
X193028571Y-104954819D02*
X192933333Y-104907200D01*
X192933333Y-104907200D02*
X192838095Y-104811961D01*
X192838095Y-104811961D02*
X192790476Y-104621485D01*
X192790476Y-104621485D02*
X192790476Y-104288152D01*
X192790476Y-104288152D02*
X192838095Y-104097676D01*
X192838095Y-104097676D02*
X192933333Y-104002438D01*
X192933333Y-104002438D02*
X193028571Y-103954819D01*
X193028571Y-103954819D02*
X193219047Y-103954819D01*
X193219047Y-103954819D02*
X193314285Y-104002438D01*
X193314285Y-104002438D02*
X193409523Y-104097676D01*
X193409523Y-104097676D02*
X193457142Y-104288152D01*
X193457142Y-104288152D02*
X193457142Y-104621485D01*
X193457142Y-104621485D02*
X193409523Y-104811961D01*
X193409523Y-104811961D02*
X193314285Y-104907200D01*
X193314285Y-104907200D02*
X193219047Y-104954819D01*
X193219047Y-104954819D02*
X193028571Y-104954819D01*
X193790476Y-103954819D02*
X194409523Y-103954819D01*
X194409523Y-103954819D02*
X194076190Y-104335771D01*
X194076190Y-104335771D02*
X194219047Y-104335771D01*
X194219047Y-104335771D02*
X194314285Y-104383390D01*
X194314285Y-104383390D02*
X194361904Y-104431009D01*
X194361904Y-104431009D02*
X194409523Y-104526247D01*
X194409523Y-104526247D02*
X194409523Y-104764342D01*
X194409523Y-104764342D02*
X194361904Y-104859580D01*
X194361904Y-104859580D02*
X194314285Y-104907200D01*
X194314285Y-104907200D02*
X194219047Y-104954819D01*
X194219047Y-104954819D02*
X193933333Y-104954819D01*
X193933333Y-104954819D02*
X193838095Y-104907200D01*
X193838095Y-104907200D02*
X193790476Y-104859580D01*
X182854819Y-59666666D02*
X182378628Y-59999999D01*
X182854819Y-60238094D02*
X181854819Y-60238094D01*
X181854819Y-60238094D02*
X181854819Y-59857142D01*
X181854819Y-59857142D02*
X181902438Y-59761904D01*
X181902438Y-59761904D02*
X181950057Y-59714285D01*
X181950057Y-59714285D02*
X182045295Y-59666666D01*
X182045295Y-59666666D02*
X182188152Y-59666666D01*
X182188152Y-59666666D02*
X182283390Y-59714285D01*
X182283390Y-59714285D02*
X182331009Y-59761904D01*
X182331009Y-59761904D02*
X182378628Y-59857142D01*
X182378628Y-59857142D02*
X182378628Y-60238094D01*
X182188152Y-58809523D02*
X182854819Y-58809523D01*
X181807200Y-59047618D02*
X182521485Y-59285713D01*
X182521485Y-59285713D02*
X182521485Y-58666666D01*
X194357142Y-83454819D02*
X194023809Y-82978628D01*
X193785714Y-83454819D02*
X193785714Y-82454819D01*
X193785714Y-82454819D02*
X194166666Y-82454819D01*
X194166666Y-82454819D02*
X194261904Y-82502438D01*
X194261904Y-82502438D02*
X194309523Y-82550057D01*
X194309523Y-82550057D02*
X194357142Y-82645295D01*
X194357142Y-82645295D02*
X194357142Y-82788152D01*
X194357142Y-82788152D02*
X194309523Y-82883390D01*
X194309523Y-82883390D02*
X194261904Y-82931009D01*
X194261904Y-82931009D02*
X194166666Y-82978628D01*
X194166666Y-82978628D02*
X193785714Y-82978628D01*
X194738095Y-82550057D02*
X194785714Y-82502438D01*
X194785714Y-82502438D02*
X194880952Y-82454819D01*
X194880952Y-82454819D02*
X195119047Y-82454819D01*
X195119047Y-82454819D02*
X195214285Y-82502438D01*
X195214285Y-82502438D02*
X195261904Y-82550057D01*
X195261904Y-82550057D02*
X195309523Y-82645295D01*
X195309523Y-82645295D02*
X195309523Y-82740533D01*
X195309523Y-82740533D02*
X195261904Y-82883390D01*
X195261904Y-82883390D02*
X194690476Y-83454819D01*
X194690476Y-83454819D02*
X195309523Y-83454819D01*
X196214285Y-82454819D02*
X195738095Y-82454819D01*
X195738095Y-82454819D02*
X195690476Y-82931009D01*
X195690476Y-82931009D02*
X195738095Y-82883390D01*
X195738095Y-82883390D02*
X195833333Y-82835771D01*
X195833333Y-82835771D02*
X196071428Y-82835771D01*
X196071428Y-82835771D02*
X196166666Y-82883390D01*
X196166666Y-82883390D02*
X196214285Y-82931009D01*
X196214285Y-82931009D02*
X196261904Y-83026247D01*
X196261904Y-83026247D02*
X196261904Y-83264342D01*
X196261904Y-83264342D02*
X196214285Y-83359580D01*
X196214285Y-83359580D02*
X196166666Y-83407200D01*
X196166666Y-83407200D02*
X196071428Y-83454819D01*
X196071428Y-83454819D02*
X195833333Y-83454819D01*
X195833333Y-83454819D02*
X195738095Y-83407200D01*
X195738095Y-83407200D02*
X195690476Y-83359580D01*
X172354819Y-65766666D02*
X171878628Y-66099999D01*
X172354819Y-66338094D02*
X171354819Y-66338094D01*
X171354819Y-66338094D02*
X171354819Y-65957142D01*
X171354819Y-65957142D02*
X171402438Y-65861904D01*
X171402438Y-65861904D02*
X171450057Y-65814285D01*
X171450057Y-65814285D02*
X171545295Y-65766666D01*
X171545295Y-65766666D02*
X171688152Y-65766666D01*
X171688152Y-65766666D02*
X171783390Y-65814285D01*
X171783390Y-65814285D02*
X171831009Y-65861904D01*
X171831009Y-65861904D02*
X171878628Y-65957142D01*
X171878628Y-65957142D02*
X171878628Y-66338094D01*
X171354819Y-64861904D02*
X171354819Y-65338094D01*
X171354819Y-65338094D02*
X171831009Y-65385713D01*
X171831009Y-65385713D02*
X171783390Y-65338094D01*
X171783390Y-65338094D02*
X171735771Y-65242856D01*
X171735771Y-65242856D02*
X171735771Y-65004761D01*
X171735771Y-65004761D02*
X171783390Y-64909523D01*
X171783390Y-64909523D02*
X171831009Y-64861904D01*
X171831009Y-64861904D02*
X171926247Y-64814285D01*
X171926247Y-64814285D02*
X172164342Y-64814285D01*
X172164342Y-64814285D02*
X172259580Y-64861904D01*
X172259580Y-64861904D02*
X172307200Y-64909523D01*
X172307200Y-64909523D02*
X172354819Y-65004761D01*
X172354819Y-65004761D02*
X172354819Y-65242856D01*
X172354819Y-65242856D02*
X172307200Y-65338094D01*
X172307200Y-65338094D02*
X172259580Y-65385713D01*
X208154819Y-67342857D02*
X207678628Y-67676190D01*
X208154819Y-67914285D02*
X207154819Y-67914285D01*
X207154819Y-67914285D02*
X207154819Y-67533333D01*
X207154819Y-67533333D02*
X207202438Y-67438095D01*
X207202438Y-67438095D02*
X207250057Y-67390476D01*
X207250057Y-67390476D02*
X207345295Y-67342857D01*
X207345295Y-67342857D02*
X207488152Y-67342857D01*
X207488152Y-67342857D02*
X207583390Y-67390476D01*
X207583390Y-67390476D02*
X207631009Y-67438095D01*
X207631009Y-67438095D02*
X207678628Y-67533333D01*
X207678628Y-67533333D02*
X207678628Y-67914285D01*
X207250057Y-66961904D02*
X207202438Y-66914285D01*
X207202438Y-66914285D02*
X207154819Y-66819047D01*
X207154819Y-66819047D02*
X207154819Y-66580952D01*
X207154819Y-66580952D02*
X207202438Y-66485714D01*
X207202438Y-66485714D02*
X207250057Y-66438095D01*
X207250057Y-66438095D02*
X207345295Y-66390476D01*
X207345295Y-66390476D02*
X207440533Y-66390476D01*
X207440533Y-66390476D02*
X207583390Y-66438095D01*
X207583390Y-66438095D02*
X208154819Y-67009523D01*
X208154819Y-67009523D02*
X208154819Y-66390476D01*
X207154819Y-66057142D02*
X207154819Y-65438095D01*
X207154819Y-65438095D02*
X207535771Y-65771428D01*
X207535771Y-65771428D02*
X207535771Y-65628571D01*
X207535771Y-65628571D02*
X207583390Y-65533333D01*
X207583390Y-65533333D02*
X207631009Y-65485714D01*
X207631009Y-65485714D02*
X207726247Y-65438095D01*
X207726247Y-65438095D02*
X207964342Y-65438095D01*
X207964342Y-65438095D02*
X208059580Y-65485714D01*
X208059580Y-65485714D02*
X208107200Y-65533333D01*
X208107200Y-65533333D02*
X208154819Y-65628571D01*
X208154819Y-65628571D02*
X208154819Y-65914285D01*
X208154819Y-65914285D02*
X208107200Y-66009523D01*
X208107200Y-66009523D02*
X208059580Y-66057142D01*
X203154819Y-94733333D02*
X203869104Y-94733333D01*
X203869104Y-94733333D02*
X204011961Y-94780952D01*
X204011961Y-94780952D02*
X204107200Y-94876190D01*
X204107200Y-94876190D02*
X204154819Y-95019047D01*
X204154819Y-95019047D02*
X204154819Y-95114285D01*
X203154819Y-94352380D02*
X203154819Y-93733333D01*
X203154819Y-93733333D02*
X203535771Y-94066666D01*
X203535771Y-94066666D02*
X203535771Y-93923809D01*
X203535771Y-93923809D02*
X203583390Y-93828571D01*
X203583390Y-93828571D02*
X203631009Y-93780952D01*
X203631009Y-93780952D02*
X203726247Y-93733333D01*
X203726247Y-93733333D02*
X203964342Y-93733333D01*
X203964342Y-93733333D02*
X204059580Y-93780952D01*
X204059580Y-93780952D02*
X204107200Y-93828571D01*
X204107200Y-93828571D02*
X204154819Y-93923809D01*
X204154819Y-93923809D02*
X204154819Y-94209523D01*
X204154819Y-94209523D02*
X204107200Y-94304761D01*
X204107200Y-94304761D02*
X204059580Y-94352380D01*
X188733333Y-84459580D02*
X188685714Y-84507200D01*
X188685714Y-84507200D02*
X188542857Y-84554819D01*
X188542857Y-84554819D02*
X188447619Y-84554819D01*
X188447619Y-84554819D02*
X188304762Y-84507200D01*
X188304762Y-84507200D02*
X188209524Y-84411961D01*
X188209524Y-84411961D02*
X188161905Y-84316723D01*
X188161905Y-84316723D02*
X188114286Y-84126247D01*
X188114286Y-84126247D02*
X188114286Y-83983390D01*
X188114286Y-83983390D02*
X188161905Y-83792914D01*
X188161905Y-83792914D02*
X188209524Y-83697676D01*
X188209524Y-83697676D02*
X188304762Y-83602438D01*
X188304762Y-83602438D02*
X188447619Y-83554819D01*
X188447619Y-83554819D02*
X188542857Y-83554819D01*
X188542857Y-83554819D02*
X188685714Y-83602438D01*
X188685714Y-83602438D02*
X188733333Y-83650057D01*
X189638095Y-83554819D02*
X189161905Y-83554819D01*
X189161905Y-83554819D02*
X189114286Y-84031009D01*
X189114286Y-84031009D02*
X189161905Y-83983390D01*
X189161905Y-83983390D02*
X189257143Y-83935771D01*
X189257143Y-83935771D02*
X189495238Y-83935771D01*
X189495238Y-83935771D02*
X189590476Y-83983390D01*
X189590476Y-83983390D02*
X189638095Y-84031009D01*
X189638095Y-84031009D02*
X189685714Y-84126247D01*
X189685714Y-84126247D02*
X189685714Y-84364342D01*
X189685714Y-84364342D02*
X189638095Y-84459580D01*
X189638095Y-84459580D02*
X189590476Y-84507200D01*
X189590476Y-84507200D02*
X189495238Y-84554819D01*
X189495238Y-84554819D02*
X189257143Y-84554819D01*
X189257143Y-84554819D02*
X189161905Y-84507200D01*
X189161905Y-84507200D02*
X189114286Y-84459580D01*
X196104761Y-68850057D02*
X196009523Y-68802438D01*
X196009523Y-68802438D02*
X195914285Y-68707200D01*
X195914285Y-68707200D02*
X195771428Y-68564342D01*
X195771428Y-68564342D02*
X195676190Y-68516723D01*
X195676190Y-68516723D02*
X195580952Y-68516723D01*
X195628571Y-68754819D02*
X195533333Y-68707200D01*
X195533333Y-68707200D02*
X195438095Y-68611961D01*
X195438095Y-68611961D02*
X195390476Y-68421485D01*
X195390476Y-68421485D02*
X195390476Y-68088152D01*
X195390476Y-68088152D02*
X195438095Y-67897676D01*
X195438095Y-67897676D02*
X195533333Y-67802438D01*
X195533333Y-67802438D02*
X195628571Y-67754819D01*
X195628571Y-67754819D02*
X195819047Y-67754819D01*
X195819047Y-67754819D02*
X195914285Y-67802438D01*
X195914285Y-67802438D02*
X196009523Y-67897676D01*
X196009523Y-67897676D02*
X196057142Y-68088152D01*
X196057142Y-68088152D02*
X196057142Y-68421485D01*
X196057142Y-68421485D02*
X196009523Y-68611961D01*
X196009523Y-68611961D02*
X195914285Y-68707200D01*
X195914285Y-68707200D02*
X195819047Y-68754819D01*
X195819047Y-68754819D02*
X195628571Y-68754819D01*
X197009523Y-68754819D02*
X196438095Y-68754819D01*
X196723809Y-68754819D02*
X196723809Y-67754819D01*
X196723809Y-67754819D02*
X196628571Y-67897676D01*
X196628571Y-67897676D02*
X196533333Y-67992914D01*
X196533333Y-67992914D02*
X196438095Y-68040533D01*
X169254819Y-67342857D02*
X168778628Y-67676190D01*
X169254819Y-67914285D02*
X168254819Y-67914285D01*
X168254819Y-67914285D02*
X168254819Y-67533333D01*
X168254819Y-67533333D02*
X168302438Y-67438095D01*
X168302438Y-67438095D02*
X168350057Y-67390476D01*
X168350057Y-67390476D02*
X168445295Y-67342857D01*
X168445295Y-67342857D02*
X168588152Y-67342857D01*
X168588152Y-67342857D02*
X168683390Y-67390476D01*
X168683390Y-67390476D02*
X168731009Y-67438095D01*
X168731009Y-67438095D02*
X168778628Y-67533333D01*
X168778628Y-67533333D02*
X168778628Y-67914285D01*
X169254819Y-66390476D02*
X169254819Y-66961904D01*
X169254819Y-66676190D02*
X168254819Y-66676190D01*
X168254819Y-66676190D02*
X168397676Y-66771428D01*
X168397676Y-66771428D02*
X168492914Y-66866666D01*
X168492914Y-66866666D02*
X168540533Y-66961904D01*
X168254819Y-66057142D02*
X168254819Y-65390476D01*
X168254819Y-65390476D02*
X169254819Y-65819047D01*
X196134819Y-66166666D02*
X195658628Y-66499999D01*
X196134819Y-66738094D02*
X195134819Y-66738094D01*
X195134819Y-66738094D02*
X195134819Y-66357142D01*
X195134819Y-66357142D02*
X195182438Y-66261904D01*
X195182438Y-66261904D02*
X195230057Y-66214285D01*
X195230057Y-66214285D02*
X195325295Y-66166666D01*
X195325295Y-66166666D02*
X195468152Y-66166666D01*
X195468152Y-66166666D02*
X195563390Y-66214285D01*
X195563390Y-66214285D02*
X195611009Y-66261904D01*
X195611009Y-66261904D02*
X195658628Y-66357142D01*
X195658628Y-66357142D02*
X195658628Y-66738094D01*
X195134819Y-65833332D02*
X195134819Y-65214285D01*
X195134819Y-65214285D02*
X195515771Y-65547618D01*
X195515771Y-65547618D02*
X195515771Y-65404761D01*
X195515771Y-65404761D02*
X195563390Y-65309523D01*
X195563390Y-65309523D02*
X195611009Y-65261904D01*
X195611009Y-65261904D02*
X195706247Y-65214285D01*
X195706247Y-65214285D02*
X195944342Y-65214285D01*
X195944342Y-65214285D02*
X196039580Y-65261904D01*
X196039580Y-65261904D02*
X196087200Y-65309523D01*
X196087200Y-65309523D02*
X196134819Y-65404761D01*
X196134819Y-65404761D02*
X196134819Y-65690475D01*
X196134819Y-65690475D02*
X196087200Y-65785713D01*
X196087200Y-65785713D02*
X196039580Y-65833332D01*
X194357142Y-75054819D02*
X194023809Y-74578628D01*
X193785714Y-75054819D02*
X193785714Y-74054819D01*
X193785714Y-74054819D02*
X194166666Y-74054819D01*
X194166666Y-74054819D02*
X194261904Y-74102438D01*
X194261904Y-74102438D02*
X194309523Y-74150057D01*
X194309523Y-74150057D02*
X194357142Y-74245295D01*
X194357142Y-74245295D02*
X194357142Y-74388152D01*
X194357142Y-74388152D02*
X194309523Y-74483390D01*
X194309523Y-74483390D02*
X194261904Y-74531009D01*
X194261904Y-74531009D02*
X194166666Y-74578628D01*
X194166666Y-74578628D02*
X193785714Y-74578628D01*
X194738095Y-74150057D02*
X194785714Y-74102438D01*
X194785714Y-74102438D02*
X194880952Y-74054819D01*
X194880952Y-74054819D02*
X195119047Y-74054819D01*
X195119047Y-74054819D02*
X195214285Y-74102438D01*
X195214285Y-74102438D02*
X195261904Y-74150057D01*
X195261904Y-74150057D02*
X195309523Y-74245295D01*
X195309523Y-74245295D02*
X195309523Y-74340533D01*
X195309523Y-74340533D02*
X195261904Y-74483390D01*
X195261904Y-74483390D02*
X194690476Y-75054819D01*
X194690476Y-75054819D02*
X195309523Y-75054819D01*
X196166666Y-74054819D02*
X195976190Y-74054819D01*
X195976190Y-74054819D02*
X195880952Y-74102438D01*
X195880952Y-74102438D02*
X195833333Y-74150057D01*
X195833333Y-74150057D02*
X195738095Y-74292914D01*
X195738095Y-74292914D02*
X195690476Y-74483390D01*
X195690476Y-74483390D02*
X195690476Y-74864342D01*
X195690476Y-74864342D02*
X195738095Y-74959580D01*
X195738095Y-74959580D02*
X195785714Y-75007200D01*
X195785714Y-75007200D02*
X195880952Y-75054819D01*
X195880952Y-75054819D02*
X196071428Y-75054819D01*
X196071428Y-75054819D02*
X196166666Y-75007200D01*
X196166666Y-75007200D02*
X196214285Y-74959580D01*
X196214285Y-74959580D02*
X196261904Y-74864342D01*
X196261904Y-74864342D02*
X196261904Y-74626247D01*
X196261904Y-74626247D02*
X196214285Y-74531009D01*
X196214285Y-74531009D02*
X196166666Y-74483390D01*
X196166666Y-74483390D02*
X196071428Y-74435771D01*
X196071428Y-74435771D02*
X195880952Y-74435771D01*
X195880952Y-74435771D02*
X195785714Y-74483390D01*
X195785714Y-74483390D02*
X195738095Y-74531009D01*
X195738095Y-74531009D02*
X195690476Y-74626247D01*
X208104819Y-65114285D02*
X207104819Y-65114285D01*
X207104819Y-65114285D02*
X207104819Y-64876190D01*
X207104819Y-64876190D02*
X207152438Y-64733333D01*
X207152438Y-64733333D02*
X207247676Y-64638095D01*
X207247676Y-64638095D02*
X207342914Y-64590476D01*
X207342914Y-64590476D02*
X207533390Y-64542857D01*
X207533390Y-64542857D02*
X207676247Y-64542857D01*
X207676247Y-64542857D02*
X207866723Y-64590476D01*
X207866723Y-64590476D02*
X207961961Y-64638095D01*
X207961961Y-64638095D02*
X208057200Y-64733333D01*
X208057200Y-64733333D02*
X208104819Y-64876190D01*
X208104819Y-64876190D02*
X208104819Y-65114285D01*
X208104819Y-63590476D02*
X208104819Y-64161904D01*
X208104819Y-63876190D02*
X207104819Y-63876190D01*
X207104819Y-63876190D02*
X207247676Y-63971428D01*
X207247676Y-63971428D02*
X207342914Y-64066666D01*
X207342914Y-64066666D02*
X207390533Y-64161904D01*
X207104819Y-63257142D02*
X207104819Y-62590476D01*
X207104819Y-62590476D02*
X208104819Y-63019047D01*
X199634819Y-66166666D02*
X199158628Y-66499999D01*
X199634819Y-66738094D02*
X198634819Y-66738094D01*
X198634819Y-66738094D02*
X198634819Y-66357142D01*
X198634819Y-66357142D02*
X198682438Y-66261904D01*
X198682438Y-66261904D02*
X198730057Y-66214285D01*
X198730057Y-66214285D02*
X198825295Y-66166666D01*
X198825295Y-66166666D02*
X198968152Y-66166666D01*
X198968152Y-66166666D02*
X199063390Y-66214285D01*
X199063390Y-66214285D02*
X199111009Y-66261904D01*
X199111009Y-66261904D02*
X199158628Y-66357142D01*
X199158628Y-66357142D02*
X199158628Y-66738094D01*
X198730057Y-65785713D02*
X198682438Y-65738094D01*
X198682438Y-65738094D02*
X198634819Y-65642856D01*
X198634819Y-65642856D02*
X198634819Y-65404761D01*
X198634819Y-65404761D02*
X198682438Y-65309523D01*
X198682438Y-65309523D02*
X198730057Y-65261904D01*
X198730057Y-65261904D02*
X198825295Y-65214285D01*
X198825295Y-65214285D02*
X198920533Y-65214285D01*
X198920533Y-65214285D02*
X199063390Y-65261904D01*
X199063390Y-65261904D02*
X199634819Y-65833332D01*
X199634819Y-65833332D02*
X199634819Y-65214285D01*
X189134819Y-66842857D02*
X188658628Y-67176190D01*
X189134819Y-67414285D02*
X188134819Y-67414285D01*
X188134819Y-67414285D02*
X188134819Y-67033333D01*
X188134819Y-67033333D02*
X188182438Y-66938095D01*
X188182438Y-66938095D02*
X188230057Y-66890476D01*
X188230057Y-66890476D02*
X188325295Y-66842857D01*
X188325295Y-66842857D02*
X188468152Y-66842857D01*
X188468152Y-66842857D02*
X188563390Y-66890476D01*
X188563390Y-66890476D02*
X188611009Y-66938095D01*
X188611009Y-66938095D02*
X188658628Y-67033333D01*
X188658628Y-67033333D02*
X188658628Y-67414285D01*
X189134819Y-65890476D02*
X189134819Y-66461904D01*
X189134819Y-66176190D02*
X188134819Y-66176190D01*
X188134819Y-66176190D02*
X188277676Y-66271428D01*
X188277676Y-66271428D02*
X188372914Y-66366666D01*
X188372914Y-66366666D02*
X188420533Y-66461904D01*
X188134819Y-65033333D02*
X188134819Y-65223809D01*
X188134819Y-65223809D02*
X188182438Y-65319047D01*
X188182438Y-65319047D02*
X188230057Y-65366666D01*
X188230057Y-65366666D02*
X188372914Y-65461904D01*
X188372914Y-65461904D02*
X188563390Y-65509523D01*
X188563390Y-65509523D02*
X188944342Y-65509523D01*
X188944342Y-65509523D02*
X189039580Y-65461904D01*
X189039580Y-65461904D02*
X189087200Y-65414285D01*
X189087200Y-65414285D02*
X189134819Y-65319047D01*
X189134819Y-65319047D02*
X189134819Y-65128571D01*
X189134819Y-65128571D02*
X189087200Y-65033333D01*
X189087200Y-65033333D02*
X189039580Y-64985714D01*
X189039580Y-64985714D02*
X188944342Y-64938095D01*
X188944342Y-64938095D02*
X188706247Y-64938095D01*
X188706247Y-64938095D02*
X188611009Y-64985714D01*
X188611009Y-64985714D02*
X188563390Y-65033333D01*
X188563390Y-65033333D02*
X188515771Y-65128571D01*
X188515771Y-65128571D02*
X188515771Y-65319047D01*
X188515771Y-65319047D02*
X188563390Y-65414285D01*
X188563390Y-65414285D02*
X188611009Y-65461904D01*
X188611009Y-65461904D02*
X188706247Y-65509523D01*
X191042261Y-96000057D02*
X190947023Y-95952438D01*
X190947023Y-95952438D02*
X190851785Y-95857200D01*
X190851785Y-95857200D02*
X190708928Y-95714342D01*
X190708928Y-95714342D02*
X190613690Y-95666723D01*
X190613690Y-95666723D02*
X190518452Y-95666723D01*
X190566071Y-95904819D02*
X190470833Y-95857200D01*
X190470833Y-95857200D02*
X190375595Y-95761961D01*
X190375595Y-95761961D02*
X190327976Y-95571485D01*
X190327976Y-95571485D02*
X190327976Y-95238152D01*
X190327976Y-95238152D02*
X190375595Y-95047676D01*
X190375595Y-95047676D02*
X190470833Y-94952438D01*
X190470833Y-94952438D02*
X190566071Y-94904819D01*
X190566071Y-94904819D02*
X190756547Y-94904819D01*
X190756547Y-94904819D02*
X190851785Y-94952438D01*
X190851785Y-94952438D02*
X190947023Y-95047676D01*
X190947023Y-95047676D02*
X190994642Y-95238152D01*
X190994642Y-95238152D02*
X190994642Y-95571485D01*
X190994642Y-95571485D02*
X190947023Y-95761961D01*
X190947023Y-95761961D02*
X190851785Y-95857200D01*
X190851785Y-95857200D02*
X190756547Y-95904819D01*
X190756547Y-95904819D02*
X190566071Y-95904819D01*
X191851785Y-95238152D02*
X191851785Y-95904819D01*
X191613690Y-94857200D02*
X191375595Y-95571485D01*
X191375595Y-95571485D02*
X191994642Y-95571485D01*
X185407142Y-76189819D02*
X185073809Y-75713628D01*
X184835714Y-76189819D02*
X184835714Y-75189819D01*
X184835714Y-75189819D02*
X185216666Y-75189819D01*
X185216666Y-75189819D02*
X185311904Y-75237438D01*
X185311904Y-75237438D02*
X185359523Y-75285057D01*
X185359523Y-75285057D02*
X185407142Y-75380295D01*
X185407142Y-75380295D02*
X185407142Y-75523152D01*
X185407142Y-75523152D02*
X185359523Y-75618390D01*
X185359523Y-75618390D02*
X185311904Y-75666009D01*
X185311904Y-75666009D02*
X185216666Y-75713628D01*
X185216666Y-75713628D02*
X184835714Y-75713628D01*
X185788095Y-75285057D02*
X185835714Y-75237438D01*
X185835714Y-75237438D02*
X185930952Y-75189819D01*
X185930952Y-75189819D02*
X186169047Y-75189819D01*
X186169047Y-75189819D02*
X186264285Y-75237438D01*
X186264285Y-75237438D02*
X186311904Y-75285057D01*
X186311904Y-75285057D02*
X186359523Y-75380295D01*
X186359523Y-75380295D02*
X186359523Y-75475533D01*
X186359523Y-75475533D02*
X186311904Y-75618390D01*
X186311904Y-75618390D02*
X185740476Y-76189819D01*
X185740476Y-76189819D02*
X186359523Y-76189819D01*
X187311904Y-76189819D02*
X186740476Y-76189819D01*
X187026190Y-76189819D02*
X187026190Y-75189819D01*
X187026190Y-75189819D02*
X186930952Y-75332676D01*
X186930952Y-75332676D02*
X186835714Y-75427914D01*
X186835714Y-75427914D02*
X186740476Y-75475533D01*
X201066666Y-64254819D02*
X201066666Y-64969104D01*
X201066666Y-64969104D02*
X201019047Y-65111961D01*
X201019047Y-65111961D02*
X200923809Y-65207200D01*
X200923809Y-65207200D02*
X200780952Y-65254819D01*
X200780952Y-65254819D02*
X200685714Y-65254819D01*
X202019047Y-64254819D02*
X201542857Y-64254819D01*
X201542857Y-64254819D02*
X201495238Y-64731009D01*
X201495238Y-64731009D02*
X201542857Y-64683390D01*
X201542857Y-64683390D02*
X201638095Y-64635771D01*
X201638095Y-64635771D02*
X201876190Y-64635771D01*
X201876190Y-64635771D02*
X201971428Y-64683390D01*
X201971428Y-64683390D02*
X202019047Y-64731009D01*
X202019047Y-64731009D02*
X202066666Y-64826247D01*
X202066666Y-64826247D02*
X202066666Y-65064342D01*
X202066666Y-65064342D02*
X202019047Y-65159580D01*
X202019047Y-65159580D02*
X201971428Y-65207200D01*
X201971428Y-65207200D02*
X201876190Y-65254819D01*
X201876190Y-65254819D02*
X201638095Y-65254819D01*
X201638095Y-65254819D02*
X201542857Y-65207200D01*
X201542857Y-65207200D02*
X201495238Y-65159580D01*
X154083333Y-67289580D02*
X154035714Y-67337200D01*
X154035714Y-67337200D02*
X153892857Y-67384819D01*
X153892857Y-67384819D02*
X153797619Y-67384819D01*
X153797619Y-67384819D02*
X153654762Y-67337200D01*
X153654762Y-67337200D02*
X153559524Y-67241961D01*
X153559524Y-67241961D02*
X153511905Y-67146723D01*
X153511905Y-67146723D02*
X153464286Y-66956247D01*
X153464286Y-66956247D02*
X153464286Y-66813390D01*
X153464286Y-66813390D02*
X153511905Y-66622914D01*
X153511905Y-66622914D02*
X153559524Y-66527676D01*
X153559524Y-66527676D02*
X153654762Y-66432438D01*
X153654762Y-66432438D02*
X153797619Y-66384819D01*
X153797619Y-66384819D02*
X153892857Y-66384819D01*
X153892857Y-66384819D02*
X154035714Y-66432438D01*
X154035714Y-66432438D02*
X154083333Y-66480057D01*
X155035714Y-67384819D02*
X154464286Y-67384819D01*
X154750000Y-67384819D02*
X154750000Y-66384819D01*
X154750000Y-66384819D02*
X154654762Y-66527676D01*
X154654762Y-66527676D02*
X154559524Y-66622914D01*
X154559524Y-66622914D02*
X154464286Y-66670533D01*
X181657142Y-76189819D02*
X181323809Y-75713628D01*
X181085714Y-76189819D02*
X181085714Y-75189819D01*
X181085714Y-75189819D02*
X181466666Y-75189819D01*
X181466666Y-75189819D02*
X181561904Y-75237438D01*
X181561904Y-75237438D02*
X181609523Y-75285057D01*
X181609523Y-75285057D02*
X181657142Y-75380295D01*
X181657142Y-75380295D02*
X181657142Y-75523152D01*
X181657142Y-75523152D02*
X181609523Y-75618390D01*
X181609523Y-75618390D02*
X181561904Y-75666009D01*
X181561904Y-75666009D02*
X181466666Y-75713628D01*
X181466666Y-75713628D02*
X181085714Y-75713628D01*
X182038095Y-75285057D02*
X182085714Y-75237438D01*
X182085714Y-75237438D02*
X182180952Y-75189819D01*
X182180952Y-75189819D02*
X182419047Y-75189819D01*
X182419047Y-75189819D02*
X182514285Y-75237438D01*
X182514285Y-75237438D02*
X182561904Y-75285057D01*
X182561904Y-75285057D02*
X182609523Y-75380295D01*
X182609523Y-75380295D02*
X182609523Y-75475533D01*
X182609523Y-75475533D02*
X182561904Y-75618390D01*
X182561904Y-75618390D02*
X181990476Y-76189819D01*
X181990476Y-76189819D02*
X182609523Y-76189819D01*
X183228571Y-75189819D02*
X183323809Y-75189819D01*
X183323809Y-75189819D02*
X183419047Y-75237438D01*
X183419047Y-75237438D02*
X183466666Y-75285057D01*
X183466666Y-75285057D02*
X183514285Y-75380295D01*
X183514285Y-75380295D02*
X183561904Y-75570771D01*
X183561904Y-75570771D02*
X183561904Y-75808866D01*
X183561904Y-75808866D02*
X183514285Y-75999342D01*
X183514285Y-75999342D02*
X183466666Y-76094580D01*
X183466666Y-76094580D02*
X183419047Y-76142200D01*
X183419047Y-76142200D02*
X183323809Y-76189819D01*
X183323809Y-76189819D02*
X183228571Y-76189819D01*
X183228571Y-76189819D02*
X183133333Y-76142200D01*
X183133333Y-76142200D02*
X183085714Y-76094580D01*
X183085714Y-76094580D02*
X183038095Y-75999342D01*
X183038095Y-75999342D02*
X182990476Y-75808866D01*
X182990476Y-75808866D02*
X182990476Y-75570771D01*
X182990476Y-75570771D02*
X183038095Y-75380295D01*
X183038095Y-75380295D02*
X183085714Y-75285057D01*
X183085714Y-75285057D02*
X183133333Y-75237438D01*
X183133333Y-75237438D02*
X183228571Y-75189819D01*
X198761905Y-103954819D02*
X198761905Y-102954819D01*
X198761905Y-102954819D02*
X199000000Y-102954819D01*
X199000000Y-102954819D02*
X199142857Y-103002438D01*
X199142857Y-103002438D02*
X199238095Y-103097676D01*
X199238095Y-103097676D02*
X199285714Y-103192914D01*
X199285714Y-103192914D02*
X199333333Y-103383390D01*
X199333333Y-103383390D02*
X199333333Y-103526247D01*
X199333333Y-103526247D02*
X199285714Y-103716723D01*
X199285714Y-103716723D02*
X199238095Y-103811961D01*
X199238095Y-103811961D02*
X199142857Y-103907200D01*
X199142857Y-103907200D02*
X199000000Y-103954819D01*
X199000000Y-103954819D02*
X198761905Y-103954819D01*
X199809524Y-103954819D02*
X200000000Y-103954819D01*
X200000000Y-103954819D02*
X200095238Y-103907200D01*
X200095238Y-103907200D02*
X200142857Y-103859580D01*
X200142857Y-103859580D02*
X200238095Y-103716723D01*
X200238095Y-103716723D02*
X200285714Y-103526247D01*
X200285714Y-103526247D02*
X200285714Y-103145295D01*
X200285714Y-103145295D02*
X200238095Y-103050057D01*
X200238095Y-103050057D02*
X200190476Y-103002438D01*
X200190476Y-103002438D02*
X200095238Y-102954819D01*
X200095238Y-102954819D02*
X199904762Y-102954819D01*
X199904762Y-102954819D02*
X199809524Y-103002438D01*
X199809524Y-103002438D02*
X199761905Y-103050057D01*
X199761905Y-103050057D02*
X199714286Y-103145295D01*
X199714286Y-103145295D02*
X199714286Y-103383390D01*
X199714286Y-103383390D02*
X199761905Y-103478628D01*
X199761905Y-103478628D02*
X199809524Y-103526247D01*
X199809524Y-103526247D02*
X199904762Y-103573866D01*
X199904762Y-103573866D02*
X200095238Y-103573866D01*
X200095238Y-103573866D02*
X200190476Y-103526247D01*
X200190476Y-103526247D02*
X200238095Y-103478628D01*
X200238095Y-103478628D02*
X200285714Y-103383390D01*
X192017261Y-76100057D02*
X191922023Y-76052438D01*
X191922023Y-76052438D02*
X191826785Y-75957200D01*
X191826785Y-75957200D02*
X191683928Y-75814342D01*
X191683928Y-75814342D02*
X191588690Y-75766723D01*
X191588690Y-75766723D02*
X191493452Y-75766723D01*
X191541071Y-76004819D02*
X191445833Y-75957200D01*
X191445833Y-75957200D02*
X191350595Y-75861961D01*
X191350595Y-75861961D02*
X191302976Y-75671485D01*
X191302976Y-75671485D02*
X191302976Y-75338152D01*
X191302976Y-75338152D02*
X191350595Y-75147676D01*
X191350595Y-75147676D02*
X191445833Y-75052438D01*
X191445833Y-75052438D02*
X191541071Y-75004819D01*
X191541071Y-75004819D02*
X191731547Y-75004819D01*
X191731547Y-75004819D02*
X191826785Y-75052438D01*
X191826785Y-75052438D02*
X191922023Y-75147676D01*
X191922023Y-75147676D02*
X191969642Y-75338152D01*
X191969642Y-75338152D02*
X191969642Y-75671485D01*
X191969642Y-75671485D02*
X191922023Y-75861961D01*
X191922023Y-75861961D02*
X191826785Y-75957200D01*
X191826785Y-75957200D02*
X191731547Y-76004819D01*
X191731547Y-76004819D02*
X191541071Y-76004819D01*
X192541071Y-75433390D02*
X192445833Y-75385771D01*
X192445833Y-75385771D02*
X192398214Y-75338152D01*
X192398214Y-75338152D02*
X192350595Y-75242914D01*
X192350595Y-75242914D02*
X192350595Y-75195295D01*
X192350595Y-75195295D02*
X192398214Y-75100057D01*
X192398214Y-75100057D02*
X192445833Y-75052438D01*
X192445833Y-75052438D02*
X192541071Y-75004819D01*
X192541071Y-75004819D02*
X192731547Y-75004819D01*
X192731547Y-75004819D02*
X192826785Y-75052438D01*
X192826785Y-75052438D02*
X192874404Y-75100057D01*
X192874404Y-75100057D02*
X192922023Y-75195295D01*
X192922023Y-75195295D02*
X192922023Y-75242914D01*
X192922023Y-75242914D02*
X192874404Y-75338152D01*
X192874404Y-75338152D02*
X192826785Y-75385771D01*
X192826785Y-75385771D02*
X192731547Y-75433390D01*
X192731547Y-75433390D02*
X192541071Y-75433390D01*
X192541071Y-75433390D02*
X192445833Y-75481009D01*
X192445833Y-75481009D02*
X192398214Y-75528628D01*
X192398214Y-75528628D02*
X192350595Y-75623866D01*
X192350595Y-75623866D02*
X192350595Y-75814342D01*
X192350595Y-75814342D02*
X192398214Y-75909580D01*
X192398214Y-75909580D02*
X192445833Y-75957200D01*
X192445833Y-75957200D02*
X192541071Y-76004819D01*
X192541071Y-76004819D02*
X192731547Y-76004819D01*
X192731547Y-76004819D02*
X192826785Y-75957200D01*
X192826785Y-75957200D02*
X192874404Y-75909580D01*
X192874404Y-75909580D02*
X192922023Y-75814342D01*
X192922023Y-75814342D02*
X192922023Y-75623866D01*
X192922023Y-75623866D02*
X192874404Y-75528628D01*
X192874404Y-75528628D02*
X192826785Y-75481009D01*
X192826785Y-75481009D02*
X192731547Y-75433390D01*
X185407142Y-79939819D02*
X185073809Y-79463628D01*
X184835714Y-79939819D02*
X184835714Y-78939819D01*
X184835714Y-78939819D02*
X185216666Y-78939819D01*
X185216666Y-78939819D02*
X185311904Y-78987438D01*
X185311904Y-78987438D02*
X185359523Y-79035057D01*
X185359523Y-79035057D02*
X185407142Y-79130295D01*
X185407142Y-79130295D02*
X185407142Y-79273152D01*
X185407142Y-79273152D02*
X185359523Y-79368390D01*
X185359523Y-79368390D02*
X185311904Y-79416009D01*
X185311904Y-79416009D02*
X185216666Y-79463628D01*
X185216666Y-79463628D02*
X184835714Y-79463628D01*
X185788095Y-79035057D02*
X185835714Y-78987438D01*
X185835714Y-78987438D02*
X185930952Y-78939819D01*
X185930952Y-78939819D02*
X186169047Y-78939819D01*
X186169047Y-78939819D02*
X186264285Y-78987438D01*
X186264285Y-78987438D02*
X186311904Y-79035057D01*
X186311904Y-79035057D02*
X186359523Y-79130295D01*
X186359523Y-79130295D02*
X186359523Y-79225533D01*
X186359523Y-79225533D02*
X186311904Y-79368390D01*
X186311904Y-79368390D02*
X185740476Y-79939819D01*
X185740476Y-79939819D02*
X186359523Y-79939819D01*
X186740476Y-79035057D02*
X186788095Y-78987438D01*
X186788095Y-78987438D02*
X186883333Y-78939819D01*
X186883333Y-78939819D02*
X187121428Y-78939819D01*
X187121428Y-78939819D02*
X187216666Y-78987438D01*
X187216666Y-78987438D02*
X187264285Y-79035057D01*
X187264285Y-79035057D02*
X187311904Y-79130295D01*
X187311904Y-79130295D02*
X187311904Y-79225533D01*
X187311904Y-79225533D02*
X187264285Y-79368390D01*
X187264285Y-79368390D02*
X186692857Y-79939819D01*
X186692857Y-79939819D02*
X187311904Y-79939819D01*
X174966667Y-66107200D02*
X175109524Y-66154819D01*
X175109524Y-66154819D02*
X175347619Y-66154819D01*
X175347619Y-66154819D02*
X175442857Y-66107200D01*
X175442857Y-66107200D02*
X175490476Y-66059580D01*
X175490476Y-66059580D02*
X175538095Y-65964342D01*
X175538095Y-65964342D02*
X175538095Y-65869104D01*
X175538095Y-65869104D02*
X175490476Y-65773866D01*
X175490476Y-65773866D02*
X175442857Y-65726247D01*
X175442857Y-65726247D02*
X175347619Y-65678628D01*
X175347619Y-65678628D02*
X175157143Y-65631009D01*
X175157143Y-65631009D02*
X175061905Y-65583390D01*
X175061905Y-65583390D02*
X175014286Y-65535771D01*
X175014286Y-65535771D02*
X174966667Y-65440533D01*
X174966667Y-65440533D02*
X174966667Y-65345295D01*
X174966667Y-65345295D02*
X175014286Y-65250057D01*
X175014286Y-65250057D02*
X175061905Y-65202438D01*
X175061905Y-65202438D02*
X175157143Y-65154819D01*
X175157143Y-65154819D02*
X175395238Y-65154819D01*
X175395238Y-65154819D02*
X175538095Y-65202438D01*
X175871429Y-65154819D02*
X176109524Y-66154819D01*
X176109524Y-66154819D02*
X176300000Y-65440533D01*
X176300000Y-65440533D02*
X176490476Y-66154819D01*
X176490476Y-66154819D02*
X176728572Y-65154819D01*
X177633333Y-66154819D02*
X177061905Y-66154819D01*
X177347619Y-66154819D02*
X177347619Y-65154819D01*
X177347619Y-65154819D02*
X177252381Y-65297676D01*
X177252381Y-65297676D02*
X177157143Y-65392914D01*
X177157143Y-65392914D02*
X177061905Y-65440533D01*
D11*
X146666666Y-70257419D02*
X146666666Y-70971704D01*
X146666666Y-70971704D02*
X146619047Y-71114561D01*
X146619047Y-71114561D02*
X146523809Y-71209800D01*
X146523809Y-71209800D02*
X146380952Y-71257419D01*
X146380952Y-71257419D02*
X146285714Y-71257419D01*
X147571428Y-70257419D02*
X147380952Y-70257419D01*
X147380952Y-70257419D02*
X147285714Y-70305038D01*
X147285714Y-70305038D02*
X147238095Y-70352657D01*
X147238095Y-70352657D02*
X147142857Y-70495514D01*
X147142857Y-70495514D02*
X147095238Y-70685990D01*
X147095238Y-70685990D02*
X147095238Y-71066942D01*
X147095238Y-71066942D02*
X147142857Y-71162180D01*
X147142857Y-71162180D02*
X147190476Y-71209800D01*
X147190476Y-71209800D02*
X147285714Y-71257419D01*
X147285714Y-71257419D02*
X147476190Y-71257419D01*
X147476190Y-71257419D02*
X147571428Y-71209800D01*
X147571428Y-71209800D02*
X147619047Y-71162180D01*
X147619047Y-71162180D02*
X147666666Y-71066942D01*
X147666666Y-71066942D02*
X147666666Y-70828847D01*
X147666666Y-70828847D02*
X147619047Y-70733609D01*
X147619047Y-70733609D02*
X147571428Y-70685990D01*
X147571428Y-70685990D02*
X147476190Y-70638371D01*
X147476190Y-70638371D02*
X147285714Y-70638371D01*
X147285714Y-70638371D02*
X147190476Y-70685990D01*
X147190476Y-70685990D02*
X147142857Y-70733609D01*
X147142857Y-70733609D02*
X147095238Y-70828847D01*
D10*
X187333333Y-102954819D02*
X187000000Y-102478628D01*
X186761905Y-102954819D02*
X186761905Y-101954819D01*
X186761905Y-101954819D02*
X187142857Y-101954819D01*
X187142857Y-101954819D02*
X187238095Y-102002438D01*
X187238095Y-102002438D02*
X187285714Y-102050057D01*
X187285714Y-102050057D02*
X187333333Y-102145295D01*
X187333333Y-102145295D02*
X187333333Y-102288152D01*
X187333333Y-102288152D02*
X187285714Y-102383390D01*
X187285714Y-102383390D02*
X187238095Y-102431009D01*
X187238095Y-102431009D02*
X187142857Y-102478628D01*
X187142857Y-102478628D02*
X186761905Y-102478628D01*
X187809524Y-102954819D02*
X188000000Y-102954819D01*
X188000000Y-102954819D02*
X188095238Y-102907200D01*
X188095238Y-102907200D02*
X188142857Y-102859580D01*
X188142857Y-102859580D02*
X188238095Y-102716723D01*
X188238095Y-102716723D02*
X188285714Y-102526247D01*
X188285714Y-102526247D02*
X188285714Y-102145295D01*
X188285714Y-102145295D02*
X188238095Y-102050057D01*
X188238095Y-102050057D02*
X188190476Y-102002438D01*
X188190476Y-102002438D02*
X188095238Y-101954819D01*
X188095238Y-101954819D02*
X187904762Y-101954819D01*
X187904762Y-101954819D02*
X187809524Y-102002438D01*
X187809524Y-102002438D02*
X187761905Y-102050057D01*
X187761905Y-102050057D02*
X187714286Y-102145295D01*
X187714286Y-102145295D02*
X187714286Y-102383390D01*
X187714286Y-102383390D02*
X187761905Y-102478628D01*
X187761905Y-102478628D02*
X187809524Y-102526247D01*
X187809524Y-102526247D02*
X187904762Y-102573866D01*
X187904762Y-102573866D02*
X188095238Y-102573866D01*
X188095238Y-102573866D02*
X188190476Y-102526247D01*
X188190476Y-102526247D02*
X188238095Y-102478628D01*
X188238095Y-102478628D02*
X188285714Y-102383390D01*
X160885714Y-76354819D02*
X160885714Y-75354819D01*
X160885714Y-75354819D02*
X161123809Y-75354819D01*
X161123809Y-75354819D02*
X161266666Y-75402438D01*
X161266666Y-75402438D02*
X161361904Y-75497676D01*
X161361904Y-75497676D02*
X161409523Y-75592914D01*
X161409523Y-75592914D02*
X161457142Y-75783390D01*
X161457142Y-75783390D02*
X161457142Y-75926247D01*
X161457142Y-75926247D02*
X161409523Y-76116723D01*
X161409523Y-76116723D02*
X161361904Y-76211961D01*
X161361904Y-76211961D02*
X161266666Y-76307200D01*
X161266666Y-76307200D02*
X161123809Y-76354819D01*
X161123809Y-76354819D02*
X160885714Y-76354819D01*
X162409523Y-76354819D02*
X161838095Y-76354819D01*
X162123809Y-76354819D02*
X162123809Y-75354819D01*
X162123809Y-75354819D02*
X162028571Y-75497676D01*
X162028571Y-75497676D02*
X161933333Y-75592914D01*
X161933333Y-75592914D02*
X161838095Y-75640533D01*
X163266666Y-75354819D02*
X163076190Y-75354819D01*
X163076190Y-75354819D02*
X162980952Y-75402438D01*
X162980952Y-75402438D02*
X162933333Y-75450057D01*
X162933333Y-75450057D02*
X162838095Y-75592914D01*
X162838095Y-75592914D02*
X162790476Y-75783390D01*
X162790476Y-75783390D02*
X162790476Y-76164342D01*
X162790476Y-76164342D02*
X162838095Y-76259580D01*
X162838095Y-76259580D02*
X162885714Y-76307200D01*
X162885714Y-76307200D02*
X162980952Y-76354819D01*
X162980952Y-76354819D02*
X163171428Y-76354819D01*
X163171428Y-76354819D02*
X163266666Y-76307200D01*
X163266666Y-76307200D02*
X163314285Y-76259580D01*
X163314285Y-76259580D02*
X163361904Y-76164342D01*
X163361904Y-76164342D02*
X163361904Y-75926247D01*
X163361904Y-75926247D02*
X163314285Y-75831009D01*
X163314285Y-75831009D02*
X163266666Y-75783390D01*
X163266666Y-75783390D02*
X163171428Y-75735771D01*
X163171428Y-75735771D02*
X162980952Y-75735771D01*
X162980952Y-75735771D02*
X162885714Y-75783390D01*
X162885714Y-75783390D02*
X162838095Y-75831009D01*
X162838095Y-75831009D02*
X162790476Y-75926247D01*
X209904819Y-67342857D02*
X209428628Y-67676190D01*
X209904819Y-67914285D02*
X208904819Y-67914285D01*
X208904819Y-67914285D02*
X208904819Y-67533333D01*
X208904819Y-67533333D02*
X208952438Y-67438095D01*
X208952438Y-67438095D02*
X209000057Y-67390476D01*
X209000057Y-67390476D02*
X209095295Y-67342857D01*
X209095295Y-67342857D02*
X209238152Y-67342857D01*
X209238152Y-67342857D02*
X209333390Y-67390476D01*
X209333390Y-67390476D02*
X209381009Y-67438095D01*
X209381009Y-67438095D02*
X209428628Y-67533333D01*
X209428628Y-67533333D02*
X209428628Y-67914285D01*
X209904819Y-66390476D02*
X209904819Y-66961904D01*
X209904819Y-66676190D02*
X208904819Y-66676190D01*
X208904819Y-66676190D02*
X209047676Y-66771428D01*
X209047676Y-66771428D02*
X209142914Y-66866666D01*
X209142914Y-66866666D02*
X209190533Y-66961904D01*
X209904819Y-65438095D02*
X209904819Y-66009523D01*
X209904819Y-65723809D02*
X208904819Y-65723809D01*
X208904819Y-65723809D02*
X209047676Y-65819047D01*
X209047676Y-65819047D02*
X209142914Y-65914285D01*
X209142914Y-65914285D02*
X209190533Y-66009523D01*
X160933333Y-102554819D02*
X160600000Y-102078628D01*
X160361905Y-102554819D02*
X160361905Y-101554819D01*
X160361905Y-101554819D02*
X160742857Y-101554819D01*
X160742857Y-101554819D02*
X160838095Y-101602438D01*
X160838095Y-101602438D02*
X160885714Y-101650057D01*
X160885714Y-101650057D02*
X160933333Y-101745295D01*
X160933333Y-101745295D02*
X160933333Y-101888152D01*
X160933333Y-101888152D02*
X160885714Y-101983390D01*
X160885714Y-101983390D02*
X160838095Y-102031009D01*
X160838095Y-102031009D02*
X160742857Y-102078628D01*
X160742857Y-102078628D02*
X160361905Y-102078628D01*
X161885714Y-102554819D02*
X161314286Y-102554819D01*
X161600000Y-102554819D02*
X161600000Y-101554819D01*
X161600000Y-101554819D02*
X161504762Y-101697676D01*
X161504762Y-101697676D02*
X161409524Y-101792914D01*
X161409524Y-101792914D02*
X161314286Y-101840533D01*
X211654819Y-67342857D02*
X211178628Y-67676190D01*
X211654819Y-67914285D02*
X210654819Y-67914285D01*
X210654819Y-67914285D02*
X210654819Y-67533333D01*
X210654819Y-67533333D02*
X210702438Y-67438095D01*
X210702438Y-67438095D02*
X210750057Y-67390476D01*
X210750057Y-67390476D02*
X210845295Y-67342857D01*
X210845295Y-67342857D02*
X210988152Y-67342857D01*
X210988152Y-67342857D02*
X211083390Y-67390476D01*
X211083390Y-67390476D02*
X211131009Y-67438095D01*
X211131009Y-67438095D02*
X211178628Y-67533333D01*
X211178628Y-67533333D02*
X211178628Y-67914285D01*
X211654819Y-66390476D02*
X211654819Y-66961904D01*
X211654819Y-66676190D02*
X210654819Y-66676190D01*
X210654819Y-66676190D02*
X210797676Y-66771428D01*
X210797676Y-66771428D02*
X210892914Y-66866666D01*
X210892914Y-66866666D02*
X210940533Y-66961904D01*
X210654819Y-65771428D02*
X210654819Y-65676190D01*
X210654819Y-65676190D02*
X210702438Y-65580952D01*
X210702438Y-65580952D02*
X210750057Y-65533333D01*
X210750057Y-65533333D02*
X210845295Y-65485714D01*
X210845295Y-65485714D02*
X211035771Y-65438095D01*
X211035771Y-65438095D02*
X211273866Y-65438095D01*
X211273866Y-65438095D02*
X211464342Y-65485714D01*
X211464342Y-65485714D02*
X211559580Y-65533333D01*
X211559580Y-65533333D02*
X211607200Y-65580952D01*
X211607200Y-65580952D02*
X211654819Y-65676190D01*
X211654819Y-65676190D02*
X211654819Y-65771428D01*
X211654819Y-65771428D02*
X211607200Y-65866666D01*
X211607200Y-65866666D02*
X211559580Y-65914285D01*
X211559580Y-65914285D02*
X211464342Y-65961904D01*
X211464342Y-65961904D02*
X211273866Y-66009523D01*
X211273866Y-66009523D02*
X211035771Y-66009523D01*
X211035771Y-66009523D02*
X210845295Y-65961904D01*
X210845295Y-65961904D02*
X210750057Y-65914285D01*
X210750057Y-65914285D02*
X210702438Y-65866666D01*
X210702438Y-65866666D02*
X210654819Y-65771428D01*
X192634819Y-66842857D02*
X192158628Y-67176190D01*
X192634819Y-67414285D02*
X191634819Y-67414285D01*
X191634819Y-67414285D02*
X191634819Y-67033333D01*
X191634819Y-67033333D02*
X191682438Y-66938095D01*
X191682438Y-66938095D02*
X191730057Y-66890476D01*
X191730057Y-66890476D02*
X191825295Y-66842857D01*
X191825295Y-66842857D02*
X191968152Y-66842857D01*
X191968152Y-66842857D02*
X192063390Y-66890476D01*
X192063390Y-66890476D02*
X192111009Y-66938095D01*
X192111009Y-66938095D02*
X192158628Y-67033333D01*
X192158628Y-67033333D02*
X192158628Y-67414285D01*
X192634819Y-65890476D02*
X192634819Y-66461904D01*
X192634819Y-66176190D02*
X191634819Y-66176190D01*
X191634819Y-66176190D02*
X191777676Y-66271428D01*
X191777676Y-66271428D02*
X191872914Y-66366666D01*
X191872914Y-66366666D02*
X191920533Y-66461904D01*
X191634819Y-64985714D02*
X191634819Y-65461904D01*
X191634819Y-65461904D02*
X192111009Y-65509523D01*
X192111009Y-65509523D02*
X192063390Y-65461904D01*
X192063390Y-65461904D02*
X192015771Y-65366666D01*
X192015771Y-65366666D02*
X192015771Y-65128571D01*
X192015771Y-65128571D02*
X192063390Y-65033333D01*
X192063390Y-65033333D02*
X192111009Y-64985714D01*
X192111009Y-64985714D02*
X192206247Y-64938095D01*
X192206247Y-64938095D02*
X192444342Y-64938095D01*
X192444342Y-64938095D02*
X192539580Y-64985714D01*
X192539580Y-64985714D02*
X192587200Y-65033333D01*
X192587200Y-65033333D02*
X192634819Y-65128571D01*
X192634819Y-65128571D02*
X192634819Y-65366666D01*
X192634819Y-65366666D02*
X192587200Y-65461904D01*
X192587200Y-65461904D02*
X192539580Y-65509523D01*
X206354819Y-65114285D02*
X205354819Y-65114285D01*
X205354819Y-65114285D02*
X205354819Y-64876190D01*
X205354819Y-64876190D02*
X205402438Y-64733333D01*
X205402438Y-64733333D02*
X205497676Y-64638095D01*
X205497676Y-64638095D02*
X205592914Y-64590476D01*
X205592914Y-64590476D02*
X205783390Y-64542857D01*
X205783390Y-64542857D02*
X205926247Y-64542857D01*
X205926247Y-64542857D02*
X206116723Y-64590476D01*
X206116723Y-64590476D02*
X206211961Y-64638095D01*
X206211961Y-64638095D02*
X206307200Y-64733333D01*
X206307200Y-64733333D02*
X206354819Y-64876190D01*
X206354819Y-64876190D02*
X206354819Y-65114285D01*
X206354819Y-63590476D02*
X206354819Y-64161904D01*
X206354819Y-63876190D02*
X205354819Y-63876190D01*
X205354819Y-63876190D02*
X205497676Y-63971428D01*
X205497676Y-63971428D02*
X205592914Y-64066666D01*
X205592914Y-64066666D02*
X205640533Y-64161904D01*
X205783390Y-63019047D02*
X205735771Y-63114285D01*
X205735771Y-63114285D02*
X205688152Y-63161904D01*
X205688152Y-63161904D02*
X205592914Y-63209523D01*
X205592914Y-63209523D02*
X205545295Y-63209523D01*
X205545295Y-63209523D02*
X205450057Y-63161904D01*
X205450057Y-63161904D02*
X205402438Y-63114285D01*
X205402438Y-63114285D02*
X205354819Y-63019047D01*
X205354819Y-63019047D02*
X205354819Y-62828571D01*
X205354819Y-62828571D02*
X205402438Y-62733333D01*
X205402438Y-62733333D02*
X205450057Y-62685714D01*
X205450057Y-62685714D02*
X205545295Y-62638095D01*
X205545295Y-62638095D02*
X205592914Y-62638095D01*
X205592914Y-62638095D02*
X205688152Y-62685714D01*
X205688152Y-62685714D02*
X205735771Y-62733333D01*
X205735771Y-62733333D02*
X205783390Y-62828571D01*
X205783390Y-62828571D02*
X205783390Y-63019047D01*
X205783390Y-63019047D02*
X205831009Y-63114285D01*
X205831009Y-63114285D02*
X205878628Y-63161904D01*
X205878628Y-63161904D02*
X205973866Y-63209523D01*
X205973866Y-63209523D02*
X206164342Y-63209523D01*
X206164342Y-63209523D02*
X206259580Y-63161904D01*
X206259580Y-63161904D02*
X206307200Y-63114285D01*
X206307200Y-63114285D02*
X206354819Y-63019047D01*
X206354819Y-63019047D02*
X206354819Y-62828571D01*
X206354819Y-62828571D02*
X206307200Y-62733333D01*
X206307200Y-62733333D02*
X206259580Y-62685714D01*
X206259580Y-62685714D02*
X206164342Y-62638095D01*
X206164342Y-62638095D02*
X205973866Y-62638095D01*
X205973866Y-62638095D02*
X205878628Y-62685714D01*
X205878628Y-62685714D02*
X205831009Y-62733333D01*
X205831009Y-62733333D02*
X205783390Y-62828571D01*
X160261905Y-100854819D02*
X160261905Y-99854819D01*
X160261905Y-99854819D02*
X160500000Y-99854819D01*
X160500000Y-99854819D02*
X160642857Y-99902438D01*
X160642857Y-99902438D02*
X160738095Y-99997676D01*
X160738095Y-99997676D02*
X160785714Y-100092914D01*
X160785714Y-100092914D02*
X160833333Y-100283390D01*
X160833333Y-100283390D02*
X160833333Y-100426247D01*
X160833333Y-100426247D02*
X160785714Y-100616723D01*
X160785714Y-100616723D02*
X160738095Y-100711961D01*
X160738095Y-100711961D02*
X160642857Y-100807200D01*
X160642857Y-100807200D02*
X160500000Y-100854819D01*
X160500000Y-100854819D02*
X160261905Y-100854819D01*
X161690476Y-99854819D02*
X161500000Y-99854819D01*
X161500000Y-99854819D02*
X161404762Y-99902438D01*
X161404762Y-99902438D02*
X161357143Y-99950057D01*
X161357143Y-99950057D02*
X161261905Y-100092914D01*
X161261905Y-100092914D02*
X161214286Y-100283390D01*
X161214286Y-100283390D02*
X161214286Y-100664342D01*
X161214286Y-100664342D02*
X161261905Y-100759580D01*
X161261905Y-100759580D02*
X161309524Y-100807200D01*
X161309524Y-100807200D02*
X161404762Y-100854819D01*
X161404762Y-100854819D02*
X161595238Y-100854819D01*
X161595238Y-100854819D02*
X161690476Y-100807200D01*
X161690476Y-100807200D02*
X161738095Y-100759580D01*
X161738095Y-100759580D02*
X161785714Y-100664342D01*
X161785714Y-100664342D02*
X161785714Y-100426247D01*
X161785714Y-100426247D02*
X161738095Y-100331009D01*
X161738095Y-100331009D02*
X161690476Y-100283390D01*
X161690476Y-100283390D02*
X161595238Y-100235771D01*
X161595238Y-100235771D02*
X161404762Y-100235771D01*
X161404762Y-100235771D02*
X161309524Y-100283390D01*
X161309524Y-100283390D02*
X161261905Y-100331009D01*
X161261905Y-100331009D02*
X161214286Y-100426247D01*
X192404761Y-68900057D02*
X192309523Y-68852438D01*
X192309523Y-68852438D02*
X192214285Y-68757200D01*
X192214285Y-68757200D02*
X192071428Y-68614342D01*
X192071428Y-68614342D02*
X191976190Y-68566723D01*
X191976190Y-68566723D02*
X191880952Y-68566723D01*
X191928571Y-68804819D02*
X191833333Y-68757200D01*
X191833333Y-68757200D02*
X191738095Y-68661961D01*
X191738095Y-68661961D02*
X191690476Y-68471485D01*
X191690476Y-68471485D02*
X191690476Y-68138152D01*
X191690476Y-68138152D02*
X191738095Y-67947676D01*
X191738095Y-67947676D02*
X191833333Y-67852438D01*
X191833333Y-67852438D02*
X191928571Y-67804819D01*
X191928571Y-67804819D02*
X192119047Y-67804819D01*
X192119047Y-67804819D02*
X192214285Y-67852438D01*
X192214285Y-67852438D02*
X192309523Y-67947676D01*
X192309523Y-67947676D02*
X192357142Y-68138152D01*
X192357142Y-68138152D02*
X192357142Y-68471485D01*
X192357142Y-68471485D02*
X192309523Y-68661961D01*
X192309523Y-68661961D02*
X192214285Y-68757200D01*
X192214285Y-68757200D02*
X192119047Y-68804819D01*
X192119047Y-68804819D02*
X191928571Y-68804819D01*
X192738095Y-67900057D02*
X192785714Y-67852438D01*
X192785714Y-67852438D02*
X192880952Y-67804819D01*
X192880952Y-67804819D02*
X193119047Y-67804819D01*
X193119047Y-67804819D02*
X193214285Y-67852438D01*
X193214285Y-67852438D02*
X193261904Y-67900057D01*
X193261904Y-67900057D02*
X193309523Y-67995295D01*
X193309523Y-67995295D02*
X193309523Y-68090533D01*
X193309523Y-68090533D02*
X193261904Y-68233390D01*
X193261904Y-68233390D02*
X192690476Y-68804819D01*
X192690476Y-68804819D02*
X193309523Y-68804819D01*
X201761905Y-56954819D02*
X201761905Y-55954819D01*
X201761905Y-55954819D02*
X202000000Y-55954819D01*
X202000000Y-55954819D02*
X202142857Y-56002438D01*
X202142857Y-56002438D02*
X202238095Y-56097676D01*
X202238095Y-56097676D02*
X202285714Y-56192914D01*
X202285714Y-56192914D02*
X202333333Y-56383390D01*
X202333333Y-56383390D02*
X202333333Y-56526247D01*
X202333333Y-56526247D02*
X202285714Y-56716723D01*
X202285714Y-56716723D02*
X202238095Y-56811961D01*
X202238095Y-56811961D02*
X202142857Y-56907200D01*
X202142857Y-56907200D02*
X202000000Y-56954819D01*
X202000000Y-56954819D02*
X201761905Y-56954819D01*
X202714286Y-56050057D02*
X202761905Y-56002438D01*
X202761905Y-56002438D02*
X202857143Y-55954819D01*
X202857143Y-55954819D02*
X203095238Y-55954819D01*
X203095238Y-55954819D02*
X203190476Y-56002438D01*
X203190476Y-56002438D02*
X203238095Y-56050057D01*
X203238095Y-56050057D02*
X203285714Y-56145295D01*
X203285714Y-56145295D02*
X203285714Y-56240533D01*
X203285714Y-56240533D02*
X203238095Y-56383390D01*
X203238095Y-56383390D02*
X202666667Y-56954819D01*
X202666667Y-56954819D02*
X203285714Y-56954819D01*
X160957142Y-77954819D02*
X160623809Y-77478628D01*
X160385714Y-77954819D02*
X160385714Y-76954819D01*
X160385714Y-76954819D02*
X160766666Y-76954819D01*
X160766666Y-76954819D02*
X160861904Y-77002438D01*
X160861904Y-77002438D02*
X160909523Y-77050057D01*
X160909523Y-77050057D02*
X160957142Y-77145295D01*
X160957142Y-77145295D02*
X160957142Y-77288152D01*
X160957142Y-77288152D02*
X160909523Y-77383390D01*
X160909523Y-77383390D02*
X160861904Y-77431009D01*
X160861904Y-77431009D02*
X160766666Y-77478628D01*
X160766666Y-77478628D02*
X160385714Y-77478628D01*
X161909523Y-77954819D02*
X161338095Y-77954819D01*
X161623809Y-77954819D02*
X161623809Y-76954819D01*
X161623809Y-76954819D02*
X161528571Y-77097676D01*
X161528571Y-77097676D02*
X161433333Y-77192914D01*
X161433333Y-77192914D02*
X161338095Y-77240533D01*
X162766666Y-77288152D02*
X162766666Y-77954819D01*
X162528571Y-76907200D02*
X162290476Y-77621485D01*
X162290476Y-77621485D02*
X162909523Y-77621485D01*
X153346905Y-94324819D02*
X153346905Y-93324819D01*
X153346905Y-93324819D02*
X153585000Y-93324819D01*
X153585000Y-93324819D02*
X153727857Y-93372438D01*
X153727857Y-93372438D02*
X153823095Y-93467676D01*
X153823095Y-93467676D02*
X153870714Y-93562914D01*
X153870714Y-93562914D02*
X153918333Y-93753390D01*
X153918333Y-93753390D02*
X153918333Y-93896247D01*
X153918333Y-93896247D02*
X153870714Y-94086723D01*
X153870714Y-94086723D02*
X153823095Y-94181961D01*
X153823095Y-94181961D02*
X153727857Y-94277200D01*
X153727857Y-94277200D02*
X153585000Y-94324819D01*
X153585000Y-94324819D02*
X153346905Y-94324819D01*
X154823095Y-93324819D02*
X154346905Y-93324819D01*
X154346905Y-93324819D02*
X154299286Y-93801009D01*
X154299286Y-93801009D02*
X154346905Y-93753390D01*
X154346905Y-93753390D02*
X154442143Y-93705771D01*
X154442143Y-93705771D02*
X154680238Y-93705771D01*
X154680238Y-93705771D02*
X154775476Y-93753390D01*
X154775476Y-93753390D02*
X154823095Y-93801009D01*
X154823095Y-93801009D02*
X154870714Y-93896247D01*
X154870714Y-93896247D02*
X154870714Y-94134342D01*
X154870714Y-94134342D02*
X154823095Y-94229580D01*
X154823095Y-94229580D02*
X154775476Y-94277200D01*
X154775476Y-94277200D02*
X154680238Y-94324819D01*
X154680238Y-94324819D02*
X154442143Y-94324819D01*
X154442143Y-94324819D02*
X154346905Y-94277200D01*
X154346905Y-94277200D02*
X154299286Y-94229580D01*
X182035714Y-66754819D02*
X182035714Y-65754819D01*
X182035714Y-65754819D02*
X182273809Y-65754819D01*
X182273809Y-65754819D02*
X182416666Y-65802438D01*
X182416666Y-65802438D02*
X182511904Y-65897676D01*
X182511904Y-65897676D02*
X182559523Y-65992914D01*
X182559523Y-65992914D02*
X182607142Y-66183390D01*
X182607142Y-66183390D02*
X182607142Y-66326247D01*
X182607142Y-66326247D02*
X182559523Y-66516723D01*
X182559523Y-66516723D02*
X182511904Y-66611961D01*
X182511904Y-66611961D02*
X182416666Y-66707200D01*
X182416666Y-66707200D02*
X182273809Y-66754819D01*
X182273809Y-66754819D02*
X182035714Y-66754819D01*
X183559523Y-66754819D02*
X182988095Y-66754819D01*
X183273809Y-66754819D02*
X183273809Y-65754819D01*
X183273809Y-65754819D02*
X183178571Y-65897676D01*
X183178571Y-65897676D02*
X183083333Y-65992914D01*
X183083333Y-65992914D02*
X182988095Y-66040533D01*
X183940476Y-65850057D02*
X183988095Y-65802438D01*
X183988095Y-65802438D02*
X184083333Y-65754819D01*
X184083333Y-65754819D02*
X184321428Y-65754819D01*
X184321428Y-65754819D02*
X184416666Y-65802438D01*
X184416666Y-65802438D02*
X184464285Y-65850057D01*
X184464285Y-65850057D02*
X184511904Y-65945295D01*
X184511904Y-65945295D02*
X184511904Y-66040533D01*
X184511904Y-66040533D02*
X184464285Y-66183390D01*
X184464285Y-66183390D02*
X183892857Y-66754819D01*
X183892857Y-66754819D02*
X184511904Y-66754819D01*
X196785714Y-83454819D02*
X196785714Y-82454819D01*
X196785714Y-82454819D02*
X197023809Y-82454819D01*
X197023809Y-82454819D02*
X197166666Y-82502438D01*
X197166666Y-82502438D02*
X197261904Y-82597676D01*
X197261904Y-82597676D02*
X197309523Y-82692914D01*
X197309523Y-82692914D02*
X197357142Y-82883390D01*
X197357142Y-82883390D02*
X197357142Y-83026247D01*
X197357142Y-83026247D02*
X197309523Y-83216723D01*
X197309523Y-83216723D02*
X197261904Y-83311961D01*
X197261904Y-83311961D02*
X197166666Y-83407200D01*
X197166666Y-83407200D02*
X197023809Y-83454819D01*
X197023809Y-83454819D02*
X196785714Y-83454819D01*
X198309523Y-83454819D02*
X197738095Y-83454819D01*
X198023809Y-83454819D02*
X198023809Y-82454819D01*
X198023809Y-82454819D02*
X197928571Y-82597676D01*
X197928571Y-82597676D02*
X197833333Y-82692914D01*
X197833333Y-82692914D02*
X197738095Y-82740533D01*
X198785714Y-83454819D02*
X198976190Y-83454819D01*
X198976190Y-83454819D02*
X199071428Y-83407200D01*
X199071428Y-83407200D02*
X199119047Y-83359580D01*
X199119047Y-83359580D02*
X199214285Y-83216723D01*
X199214285Y-83216723D02*
X199261904Y-83026247D01*
X199261904Y-83026247D02*
X199261904Y-82645295D01*
X199261904Y-82645295D02*
X199214285Y-82550057D01*
X199214285Y-82550057D02*
X199166666Y-82502438D01*
X199166666Y-82502438D02*
X199071428Y-82454819D01*
X199071428Y-82454819D02*
X198880952Y-82454819D01*
X198880952Y-82454819D02*
X198785714Y-82502438D01*
X198785714Y-82502438D02*
X198738095Y-82550057D01*
X198738095Y-82550057D02*
X198690476Y-82645295D01*
X198690476Y-82645295D02*
X198690476Y-82883390D01*
X198690476Y-82883390D02*
X198738095Y-82978628D01*
X198738095Y-82978628D02*
X198785714Y-83026247D01*
X198785714Y-83026247D02*
X198880952Y-83073866D01*
X198880952Y-83073866D02*
X199071428Y-83073866D01*
X199071428Y-83073866D02*
X199166666Y-83026247D01*
X199166666Y-83026247D02*
X199214285Y-82978628D01*
X199214285Y-82978628D02*
X199261904Y-82883390D01*
X181991725Y-64995264D02*
X181991725Y-63995264D01*
X181991725Y-63995264D02*
X182229820Y-63995264D01*
X182229820Y-63995264D02*
X182372677Y-64042883D01*
X182372677Y-64042883D02*
X182467915Y-64138121D01*
X182467915Y-64138121D02*
X182515534Y-64233359D01*
X182515534Y-64233359D02*
X182563153Y-64423835D01*
X182563153Y-64423835D02*
X182563153Y-64566692D01*
X182563153Y-64566692D02*
X182515534Y-64757168D01*
X182515534Y-64757168D02*
X182467915Y-64852406D01*
X182467915Y-64852406D02*
X182372677Y-64947645D01*
X182372677Y-64947645D02*
X182229820Y-64995264D01*
X182229820Y-64995264D02*
X181991725Y-64995264D01*
X183515534Y-64995264D02*
X182944106Y-64995264D01*
X183229820Y-64995264D02*
X183229820Y-63995264D01*
X183229820Y-63995264D02*
X183134582Y-64138121D01*
X183134582Y-64138121D02*
X183039344Y-64233359D01*
X183039344Y-64233359D02*
X182944106Y-64280978D01*
X184467915Y-64995264D02*
X183896487Y-64995264D01*
X184182201Y-64995264D02*
X184182201Y-63995264D01*
X184182201Y-63995264D02*
X184086963Y-64138121D01*
X184086963Y-64138121D02*
X183991725Y-64233359D01*
X183991725Y-64233359D02*
X183896487Y-64280978D01*
X181907142Y-79939819D02*
X181573809Y-79463628D01*
X181335714Y-79939819D02*
X181335714Y-78939819D01*
X181335714Y-78939819D02*
X181716666Y-78939819D01*
X181716666Y-78939819D02*
X181811904Y-78987438D01*
X181811904Y-78987438D02*
X181859523Y-79035057D01*
X181859523Y-79035057D02*
X181907142Y-79130295D01*
X181907142Y-79130295D02*
X181907142Y-79273152D01*
X181907142Y-79273152D02*
X181859523Y-79368390D01*
X181859523Y-79368390D02*
X181811904Y-79416009D01*
X181811904Y-79416009D02*
X181716666Y-79463628D01*
X181716666Y-79463628D02*
X181335714Y-79463628D01*
X182859523Y-79939819D02*
X182288095Y-79939819D01*
X182573809Y-79939819D02*
X182573809Y-78939819D01*
X182573809Y-78939819D02*
X182478571Y-79082676D01*
X182478571Y-79082676D02*
X182383333Y-79177914D01*
X182383333Y-79177914D02*
X182288095Y-79225533D01*
X183335714Y-79939819D02*
X183526190Y-79939819D01*
X183526190Y-79939819D02*
X183621428Y-79892200D01*
X183621428Y-79892200D02*
X183669047Y-79844580D01*
X183669047Y-79844580D02*
X183764285Y-79701723D01*
X183764285Y-79701723D02*
X183811904Y-79511247D01*
X183811904Y-79511247D02*
X183811904Y-79130295D01*
X183811904Y-79130295D02*
X183764285Y-79035057D01*
X183764285Y-79035057D02*
X183716666Y-78987438D01*
X183716666Y-78987438D02*
X183621428Y-78939819D01*
X183621428Y-78939819D02*
X183430952Y-78939819D01*
X183430952Y-78939819D02*
X183335714Y-78987438D01*
X183335714Y-78987438D02*
X183288095Y-79035057D01*
X183288095Y-79035057D02*
X183240476Y-79130295D01*
X183240476Y-79130295D02*
X183240476Y-79368390D01*
X183240476Y-79368390D02*
X183288095Y-79463628D01*
X183288095Y-79463628D02*
X183335714Y-79511247D01*
X183335714Y-79511247D02*
X183430952Y-79558866D01*
X183430952Y-79558866D02*
X183621428Y-79558866D01*
X183621428Y-79558866D02*
X183716666Y-79511247D01*
X183716666Y-79511247D02*
X183764285Y-79463628D01*
X183764285Y-79463628D02*
X183811904Y-79368390D01*
X160254819Y-69342857D02*
X159778628Y-69676190D01*
X160254819Y-69914285D02*
X159254819Y-69914285D01*
X159254819Y-69914285D02*
X159254819Y-69533333D01*
X159254819Y-69533333D02*
X159302438Y-69438095D01*
X159302438Y-69438095D02*
X159350057Y-69390476D01*
X159350057Y-69390476D02*
X159445295Y-69342857D01*
X159445295Y-69342857D02*
X159588152Y-69342857D01*
X159588152Y-69342857D02*
X159683390Y-69390476D01*
X159683390Y-69390476D02*
X159731009Y-69438095D01*
X159731009Y-69438095D02*
X159778628Y-69533333D01*
X159778628Y-69533333D02*
X159778628Y-69914285D01*
X160254819Y-68390476D02*
X160254819Y-68961904D01*
X160254819Y-68676190D02*
X159254819Y-68676190D01*
X159254819Y-68676190D02*
X159397676Y-68771428D01*
X159397676Y-68771428D02*
X159492914Y-68866666D01*
X159492914Y-68866666D02*
X159540533Y-68961904D01*
X159683390Y-67819047D02*
X159635771Y-67914285D01*
X159635771Y-67914285D02*
X159588152Y-67961904D01*
X159588152Y-67961904D02*
X159492914Y-68009523D01*
X159492914Y-68009523D02*
X159445295Y-68009523D01*
X159445295Y-68009523D02*
X159350057Y-67961904D01*
X159350057Y-67961904D02*
X159302438Y-67914285D01*
X159302438Y-67914285D02*
X159254819Y-67819047D01*
X159254819Y-67819047D02*
X159254819Y-67628571D01*
X159254819Y-67628571D02*
X159302438Y-67533333D01*
X159302438Y-67533333D02*
X159350057Y-67485714D01*
X159350057Y-67485714D02*
X159445295Y-67438095D01*
X159445295Y-67438095D02*
X159492914Y-67438095D01*
X159492914Y-67438095D02*
X159588152Y-67485714D01*
X159588152Y-67485714D02*
X159635771Y-67533333D01*
X159635771Y-67533333D02*
X159683390Y-67628571D01*
X159683390Y-67628571D02*
X159683390Y-67819047D01*
X159683390Y-67819047D02*
X159731009Y-67914285D01*
X159731009Y-67914285D02*
X159778628Y-67961904D01*
X159778628Y-67961904D02*
X159873866Y-68009523D01*
X159873866Y-68009523D02*
X160064342Y-68009523D01*
X160064342Y-68009523D02*
X160159580Y-67961904D01*
X160159580Y-67961904D02*
X160207200Y-67914285D01*
X160207200Y-67914285D02*
X160254819Y-67819047D01*
X160254819Y-67819047D02*
X160254819Y-67628571D01*
X160254819Y-67628571D02*
X160207200Y-67533333D01*
X160207200Y-67533333D02*
X160159580Y-67485714D01*
X160159580Y-67485714D02*
X160064342Y-67438095D01*
X160064342Y-67438095D02*
X159873866Y-67438095D01*
X159873866Y-67438095D02*
X159778628Y-67485714D01*
X159778628Y-67485714D02*
X159731009Y-67533333D01*
X159731009Y-67533333D02*
X159683390Y-67628571D01*
X191954761Y-84500057D02*
X191859523Y-84452438D01*
X191859523Y-84452438D02*
X191764285Y-84357200D01*
X191764285Y-84357200D02*
X191621428Y-84214342D01*
X191621428Y-84214342D02*
X191526190Y-84166723D01*
X191526190Y-84166723D02*
X191430952Y-84166723D01*
X191478571Y-84404819D02*
X191383333Y-84357200D01*
X191383333Y-84357200D02*
X191288095Y-84261961D01*
X191288095Y-84261961D02*
X191240476Y-84071485D01*
X191240476Y-84071485D02*
X191240476Y-83738152D01*
X191240476Y-83738152D02*
X191288095Y-83547676D01*
X191288095Y-83547676D02*
X191383333Y-83452438D01*
X191383333Y-83452438D02*
X191478571Y-83404819D01*
X191478571Y-83404819D02*
X191669047Y-83404819D01*
X191669047Y-83404819D02*
X191764285Y-83452438D01*
X191764285Y-83452438D02*
X191859523Y-83547676D01*
X191859523Y-83547676D02*
X191907142Y-83738152D01*
X191907142Y-83738152D02*
X191907142Y-84071485D01*
X191907142Y-84071485D02*
X191859523Y-84261961D01*
X191859523Y-84261961D02*
X191764285Y-84357200D01*
X191764285Y-84357200D02*
X191669047Y-84404819D01*
X191669047Y-84404819D02*
X191478571Y-84404819D01*
X192240476Y-83404819D02*
X192907142Y-83404819D01*
X192907142Y-83404819D02*
X192478571Y-84404819D01*
X153985714Y-69624819D02*
X153985714Y-68624819D01*
X153985714Y-68624819D02*
X154223809Y-68624819D01*
X154223809Y-68624819D02*
X154366666Y-68672438D01*
X154366666Y-68672438D02*
X154461904Y-68767676D01*
X154461904Y-68767676D02*
X154509523Y-68862914D01*
X154509523Y-68862914D02*
X154557142Y-69053390D01*
X154557142Y-69053390D02*
X154557142Y-69196247D01*
X154557142Y-69196247D02*
X154509523Y-69386723D01*
X154509523Y-69386723D02*
X154461904Y-69481961D01*
X154461904Y-69481961D02*
X154366666Y-69577200D01*
X154366666Y-69577200D02*
X154223809Y-69624819D01*
X154223809Y-69624819D02*
X153985714Y-69624819D01*
X155509523Y-69624819D02*
X154938095Y-69624819D01*
X155223809Y-69624819D02*
X155223809Y-68624819D01*
X155223809Y-68624819D02*
X155128571Y-68767676D01*
X155128571Y-68767676D02*
X155033333Y-68862914D01*
X155033333Y-68862914D02*
X154938095Y-68910533D01*
X156414285Y-68624819D02*
X155938095Y-68624819D01*
X155938095Y-68624819D02*
X155890476Y-69101009D01*
X155890476Y-69101009D02*
X155938095Y-69053390D01*
X155938095Y-69053390D02*
X156033333Y-69005771D01*
X156033333Y-69005771D02*
X156271428Y-69005771D01*
X156271428Y-69005771D02*
X156366666Y-69053390D01*
X156366666Y-69053390D02*
X156414285Y-69101009D01*
X156414285Y-69101009D02*
X156461904Y-69196247D01*
X156461904Y-69196247D02*
X156461904Y-69434342D01*
X156461904Y-69434342D02*
X156414285Y-69529580D01*
X156414285Y-69529580D02*
X156366666Y-69577200D01*
X156366666Y-69577200D02*
X156271428Y-69624819D01*
X156271428Y-69624819D02*
X156033333Y-69624819D01*
X156033333Y-69624819D02*
X155938095Y-69577200D01*
X155938095Y-69577200D02*
X155890476Y-69529580D01*
X196285714Y-76354819D02*
X196285714Y-75354819D01*
X196285714Y-75354819D02*
X196523809Y-75354819D01*
X196523809Y-75354819D02*
X196666666Y-75402438D01*
X196666666Y-75402438D02*
X196761904Y-75497676D01*
X196761904Y-75497676D02*
X196809523Y-75592914D01*
X196809523Y-75592914D02*
X196857142Y-75783390D01*
X196857142Y-75783390D02*
X196857142Y-75926247D01*
X196857142Y-75926247D02*
X196809523Y-76116723D01*
X196809523Y-76116723D02*
X196761904Y-76211961D01*
X196761904Y-76211961D02*
X196666666Y-76307200D01*
X196666666Y-76307200D02*
X196523809Y-76354819D01*
X196523809Y-76354819D02*
X196285714Y-76354819D01*
X197238095Y-75450057D02*
X197285714Y-75402438D01*
X197285714Y-75402438D02*
X197380952Y-75354819D01*
X197380952Y-75354819D02*
X197619047Y-75354819D01*
X197619047Y-75354819D02*
X197714285Y-75402438D01*
X197714285Y-75402438D02*
X197761904Y-75450057D01*
X197761904Y-75450057D02*
X197809523Y-75545295D01*
X197809523Y-75545295D02*
X197809523Y-75640533D01*
X197809523Y-75640533D02*
X197761904Y-75783390D01*
X197761904Y-75783390D02*
X197190476Y-76354819D01*
X197190476Y-76354819D02*
X197809523Y-76354819D01*
X198428571Y-75354819D02*
X198523809Y-75354819D01*
X198523809Y-75354819D02*
X198619047Y-75402438D01*
X198619047Y-75402438D02*
X198666666Y-75450057D01*
X198666666Y-75450057D02*
X198714285Y-75545295D01*
X198714285Y-75545295D02*
X198761904Y-75735771D01*
X198761904Y-75735771D02*
X198761904Y-75973866D01*
X198761904Y-75973866D02*
X198714285Y-76164342D01*
X198714285Y-76164342D02*
X198666666Y-76259580D01*
X198666666Y-76259580D02*
X198619047Y-76307200D01*
X198619047Y-76307200D02*
X198523809Y-76354819D01*
X198523809Y-76354819D02*
X198428571Y-76354819D01*
X198428571Y-76354819D02*
X198333333Y-76307200D01*
X198333333Y-76307200D02*
X198285714Y-76259580D01*
X198285714Y-76259580D02*
X198238095Y-76164342D01*
X198238095Y-76164342D02*
X198190476Y-75973866D01*
X198190476Y-75973866D02*
X198190476Y-75735771D01*
X198190476Y-75735771D02*
X198238095Y-75545295D01*
X198238095Y-75545295D02*
X198285714Y-75450057D01*
X198285714Y-75450057D02*
X198333333Y-75402438D01*
X198333333Y-75402438D02*
X198428571Y-75354819D01*
X162959457Y-66185408D02*
X163102314Y-66233027D01*
X163102314Y-66233027D02*
X163340409Y-66233027D01*
X163340409Y-66233027D02*
X163435647Y-66185408D01*
X163435647Y-66185408D02*
X163483266Y-66137788D01*
X163483266Y-66137788D02*
X163530885Y-66042550D01*
X163530885Y-66042550D02*
X163530885Y-65947312D01*
X163530885Y-65947312D02*
X163483266Y-65852074D01*
X163483266Y-65852074D02*
X163435647Y-65804455D01*
X163435647Y-65804455D02*
X163340409Y-65756836D01*
X163340409Y-65756836D02*
X163149933Y-65709217D01*
X163149933Y-65709217D02*
X163054695Y-65661598D01*
X163054695Y-65661598D02*
X163007076Y-65613979D01*
X163007076Y-65613979D02*
X162959457Y-65518741D01*
X162959457Y-65518741D02*
X162959457Y-65423503D01*
X162959457Y-65423503D02*
X163007076Y-65328265D01*
X163007076Y-65328265D02*
X163054695Y-65280646D01*
X163054695Y-65280646D02*
X163149933Y-65233027D01*
X163149933Y-65233027D02*
X163388028Y-65233027D01*
X163388028Y-65233027D02*
X163530885Y-65280646D01*
X163864219Y-65233027D02*
X164102314Y-66233027D01*
X164102314Y-66233027D02*
X164292790Y-65518741D01*
X164292790Y-65518741D02*
X164483266Y-66233027D01*
X164483266Y-66233027D02*
X164721362Y-65233027D01*
X165054695Y-65328265D02*
X165102314Y-65280646D01*
X165102314Y-65280646D02*
X165197552Y-65233027D01*
X165197552Y-65233027D02*
X165435647Y-65233027D01*
X165435647Y-65233027D02*
X165530885Y-65280646D01*
X165530885Y-65280646D02*
X165578504Y-65328265D01*
X165578504Y-65328265D02*
X165626123Y-65423503D01*
X165626123Y-65423503D02*
X165626123Y-65518741D01*
X165626123Y-65518741D02*
X165578504Y-65661598D01*
X165578504Y-65661598D02*
X165007076Y-66233027D01*
X165007076Y-66233027D02*
X165626123Y-66233027D01*
%TO.C,D3*%
D12*
X179965000Y-56100000D02*
X179965000Y-58560000D01*
X179965000Y-58560000D02*
X181435000Y-58560000D01*
X181435000Y-58560000D02*
X181435000Y-56100000D01*
%TO.C,D13*%
X167965000Y-56100000D02*
X167965000Y-58560000D01*
X167965000Y-58560000D02*
X169435000Y-58560000D01*
X169435000Y-58560000D02*
X169435000Y-56100000D01*
%TO.C,D14*%
X159065000Y-56100000D02*
X159065000Y-58560000D01*
X159065000Y-58560000D02*
X160535000Y-58560000D01*
X160535000Y-58560000D02*
X160535000Y-56100000D01*
%TO.C,D4*%
X171065000Y-56100000D02*
X171065000Y-58560000D01*
X171065000Y-58560000D02*
X172535000Y-58560000D01*
X172535000Y-58560000D02*
X172535000Y-56100000D01*
%TO.C,D1*%
X201485000Y-60890000D02*
X201485000Y-62110000D01*
X201485000Y-62110000D02*
X203300000Y-62110000D01*
X203300000Y-60890000D02*
X201485000Y-60890000D01*
%TO.C,Q6*%
X185490000Y-69190000D02*
X187010000Y-69190000D01*
X185490000Y-69240000D02*
X185490000Y-69190000D01*
X185490000Y-71140000D02*
X185490000Y-70360000D01*
X185490000Y-72310000D02*
X185490000Y-72260000D01*
X187010000Y-69190000D02*
X187010000Y-70190000D01*
X187010000Y-71310000D02*
X187010000Y-72310000D01*
X187010000Y-72310000D02*
X185490000Y-72310000D01*
X184950000Y-70370000D02*
X185190000Y-70700000D01*
X184710000Y-70700000D01*
X184950000Y-70370000D01*
G36*
X185190000Y-70700000D02*
G01*
X184710000Y-70700000D01*
X184950000Y-70370000D01*
X185190000Y-70700000D01*
G37*
%TO.C,C4*%
X187565000Y-97591233D02*
X187565000Y-97883767D01*
X188585000Y-97591233D02*
X188585000Y-97883767D01*
%TO.C,Q5*%
X189740000Y-69190000D02*
X191260000Y-69190000D01*
X189740000Y-69240000D02*
X189740000Y-69190000D01*
X189740000Y-71140000D02*
X189740000Y-70360000D01*
X189740000Y-72310000D02*
X189740000Y-72260000D01*
X191260000Y-69190000D02*
X191260000Y-70190000D01*
X191260000Y-71310000D02*
X191260000Y-72310000D01*
X191260000Y-72310000D02*
X189740000Y-72310000D01*
X189200000Y-70370000D02*
X189440000Y-70700000D01*
X188960000Y-70700000D01*
X189200000Y-70370000D01*
G36*
X189440000Y-70700000D02*
G01*
X188960000Y-70700000D01*
X189200000Y-70370000D01*
X189440000Y-70700000D01*
G37*
%TO.C,C2*%
X150396267Y-64990000D02*
X150103733Y-64990000D01*
X150396267Y-66010000D02*
X150103733Y-66010000D01*
%TO.C,R7*%
X181570276Y-96327500D02*
X182079724Y-96327500D01*
X181570276Y-97372500D02*
X182079724Y-97372500D01*
%TO.C,D8*%
X208614704Y-56314713D02*
X208614704Y-58774713D01*
X208614704Y-58774713D02*
X210084704Y-58774713D01*
X210084704Y-58774713D02*
X210084704Y-56314713D01*
%TO.C,R24*%
X205326908Y-60569435D02*
X205326908Y-61078883D01*
X206371908Y-60569435D02*
X206371908Y-61078883D01*
%TO.C,J1*%
D11*
X145700000Y-96300000D02*
X145700000Y-114600000D01*
X145700000Y-114600000D02*
X157300000Y-114600000D01*
X157300000Y-96300000D02*
X145700000Y-96300000D01*
X157300000Y-114600000D02*
X157300000Y-96300000D01*
%TO.C,C6*%
D12*
X188540000Y-77803733D02*
X188540000Y-78096267D01*
X189560000Y-77803733D02*
X189560000Y-78096267D01*
%TO.C,R12*%
X194802500Y-98757776D02*
X194802500Y-99267224D01*
X195847500Y-98757776D02*
X195847500Y-99267224D01*
%TO.C,R6*%
X183820276Y-100577500D02*
X184329724Y-100577500D01*
X183820276Y-101622500D02*
X184329724Y-101622500D01*
%TO.C,D10*%
X198715000Y-97400000D02*
X198715000Y-99215000D01*
X198715000Y-99215000D02*
X199935000Y-99215000D01*
X199935000Y-99215000D02*
X199935000Y-97400000D01*
%TO.C,R8*%
X185157776Y-96327500D02*
X185667224Y-96327500D01*
X185157776Y-97372500D02*
X185667224Y-97372500D01*
%TO.C,C3*%
X189815000Y-101841233D02*
X189815000Y-102133767D01*
X190835000Y-101841233D02*
X190835000Y-102133767D01*
%TO.C,R13*%
X194742224Y-94827500D02*
X194232776Y-94827500D01*
X194742224Y-95872500D02*
X194232776Y-95872500D01*
%TO.C,D7*%
X210364704Y-56314713D02*
X210364704Y-58774713D01*
X210364704Y-58774713D02*
X211834704Y-58774713D01*
X211834704Y-58774713D02*
X211834704Y-56314713D01*
%TO.C,J2*%
D13*
X146231361Y-55151817D02*
X146231361Y-64600617D01*
X146231361Y-64600617D02*
X158397961Y-64600617D01*
X158397961Y-55151817D02*
X146231361Y-55151817D01*
X158397961Y-64600617D02*
X158397961Y-55151817D01*
D14*
X159667961Y-63273617D02*
G75*
G02*
X158905961Y-63273617I-381000J0D01*
G01*
X158905961Y-63273617D02*
G75*
G02*
X159667961Y-63273617I381000J0D01*
G01*
%TO.C,J4*%
D13*
X204923000Y-68421600D02*
X204923000Y-91078400D01*
X204923000Y-91078400D02*
X214371800Y-91078400D01*
X214371800Y-68421600D02*
X204923000Y-68421600D01*
X214371800Y-91078400D02*
X214371800Y-68421600D01*
D14*
X206631000Y-91967400D02*
G75*
G02*
X205869000Y-91967400I-381000J0D01*
G01*
X205869000Y-91967400D02*
G75*
G02*
X206631000Y-91967400I381000J0D01*
G01*
%TO.C,Q3*%
D12*
X192627500Y-100290000D02*
X194147500Y-100290000D01*
X192627500Y-100340000D02*
X192627500Y-100290000D01*
X192627500Y-102240000D02*
X192627500Y-101460000D01*
X192627500Y-103410000D02*
X192627500Y-103360000D01*
X194147500Y-100290000D02*
X194147500Y-101290000D01*
X194147500Y-102410000D02*
X194147500Y-103410000D01*
X194147500Y-103410000D02*
X192627500Y-103410000D01*
X192087500Y-101470000D02*
X192327500Y-101800000D01*
X191847500Y-101800000D01*
X192087500Y-101470000D01*
G36*
X192327500Y-101800000D02*
G01*
X191847500Y-101800000D01*
X192087500Y-101470000D01*
X192327500Y-101800000D01*
G37*
%TO.C,R4*%
X180177500Y-60395276D02*
X180177500Y-60904724D01*
X181222500Y-60395276D02*
X181222500Y-60904724D01*
%TO.C,R25*%
X194527500Y-80282776D02*
X194527500Y-80792224D01*
X195572500Y-80282776D02*
X195572500Y-80792224D01*
%TO.C,R5*%
X171277500Y-60270276D02*
X171277500Y-60779724D01*
X172322500Y-60270276D02*
X172322500Y-60779724D01*
%TO.C,R23*%
X207076908Y-60569435D02*
X207076908Y-61078883D01*
X208121908Y-60569435D02*
X208121908Y-61078883D01*
%TO.C,J3*%
D13*
X204923000Y-93511200D02*
X204923000Y-116168000D01*
X204923000Y-116168000D02*
X214371800Y-116168000D01*
X214371800Y-93511200D02*
X204923000Y-93511200D01*
X214371800Y-116168000D02*
X214371800Y-93511200D01*
D14*
X206631000Y-117057000D02*
G75*
G02*
X205869000Y-117057000I-381000J0D01*
G01*
X205869000Y-117057000D02*
G75*
G02*
X206631000Y-117057000I381000J0D01*
G01*
%TO.C,C5*%
D12*
X188540000Y-81553733D02*
X188540000Y-81846267D01*
X189560000Y-81553733D02*
X189560000Y-81846267D01*
%TO.C,Q1*%
X198240000Y-69190000D02*
X199760000Y-69190000D01*
X198240000Y-69240000D02*
X198240000Y-69190000D01*
X198240000Y-71140000D02*
X198240000Y-70360000D01*
X198240000Y-72310000D02*
X198240000Y-72260000D01*
X199760000Y-69190000D02*
X199760000Y-70190000D01*
X199760000Y-71310000D02*
X199760000Y-72310000D01*
X199760000Y-72310000D02*
X198240000Y-72310000D01*
X197700000Y-70370000D02*
X197940000Y-70700000D01*
X197460000Y-70700000D01*
X197700000Y-70370000D01*
G36*
X197940000Y-70700000D02*
G01*
X197460000Y-70700000D01*
X197700000Y-70370000D01*
X197940000Y-70700000D01*
G37*
%TO.C,R17*%
X168169628Y-60293545D02*
X168169628Y-60802993D01*
X169214628Y-60293545D02*
X169214628Y-60802993D01*
%TO.C,R3*%
X193727500Y-66245276D02*
X193727500Y-66754724D01*
X194772500Y-66245276D02*
X194772500Y-66754724D01*
%TO.C,R26*%
X194527500Y-76782776D02*
X194527500Y-77292224D01*
X195572500Y-76782776D02*
X195572500Y-77292224D01*
%TO.C,D17*%
X206864704Y-56314713D02*
X206864704Y-58774713D01*
X206864704Y-58774713D02*
X208334704Y-58774713D01*
X208334704Y-58774713D02*
X208334704Y-56314713D01*
%TO.C,R2*%
X197227500Y-66245276D02*
X197227500Y-66754724D01*
X198272500Y-66245276D02*
X198272500Y-66754724D01*
%TO.C,R16*%
X186727500Y-66245276D02*
X186727500Y-66754724D01*
X187772500Y-66245276D02*
X187772500Y-66754724D01*
%TO.C,Q4*%
X190377500Y-96290000D02*
X191897500Y-96290000D01*
X190377500Y-96340000D02*
X190377500Y-96290000D01*
X190377500Y-98240000D02*
X190377500Y-97460000D01*
X190377500Y-99410000D02*
X190377500Y-99360000D01*
X191897500Y-96290000D02*
X191897500Y-97290000D01*
X191897500Y-98410000D02*
X191897500Y-99410000D01*
X191897500Y-99410000D02*
X190377500Y-99410000D01*
X189837500Y-97470000D02*
X190077500Y-97800000D01*
X189597500Y-97800000D01*
X189837500Y-97470000D01*
G36*
X190077500Y-97800000D02*
G01*
X189597500Y-97800000D01*
X189837500Y-97470000D01*
X190077500Y-97800000D01*
G37*
%TO.C,R21*%
X185795276Y-76642500D02*
X186304724Y-76642500D01*
X185795276Y-77687500D02*
X186304724Y-77687500D01*
%TO.C,J5*%
D13*
X184761277Y-55152073D02*
X184761277Y-64600873D01*
X184761277Y-64600873D02*
X200407677Y-64600873D01*
X200407677Y-55152073D02*
X184761277Y-55152073D01*
X200407677Y-64600873D02*
X200407677Y-55152073D01*
D14*
X201677677Y-63273873D02*
G75*
G02*
X200915677Y-63273873I-381000J0D01*
G01*
X200915677Y-63273873D02*
G75*
G02*
X201677677Y-63273873I381000J0D01*
G01*
%TO.C,C1*%
D12*
X154396267Y-64990000D02*
X154103733Y-64990000D01*
X154396267Y-66010000D02*
X154103733Y-66010000D01*
%TO.C,R20*%
X182045276Y-76642500D02*
X182554724Y-76642500D01*
X182045276Y-77687500D02*
X182554724Y-77687500D01*
%TO.C,D9*%
X198715000Y-100765000D02*
X198715000Y-102580000D01*
X198715000Y-102580000D02*
X199935000Y-102580000D01*
X199935000Y-102580000D02*
X199935000Y-100765000D01*
%TO.C,Q8*%
X191352500Y-76390000D02*
X192872500Y-76390000D01*
X191352500Y-76440000D02*
X191352500Y-76390000D01*
X191352500Y-78340000D02*
X191352500Y-77560000D01*
X191352500Y-79510000D02*
X191352500Y-79460000D01*
X192872500Y-76390000D02*
X192872500Y-77390000D01*
X192872500Y-78510000D02*
X192872500Y-79510000D01*
X192872500Y-79510000D02*
X191352500Y-79510000D01*
X190812500Y-77570000D02*
X191052500Y-77900000D01*
X190572500Y-77900000D01*
X190812500Y-77570000D01*
G36*
X191052500Y-77900000D02*
G01*
X190572500Y-77900000D01*
X190812500Y-77570000D01*
X191052500Y-77900000D01*
G37*
%TO.C,R22*%
X185795276Y-80392500D02*
X186304724Y-80392500D01*
X185795276Y-81437500D02*
X186304724Y-81437500D01*
%TO.C,SW1*%
X172610000Y-63715000D02*
X172610000Y-62332000D01*
X172610000Y-63715000D02*
X173993000Y-63715000D01*
X172850000Y-56655000D02*
X174160000Y-56655000D01*
X172850000Y-63475000D02*
X172850000Y-56655000D01*
X172850000Y-63475000D02*
X174160000Y-63475000D01*
X174325000Y-60668333D02*
X175595000Y-60668333D01*
X175760000Y-56655000D02*
X176700000Y-56655000D01*
X175760000Y-63475000D02*
X176700000Y-63475000D01*
X176865000Y-60668333D02*
X178135000Y-60668333D01*
X178300000Y-56655000D02*
X179610000Y-56655000D01*
X178300000Y-63475000D02*
X179610000Y-63475000D01*
X179610000Y-63475000D02*
X179610000Y-56655000D01*
X174325000Y-58255000D02*
X175595000Y-58255000D01*
X175595000Y-61875000D01*
X174325000Y-61875000D01*
X174325000Y-58255000D01*
X174325000Y-60668333D02*
X175595000Y-60668333D01*
X175595000Y-61875000D01*
X174325000Y-61875000D01*
X174325000Y-60668333D01*
G36*
X174325000Y-60668333D02*
G01*
X175595000Y-60668333D01*
X175595000Y-61875000D01*
X174325000Y-61875000D01*
X174325000Y-60668333D01*
G37*
X176865000Y-58255000D02*
X178135000Y-58255000D01*
X178135000Y-61875000D01*
X176865000Y-61875000D01*
X176865000Y-58255000D01*
X176865000Y-60668333D02*
X178135000Y-60668333D01*
X178135000Y-61875000D01*
X176865000Y-61875000D01*
X176865000Y-60668333D01*
G36*
X176865000Y-60668333D02*
G01*
X178135000Y-60668333D01*
X178135000Y-61875000D01*
X176865000Y-61875000D01*
X176865000Y-60668333D01*
G37*
%TO.C,J6*%
D11*
X145700000Y-71700000D02*
X145700000Y-90000000D01*
X145700000Y-90000000D02*
X157300000Y-90000000D01*
X157300000Y-71700000D02*
X145700000Y-71700000D01*
X157300000Y-90000000D02*
X157300000Y-71700000D01*
%TO.C,R9*%
D12*
X187407776Y-100577500D02*
X187917224Y-100577500D01*
X187407776Y-101622500D02*
X187917224Y-101622500D01*
%TO.C,D16*%
X158485000Y-75290000D02*
X158485000Y-76510000D01*
X158485000Y-76510000D02*
X160300000Y-76510000D01*
X160300000Y-75290000D02*
X158485000Y-75290000D01*
%TO.C,R11*%
X208826908Y-60569435D02*
X208826908Y-61078883D01*
X209871908Y-60569435D02*
X209871908Y-61078883D01*
%TO.C,R1*%
X158077500Y-103254724D02*
X158077500Y-102745276D01*
X159122500Y-103254724D02*
X159122500Y-102745276D01*
%TO.C,R10*%
X210576908Y-60569435D02*
X210576908Y-61078883D01*
X211621908Y-60569435D02*
X211621908Y-61078883D01*
%TO.C,R15*%
X190227500Y-66245276D02*
X190227500Y-66754724D01*
X191272500Y-66245276D02*
X191272500Y-66754724D01*
%TO.C,D18*%
X205114704Y-56314713D02*
X205114704Y-58774713D01*
X205114704Y-58774713D02*
X206584704Y-58774713D01*
X206584704Y-58774713D02*
X206584704Y-56314713D01*
%TO.C,D6*%
X157785000Y-99790000D02*
X157785000Y-101010000D01*
X157785000Y-101010000D02*
X159600000Y-101010000D01*
X159600000Y-99790000D02*
X157785000Y-99790000D01*
%TO.C,Q2*%
X193990000Y-69190000D02*
X195510000Y-69190000D01*
X193990000Y-69240000D02*
X193990000Y-69190000D01*
X193990000Y-71140000D02*
X193990000Y-70360000D01*
X193990000Y-72310000D02*
X193990000Y-72260000D01*
X195510000Y-69190000D02*
X195510000Y-70190000D01*
X195510000Y-71310000D02*
X195510000Y-72310000D01*
X195510000Y-72310000D02*
X193990000Y-72310000D01*
X193450000Y-70370000D02*
X193690000Y-70700000D01*
X193210000Y-70700000D01*
X193450000Y-70370000D01*
G36*
X193690000Y-70700000D02*
G01*
X193210000Y-70700000D01*
X193450000Y-70370000D01*
X193690000Y-70700000D01*
G37*
%TO.C,D2*%
X201485000Y-59140000D02*
X201485000Y-60360000D01*
X201485000Y-60360000D02*
X203300000Y-60360000D01*
X203300000Y-59140000D02*
X201485000Y-59140000D01*
%TO.C,R14*%
X158677500Y-78654724D02*
X158677500Y-78145276D01*
X159722500Y-78654724D02*
X159722500Y-78145276D01*
%TO.C,D5*%
X153070000Y-94690000D02*
X153070000Y-95910000D01*
X153070000Y-95910000D02*
X154885000Y-95910000D01*
X154885000Y-94690000D02*
X153070000Y-94690000D01*
%TO.C,D12*%
X182450000Y-63610000D02*
X184265000Y-63610000D01*
X184265000Y-62390000D02*
X182450000Y-62390000D01*
X184265000Y-63610000D02*
X184265000Y-62390000D01*
%TO.C,D19*%
X196190000Y-80365000D02*
X196190000Y-82180000D01*
X196190000Y-82180000D02*
X197410000Y-82180000D01*
X197410000Y-82180000D02*
X197410000Y-80365000D01*
%TO.C,D11*%
X182415000Y-61860000D02*
X184230000Y-61860000D01*
X184230000Y-60640000D02*
X182415000Y-60640000D01*
X184230000Y-61860000D02*
X184230000Y-60640000D01*
%TO.C,R19*%
X182295276Y-80392500D02*
X182804724Y-80392500D01*
X182295276Y-81437500D02*
X182804724Y-81437500D01*
%TO.C,R18*%
X159277500Y-60232776D02*
X159277500Y-60742224D01*
X160322500Y-60232776D02*
X160322500Y-60742224D01*
%TO.C,Q7*%
X191352500Y-79890000D02*
X192872500Y-79890000D01*
X191352500Y-79940000D02*
X191352500Y-79890000D01*
X191352500Y-81840000D02*
X191352500Y-81060000D01*
X191352500Y-83010000D02*
X191352500Y-82960000D01*
X192872500Y-79890000D02*
X192872500Y-80890000D01*
X192872500Y-82010000D02*
X192872500Y-83010000D01*
X192872500Y-83010000D02*
X191352500Y-83010000D01*
X190812500Y-81070000D02*
X191052500Y-81400000D01*
X190572500Y-81400000D01*
X190812500Y-81070000D01*
G36*
X191052500Y-81400000D02*
G01*
X190572500Y-81400000D01*
X190812500Y-81070000D01*
X191052500Y-81400000D01*
G37*
%TO.C,D15*%
X153485000Y-69990000D02*
X153485000Y-71210000D01*
X153485000Y-71210000D02*
X155300000Y-71210000D01*
X155300000Y-69990000D02*
X153485000Y-69990000D01*
%TO.C,D20*%
X196190000Y-76900000D02*
X196190000Y-78715000D01*
X196190000Y-78715000D02*
X197410000Y-78715000D01*
X197410000Y-78715000D02*
X197410000Y-76900000D01*
%TO.C,SW2*%
X160630654Y-63706186D02*
X160630654Y-62323186D01*
X160630654Y-63706186D02*
X162013654Y-63706186D01*
X160870654Y-56646186D02*
X162180654Y-56646186D01*
X160870654Y-63466186D02*
X160870654Y-56646186D01*
X160870654Y-63466186D02*
X162180654Y-63466186D01*
X162345654Y-60659519D02*
X163615654Y-60659519D01*
X163780654Y-56646186D02*
X164720654Y-56646186D01*
X163780654Y-63466186D02*
X164720654Y-63466186D01*
X164885654Y-60659519D02*
X166155654Y-60659519D01*
X166320654Y-56646186D02*
X167630654Y-56646186D01*
X166320654Y-63466186D02*
X167630654Y-63466186D01*
X167630654Y-63466186D02*
X167630654Y-56646186D01*
X162345654Y-58246186D02*
X163615654Y-58246186D01*
X163615654Y-61866186D01*
X162345654Y-61866186D01*
X162345654Y-58246186D01*
X162345654Y-60659519D02*
X163615654Y-60659519D01*
X163615654Y-61866186D01*
X162345654Y-61866186D01*
X162345654Y-60659519D01*
G36*
X162345654Y-60659519D02*
G01*
X163615654Y-60659519D01*
X163615654Y-61866186D01*
X162345654Y-61866186D01*
X162345654Y-60659519D01*
G37*
X164885654Y-58246186D02*
X166155654Y-58246186D01*
X166155654Y-61866186D01*
X164885654Y-61866186D01*
X164885654Y-58246186D01*
X164885654Y-60659519D02*
X166155654Y-60659519D01*
X166155654Y-61866186D01*
X164885654Y-61866186D01*
X164885654Y-60659519D01*
G36*
X164885654Y-60659519D02*
G01*
X166155654Y-60659519D01*
X166155654Y-61866186D01*
X164885654Y-61866186D01*
X164885654Y-60659519D01*
G37*
%TD*%
M02*
