M48
; DRILL file KiCad 10.0.3-10.0.3~ubuntu24.04.1 date 2026-05-25T17:22:51
; FORMAT={-:-/ absolute / metric / decimal}
; #@! TF.CreationDate,2026-05-25T17:22:51+02:00
; #@! TF.GenerationSoftware,Kicad,Pcbnew,10.0.3-10.0.3~ubuntu24.04.1
; #@! TF.FileFunction,Plated,1,2,PTH
FMAT,2
METRIC
; #@! TA.AperFunction,Plated,PTH,ViaDrill
T1C0.300
; #@! TA.AperFunction,Plated,PTH,ComponentDrill
T2C1.295
; #@! TA.AperFunction,Plated,PTH,ComponentDrill
T3C1.300
%
G90
G05
T1
X146.8Y-56.0
X150.1Y-105.0
X150.3Y-80.5
X150.3Y-92.1
X150.4Y-72.6
X150.4Y-116.2
X150.5Y-68.8
X154.4Y-56.1
X157.3Y-93.8
X158.0Y-97.8
X158.1Y-67.3
X158.5Y-55.8
X158.6Y-57.7
X158.8Y-69.8
X159.0Y-82.5
X161.1Y-58.4
X161.5Y-55.8
X162.1Y-65.7
X163.2Y-103.8
X163.2Y-108.8
X163.4Y-114.7
X164.2Y-58.6
X166.2Y-76.2
X166.3Y-59.1
X166.6Y-58.2
X167.2Y-60.6
X168.4Y-94.9
X168.4Y-100.4
X168.5Y-79.3
X168.6Y-83.9
X168.9Y-65.9
X170.3Y-55.9
X170.4Y-58.3
X173.1Y-58.3
X174.3Y-76.4
X174.9Y-65.5
X175.1Y-109.0
X175.1Y-115.0
X175.8Y-58.3
X178.2Y-59.0
X178.3Y-103.0
X178.6Y-100.4
X178.8Y-58.0
X178.8Y-95.0
X179.4Y-83.9
X179.7Y-98.5
X179.9Y-75.9
X180.1Y-79.5
X181.7Y-63.0
X181.8Y-61.1
X182.8Y-71.6
X183.1Y-75.6
X183.9Y-69.2
X184.8Y-95.3
X184.9Y-98.5
X185.4Y-63.9
X185.6Y-66.5
X186.2Y-99.4
X186.5Y-58.6
X187.8Y-69.4
X187.8Y-103.7
X187.9Y-72.0
X187.9Y-75.6
X188.6Y-73.1
X189.0Y-57.8
X189.1Y-64.2
X190.6Y-84.0
X191.7Y-69.8
X192.2Y-72.4
X192.4Y-64.3
X192.5Y-109.1
X192.6Y-115.3
X193.9Y-99.5
X194.0Y-97.1
X195.1Y-74.8
X195.9Y-73.8
X196.1Y-64.1
X196.2Y-69.4
X196.3Y-84.1
X196.3Y-93.5
X196.5Y-72.1
X196.7Y-79.5
X197.2Y-100.5
X197.6Y-96.9
X198.1Y-73.2
X199.2Y-55.9
X199.2Y-76.9
X199.2Y-88.5
X199.3Y-57.9
X199.4Y-73.7
X199.7Y-103.6
X203.0Y-108.6
X203.1Y-56.3
X203.7Y-57.2
X203.7Y-59.8
X203.7Y-62.5
X203.7Y-100.4
X203.9Y-115.2
X204.1Y-74.8
X206.7Y-60.8
X206.7Y-62.8
X206.8Y-69.1
X208.0Y-74.7
X208.2Y-84.6
X208.2Y-88.7
X208.3Y-77.9
X208.3Y-81.6
X208.3Y-95.6
X208.3Y-99.2
X208.5Y-60.8
X208.5Y-62.9
X208.6Y-110.1
X208.7Y-113.8
X208.9Y-106.7
X209.1Y-103.0
X210.2Y-60.8
X210.2Y-62.8
X210.2Y-84.6
X210.2Y-88.7
X210.3Y-74.7
X212.1Y-60.8
X212.1Y-62.8
X212.3Y-84.8
X212.4Y-74.7
X213.0Y-56.3
T2
X148.815Y-63.274
X152.315Y-63.274
X155.815Y-63.274
X187.334Y-63.274
X190.834Y-63.274
X194.334Y-63.274
X197.834Y-63.274
X206.25Y-71.0
X206.25Y-74.5
X206.25Y-78.0
X206.25Y-81.5
X206.25Y-85.0
X206.25Y-88.5
X206.25Y-96.09
X206.25Y-99.59
X206.25Y-103.09
X206.25Y-106.59
X206.25Y-110.09
X206.25Y-113.59
T3
X153.7Y-73.85
X153.7Y-77.35
X153.7Y-80.85
X153.7Y-84.35
X153.7Y-87.85
X153.7Y-98.45
X153.7Y-101.95
X153.7Y-105.45
X153.7Y-108.95
X153.7Y-112.45
X156.2Y-73.85
X156.2Y-77.35
X156.2Y-80.85
X156.2Y-84.35
X156.2Y-87.85
X156.2Y-98.45
X156.2Y-101.95
X156.2Y-105.45
X156.2Y-108.95
X156.2Y-112.45
M30
