%TF.GenerationSoftware,KiCad,Pcbnew,9.0.5*%
%TF.CreationDate,2026-03-13T11:36:52+01:00*%
%TF.ProjectId,Driver interface card,44726976-6572-4206-996e-746572666163,rev?*%
%TF.SameCoordinates,Original*%
%TF.FileFunction,Legend,Top*%
%TF.FilePolarity,Positive*%
%FSLAX46Y46*%
G04 Gerber Fmt 4.6, Leading zero omitted, Abs format (unit mm)*
G04 Created by KiCad (PCBNEW 9.0.5) date 2026-03-13 11:36:52*
%MOMM*%
%LPD*%
G01*
G04 APERTURE LIST*
%ADD10C,0.150000*%
%ADD11C,0.152400*%
%ADD12C,0.508000*%
%ADD13C,0.120000*%
G04 APERTURE END LIST*
D10*
X102045180Y-99077066D02*
X101330895Y-99077066D01*
X101330895Y-99077066D02*
X101188038Y-99029447D01*
X101188038Y-99029447D02*
X101092800Y-98934209D01*
X101092800Y-98934209D02*
X101045180Y-98791352D01*
X101045180Y-98791352D02*
X101045180Y-98696114D01*
X101616609Y-99696114D02*
X101664228Y-99600876D01*
X101664228Y-99600876D02*
X101711847Y-99553257D01*
X101711847Y-99553257D02*
X101807085Y-99505638D01*
X101807085Y-99505638D02*
X101854704Y-99505638D01*
X101854704Y-99505638D02*
X101949942Y-99553257D01*
X101949942Y-99553257D02*
X101997561Y-99600876D01*
X101997561Y-99600876D02*
X102045180Y-99696114D01*
X102045180Y-99696114D02*
X102045180Y-99886590D01*
X102045180Y-99886590D02*
X101997561Y-99981828D01*
X101997561Y-99981828D02*
X101949942Y-100029447D01*
X101949942Y-100029447D02*
X101854704Y-100077066D01*
X101854704Y-100077066D02*
X101807085Y-100077066D01*
X101807085Y-100077066D02*
X101711847Y-100029447D01*
X101711847Y-100029447D02*
X101664228Y-99981828D01*
X101664228Y-99981828D02*
X101616609Y-99886590D01*
X101616609Y-99886590D02*
X101616609Y-99696114D01*
X101616609Y-99696114D02*
X101568990Y-99600876D01*
X101568990Y-99600876D02*
X101521371Y-99553257D01*
X101521371Y-99553257D02*
X101426133Y-99505638D01*
X101426133Y-99505638D02*
X101235657Y-99505638D01*
X101235657Y-99505638D02*
X101140419Y-99553257D01*
X101140419Y-99553257D02*
X101092800Y-99600876D01*
X101092800Y-99600876D02*
X101045180Y-99696114D01*
X101045180Y-99696114D02*
X101045180Y-99886590D01*
X101045180Y-99886590D02*
X101092800Y-99981828D01*
X101092800Y-99981828D02*
X101140419Y-100029447D01*
X101140419Y-100029447D02*
X101235657Y-100077066D01*
X101235657Y-100077066D02*
X101426133Y-100077066D01*
X101426133Y-100077066D02*
X101521371Y-100029447D01*
X101521371Y-100029447D02*
X101568990Y-99981828D01*
X101568990Y-99981828D02*
X101616609Y-99886590D01*
X196833333Y-87772080D02*
X196785714Y-87819700D01*
X196785714Y-87819700D02*
X196642857Y-87867319D01*
X196642857Y-87867319D02*
X196547619Y-87867319D01*
X196547619Y-87867319D02*
X196404762Y-87819700D01*
X196404762Y-87819700D02*
X196309524Y-87724461D01*
X196309524Y-87724461D02*
X196261905Y-87629223D01*
X196261905Y-87629223D02*
X196214286Y-87438747D01*
X196214286Y-87438747D02*
X196214286Y-87295890D01*
X196214286Y-87295890D02*
X196261905Y-87105414D01*
X196261905Y-87105414D02*
X196309524Y-87010176D01*
X196309524Y-87010176D02*
X196404762Y-86914938D01*
X196404762Y-86914938D02*
X196547619Y-86867319D01*
X196547619Y-86867319D02*
X196642857Y-86867319D01*
X196642857Y-86867319D02*
X196785714Y-86914938D01*
X196785714Y-86914938D02*
X196833333Y-86962557D01*
X197214286Y-86962557D02*
X197261905Y-86914938D01*
X197261905Y-86914938D02*
X197357143Y-86867319D01*
X197357143Y-86867319D02*
X197595238Y-86867319D01*
X197595238Y-86867319D02*
X197690476Y-86914938D01*
X197690476Y-86914938D02*
X197738095Y-86962557D01*
X197738095Y-86962557D02*
X197785714Y-87057795D01*
X197785714Y-87057795D02*
X197785714Y-87153033D01*
X197785714Y-87153033D02*
X197738095Y-87295890D01*
X197738095Y-87295890D02*
X197166667Y-87867319D01*
X197166667Y-87867319D02*
X197785714Y-87867319D01*
X208454819Y-56642857D02*
X207978628Y-56976190D01*
X208454819Y-57214285D02*
X207454819Y-57214285D01*
X207454819Y-57214285D02*
X207454819Y-56833333D01*
X207454819Y-56833333D02*
X207502438Y-56738095D01*
X207502438Y-56738095D02*
X207550057Y-56690476D01*
X207550057Y-56690476D02*
X207645295Y-56642857D01*
X207645295Y-56642857D02*
X207788152Y-56642857D01*
X207788152Y-56642857D02*
X207883390Y-56690476D01*
X207883390Y-56690476D02*
X207931009Y-56738095D01*
X207931009Y-56738095D02*
X207978628Y-56833333D01*
X207978628Y-56833333D02*
X207978628Y-57214285D01*
X207550057Y-56261904D02*
X207502438Y-56214285D01*
X207502438Y-56214285D02*
X207454819Y-56119047D01*
X207454819Y-56119047D02*
X207454819Y-55880952D01*
X207454819Y-55880952D02*
X207502438Y-55785714D01*
X207502438Y-55785714D02*
X207550057Y-55738095D01*
X207550057Y-55738095D02*
X207645295Y-55690476D01*
X207645295Y-55690476D02*
X207740533Y-55690476D01*
X207740533Y-55690476D02*
X207883390Y-55738095D01*
X207883390Y-55738095D02*
X208454819Y-56309523D01*
X208454819Y-56309523D02*
X208454819Y-55690476D01*
X207788152Y-54833333D02*
X208454819Y-54833333D01*
X207407200Y-55071428D02*
X208121485Y-55309523D01*
X208121485Y-55309523D02*
X208121485Y-54690476D01*
X177384819Y-56666666D02*
X176908628Y-56999999D01*
X177384819Y-57238094D02*
X176384819Y-57238094D01*
X176384819Y-57238094D02*
X176384819Y-56857142D01*
X176384819Y-56857142D02*
X176432438Y-56761904D01*
X176432438Y-56761904D02*
X176480057Y-56714285D01*
X176480057Y-56714285D02*
X176575295Y-56666666D01*
X176575295Y-56666666D02*
X176718152Y-56666666D01*
X176718152Y-56666666D02*
X176813390Y-56714285D01*
X176813390Y-56714285D02*
X176861009Y-56761904D01*
X176861009Y-56761904D02*
X176908628Y-56857142D01*
X176908628Y-56857142D02*
X176908628Y-57238094D01*
X176384819Y-56333332D02*
X176384819Y-55666666D01*
X176384819Y-55666666D02*
X177384819Y-56095237D01*
X202607142Y-91954819D02*
X202273809Y-91478628D01*
X202035714Y-91954819D02*
X202035714Y-90954819D01*
X202035714Y-90954819D02*
X202416666Y-90954819D01*
X202416666Y-90954819D02*
X202511904Y-91002438D01*
X202511904Y-91002438D02*
X202559523Y-91050057D01*
X202559523Y-91050057D02*
X202607142Y-91145295D01*
X202607142Y-91145295D02*
X202607142Y-91288152D01*
X202607142Y-91288152D02*
X202559523Y-91383390D01*
X202559523Y-91383390D02*
X202511904Y-91431009D01*
X202511904Y-91431009D02*
X202416666Y-91478628D01*
X202416666Y-91478628D02*
X202035714Y-91478628D01*
X203559523Y-91954819D02*
X202988095Y-91954819D01*
X203273809Y-91954819D02*
X203273809Y-90954819D01*
X203273809Y-90954819D02*
X203178571Y-91097676D01*
X203178571Y-91097676D02*
X203083333Y-91192914D01*
X203083333Y-91192914D02*
X202988095Y-91240533D01*
X203940476Y-91050057D02*
X203988095Y-91002438D01*
X203988095Y-91002438D02*
X204083333Y-90954819D01*
X204083333Y-90954819D02*
X204321428Y-90954819D01*
X204321428Y-90954819D02*
X204416666Y-91002438D01*
X204416666Y-91002438D02*
X204464285Y-91050057D01*
X204464285Y-91050057D02*
X204511904Y-91145295D01*
X204511904Y-91145295D02*
X204511904Y-91240533D01*
X204511904Y-91240533D02*
X204464285Y-91383390D01*
X204464285Y-91383390D02*
X203892857Y-91954819D01*
X203892857Y-91954819D02*
X204511904Y-91954819D01*
X208217819Y-71672933D02*
X208932104Y-71672933D01*
X208932104Y-71672933D02*
X209074961Y-71720552D01*
X209074961Y-71720552D02*
X209170200Y-71815790D01*
X209170200Y-71815790D02*
X209217819Y-71958647D01*
X209217819Y-71958647D02*
X209217819Y-72053885D01*
X208217819Y-70768171D02*
X208217819Y-70958647D01*
X208217819Y-70958647D02*
X208265438Y-71053885D01*
X208265438Y-71053885D02*
X208313057Y-71101504D01*
X208313057Y-71101504D02*
X208455914Y-71196742D01*
X208455914Y-71196742D02*
X208646390Y-71244361D01*
X208646390Y-71244361D02*
X209027342Y-71244361D01*
X209027342Y-71244361D02*
X209122580Y-71196742D01*
X209122580Y-71196742D02*
X209170200Y-71149123D01*
X209170200Y-71149123D02*
X209217819Y-71053885D01*
X209217819Y-71053885D02*
X209217819Y-70863409D01*
X209217819Y-70863409D02*
X209170200Y-70768171D01*
X209170200Y-70768171D02*
X209122580Y-70720552D01*
X209122580Y-70720552D02*
X209027342Y-70672933D01*
X209027342Y-70672933D02*
X208789247Y-70672933D01*
X208789247Y-70672933D02*
X208694009Y-70720552D01*
X208694009Y-70720552D02*
X208646390Y-70768171D01*
X208646390Y-70768171D02*
X208598771Y-70863409D01*
X208598771Y-70863409D02*
X208598771Y-71053885D01*
X208598771Y-71053885D02*
X208646390Y-71149123D01*
X208646390Y-71149123D02*
X208694009Y-71196742D01*
X208694009Y-71196742D02*
X208789247Y-71244361D01*
X104511905Y-90454819D02*
X104511905Y-89454819D01*
X104511905Y-89454819D02*
X104750000Y-89454819D01*
X104750000Y-89454819D02*
X104892857Y-89502438D01*
X104892857Y-89502438D02*
X104988095Y-89597676D01*
X104988095Y-89597676D02*
X105035714Y-89692914D01*
X105035714Y-89692914D02*
X105083333Y-89883390D01*
X105083333Y-89883390D02*
X105083333Y-90026247D01*
X105083333Y-90026247D02*
X105035714Y-90216723D01*
X105035714Y-90216723D02*
X104988095Y-90311961D01*
X104988095Y-90311961D02*
X104892857Y-90407200D01*
X104892857Y-90407200D02*
X104750000Y-90454819D01*
X104750000Y-90454819D02*
X104511905Y-90454819D01*
X105988095Y-89454819D02*
X105511905Y-89454819D01*
X105511905Y-89454819D02*
X105464286Y-89931009D01*
X105464286Y-89931009D02*
X105511905Y-89883390D01*
X105511905Y-89883390D02*
X105607143Y-89835771D01*
X105607143Y-89835771D02*
X105845238Y-89835771D01*
X105845238Y-89835771D02*
X105940476Y-89883390D01*
X105940476Y-89883390D02*
X105988095Y-89931009D01*
X105988095Y-89931009D02*
X106035714Y-90026247D01*
X106035714Y-90026247D02*
X106035714Y-90264342D01*
X106035714Y-90264342D02*
X105988095Y-90359580D01*
X105988095Y-90359580D02*
X105940476Y-90407200D01*
X105940476Y-90407200D02*
X105845238Y-90454819D01*
X105845238Y-90454819D02*
X105607143Y-90454819D01*
X105607143Y-90454819D02*
X105511905Y-90407200D01*
X105511905Y-90407200D02*
X105464286Y-90359580D01*
X196645833Y-82359580D02*
X196598214Y-82407200D01*
X196598214Y-82407200D02*
X196455357Y-82454819D01*
X196455357Y-82454819D02*
X196360119Y-82454819D01*
X196360119Y-82454819D02*
X196217262Y-82407200D01*
X196217262Y-82407200D02*
X196122024Y-82311961D01*
X196122024Y-82311961D02*
X196074405Y-82216723D01*
X196074405Y-82216723D02*
X196026786Y-82026247D01*
X196026786Y-82026247D02*
X196026786Y-81883390D01*
X196026786Y-81883390D02*
X196074405Y-81692914D01*
X196074405Y-81692914D02*
X196122024Y-81597676D01*
X196122024Y-81597676D02*
X196217262Y-81502438D01*
X196217262Y-81502438D02*
X196360119Y-81454819D01*
X196360119Y-81454819D02*
X196455357Y-81454819D01*
X196455357Y-81454819D02*
X196598214Y-81502438D01*
X196598214Y-81502438D02*
X196645833Y-81550057D01*
X197598214Y-82454819D02*
X197026786Y-82454819D01*
X197312500Y-82454819D02*
X197312500Y-81454819D01*
X197312500Y-81454819D02*
X197217262Y-81597676D01*
X197217262Y-81597676D02*
X197122024Y-81692914D01*
X197122024Y-81692914D02*
X197026786Y-81740533D01*
X215454819Y-54214285D02*
X214454819Y-54214285D01*
X214454819Y-54214285D02*
X214454819Y-53976190D01*
X214454819Y-53976190D02*
X214502438Y-53833333D01*
X214502438Y-53833333D02*
X214597676Y-53738095D01*
X214597676Y-53738095D02*
X214692914Y-53690476D01*
X214692914Y-53690476D02*
X214883390Y-53642857D01*
X214883390Y-53642857D02*
X215026247Y-53642857D01*
X215026247Y-53642857D02*
X215216723Y-53690476D01*
X215216723Y-53690476D02*
X215311961Y-53738095D01*
X215311961Y-53738095D02*
X215407200Y-53833333D01*
X215407200Y-53833333D02*
X215454819Y-53976190D01*
X215454819Y-53976190D02*
X215454819Y-54214285D01*
X215454819Y-52690476D02*
X215454819Y-53261904D01*
X215454819Y-52976190D02*
X214454819Y-52976190D01*
X214454819Y-52976190D02*
X214597676Y-53071428D01*
X214597676Y-53071428D02*
X214692914Y-53166666D01*
X214692914Y-53166666D02*
X214740533Y-53261904D01*
X214788152Y-51833333D02*
X215454819Y-51833333D01*
X214407200Y-52071428D02*
X215121485Y-52309523D01*
X215121485Y-52309523D02*
X215121485Y-51690476D01*
X123488095Y-53704819D02*
X123488095Y-54514342D01*
X123488095Y-54514342D02*
X123535714Y-54609580D01*
X123535714Y-54609580D02*
X123583333Y-54657200D01*
X123583333Y-54657200D02*
X123678571Y-54704819D01*
X123678571Y-54704819D02*
X123869047Y-54704819D01*
X123869047Y-54704819D02*
X123964285Y-54657200D01*
X123964285Y-54657200D02*
X124011904Y-54609580D01*
X124011904Y-54609580D02*
X124059523Y-54514342D01*
X124059523Y-54514342D02*
X124059523Y-53704819D01*
X125059523Y-54704819D02*
X124488095Y-54704819D01*
X124773809Y-54704819D02*
X124773809Y-53704819D01*
X124773809Y-53704819D02*
X124678571Y-53847676D01*
X124678571Y-53847676D02*
X124583333Y-53942914D01*
X124583333Y-53942914D02*
X124488095Y-53990533D01*
X198333333Y-63859580D02*
X198285714Y-63907200D01*
X198285714Y-63907200D02*
X198142857Y-63954819D01*
X198142857Y-63954819D02*
X198047619Y-63954819D01*
X198047619Y-63954819D02*
X197904762Y-63907200D01*
X197904762Y-63907200D02*
X197809524Y-63811961D01*
X197809524Y-63811961D02*
X197761905Y-63716723D01*
X197761905Y-63716723D02*
X197714286Y-63526247D01*
X197714286Y-63526247D02*
X197714286Y-63383390D01*
X197714286Y-63383390D02*
X197761905Y-63192914D01*
X197761905Y-63192914D02*
X197809524Y-63097676D01*
X197809524Y-63097676D02*
X197904762Y-63002438D01*
X197904762Y-63002438D02*
X198047619Y-62954819D01*
X198047619Y-62954819D02*
X198142857Y-62954819D01*
X198142857Y-62954819D02*
X198285714Y-63002438D01*
X198285714Y-63002438D02*
X198333333Y-63050057D01*
X198666667Y-62954819D02*
X199333333Y-62954819D01*
X199333333Y-62954819D02*
X198904762Y-63954819D01*
X193375312Y-53241819D02*
X193375312Y-52241819D01*
X193375312Y-52241819D02*
X193613407Y-52241819D01*
X193613407Y-52241819D02*
X193756264Y-52289438D01*
X193756264Y-52289438D02*
X193851502Y-52384676D01*
X193851502Y-52384676D02*
X193899121Y-52479914D01*
X193899121Y-52479914D02*
X193946740Y-52670390D01*
X193946740Y-52670390D02*
X193946740Y-52813247D01*
X193946740Y-52813247D02*
X193899121Y-53003723D01*
X193899121Y-53003723D02*
X193851502Y-53098961D01*
X193851502Y-53098961D02*
X193756264Y-53194200D01*
X193756264Y-53194200D02*
X193613407Y-53241819D01*
X193613407Y-53241819D02*
X193375312Y-53241819D01*
X194899121Y-53241819D02*
X194327693Y-53241819D01*
X194613407Y-53241819D02*
X194613407Y-52241819D01*
X194613407Y-52241819D02*
X194518169Y-52384676D01*
X194518169Y-52384676D02*
X194422931Y-52479914D01*
X194422931Y-52479914D02*
X194327693Y-52527533D01*
X195518169Y-52241819D02*
X195613407Y-52241819D01*
X195613407Y-52241819D02*
X195708645Y-52289438D01*
X195708645Y-52289438D02*
X195756264Y-52337057D01*
X195756264Y-52337057D02*
X195803883Y-52432295D01*
X195803883Y-52432295D02*
X195851502Y-52622771D01*
X195851502Y-52622771D02*
X195851502Y-52860866D01*
X195851502Y-52860866D02*
X195803883Y-53051342D01*
X195803883Y-53051342D02*
X195756264Y-53146580D01*
X195756264Y-53146580D02*
X195708645Y-53194200D01*
X195708645Y-53194200D02*
X195613407Y-53241819D01*
X195613407Y-53241819D02*
X195518169Y-53241819D01*
X195518169Y-53241819D02*
X195422931Y-53194200D01*
X195422931Y-53194200D02*
X195375312Y-53146580D01*
X195375312Y-53146580D02*
X195327693Y-53051342D01*
X195327693Y-53051342D02*
X195280074Y-52860866D01*
X195280074Y-52860866D02*
X195280074Y-52622771D01*
X195280074Y-52622771D02*
X195327693Y-52432295D01*
X195327693Y-52432295D02*
X195375312Y-52337057D01*
X195375312Y-52337057D02*
X195422931Y-52289438D01*
X195422931Y-52289438D02*
X195518169Y-52241819D01*
X187404761Y-59650057D02*
X187309523Y-59602438D01*
X187309523Y-59602438D02*
X187214285Y-59507200D01*
X187214285Y-59507200D02*
X187071428Y-59364342D01*
X187071428Y-59364342D02*
X186976190Y-59316723D01*
X186976190Y-59316723D02*
X186880952Y-59316723D01*
X186928571Y-59554819D02*
X186833333Y-59507200D01*
X186833333Y-59507200D02*
X186738095Y-59411961D01*
X186738095Y-59411961D02*
X186690476Y-59221485D01*
X186690476Y-59221485D02*
X186690476Y-58888152D01*
X186690476Y-58888152D02*
X186738095Y-58697676D01*
X186738095Y-58697676D02*
X186833333Y-58602438D01*
X186833333Y-58602438D02*
X186928571Y-58554819D01*
X186928571Y-58554819D02*
X187119047Y-58554819D01*
X187119047Y-58554819D02*
X187214285Y-58602438D01*
X187214285Y-58602438D02*
X187309523Y-58697676D01*
X187309523Y-58697676D02*
X187357142Y-58888152D01*
X187357142Y-58888152D02*
X187357142Y-59221485D01*
X187357142Y-59221485D02*
X187309523Y-59411961D01*
X187309523Y-59411961D02*
X187214285Y-59507200D01*
X187214285Y-59507200D02*
X187119047Y-59554819D01*
X187119047Y-59554819D02*
X186928571Y-59554819D01*
X187690476Y-58554819D02*
X188309523Y-58554819D01*
X188309523Y-58554819D02*
X187976190Y-58935771D01*
X187976190Y-58935771D02*
X188119047Y-58935771D01*
X188119047Y-58935771D02*
X188214285Y-58983390D01*
X188214285Y-58983390D02*
X188261904Y-59031009D01*
X188261904Y-59031009D02*
X188309523Y-59126247D01*
X188309523Y-59126247D02*
X188309523Y-59364342D01*
X188309523Y-59364342D02*
X188261904Y-59459580D01*
X188261904Y-59459580D02*
X188214285Y-59507200D01*
X188214285Y-59507200D02*
X188119047Y-59554819D01*
X188119047Y-59554819D02*
X187833333Y-59554819D01*
X187833333Y-59554819D02*
X187738095Y-59507200D01*
X187738095Y-59507200D02*
X187690476Y-59459580D01*
X104261905Y-81704819D02*
X104261905Y-80704819D01*
X104261905Y-80704819D02*
X104500000Y-80704819D01*
X104500000Y-80704819D02*
X104642857Y-80752438D01*
X104642857Y-80752438D02*
X104738095Y-80847676D01*
X104738095Y-80847676D02*
X104785714Y-80942914D01*
X104785714Y-80942914D02*
X104833333Y-81133390D01*
X104833333Y-81133390D02*
X104833333Y-81276247D01*
X104833333Y-81276247D02*
X104785714Y-81466723D01*
X104785714Y-81466723D02*
X104738095Y-81561961D01*
X104738095Y-81561961D02*
X104642857Y-81657200D01*
X104642857Y-81657200D02*
X104500000Y-81704819D01*
X104500000Y-81704819D02*
X104261905Y-81704819D01*
X105690476Y-81038152D02*
X105690476Y-81704819D01*
X105452381Y-80657200D02*
X105214286Y-81371485D01*
X105214286Y-81371485D02*
X105833333Y-81371485D01*
X194444642Y-57162319D02*
X194111309Y-56686128D01*
X193873214Y-57162319D02*
X193873214Y-56162319D01*
X193873214Y-56162319D02*
X194254166Y-56162319D01*
X194254166Y-56162319D02*
X194349404Y-56209938D01*
X194349404Y-56209938D02*
X194397023Y-56257557D01*
X194397023Y-56257557D02*
X194444642Y-56352795D01*
X194444642Y-56352795D02*
X194444642Y-56495652D01*
X194444642Y-56495652D02*
X194397023Y-56590890D01*
X194397023Y-56590890D02*
X194349404Y-56638509D01*
X194349404Y-56638509D02*
X194254166Y-56686128D01*
X194254166Y-56686128D02*
X193873214Y-56686128D01*
X195397023Y-57162319D02*
X194825595Y-57162319D01*
X195111309Y-57162319D02*
X195111309Y-56162319D01*
X195111309Y-56162319D02*
X195016071Y-56305176D01*
X195016071Y-56305176D02*
X194920833Y-56400414D01*
X194920833Y-56400414D02*
X194825595Y-56448033D01*
X195730357Y-56162319D02*
X196397023Y-56162319D01*
X196397023Y-56162319D02*
X195968452Y-57162319D01*
X104261905Y-52204819D02*
X104261905Y-51204819D01*
X104261905Y-51204819D02*
X104500000Y-51204819D01*
X104500000Y-51204819D02*
X104642857Y-51252438D01*
X104642857Y-51252438D02*
X104738095Y-51347676D01*
X104738095Y-51347676D02*
X104785714Y-51442914D01*
X104785714Y-51442914D02*
X104833333Y-51633390D01*
X104833333Y-51633390D02*
X104833333Y-51776247D01*
X104833333Y-51776247D02*
X104785714Y-51966723D01*
X104785714Y-51966723D02*
X104738095Y-52061961D01*
X104738095Y-52061961D02*
X104642857Y-52157200D01*
X104642857Y-52157200D02*
X104500000Y-52204819D01*
X104500000Y-52204819D02*
X104261905Y-52204819D01*
X105309524Y-52204819D02*
X105500000Y-52204819D01*
X105500000Y-52204819D02*
X105595238Y-52157200D01*
X105595238Y-52157200D02*
X105642857Y-52109580D01*
X105642857Y-52109580D02*
X105738095Y-51966723D01*
X105738095Y-51966723D02*
X105785714Y-51776247D01*
X105785714Y-51776247D02*
X105785714Y-51395295D01*
X105785714Y-51395295D02*
X105738095Y-51300057D01*
X105738095Y-51300057D02*
X105690476Y-51252438D01*
X105690476Y-51252438D02*
X105595238Y-51204819D01*
X105595238Y-51204819D02*
X105404762Y-51204819D01*
X105404762Y-51204819D02*
X105309524Y-51252438D01*
X105309524Y-51252438D02*
X105261905Y-51300057D01*
X105261905Y-51300057D02*
X105214286Y-51395295D01*
X105214286Y-51395295D02*
X105214286Y-51633390D01*
X105214286Y-51633390D02*
X105261905Y-51728628D01*
X105261905Y-51728628D02*
X105309524Y-51776247D01*
X105309524Y-51776247D02*
X105404762Y-51823866D01*
X105404762Y-51823866D02*
X105595238Y-51823866D01*
X105595238Y-51823866D02*
X105690476Y-51776247D01*
X105690476Y-51776247D02*
X105738095Y-51728628D01*
X105738095Y-51728628D02*
X105785714Y-51633390D01*
X120333333Y-56359580D02*
X120285714Y-56407200D01*
X120285714Y-56407200D02*
X120142857Y-56454819D01*
X120142857Y-56454819D02*
X120047619Y-56454819D01*
X120047619Y-56454819D02*
X119904762Y-56407200D01*
X119904762Y-56407200D02*
X119809524Y-56311961D01*
X119809524Y-56311961D02*
X119761905Y-56216723D01*
X119761905Y-56216723D02*
X119714286Y-56026247D01*
X119714286Y-56026247D02*
X119714286Y-55883390D01*
X119714286Y-55883390D02*
X119761905Y-55692914D01*
X119761905Y-55692914D02*
X119809524Y-55597676D01*
X119809524Y-55597676D02*
X119904762Y-55502438D01*
X119904762Y-55502438D02*
X120047619Y-55454819D01*
X120047619Y-55454819D02*
X120142857Y-55454819D01*
X120142857Y-55454819D02*
X120285714Y-55502438D01*
X120285714Y-55502438D02*
X120333333Y-55550057D01*
X120666667Y-55454819D02*
X121285714Y-55454819D01*
X121285714Y-55454819D02*
X120952381Y-55835771D01*
X120952381Y-55835771D02*
X121095238Y-55835771D01*
X121095238Y-55835771D02*
X121190476Y-55883390D01*
X121190476Y-55883390D02*
X121238095Y-55931009D01*
X121238095Y-55931009D02*
X121285714Y-56026247D01*
X121285714Y-56026247D02*
X121285714Y-56264342D01*
X121285714Y-56264342D02*
X121238095Y-56359580D01*
X121238095Y-56359580D02*
X121190476Y-56407200D01*
X121190476Y-56407200D02*
X121095238Y-56454819D01*
X121095238Y-56454819D02*
X120809524Y-56454819D01*
X120809524Y-56454819D02*
X120714286Y-56407200D01*
X120714286Y-56407200D02*
X120666667Y-56359580D01*
X160454819Y-54200594D02*
X159454819Y-54200594D01*
X159454819Y-54200594D02*
X159454819Y-53962499D01*
X159454819Y-53962499D02*
X159502438Y-53819642D01*
X159502438Y-53819642D02*
X159597676Y-53724404D01*
X159597676Y-53724404D02*
X159692914Y-53676785D01*
X159692914Y-53676785D02*
X159883390Y-53629166D01*
X159883390Y-53629166D02*
X160026247Y-53629166D01*
X160026247Y-53629166D02*
X160216723Y-53676785D01*
X160216723Y-53676785D02*
X160311961Y-53724404D01*
X160311961Y-53724404D02*
X160407200Y-53819642D01*
X160407200Y-53819642D02*
X160454819Y-53962499D01*
X160454819Y-53962499D02*
X160454819Y-54200594D01*
X159454819Y-52772023D02*
X159454819Y-52962499D01*
X159454819Y-52962499D02*
X159502438Y-53057737D01*
X159502438Y-53057737D02*
X159550057Y-53105356D01*
X159550057Y-53105356D02*
X159692914Y-53200594D01*
X159692914Y-53200594D02*
X159883390Y-53248213D01*
X159883390Y-53248213D02*
X160264342Y-53248213D01*
X160264342Y-53248213D02*
X160359580Y-53200594D01*
X160359580Y-53200594D02*
X160407200Y-53152975D01*
X160407200Y-53152975D02*
X160454819Y-53057737D01*
X160454819Y-53057737D02*
X160454819Y-52867261D01*
X160454819Y-52867261D02*
X160407200Y-52772023D01*
X160407200Y-52772023D02*
X160359580Y-52724404D01*
X160359580Y-52724404D02*
X160264342Y-52676785D01*
X160264342Y-52676785D02*
X160026247Y-52676785D01*
X160026247Y-52676785D02*
X159931009Y-52724404D01*
X159931009Y-52724404D02*
X159883390Y-52772023D01*
X159883390Y-52772023D02*
X159835771Y-52867261D01*
X159835771Y-52867261D02*
X159835771Y-53057737D01*
X159835771Y-53057737D02*
X159883390Y-53152975D01*
X159883390Y-53152975D02*
X159931009Y-53200594D01*
X159931009Y-53200594D02*
X160026247Y-53248213D01*
X205107142Y-59204819D02*
X204773809Y-58728628D01*
X204535714Y-59204819D02*
X204535714Y-58204819D01*
X204535714Y-58204819D02*
X204916666Y-58204819D01*
X204916666Y-58204819D02*
X205011904Y-58252438D01*
X205011904Y-58252438D02*
X205059523Y-58300057D01*
X205059523Y-58300057D02*
X205107142Y-58395295D01*
X205107142Y-58395295D02*
X205107142Y-58538152D01*
X205107142Y-58538152D02*
X205059523Y-58633390D01*
X205059523Y-58633390D02*
X205011904Y-58681009D01*
X205011904Y-58681009D02*
X204916666Y-58728628D01*
X204916666Y-58728628D02*
X204535714Y-58728628D01*
X206059523Y-59204819D02*
X205488095Y-59204819D01*
X205773809Y-59204819D02*
X205773809Y-58204819D01*
X205773809Y-58204819D02*
X205678571Y-58347676D01*
X205678571Y-58347676D02*
X205583333Y-58442914D01*
X205583333Y-58442914D02*
X205488095Y-58490533D01*
X206535714Y-59204819D02*
X206726190Y-59204819D01*
X206726190Y-59204819D02*
X206821428Y-59157200D01*
X206821428Y-59157200D02*
X206869047Y-59109580D01*
X206869047Y-59109580D02*
X206964285Y-58966723D01*
X206964285Y-58966723D02*
X207011904Y-58776247D01*
X207011904Y-58776247D02*
X207011904Y-58395295D01*
X207011904Y-58395295D02*
X206964285Y-58300057D01*
X206964285Y-58300057D02*
X206916666Y-58252438D01*
X206916666Y-58252438D02*
X206821428Y-58204819D01*
X206821428Y-58204819D02*
X206630952Y-58204819D01*
X206630952Y-58204819D02*
X206535714Y-58252438D01*
X206535714Y-58252438D02*
X206488095Y-58300057D01*
X206488095Y-58300057D02*
X206440476Y-58395295D01*
X206440476Y-58395295D02*
X206440476Y-58633390D01*
X206440476Y-58633390D02*
X206488095Y-58728628D01*
X206488095Y-58728628D02*
X206535714Y-58776247D01*
X206535714Y-58776247D02*
X206630952Y-58823866D01*
X206630952Y-58823866D02*
X206821428Y-58823866D01*
X206821428Y-58823866D02*
X206916666Y-58776247D01*
X206916666Y-58776247D02*
X206964285Y-58728628D01*
X206964285Y-58728628D02*
X207011904Y-58633390D01*
X111180596Y-65234650D02*
X111228216Y-65282269D01*
X111228216Y-65282269D02*
X111275835Y-65425126D01*
X111275835Y-65425126D02*
X111275835Y-65520364D01*
X111275835Y-65520364D02*
X111228216Y-65663221D01*
X111228216Y-65663221D02*
X111132977Y-65758459D01*
X111132977Y-65758459D02*
X111037739Y-65806078D01*
X111037739Y-65806078D02*
X110847263Y-65853697D01*
X110847263Y-65853697D02*
X110704406Y-65853697D01*
X110704406Y-65853697D02*
X110513930Y-65806078D01*
X110513930Y-65806078D02*
X110418692Y-65758459D01*
X110418692Y-65758459D02*
X110323454Y-65663221D01*
X110323454Y-65663221D02*
X110275835Y-65520364D01*
X110275835Y-65520364D02*
X110275835Y-65425126D01*
X110275835Y-65425126D02*
X110323454Y-65282269D01*
X110323454Y-65282269D02*
X110371073Y-65234650D01*
X110609168Y-64377507D02*
X111275835Y-64377507D01*
X110228216Y-64615602D02*
X110942501Y-64853697D01*
X110942501Y-64853697D02*
X110942501Y-64234650D01*
X194357142Y-64162319D02*
X194023809Y-63686128D01*
X193785714Y-64162319D02*
X193785714Y-63162319D01*
X193785714Y-63162319D02*
X194166666Y-63162319D01*
X194166666Y-63162319D02*
X194261904Y-63209938D01*
X194261904Y-63209938D02*
X194309523Y-63257557D01*
X194309523Y-63257557D02*
X194357142Y-63352795D01*
X194357142Y-63352795D02*
X194357142Y-63495652D01*
X194357142Y-63495652D02*
X194309523Y-63590890D01*
X194309523Y-63590890D02*
X194261904Y-63638509D01*
X194261904Y-63638509D02*
X194166666Y-63686128D01*
X194166666Y-63686128D02*
X193785714Y-63686128D01*
X195309523Y-64162319D02*
X194738095Y-64162319D01*
X195023809Y-64162319D02*
X195023809Y-63162319D01*
X195023809Y-63162319D02*
X194928571Y-63305176D01*
X194928571Y-63305176D02*
X194833333Y-63400414D01*
X194833333Y-63400414D02*
X194738095Y-63448033D01*
X195880952Y-63590890D02*
X195785714Y-63543271D01*
X195785714Y-63543271D02*
X195738095Y-63495652D01*
X195738095Y-63495652D02*
X195690476Y-63400414D01*
X195690476Y-63400414D02*
X195690476Y-63352795D01*
X195690476Y-63352795D02*
X195738095Y-63257557D01*
X195738095Y-63257557D02*
X195785714Y-63209938D01*
X195785714Y-63209938D02*
X195880952Y-63162319D01*
X195880952Y-63162319D02*
X196071428Y-63162319D01*
X196071428Y-63162319D02*
X196166666Y-63209938D01*
X196166666Y-63209938D02*
X196214285Y-63257557D01*
X196214285Y-63257557D02*
X196261904Y-63352795D01*
X196261904Y-63352795D02*
X196261904Y-63400414D01*
X196261904Y-63400414D02*
X196214285Y-63495652D01*
X196214285Y-63495652D02*
X196166666Y-63543271D01*
X196166666Y-63543271D02*
X196071428Y-63590890D01*
X196071428Y-63590890D02*
X195880952Y-63590890D01*
X195880952Y-63590890D02*
X195785714Y-63638509D01*
X195785714Y-63638509D02*
X195738095Y-63686128D01*
X195738095Y-63686128D02*
X195690476Y-63781366D01*
X195690476Y-63781366D02*
X195690476Y-63971842D01*
X195690476Y-63971842D02*
X195738095Y-64067080D01*
X195738095Y-64067080D02*
X195785714Y-64114700D01*
X195785714Y-64114700D02*
X195880952Y-64162319D01*
X195880952Y-64162319D02*
X196071428Y-64162319D01*
X196071428Y-64162319D02*
X196166666Y-64114700D01*
X196166666Y-64114700D02*
X196214285Y-64067080D01*
X196214285Y-64067080D02*
X196261904Y-63971842D01*
X196261904Y-63971842D02*
X196261904Y-63781366D01*
X196261904Y-63781366D02*
X196214285Y-63686128D01*
X196214285Y-63686128D02*
X196166666Y-63638509D01*
X196166666Y-63638509D02*
X196071428Y-63590890D01*
X210454819Y-56642857D02*
X209978628Y-56976190D01*
X210454819Y-57214285D02*
X209454819Y-57214285D01*
X209454819Y-57214285D02*
X209454819Y-56833333D01*
X209454819Y-56833333D02*
X209502438Y-56738095D01*
X209502438Y-56738095D02*
X209550057Y-56690476D01*
X209550057Y-56690476D02*
X209645295Y-56642857D01*
X209645295Y-56642857D02*
X209788152Y-56642857D01*
X209788152Y-56642857D02*
X209883390Y-56690476D01*
X209883390Y-56690476D02*
X209931009Y-56738095D01*
X209931009Y-56738095D02*
X209978628Y-56833333D01*
X209978628Y-56833333D02*
X209978628Y-57214285D01*
X209550057Y-56261904D02*
X209502438Y-56214285D01*
X209502438Y-56214285D02*
X209454819Y-56119047D01*
X209454819Y-56119047D02*
X209454819Y-55880952D01*
X209454819Y-55880952D02*
X209502438Y-55785714D01*
X209502438Y-55785714D02*
X209550057Y-55738095D01*
X209550057Y-55738095D02*
X209645295Y-55690476D01*
X209645295Y-55690476D02*
X209740533Y-55690476D01*
X209740533Y-55690476D02*
X209883390Y-55738095D01*
X209883390Y-55738095D02*
X210454819Y-56309523D01*
X210454819Y-56309523D02*
X210454819Y-55690476D01*
X209550057Y-55309523D02*
X209502438Y-55261904D01*
X209502438Y-55261904D02*
X209454819Y-55166666D01*
X209454819Y-55166666D02*
X209454819Y-54928571D01*
X209454819Y-54928571D02*
X209502438Y-54833333D01*
X209502438Y-54833333D02*
X209550057Y-54785714D01*
X209550057Y-54785714D02*
X209645295Y-54738095D01*
X209645295Y-54738095D02*
X209740533Y-54738095D01*
X209740533Y-54738095D02*
X209883390Y-54785714D01*
X209883390Y-54785714D02*
X210454819Y-55357142D01*
X210454819Y-55357142D02*
X210454819Y-54738095D01*
X148454819Y-56166666D02*
X147978628Y-56499999D01*
X148454819Y-56738094D02*
X147454819Y-56738094D01*
X147454819Y-56738094D02*
X147454819Y-56357142D01*
X147454819Y-56357142D02*
X147502438Y-56261904D01*
X147502438Y-56261904D02*
X147550057Y-56214285D01*
X147550057Y-56214285D02*
X147645295Y-56166666D01*
X147645295Y-56166666D02*
X147788152Y-56166666D01*
X147788152Y-56166666D02*
X147883390Y-56214285D01*
X147883390Y-56214285D02*
X147931009Y-56261904D01*
X147931009Y-56261904D02*
X147978628Y-56357142D01*
X147978628Y-56357142D02*
X147978628Y-56738094D01*
X148454819Y-55214285D02*
X148454819Y-55785713D01*
X148454819Y-55499999D02*
X147454819Y-55499999D01*
X147454819Y-55499999D02*
X147597676Y-55595237D01*
X147597676Y-55595237D02*
X147692914Y-55690475D01*
X147692914Y-55690475D02*
X147740533Y-55785713D01*
X134833333Y-56704819D02*
X134357143Y-56704819D01*
X134357143Y-56704819D02*
X134357143Y-55704819D01*
X135690476Y-56704819D02*
X135119048Y-56704819D01*
X135404762Y-56704819D02*
X135404762Y-55704819D01*
X135404762Y-55704819D02*
X135309524Y-55847676D01*
X135309524Y-55847676D02*
X135214286Y-55942914D01*
X135214286Y-55942914D02*
X135119048Y-55990533D01*
X155407200Y-55333332D02*
X155454819Y-55190475D01*
X155454819Y-55190475D02*
X155454819Y-54952380D01*
X155454819Y-54952380D02*
X155407200Y-54857142D01*
X155407200Y-54857142D02*
X155359580Y-54809523D01*
X155359580Y-54809523D02*
X155264342Y-54761904D01*
X155264342Y-54761904D02*
X155169104Y-54761904D01*
X155169104Y-54761904D02*
X155073866Y-54809523D01*
X155073866Y-54809523D02*
X155026247Y-54857142D01*
X155026247Y-54857142D02*
X154978628Y-54952380D01*
X154978628Y-54952380D02*
X154931009Y-55142856D01*
X154931009Y-55142856D02*
X154883390Y-55238094D01*
X154883390Y-55238094D02*
X154835771Y-55285713D01*
X154835771Y-55285713D02*
X154740533Y-55333332D01*
X154740533Y-55333332D02*
X154645295Y-55333332D01*
X154645295Y-55333332D02*
X154550057Y-55285713D01*
X154550057Y-55285713D02*
X154502438Y-55238094D01*
X154502438Y-55238094D02*
X154454819Y-55142856D01*
X154454819Y-55142856D02*
X154454819Y-54904761D01*
X154454819Y-54904761D02*
X154502438Y-54761904D01*
X154454819Y-54428570D02*
X155454819Y-54190475D01*
X155454819Y-54190475D02*
X154740533Y-53999999D01*
X154740533Y-53999999D02*
X155454819Y-53809523D01*
X155454819Y-53809523D02*
X154454819Y-53571428D01*
X154550057Y-53238094D02*
X154502438Y-53190475D01*
X154502438Y-53190475D02*
X154454819Y-53095237D01*
X154454819Y-53095237D02*
X154454819Y-52857142D01*
X154454819Y-52857142D02*
X154502438Y-52761904D01*
X154502438Y-52761904D02*
X154550057Y-52714285D01*
X154550057Y-52714285D02*
X154645295Y-52666666D01*
X154645295Y-52666666D02*
X154740533Y-52666666D01*
X154740533Y-52666666D02*
X154883390Y-52714285D01*
X154883390Y-52714285D02*
X155454819Y-53285713D01*
X155454819Y-53285713D02*
X155454819Y-52666666D01*
X131566349Y-81422963D02*
X131518730Y-81470583D01*
X131518730Y-81470583D02*
X131375873Y-81518202D01*
X131375873Y-81518202D02*
X131280635Y-81518202D01*
X131280635Y-81518202D02*
X131137778Y-81470583D01*
X131137778Y-81470583D02*
X131042540Y-81375344D01*
X131042540Y-81375344D02*
X130994921Y-81280106D01*
X130994921Y-81280106D02*
X130947302Y-81089630D01*
X130947302Y-81089630D02*
X130947302Y-80946773D01*
X130947302Y-80946773D02*
X130994921Y-80756297D01*
X130994921Y-80756297D02*
X131042540Y-80661059D01*
X131042540Y-80661059D02*
X131137778Y-80565821D01*
X131137778Y-80565821D02*
X131280635Y-80518202D01*
X131280635Y-80518202D02*
X131375873Y-80518202D01*
X131375873Y-80518202D02*
X131518730Y-80565821D01*
X131518730Y-80565821D02*
X131566349Y-80613440D01*
X132471111Y-80518202D02*
X131994921Y-80518202D01*
X131994921Y-80518202D02*
X131947302Y-80994392D01*
X131947302Y-80994392D02*
X131994921Y-80946773D01*
X131994921Y-80946773D02*
X132090159Y-80899154D01*
X132090159Y-80899154D02*
X132328254Y-80899154D01*
X132328254Y-80899154D02*
X132423492Y-80946773D01*
X132423492Y-80946773D02*
X132471111Y-80994392D01*
X132471111Y-80994392D02*
X132518730Y-81089630D01*
X132518730Y-81089630D02*
X132518730Y-81327725D01*
X132518730Y-81327725D02*
X132471111Y-81422963D01*
X132471111Y-81422963D02*
X132423492Y-81470583D01*
X132423492Y-81470583D02*
X132328254Y-81518202D01*
X132328254Y-81518202D02*
X132090159Y-81518202D01*
X132090159Y-81518202D02*
X131994921Y-81470583D01*
X131994921Y-81470583D02*
X131947302Y-81422963D01*
X160454819Y-57105357D02*
X159978628Y-57438690D01*
X160454819Y-57676785D02*
X159454819Y-57676785D01*
X159454819Y-57676785D02*
X159454819Y-57295833D01*
X159454819Y-57295833D02*
X159502438Y-57200595D01*
X159502438Y-57200595D02*
X159550057Y-57152976D01*
X159550057Y-57152976D02*
X159645295Y-57105357D01*
X159645295Y-57105357D02*
X159788152Y-57105357D01*
X159788152Y-57105357D02*
X159883390Y-57152976D01*
X159883390Y-57152976D02*
X159931009Y-57200595D01*
X159931009Y-57200595D02*
X159978628Y-57295833D01*
X159978628Y-57295833D02*
X159978628Y-57676785D01*
X160454819Y-56152976D02*
X160454819Y-56724404D01*
X160454819Y-56438690D02*
X159454819Y-56438690D01*
X159454819Y-56438690D02*
X159597676Y-56533928D01*
X159597676Y-56533928D02*
X159692914Y-56629166D01*
X159692914Y-56629166D02*
X159740533Y-56724404D01*
X159454819Y-55819642D02*
X159454819Y-55200595D01*
X159454819Y-55200595D02*
X159835771Y-55533928D01*
X159835771Y-55533928D02*
X159835771Y-55391071D01*
X159835771Y-55391071D02*
X159883390Y-55295833D01*
X159883390Y-55295833D02*
X159931009Y-55248214D01*
X159931009Y-55248214D02*
X160026247Y-55200595D01*
X160026247Y-55200595D02*
X160264342Y-55200595D01*
X160264342Y-55200595D02*
X160359580Y-55248214D01*
X160359580Y-55248214D02*
X160407200Y-55295833D01*
X160407200Y-55295833D02*
X160454819Y-55391071D01*
X160454819Y-55391071D02*
X160454819Y-55676785D01*
X160454819Y-55676785D02*
X160407200Y-55772023D01*
X160407200Y-55772023D02*
X160359580Y-55819642D01*
X189294642Y-87937319D02*
X188961309Y-87461128D01*
X188723214Y-87937319D02*
X188723214Y-86937319D01*
X188723214Y-86937319D02*
X189104166Y-86937319D01*
X189104166Y-86937319D02*
X189199404Y-86984938D01*
X189199404Y-86984938D02*
X189247023Y-87032557D01*
X189247023Y-87032557D02*
X189294642Y-87127795D01*
X189294642Y-87127795D02*
X189294642Y-87270652D01*
X189294642Y-87270652D02*
X189247023Y-87365890D01*
X189247023Y-87365890D02*
X189199404Y-87413509D01*
X189199404Y-87413509D02*
X189104166Y-87461128D01*
X189104166Y-87461128D02*
X188723214Y-87461128D01*
X190247023Y-87937319D02*
X189675595Y-87937319D01*
X189961309Y-87937319D02*
X189961309Y-86937319D01*
X189961309Y-86937319D02*
X189866071Y-87080176D01*
X189866071Y-87080176D02*
X189770833Y-87175414D01*
X189770833Y-87175414D02*
X189675595Y-87223033D01*
X190866071Y-86937319D02*
X190961309Y-86937319D01*
X190961309Y-86937319D02*
X191056547Y-86984938D01*
X191056547Y-86984938D02*
X191104166Y-87032557D01*
X191104166Y-87032557D02*
X191151785Y-87127795D01*
X191151785Y-87127795D02*
X191199404Y-87318271D01*
X191199404Y-87318271D02*
X191199404Y-87556366D01*
X191199404Y-87556366D02*
X191151785Y-87746842D01*
X191151785Y-87746842D02*
X191104166Y-87842080D01*
X191104166Y-87842080D02*
X191056547Y-87889700D01*
X191056547Y-87889700D02*
X190961309Y-87937319D01*
X190961309Y-87937319D02*
X190866071Y-87937319D01*
X190866071Y-87937319D02*
X190770833Y-87889700D01*
X190770833Y-87889700D02*
X190723214Y-87842080D01*
X190723214Y-87842080D02*
X190675595Y-87746842D01*
X190675595Y-87746842D02*
X190627976Y-87556366D01*
X190627976Y-87556366D02*
X190627976Y-87318271D01*
X190627976Y-87318271D02*
X190675595Y-87127795D01*
X190675595Y-87127795D02*
X190723214Y-87032557D01*
X190723214Y-87032557D02*
X190770833Y-86984938D01*
X190770833Y-86984938D02*
X190866071Y-86937319D01*
X192857142Y-87867319D02*
X192523809Y-87391128D01*
X192285714Y-87867319D02*
X192285714Y-86867319D01*
X192285714Y-86867319D02*
X192666666Y-86867319D01*
X192666666Y-86867319D02*
X192761904Y-86914938D01*
X192761904Y-86914938D02*
X192809523Y-86962557D01*
X192809523Y-86962557D02*
X192857142Y-87057795D01*
X192857142Y-87057795D02*
X192857142Y-87200652D01*
X192857142Y-87200652D02*
X192809523Y-87295890D01*
X192809523Y-87295890D02*
X192761904Y-87343509D01*
X192761904Y-87343509D02*
X192666666Y-87391128D01*
X192666666Y-87391128D02*
X192285714Y-87391128D01*
X193809523Y-87867319D02*
X193238095Y-87867319D01*
X193523809Y-87867319D02*
X193523809Y-86867319D01*
X193523809Y-86867319D02*
X193428571Y-87010176D01*
X193428571Y-87010176D02*
X193333333Y-87105414D01*
X193333333Y-87105414D02*
X193238095Y-87153033D01*
X194761904Y-87867319D02*
X194190476Y-87867319D01*
X194476190Y-87867319D02*
X194476190Y-86867319D01*
X194476190Y-86867319D02*
X194380952Y-87010176D01*
X194380952Y-87010176D02*
X194285714Y-87105414D01*
X194285714Y-87105414D02*
X194190476Y-87153033D01*
X143407200Y-55333332D02*
X143454819Y-55190475D01*
X143454819Y-55190475D02*
X143454819Y-54952380D01*
X143454819Y-54952380D02*
X143407200Y-54857142D01*
X143407200Y-54857142D02*
X143359580Y-54809523D01*
X143359580Y-54809523D02*
X143264342Y-54761904D01*
X143264342Y-54761904D02*
X143169104Y-54761904D01*
X143169104Y-54761904D02*
X143073866Y-54809523D01*
X143073866Y-54809523D02*
X143026247Y-54857142D01*
X143026247Y-54857142D02*
X142978628Y-54952380D01*
X142978628Y-54952380D02*
X142931009Y-55142856D01*
X142931009Y-55142856D02*
X142883390Y-55238094D01*
X142883390Y-55238094D02*
X142835771Y-55285713D01*
X142835771Y-55285713D02*
X142740533Y-55333332D01*
X142740533Y-55333332D02*
X142645295Y-55333332D01*
X142645295Y-55333332D02*
X142550057Y-55285713D01*
X142550057Y-55285713D02*
X142502438Y-55238094D01*
X142502438Y-55238094D02*
X142454819Y-55142856D01*
X142454819Y-55142856D02*
X142454819Y-54904761D01*
X142454819Y-54904761D02*
X142502438Y-54761904D01*
X142454819Y-54428570D02*
X143454819Y-54190475D01*
X143454819Y-54190475D02*
X142740533Y-53999999D01*
X142740533Y-53999999D02*
X143454819Y-53809523D01*
X143454819Y-53809523D02*
X142454819Y-53571428D01*
X143454819Y-52666666D02*
X143454819Y-53238094D01*
X143454819Y-52952380D02*
X142454819Y-52952380D01*
X142454819Y-52952380D02*
X142597676Y-53047618D01*
X142597676Y-53047618D02*
X142692914Y-53142856D01*
X142692914Y-53142856D02*
X142740533Y-53238094D01*
X198333333Y-56859580D02*
X198285714Y-56907200D01*
X198285714Y-56907200D02*
X198142857Y-56954819D01*
X198142857Y-56954819D02*
X198047619Y-56954819D01*
X198047619Y-56954819D02*
X197904762Y-56907200D01*
X197904762Y-56907200D02*
X197809524Y-56811961D01*
X197809524Y-56811961D02*
X197761905Y-56716723D01*
X197761905Y-56716723D02*
X197714286Y-56526247D01*
X197714286Y-56526247D02*
X197714286Y-56383390D01*
X197714286Y-56383390D02*
X197761905Y-56192914D01*
X197761905Y-56192914D02*
X197809524Y-56097676D01*
X197809524Y-56097676D02*
X197904762Y-56002438D01*
X197904762Y-56002438D02*
X198047619Y-55954819D01*
X198047619Y-55954819D02*
X198142857Y-55954819D01*
X198142857Y-55954819D02*
X198285714Y-56002438D01*
X198285714Y-56002438D02*
X198333333Y-56050057D01*
X199190476Y-55954819D02*
X199000000Y-55954819D01*
X199000000Y-55954819D02*
X198904762Y-56002438D01*
X198904762Y-56002438D02*
X198857143Y-56050057D01*
X198857143Y-56050057D02*
X198761905Y-56192914D01*
X198761905Y-56192914D02*
X198714286Y-56383390D01*
X198714286Y-56383390D02*
X198714286Y-56764342D01*
X198714286Y-56764342D02*
X198761905Y-56859580D01*
X198761905Y-56859580D02*
X198809524Y-56907200D01*
X198809524Y-56907200D02*
X198904762Y-56954819D01*
X198904762Y-56954819D02*
X199095238Y-56954819D01*
X199095238Y-56954819D02*
X199190476Y-56907200D01*
X199190476Y-56907200D02*
X199238095Y-56859580D01*
X199238095Y-56859580D02*
X199285714Y-56764342D01*
X199285714Y-56764342D02*
X199285714Y-56526247D01*
X199285714Y-56526247D02*
X199238095Y-56431009D01*
X199238095Y-56431009D02*
X199190476Y-56383390D01*
X199190476Y-56383390D02*
X199095238Y-56335771D01*
X199095238Y-56335771D02*
X198904762Y-56335771D01*
X198904762Y-56335771D02*
X198809524Y-56383390D01*
X198809524Y-56383390D02*
X198761905Y-56431009D01*
X198761905Y-56431009D02*
X198714286Y-56526247D01*
X210454819Y-54214285D02*
X209454819Y-54214285D01*
X209454819Y-54214285D02*
X209454819Y-53976190D01*
X209454819Y-53976190D02*
X209502438Y-53833333D01*
X209502438Y-53833333D02*
X209597676Y-53738095D01*
X209597676Y-53738095D02*
X209692914Y-53690476D01*
X209692914Y-53690476D02*
X209883390Y-53642857D01*
X209883390Y-53642857D02*
X210026247Y-53642857D01*
X210026247Y-53642857D02*
X210216723Y-53690476D01*
X210216723Y-53690476D02*
X210311961Y-53738095D01*
X210311961Y-53738095D02*
X210407200Y-53833333D01*
X210407200Y-53833333D02*
X210454819Y-53976190D01*
X210454819Y-53976190D02*
X210454819Y-54214285D01*
X210454819Y-52690476D02*
X210454819Y-53261904D01*
X210454819Y-52976190D02*
X209454819Y-52976190D01*
X209454819Y-52976190D02*
X209597676Y-53071428D01*
X209597676Y-53071428D02*
X209692914Y-53166666D01*
X209692914Y-53166666D02*
X209740533Y-53261904D01*
X209454819Y-51785714D02*
X209454819Y-52261904D01*
X209454819Y-52261904D02*
X209931009Y-52309523D01*
X209931009Y-52309523D02*
X209883390Y-52261904D01*
X209883390Y-52261904D02*
X209835771Y-52166666D01*
X209835771Y-52166666D02*
X209835771Y-51928571D01*
X209835771Y-51928571D02*
X209883390Y-51833333D01*
X209883390Y-51833333D02*
X209931009Y-51785714D01*
X209931009Y-51785714D02*
X210026247Y-51738095D01*
X210026247Y-51738095D02*
X210264342Y-51738095D01*
X210264342Y-51738095D02*
X210359580Y-51785714D01*
X210359580Y-51785714D02*
X210407200Y-51833333D01*
X210407200Y-51833333D02*
X210454819Y-51928571D01*
X210454819Y-51928571D02*
X210454819Y-52166666D01*
X210454819Y-52166666D02*
X210407200Y-52261904D01*
X210407200Y-52261904D02*
X210359580Y-52309523D01*
X129416665Y-52704819D02*
X129416665Y-53419104D01*
X129416665Y-53419104D02*
X129369046Y-53561961D01*
X129369046Y-53561961D02*
X129273808Y-53657200D01*
X129273808Y-53657200D02*
X129130951Y-53704819D01*
X129130951Y-53704819D02*
X129035713Y-53704819D01*
X129797618Y-52704819D02*
X130416665Y-52704819D01*
X130416665Y-52704819D02*
X130083332Y-53085771D01*
X130083332Y-53085771D02*
X130226189Y-53085771D01*
X130226189Y-53085771D02*
X130321427Y-53133390D01*
X130321427Y-53133390D02*
X130369046Y-53181009D01*
X130369046Y-53181009D02*
X130416665Y-53276247D01*
X130416665Y-53276247D02*
X130416665Y-53514342D01*
X130416665Y-53514342D02*
X130369046Y-53609580D01*
X130369046Y-53609580D02*
X130321427Y-53657200D01*
X130321427Y-53657200D02*
X130226189Y-53704819D01*
X130226189Y-53704819D02*
X129940475Y-53704819D01*
X129940475Y-53704819D02*
X129845237Y-53657200D01*
X129845237Y-53657200D02*
X129797618Y-53609580D01*
X190857142Y-64162319D02*
X190523809Y-63686128D01*
X190285714Y-64162319D02*
X190285714Y-63162319D01*
X190285714Y-63162319D02*
X190666666Y-63162319D01*
X190666666Y-63162319D02*
X190761904Y-63209938D01*
X190761904Y-63209938D02*
X190809523Y-63257557D01*
X190809523Y-63257557D02*
X190857142Y-63352795D01*
X190857142Y-63352795D02*
X190857142Y-63495652D01*
X190857142Y-63495652D02*
X190809523Y-63590890D01*
X190809523Y-63590890D02*
X190761904Y-63638509D01*
X190761904Y-63638509D02*
X190666666Y-63686128D01*
X190666666Y-63686128D02*
X190285714Y-63686128D01*
X191809523Y-64162319D02*
X191238095Y-64162319D01*
X191523809Y-64162319D02*
X191523809Y-63162319D01*
X191523809Y-63162319D02*
X191428571Y-63305176D01*
X191428571Y-63305176D02*
X191333333Y-63400414D01*
X191333333Y-63400414D02*
X191238095Y-63448033D01*
X192666666Y-63162319D02*
X192476190Y-63162319D01*
X192476190Y-63162319D02*
X192380952Y-63209938D01*
X192380952Y-63209938D02*
X192333333Y-63257557D01*
X192333333Y-63257557D02*
X192238095Y-63400414D01*
X192238095Y-63400414D02*
X192190476Y-63590890D01*
X192190476Y-63590890D02*
X192190476Y-63971842D01*
X192190476Y-63971842D02*
X192238095Y-64067080D01*
X192238095Y-64067080D02*
X192285714Y-64114700D01*
X192285714Y-64114700D02*
X192380952Y-64162319D01*
X192380952Y-64162319D02*
X192571428Y-64162319D01*
X192571428Y-64162319D02*
X192666666Y-64114700D01*
X192666666Y-64114700D02*
X192714285Y-64067080D01*
X192714285Y-64067080D02*
X192761904Y-63971842D01*
X192761904Y-63971842D02*
X192761904Y-63733747D01*
X192761904Y-63733747D02*
X192714285Y-63638509D01*
X192714285Y-63638509D02*
X192666666Y-63590890D01*
X192666666Y-63590890D02*
X192571428Y-63543271D01*
X192571428Y-63543271D02*
X192380952Y-63543271D01*
X192380952Y-63543271D02*
X192285714Y-63590890D01*
X192285714Y-63590890D02*
X192238095Y-63638509D01*
X192238095Y-63638509D02*
X192190476Y-63733747D01*
X187834819Y-56729166D02*
X187358628Y-57062499D01*
X187834819Y-57300594D02*
X186834819Y-57300594D01*
X186834819Y-57300594D02*
X186834819Y-56919642D01*
X186834819Y-56919642D02*
X186882438Y-56824404D01*
X186882438Y-56824404D02*
X186930057Y-56776785D01*
X186930057Y-56776785D02*
X187025295Y-56729166D01*
X187025295Y-56729166D02*
X187168152Y-56729166D01*
X187168152Y-56729166D02*
X187263390Y-56776785D01*
X187263390Y-56776785D02*
X187311009Y-56824404D01*
X187311009Y-56824404D02*
X187358628Y-56919642D01*
X187358628Y-56919642D02*
X187358628Y-57300594D01*
X186834819Y-55824404D02*
X186834819Y-56300594D01*
X186834819Y-56300594D02*
X187311009Y-56348213D01*
X187311009Y-56348213D02*
X187263390Y-56300594D01*
X187263390Y-56300594D02*
X187215771Y-56205356D01*
X187215771Y-56205356D02*
X187215771Y-55967261D01*
X187215771Y-55967261D02*
X187263390Y-55872023D01*
X187263390Y-55872023D02*
X187311009Y-55824404D01*
X187311009Y-55824404D02*
X187406247Y-55776785D01*
X187406247Y-55776785D02*
X187644342Y-55776785D01*
X187644342Y-55776785D02*
X187739580Y-55824404D01*
X187739580Y-55824404D02*
X187787200Y-55872023D01*
X187787200Y-55872023D02*
X187834819Y-55967261D01*
X187834819Y-55967261D02*
X187834819Y-56205356D01*
X187834819Y-56205356D02*
X187787200Y-56300594D01*
X187787200Y-56300594D02*
X187739580Y-56348213D01*
X102045180Y-61166664D02*
X101330895Y-61166664D01*
X101330895Y-61166664D02*
X101188038Y-61119045D01*
X101188038Y-61119045D02*
X101092800Y-61023807D01*
X101092800Y-61023807D02*
X101045180Y-60880950D01*
X101045180Y-60880950D02*
X101045180Y-60785712D01*
X101045180Y-61690474D02*
X101045180Y-61880950D01*
X101045180Y-61880950D02*
X101092800Y-61976188D01*
X101092800Y-61976188D02*
X101140419Y-62023807D01*
X101140419Y-62023807D02*
X101283276Y-62119045D01*
X101283276Y-62119045D02*
X101473752Y-62166664D01*
X101473752Y-62166664D02*
X101854704Y-62166664D01*
X101854704Y-62166664D02*
X101949942Y-62119045D01*
X101949942Y-62119045D02*
X101997561Y-62071426D01*
X101997561Y-62071426D02*
X102045180Y-61976188D01*
X102045180Y-61976188D02*
X102045180Y-61785712D01*
X102045180Y-61785712D02*
X101997561Y-61690474D01*
X101997561Y-61690474D02*
X101949942Y-61642855D01*
X101949942Y-61642855D02*
X101854704Y-61595236D01*
X101854704Y-61595236D02*
X101616609Y-61595236D01*
X101616609Y-61595236D02*
X101521371Y-61642855D01*
X101521371Y-61642855D02*
X101473752Y-61690474D01*
X101473752Y-61690474D02*
X101426133Y-61785712D01*
X101426133Y-61785712D02*
X101426133Y-61976188D01*
X101426133Y-61976188D02*
X101473752Y-62071426D01*
X101473752Y-62071426D02*
X101521371Y-62119045D01*
X101521371Y-62119045D02*
X101616609Y-62166664D01*
X179404761Y-59650057D02*
X179309523Y-59602438D01*
X179309523Y-59602438D02*
X179214285Y-59507200D01*
X179214285Y-59507200D02*
X179071428Y-59364342D01*
X179071428Y-59364342D02*
X178976190Y-59316723D01*
X178976190Y-59316723D02*
X178880952Y-59316723D01*
X178928571Y-59554819D02*
X178833333Y-59507200D01*
X178833333Y-59507200D02*
X178738095Y-59411961D01*
X178738095Y-59411961D02*
X178690476Y-59221485D01*
X178690476Y-59221485D02*
X178690476Y-58888152D01*
X178690476Y-58888152D02*
X178738095Y-58697676D01*
X178738095Y-58697676D02*
X178833333Y-58602438D01*
X178833333Y-58602438D02*
X178928571Y-58554819D01*
X178928571Y-58554819D02*
X179119047Y-58554819D01*
X179119047Y-58554819D02*
X179214285Y-58602438D01*
X179214285Y-58602438D02*
X179309523Y-58697676D01*
X179309523Y-58697676D02*
X179357142Y-58888152D01*
X179357142Y-58888152D02*
X179357142Y-59221485D01*
X179357142Y-59221485D02*
X179309523Y-59411961D01*
X179309523Y-59411961D02*
X179214285Y-59507200D01*
X179214285Y-59507200D02*
X179119047Y-59554819D01*
X179119047Y-59554819D02*
X178928571Y-59554819D01*
X180214285Y-58554819D02*
X180023809Y-58554819D01*
X180023809Y-58554819D02*
X179928571Y-58602438D01*
X179928571Y-58602438D02*
X179880952Y-58650057D01*
X179880952Y-58650057D02*
X179785714Y-58792914D01*
X179785714Y-58792914D02*
X179738095Y-58983390D01*
X179738095Y-58983390D02*
X179738095Y-59364342D01*
X179738095Y-59364342D02*
X179785714Y-59459580D01*
X179785714Y-59459580D02*
X179833333Y-59507200D01*
X179833333Y-59507200D02*
X179928571Y-59554819D01*
X179928571Y-59554819D02*
X180119047Y-59554819D01*
X180119047Y-59554819D02*
X180214285Y-59507200D01*
X180214285Y-59507200D02*
X180261904Y-59459580D01*
X180261904Y-59459580D02*
X180309523Y-59364342D01*
X180309523Y-59364342D02*
X180309523Y-59126247D01*
X180309523Y-59126247D02*
X180261904Y-59031009D01*
X180261904Y-59031009D02*
X180214285Y-58983390D01*
X180214285Y-58983390D02*
X180119047Y-58935771D01*
X180119047Y-58935771D02*
X179928571Y-58935771D01*
X179928571Y-58935771D02*
X179833333Y-58983390D01*
X179833333Y-58983390D02*
X179785714Y-59031009D01*
X179785714Y-59031009D02*
X179738095Y-59126247D01*
X150454819Y-53825594D02*
X149454819Y-53825594D01*
X149454819Y-53825594D02*
X149454819Y-53587499D01*
X149454819Y-53587499D02*
X149502438Y-53444642D01*
X149502438Y-53444642D02*
X149597676Y-53349404D01*
X149597676Y-53349404D02*
X149692914Y-53301785D01*
X149692914Y-53301785D02*
X149883390Y-53254166D01*
X149883390Y-53254166D02*
X150026247Y-53254166D01*
X150026247Y-53254166D02*
X150216723Y-53301785D01*
X150216723Y-53301785D02*
X150311961Y-53349404D01*
X150311961Y-53349404D02*
X150407200Y-53444642D01*
X150407200Y-53444642D02*
X150454819Y-53587499D01*
X150454819Y-53587499D02*
X150454819Y-53825594D01*
X149454819Y-52920832D02*
X149454819Y-52254166D01*
X149454819Y-52254166D02*
X150454819Y-52682737D01*
X180884819Y-56666666D02*
X180408628Y-56999999D01*
X180884819Y-57238094D02*
X179884819Y-57238094D01*
X179884819Y-57238094D02*
X179884819Y-56857142D01*
X179884819Y-56857142D02*
X179932438Y-56761904D01*
X179932438Y-56761904D02*
X179980057Y-56714285D01*
X179980057Y-56714285D02*
X180075295Y-56666666D01*
X180075295Y-56666666D02*
X180218152Y-56666666D01*
X180218152Y-56666666D02*
X180313390Y-56714285D01*
X180313390Y-56714285D02*
X180361009Y-56761904D01*
X180361009Y-56761904D02*
X180408628Y-56857142D01*
X180408628Y-56857142D02*
X180408628Y-57238094D01*
X180313390Y-56095237D02*
X180265771Y-56190475D01*
X180265771Y-56190475D02*
X180218152Y-56238094D01*
X180218152Y-56238094D02*
X180122914Y-56285713D01*
X180122914Y-56285713D02*
X180075295Y-56285713D01*
X180075295Y-56285713D02*
X179980057Y-56238094D01*
X179980057Y-56238094D02*
X179932438Y-56190475D01*
X179932438Y-56190475D02*
X179884819Y-56095237D01*
X179884819Y-56095237D02*
X179884819Y-55904761D01*
X179884819Y-55904761D02*
X179932438Y-55809523D01*
X179932438Y-55809523D02*
X179980057Y-55761904D01*
X179980057Y-55761904D02*
X180075295Y-55714285D01*
X180075295Y-55714285D02*
X180122914Y-55714285D01*
X180122914Y-55714285D02*
X180218152Y-55761904D01*
X180218152Y-55761904D02*
X180265771Y-55809523D01*
X180265771Y-55809523D02*
X180313390Y-55904761D01*
X180313390Y-55904761D02*
X180313390Y-56095237D01*
X180313390Y-56095237D02*
X180361009Y-56190475D01*
X180361009Y-56190475D02*
X180408628Y-56238094D01*
X180408628Y-56238094D02*
X180503866Y-56285713D01*
X180503866Y-56285713D02*
X180694342Y-56285713D01*
X180694342Y-56285713D02*
X180789580Y-56238094D01*
X180789580Y-56238094D02*
X180837200Y-56190475D01*
X180837200Y-56190475D02*
X180884819Y-56095237D01*
X180884819Y-56095237D02*
X180884819Y-55904761D01*
X180884819Y-55904761D02*
X180837200Y-55809523D01*
X180837200Y-55809523D02*
X180789580Y-55761904D01*
X180789580Y-55761904D02*
X180694342Y-55714285D01*
X180694342Y-55714285D02*
X180503866Y-55714285D01*
X180503866Y-55714285D02*
X180408628Y-55761904D01*
X180408628Y-55761904D02*
X180361009Y-55809523D01*
X180361009Y-55809523D02*
X180313390Y-55904761D01*
X208454819Y-54214285D02*
X207454819Y-54214285D01*
X207454819Y-54214285D02*
X207454819Y-53976190D01*
X207454819Y-53976190D02*
X207502438Y-53833333D01*
X207502438Y-53833333D02*
X207597676Y-53738095D01*
X207597676Y-53738095D02*
X207692914Y-53690476D01*
X207692914Y-53690476D02*
X207883390Y-53642857D01*
X207883390Y-53642857D02*
X208026247Y-53642857D01*
X208026247Y-53642857D02*
X208216723Y-53690476D01*
X208216723Y-53690476D02*
X208311961Y-53738095D01*
X208311961Y-53738095D02*
X208407200Y-53833333D01*
X208407200Y-53833333D02*
X208454819Y-53976190D01*
X208454819Y-53976190D02*
X208454819Y-54214285D01*
X208454819Y-52690476D02*
X208454819Y-53261904D01*
X208454819Y-52976190D02*
X207454819Y-52976190D01*
X207454819Y-52976190D02*
X207597676Y-53071428D01*
X207597676Y-53071428D02*
X207692914Y-53166666D01*
X207692914Y-53166666D02*
X207740533Y-53261904D01*
X207454819Y-52357142D02*
X207454819Y-51690476D01*
X207454819Y-51690476D02*
X208454819Y-52119047D01*
X204833333Y-85454819D02*
X204500000Y-84978628D01*
X204261905Y-85454819D02*
X204261905Y-84454819D01*
X204261905Y-84454819D02*
X204642857Y-84454819D01*
X204642857Y-84454819D02*
X204738095Y-84502438D01*
X204738095Y-84502438D02*
X204785714Y-84550057D01*
X204785714Y-84550057D02*
X204833333Y-84645295D01*
X204833333Y-84645295D02*
X204833333Y-84788152D01*
X204833333Y-84788152D02*
X204785714Y-84883390D01*
X204785714Y-84883390D02*
X204738095Y-84931009D01*
X204738095Y-84931009D02*
X204642857Y-84978628D01*
X204642857Y-84978628D02*
X204261905Y-84978628D01*
X205690476Y-84788152D02*
X205690476Y-85454819D01*
X205452381Y-84407200D02*
X205214286Y-85121485D01*
X205214286Y-85121485D02*
X205833333Y-85121485D01*
X184384819Y-56666666D02*
X183908628Y-56999999D01*
X184384819Y-57238094D02*
X183384819Y-57238094D01*
X183384819Y-57238094D02*
X183384819Y-56857142D01*
X183384819Y-56857142D02*
X183432438Y-56761904D01*
X183432438Y-56761904D02*
X183480057Y-56714285D01*
X183480057Y-56714285D02*
X183575295Y-56666666D01*
X183575295Y-56666666D02*
X183718152Y-56666666D01*
X183718152Y-56666666D02*
X183813390Y-56714285D01*
X183813390Y-56714285D02*
X183861009Y-56761904D01*
X183861009Y-56761904D02*
X183908628Y-56857142D01*
X183908628Y-56857142D02*
X183908628Y-57238094D01*
X183384819Y-55809523D02*
X183384819Y-55999999D01*
X183384819Y-55999999D02*
X183432438Y-56095237D01*
X183432438Y-56095237D02*
X183480057Y-56142856D01*
X183480057Y-56142856D02*
X183622914Y-56238094D01*
X183622914Y-56238094D02*
X183813390Y-56285713D01*
X183813390Y-56285713D02*
X184194342Y-56285713D01*
X184194342Y-56285713D02*
X184289580Y-56238094D01*
X184289580Y-56238094D02*
X184337200Y-56190475D01*
X184337200Y-56190475D02*
X184384819Y-56095237D01*
X184384819Y-56095237D02*
X184384819Y-55904761D01*
X184384819Y-55904761D02*
X184337200Y-55809523D01*
X184337200Y-55809523D02*
X184289580Y-55761904D01*
X184289580Y-55761904D02*
X184194342Y-55714285D01*
X184194342Y-55714285D02*
X183956247Y-55714285D01*
X183956247Y-55714285D02*
X183861009Y-55761904D01*
X183861009Y-55761904D02*
X183813390Y-55809523D01*
X183813390Y-55809523D02*
X183765771Y-55904761D01*
X183765771Y-55904761D02*
X183765771Y-56095237D01*
X183765771Y-56095237D02*
X183813390Y-56190475D01*
X183813390Y-56190475D02*
X183861009Y-56238094D01*
X183861009Y-56238094D02*
X183956247Y-56285713D01*
X150454819Y-56730357D02*
X149978628Y-57063690D01*
X150454819Y-57301785D02*
X149454819Y-57301785D01*
X149454819Y-57301785D02*
X149454819Y-56920833D01*
X149454819Y-56920833D02*
X149502438Y-56825595D01*
X149502438Y-56825595D02*
X149550057Y-56777976D01*
X149550057Y-56777976D02*
X149645295Y-56730357D01*
X149645295Y-56730357D02*
X149788152Y-56730357D01*
X149788152Y-56730357D02*
X149883390Y-56777976D01*
X149883390Y-56777976D02*
X149931009Y-56825595D01*
X149931009Y-56825595D02*
X149978628Y-56920833D01*
X149978628Y-56920833D02*
X149978628Y-57301785D01*
X150454819Y-55777976D02*
X150454819Y-56349404D01*
X150454819Y-56063690D02*
X149454819Y-56063690D01*
X149454819Y-56063690D02*
X149597676Y-56158928D01*
X149597676Y-56158928D02*
X149692914Y-56254166D01*
X149692914Y-56254166D02*
X149740533Y-56349404D01*
X149788152Y-54920833D02*
X150454819Y-54920833D01*
X149407200Y-55158928D02*
X150121485Y-55397023D01*
X150121485Y-55397023D02*
X150121485Y-54777976D01*
X215454819Y-56642857D02*
X214978628Y-56976190D01*
X215454819Y-57214285D02*
X214454819Y-57214285D01*
X214454819Y-57214285D02*
X214454819Y-56833333D01*
X214454819Y-56833333D02*
X214502438Y-56738095D01*
X214502438Y-56738095D02*
X214550057Y-56690476D01*
X214550057Y-56690476D02*
X214645295Y-56642857D01*
X214645295Y-56642857D02*
X214788152Y-56642857D01*
X214788152Y-56642857D02*
X214883390Y-56690476D01*
X214883390Y-56690476D02*
X214931009Y-56738095D01*
X214931009Y-56738095D02*
X214978628Y-56833333D01*
X214978628Y-56833333D02*
X214978628Y-57214285D01*
X214550057Y-56261904D02*
X214502438Y-56214285D01*
X214502438Y-56214285D02*
X214454819Y-56119047D01*
X214454819Y-56119047D02*
X214454819Y-55880952D01*
X214454819Y-55880952D02*
X214502438Y-55785714D01*
X214502438Y-55785714D02*
X214550057Y-55738095D01*
X214550057Y-55738095D02*
X214645295Y-55690476D01*
X214645295Y-55690476D02*
X214740533Y-55690476D01*
X214740533Y-55690476D02*
X214883390Y-55738095D01*
X214883390Y-55738095D02*
X215454819Y-56309523D01*
X215454819Y-56309523D02*
X215454819Y-55690476D01*
X215454819Y-54738095D02*
X215454819Y-55309523D01*
X215454819Y-55023809D02*
X214454819Y-55023809D01*
X214454819Y-55023809D02*
X214597676Y-55119047D01*
X214597676Y-55119047D02*
X214692914Y-55214285D01*
X214692914Y-55214285D02*
X214740533Y-55309523D01*
X140003069Y-56166666D02*
X139526878Y-56499999D01*
X140003069Y-56738094D02*
X139003069Y-56738094D01*
X139003069Y-56738094D02*
X139003069Y-56357142D01*
X139003069Y-56357142D02*
X139050688Y-56261904D01*
X139050688Y-56261904D02*
X139098307Y-56214285D01*
X139098307Y-56214285D02*
X139193545Y-56166666D01*
X139193545Y-56166666D02*
X139336402Y-56166666D01*
X139336402Y-56166666D02*
X139431640Y-56214285D01*
X139431640Y-56214285D02*
X139479259Y-56261904D01*
X139479259Y-56261904D02*
X139526878Y-56357142D01*
X139526878Y-56357142D02*
X139526878Y-56738094D01*
X140003069Y-55690475D02*
X140003069Y-55499999D01*
X140003069Y-55499999D02*
X139955450Y-55404761D01*
X139955450Y-55404761D02*
X139907830Y-55357142D01*
X139907830Y-55357142D02*
X139764973Y-55261904D01*
X139764973Y-55261904D02*
X139574497Y-55214285D01*
X139574497Y-55214285D02*
X139193545Y-55214285D01*
X139193545Y-55214285D02*
X139098307Y-55261904D01*
X139098307Y-55261904D02*
X139050688Y-55309523D01*
X139050688Y-55309523D02*
X139003069Y-55404761D01*
X139003069Y-55404761D02*
X139003069Y-55595237D01*
X139003069Y-55595237D02*
X139050688Y-55690475D01*
X139050688Y-55690475D02*
X139098307Y-55738094D01*
X139098307Y-55738094D02*
X139193545Y-55785713D01*
X139193545Y-55785713D02*
X139431640Y-55785713D01*
X139431640Y-55785713D02*
X139526878Y-55738094D01*
X139526878Y-55738094D02*
X139574497Y-55690475D01*
X139574497Y-55690475D02*
X139622116Y-55595237D01*
X139622116Y-55595237D02*
X139622116Y-55404761D01*
X139622116Y-55404761D02*
X139574497Y-55309523D01*
X139574497Y-55309523D02*
X139526878Y-55261904D01*
X139526878Y-55261904D02*
X139431640Y-55214285D01*
X183404761Y-59650057D02*
X183309523Y-59602438D01*
X183309523Y-59602438D02*
X183214285Y-59507200D01*
X183214285Y-59507200D02*
X183071428Y-59364342D01*
X183071428Y-59364342D02*
X182976190Y-59316723D01*
X182976190Y-59316723D02*
X182880952Y-59316723D01*
X182928571Y-59554819D02*
X182833333Y-59507200D01*
X182833333Y-59507200D02*
X182738095Y-59411961D01*
X182738095Y-59411961D02*
X182690476Y-59221485D01*
X182690476Y-59221485D02*
X182690476Y-58888152D01*
X182690476Y-58888152D02*
X182738095Y-58697676D01*
X182738095Y-58697676D02*
X182833333Y-58602438D01*
X182833333Y-58602438D02*
X182928571Y-58554819D01*
X182928571Y-58554819D02*
X183119047Y-58554819D01*
X183119047Y-58554819D02*
X183214285Y-58602438D01*
X183214285Y-58602438D02*
X183309523Y-58697676D01*
X183309523Y-58697676D02*
X183357142Y-58888152D01*
X183357142Y-58888152D02*
X183357142Y-59221485D01*
X183357142Y-59221485D02*
X183309523Y-59411961D01*
X183309523Y-59411961D02*
X183214285Y-59507200D01*
X183214285Y-59507200D02*
X183119047Y-59554819D01*
X183119047Y-59554819D02*
X182928571Y-59554819D01*
X184214285Y-58888152D02*
X184214285Y-59554819D01*
X183976190Y-58507200D02*
X183738095Y-59221485D01*
X183738095Y-59221485D02*
X184357142Y-59221485D01*
X148454819Y-53738094D02*
X147454819Y-53738094D01*
X147454819Y-53738094D02*
X147454819Y-53499999D01*
X147454819Y-53499999D02*
X147502438Y-53357142D01*
X147502438Y-53357142D02*
X147597676Y-53261904D01*
X147597676Y-53261904D02*
X147692914Y-53214285D01*
X147692914Y-53214285D02*
X147883390Y-53166666D01*
X147883390Y-53166666D02*
X148026247Y-53166666D01*
X148026247Y-53166666D02*
X148216723Y-53214285D01*
X148216723Y-53214285D02*
X148311961Y-53261904D01*
X148311961Y-53261904D02*
X148407200Y-53357142D01*
X148407200Y-53357142D02*
X148454819Y-53499999D01*
X148454819Y-53499999D02*
X148454819Y-53738094D01*
X148454819Y-52214285D02*
X148454819Y-52785713D01*
X148454819Y-52499999D02*
X147454819Y-52499999D01*
X147454819Y-52499999D02*
X147597676Y-52595237D01*
X147597676Y-52595237D02*
X147692914Y-52690475D01*
X147692914Y-52690475D02*
X147740533Y-52785713D01*
X166285714Y-47954819D02*
X166285714Y-46954819D01*
X166285714Y-46954819D02*
X166523809Y-46954819D01*
X166523809Y-46954819D02*
X166666666Y-47002438D01*
X166666666Y-47002438D02*
X166761904Y-47097676D01*
X166761904Y-47097676D02*
X166809523Y-47192914D01*
X166809523Y-47192914D02*
X166857142Y-47383390D01*
X166857142Y-47383390D02*
X166857142Y-47526247D01*
X166857142Y-47526247D02*
X166809523Y-47716723D01*
X166809523Y-47716723D02*
X166761904Y-47811961D01*
X166761904Y-47811961D02*
X166666666Y-47907200D01*
X166666666Y-47907200D02*
X166523809Y-47954819D01*
X166523809Y-47954819D02*
X166285714Y-47954819D01*
X167809523Y-47954819D02*
X167238095Y-47954819D01*
X167523809Y-47954819D02*
X167523809Y-46954819D01*
X167523809Y-46954819D02*
X167428571Y-47097676D01*
X167428571Y-47097676D02*
X167333333Y-47192914D01*
X167333333Y-47192914D02*
X167238095Y-47240533D01*
X168761904Y-47954819D02*
X168190476Y-47954819D01*
X168476190Y-47954819D02*
X168476190Y-46954819D01*
X168476190Y-46954819D02*
X168380952Y-47097676D01*
X168380952Y-47097676D02*
X168285714Y-47192914D01*
X168285714Y-47192914D02*
X168190476Y-47240533D01*
X199467261Y-82650057D02*
X199372023Y-82602438D01*
X199372023Y-82602438D02*
X199276785Y-82507200D01*
X199276785Y-82507200D02*
X199133928Y-82364342D01*
X199133928Y-82364342D02*
X199038690Y-82316723D01*
X199038690Y-82316723D02*
X198943452Y-82316723D01*
X198991071Y-82554819D02*
X198895833Y-82507200D01*
X198895833Y-82507200D02*
X198800595Y-82411961D01*
X198800595Y-82411961D02*
X198752976Y-82221485D01*
X198752976Y-82221485D02*
X198752976Y-81888152D01*
X198752976Y-81888152D02*
X198800595Y-81697676D01*
X198800595Y-81697676D02*
X198895833Y-81602438D01*
X198895833Y-81602438D02*
X198991071Y-81554819D01*
X198991071Y-81554819D02*
X199181547Y-81554819D01*
X199181547Y-81554819D02*
X199276785Y-81602438D01*
X199276785Y-81602438D02*
X199372023Y-81697676D01*
X199372023Y-81697676D02*
X199419642Y-81888152D01*
X199419642Y-81888152D02*
X199419642Y-82221485D01*
X199419642Y-82221485D02*
X199372023Y-82411961D01*
X199372023Y-82411961D02*
X199276785Y-82507200D01*
X199276785Y-82507200D02*
X199181547Y-82554819D01*
X199181547Y-82554819D02*
X198991071Y-82554819D01*
X199800595Y-81650057D02*
X199848214Y-81602438D01*
X199848214Y-81602438D02*
X199943452Y-81554819D01*
X199943452Y-81554819D02*
X200181547Y-81554819D01*
X200181547Y-81554819D02*
X200276785Y-81602438D01*
X200276785Y-81602438D02*
X200324404Y-81650057D01*
X200324404Y-81650057D02*
X200372023Y-81745295D01*
X200372023Y-81745295D02*
X200372023Y-81840533D01*
X200372023Y-81840533D02*
X200324404Y-81983390D01*
X200324404Y-81983390D02*
X199752976Y-82554819D01*
X199752976Y-82554819D02*
X200372023Y-82554819D01*
X115416666Y-52704819D02*
X115416666Y-53419104D01*
X115416666Y-53419104D02*
X115369047Y-53561961D01*
X115369047Y-53561961D02*
X115273809Y-53657200D01*
X115273809Y-53657200D02*
X115130952Y-53704819D01*
X115130952Y-53704819D02*
X115035714Y-53704819D01*
X115845238Y-52800057D02*
X115892857Y-52752438D01*
X115892857Y-52752438D02*
X115988095Y-52704819D01*
X115988095Y-52704819D02*
X116226190Y-52704819D01*
X116226190Y-52704819D02*
X116321428Y-52752438D01*
X116321428Y-52752438D02*
X116369047Y-52800057D01*
X116369047Y-52800057D02*
X116416666Y-52895295D01*
X116416666Y-52895295D02*
X116416666Y-52990533D01*
X116416666Y-52990533D02*
X116369047Y-53133390D01*
X116369047Y-53133390D02*
X115797619Y-53704819D01*
X115797619Y-53704819D02*
X116416666Y-53704819D01*
X208217819Y-96262533D02*
X208932104Y-96262533D01*
X208932104Y-96262533D02*
X209074961Y-96310152D01*
X209074961Y-96310152D02*
X209170200Y-96405390D01*
X209170200Y-96405390D02*
X209217819Y-96548247D01*
X209217819Y-96548247D02*
X209217819Y-96643485D01*
X209217819Y-95262533D02*
X209217819Y-95833961D01*
X209217819Y-95548247D02*
X208217819Y-95548247D01*
X208217819Y-95548247D02*
X208360676Y-95643485D01*
X208360676Y-95643485D02*
X208455914Y-95738723D01*
X208455914Y-95738723D02*
X208503533Y-95833961D01*
X193535714Y-43454819D02*
X193535714Y-42454819D01*
X193535714Y-42454819D02*
X193773809Y-42454819D01*
X193773809Y-42454819D02*
X193916666Y-42502438D01*
X193916666Y-42502438D02*
X194011904Y-42597676D01*
X194011904Y-42597676D02*
X194059523Y-42692914D01*
X194059523Y-42692914D02*
X194107142Y-42883390D01*
X194107142Y-42883390D02*
X194107142Y-43026247D01*
X194107142Y-43026247D02*
X194059523Y-43216723D01*
X194059523Y-43216723D02*
X194011904Y-43311961D01*
X194011904Y-43311961D02*
X193916666Y-43407200D01*
X193916666Y-43407200D02*
X193773809Y-43454819D01*
X193773809Y-43454819D02*
X193535714Y-43454819D01*
X195059523Y-43454819D02*
X194488095Y-43454819D01*
X194773809Y-43454819D02*
X194773809Y-42454819D01*
X194773809Y-42454819D02*
X194678571Y-42597676D01*
X194678571Y-42597676D02*
X194583333Y-42692914D01*
X194583333Y-42692914D02*
X194488095Y-42740533D01*
X195440476Y-42550057D02*
X195488095Y-42502438D01*
X195488095Y-42502438D02*
X195583333Y-42454819D01*
X195583333Y-42454819D02*
X195821428Y-42454819D01*
X195821428Y-42454819D02*
X195916666Y-42502438D01*
X195916666Y-42502438D02*
X195964285Y-42550057D01*
X195964285Y-42550057D02*
X196011904Y-42645295D01*
X196011904Y-42645295D02*
X196011904Y-42740533D01*
X196011904Y-42740533D02*
X195964285Y-42883390D01*
X195964285Y-42883390D02*
X195392857Y-43454819D01*
X195392857Y-43454819D02*
X196011904Y-43454819D01*
X123761905Y-72704819D02*
X123761905Y-71704819D01*
X123761905Y-71704819D02*
X124000000Y-71704819D01*
X124000000Y-71704819D02*
X124142857Y-71752438D01*
X124142857Y-71752438D02*
X124238095Y-71847676D01*
X124238095Y-71847676D02*
X124285714Y-71942914D01*
X124285714Y-71942914D02*
X124333333Y-72133390D01*
X124333333Y-72133390D02*
X124333333Y-72276247D01*
X124333333Y-72276247D02*
X124285714Y-72466723D01*
X124285714Y-72466723D02*
X124238095Y-72561961D01*
X124238095Y-72561961D02*
X124142857Y-72657200D01*
X124142857Y-72657200D02*
X124000000Y-72704819D01*
X124000000Y-72704819D02*
X123761905Y-72704819D01*
X124714286Y-71800057D02*
X124761905Y-71752438D01*
X124761905Y-71752438D02*
X124857143Y-71704819D01*
X124857143Y-71704819D02*
X125095238Y-71704819D01*
X125095238Y-71704819D02*
X125190476Y-71752438D01*
X125190476Y-71752438D02*
X125238095Y-71800057D01*
X125238095Y-71800057D02*
X125285714Y-71895295D01*
X125285714Y-71895295D02*
X125285714Y-71990533D01*
X125285714Y-71990533D02*
X125238095Y-72133390D01*
X125238095Y-72133390D02*
X124666667Y-72704819D01*
X124666667Y-72704819D02*
X125285714Y-72704819D01*
X120738095Y-65204819D02*
X120738095Y-64204819D01*
X121309523Y-65204819D02*
X120880952Y-64633390D01*
X121309523Y-64204819D02*
X120738095Y-64776247D01*
X166285714Y-53704819D02*
X166285714Y-52704819D01*
X166285714Y-52704819D02*
X166523809Y-52704819D01*
X166523809Y-52704819D02*
X166666666Y-52752438D01*
X166666666Y-52752438D02*
X166761904Y-52847676D01*
X166761904Y-52847676D02*
X166809523Y-52942914D01*
X166809523Y-52942914D02*
X166857142Y-53133390D01*
X166857142Y-53133390D02*
X166857142Y-53276247D01*
X166857142Y-53276247D02*
X166809523Y-53466723D01*
X166809523Y-53466723D02*
X166761904Y-53561961D01*
X166761904Y-53561961D02*
X166666666Y-53657200D01*
X166666666Y-53657200D02*
X166523809Y-53704819D01*
X166523809Y-53704819D02*
X166285714Y-53704819D01*
X167809523Y-53704819D02*
X167238095Y-53704819D01*
X167523809Y-53704819D02*
X167523809Y-52704819D01*
X167523809Y-52704819D02*
X167428571Y-52847676D01*
X167428571Y-52847676D02*
X167333333Y-52942914D01*
X167333333Y-52942914D02*
X167238095Y-52990533D01*
X168142857Y-52704819D02*
X168761904Y-52704819D01*
X168761904Y-52704819D02*
X168428571Y-53085771D01*
X168428571Y-53085771D02*
X168571428Y-53085771D01*
X168571428Y-53085771D02*
X168666666Y-53133390D01*
X168666666Y-53133390D02*
X168714285Y-53181009D01*
X168714285Y-53181009D02*
X168761904Y-53276247D01*
X168761904Y-53276247D02*
X168761904Y-53514342D01*
X168761904Y-53514342D02*
X168714285Y-53609580D01*
X168714285Y-53609580D02*
X168666666Y-53657200D01*
X168666666Y-53657200D02*
X168571428Y-53704819D01*
X168571428Y-53704819D02*
X168285714Y-53704819D01*
X168285714Y-53704819D02*
X168190476Y-53657200D01*
X168190476Y-53657200D02*
X168142857Y-53609580D01*
X180506266Y-52704819D02*
X180506266Y-53419104D01*
X180506266Y-53419104D02*
X180458647Y-53561961D01*
X180458647Y-53561961D02*
X180363409Y-53657200D01*
X180363409Y-53657200D02*
X180220552Y-53704819D01*
X180220552Y-53704819D02*
X180125314Y-53704819D01*
X180887219Y-52704819D02*
X181553885Y-52704819D01*
X181553885Y-52704819D02*
X181125314Y-53704819D01*
X213454819Y-56642857D02*
X212978628Y-56976190D01*
X213454819Y-57214285D02*
X212454819Y-57214285D01*
X212454819Y-57214285D02*
X212454819Y-56833333D01*
X212454819Y-56833333D02*
X212502438Y-56738095D01*
X212502438Y-56738095D02*
X212550057Y-56690476D01*
X212550057Y-56690476D02*
X212645295Y-56642857D01*
X212645295Y-56642857D02*
X212788152Y-56642857D01*
X212788152Y-56642857D02*
X212883390Y-56690476D01*
X212883390Y-56690476D02*
X212931009Y-56738095D01*
X212931009Y-56738095D02*
X212978628Y-56833333D01*
X212978628Y-56833333D02*
X212978628Y-57214285D01*
X212550057Y-56261904D02*
X212502438Y-56214285D01*
X212502438Y-56214285D02*
X212454819Y-56119047D01*
X212454819Y-56119047D02*
X212454819Y-55880952D01*
X212454819Y-55880952D02*
X212502438Y-55785714D01*
X212502438Y-55785714D02*
X212550057Y-55738095D01*
X212550057Y-55738095D02*
X212645295Y-55690476D01*
X212645295Y-55690476D02*
X212740533Y-55690476D01*
X212740533Y-55690476D02*
X212883390Y-55738095D01*
X212883390Y-55738095D02*
X213454819Y-56309523D01*
X213454819Y-56309523D02*
X213454819Y-55690476D01*
X212454819Y-55357142D02*
X212454819Y-54738095D01*
X212454819Y-54738095D02*
X212835771Y-55071428D01*
X212835771Y-55071428D02*
X212835771Y-54928571D01*
X212835771Y-54928571D02*
X212883390Y-54833333D01*
X212883390Y-54833333D02*
X212931009Y-54785714D01*
X212931009Y-54785714D02*
X213026247Y-54738095D01*
X213026247Y-54738095D02*
X213264342Y-54738095D01*
X213264342Y-54738095D02*
X213359580Y-54785714D01*
X213359580Y-54785714D02*
X213407200Y-54833333D01*
X213407200Y-54833333D02*
X213454819Y-54928571D01*
X213454819Y-54928571D02*
X213454819Y-55214285D01*
X213454819Y-55214285D02*
X213407200Y-55309523D01*
X213407200Y-55309523D02*
X213359580Y-55357142D01*
X201404761Y-57150057D02*
X201309523Y-57102438D01*
X201309523Y-57102438D02*
X201214285Y-57007200D01*
X201214285Y-57007200D02*
X201071428Y-56864342D01*
X201071428Y-56864342D02*
X200976190Y-56816723D01*
X200976190Y-56816723D02*
X200880952Y-56816723D01*
X200928571Y-57054819D02*
X200833333Y-57007200D01*
X200833333Y-57007200D02*
X200738095Y-56911961D01*
X200738095Y-56911961D02*
X200690476Y-56721485D01*
X200690476Y-56721485D02*
X200690476Y-56388152D01*
X200690476Y-56388152D02*
X200738095Y-56197676D01*
X200738095Y-56197676D02*
X200833333Y-56102438D01*
X200833333Y-56102438D02*
X200928571Y-56054819D01*
X200928571Y-56054819D02*
X201119047Y-56054819D01*
X201119047Y-56054819D02*
X201214285Y-56102438D01*
X201214285Y-56102438D02*
X201309523Y-56197676D01*
X201309523Y-56197676D02*
X201357142Y-56388152D01*
X201357142Y-56388152D02*
X201357142Y-56721485D01*
X201357142Y-56721485D02*
X201309523Y-56911961D01*
X201309523Y-56911961D02*
X201214285Y-57007200D01*
X201214285Y-57007200D02*
X201119047Y-57054819D01*
X201119047Y-57054819D02*
X200928571Y-57054819D01*
X201690476Y-56054819D02*
X202357142Y-56054819D01*
X202357142Y-56054819D02*
X201928571Y-57054819D01*
X175404761Y-59650057D02*
X175309523Y-59602438D01*
X175309523Y-59602438D02*
X175214285Y-59507200D01*
X175214285Y-59507200D02*
X175071428Y-59364342D01*
X175071428Y-59364342D02*
X174976190Y-59316723D01*
X174976190Y-59316723D02*
X174880952Y-59316723D01*
X174928571Y-59554819D02*
X174833333Y-59507200D01*
X174833333Y-59507200D02*
X174738095Y-59411961D01*
X174738095Y-59411961D02*
X174690476Y-59221485D01*
X174690476Y-59221485D02*
X174690476Y-58888152D01*
X174690476Y-58888152D02*
X174738095Y-58697676D01*
X174738095Y-58697676D02*
X174833333Y-58602438D01*
X174833333Y-58602438D02*
X174928571Y-58554819D01*
X174928571Y-58554819D02*
X175119047Y-58554819D01*
X175119047Y-58554819D02*
X175214285Y-58602438D01*
X175214285Y-58602438D02*
X175309523Y-58697676D01*
X175309523Y-58697676D02*
X175357142Y-58888152D01*
X175357142Y-58888152D02*
X175357142Y-59221485D01*
X175357142Y-59221485D02*
X175309523Y-59411961D01*
X175309523Y-59411961D02*
X175214285Y-59507200D01*
X175214285Y-59507200D02*
X175119047Y-59554819D01*
X175119047Y-59554819D02*
X174928571Y-59554819D01*
X176261904Y-58554819D02*
X175785714Y-58554819D01*
X175785714Y-58554819D02*
X175738095Y-59031009D01*
X175738095Y-59031009D02*
X175785714Y-58983390D01*
X175785714Y-58983390D02*
X175880952Y-58935771D01*
X175880952Y-58935771D02*
X176119047Y-58935771D01*
X176119047Y-58935771D02*
X176214285Y-58983390D01*
X176214285Y-58983390D02*
X176261904Y-59031009D01*
X176261904Y-59031009D02*
X176309523Y-59126247D01*
X176309523Y-59126247D02*
X176309523Y-59364342D01*
X176309523Y-59364342D02*
X176261904Y-59459580D01*
X176261904Y-59459580D02*
X176214285Y-59507200D01*
X176214285Y-59507200D02*
X176119047Y-59554819D01*
X176119047Y-59554819D02*
X175880952Y-59554819D01*
X175880952Y-59554819D02*
X175785714Y-59507200D01*
X175785714Y-59507200D02*
X175738095Y-59459580D01*
X189895833Y-82524819D02*
X189562500Y-82048628D01*
X189324405Y-82524819D02*
X189324405Y-81524819D01*
X189324405Y-81524819D02*
X189705357Y-81524819D01*
X189705357Y-81524819D02*
X189800595Y-81572438D01*
X189800595Y-81572438D02*
X189848214Y-81620057D01*
X189848214Y-81620057D02*
X189895833Y-81715295D01*
X189895833Y-81715295D02*
X189895833Y-81858152D01*
X189895833Y-81858152D02*
X189848214Y-81953390D01*
X189848214Y-81953390D02*
X189800595Y-82001009D01*
X189800595Y-82001009D02*
X189705357Y-82048628D01*
X189705357Y-82048628D02*
X189324405Y-82048628D01*
X190276786Y-81620057D02*
X190324405Y-81572438D01*
X190324405Y-81572438D02*
X190419643Y-81524819D01*
X190419643Y-81524819D02*
X190657738Y-81524819D01*
X190657738Y-81524819D02*
X190752976Y-81572438D01*
X190752976Y-81572438D02*
X190800595Y-81620057D01*
X190800595Y-81620057D02*
X190848214Y-81715295D01*
X190848214Y-81715295D02*
X190848214Y-81810533D01*
X190848214Y-81810533D02*
X190800595Y-81953390D01*
X190800595Y-81953390D02*
X190229167Y-82524819D01*
X190229167Y-82524819D02*
X190848214Y-82524819D01*
X190857142Y-57162319D02*
X190523809Y-56686128D01*
X190285714Y-57162319D02*
X190285714Y-56162319D01*
X190285714Y-56162319D02*
X190666666Y-56162319D01*
X190666666Y-56162319D02*
X190761904Y-56209938D01*
X190761904Y-56209938D02*
X190809523Y-56257557D01*
X190809523Y-56257557D02*
X190857142Y-56352795D01*
X190857142Y-56352795D02*
X190857142Y-56495652D01*
X190857142Y-56495652D02*
X190809523Y-56590890D01*
X190809523Y-56590890D02*
X190761904Y-56638509D01*
X190761904Y-56638509D02*
X190666666Y-56686128D01*
X190666666Y-56686128D02*
X190285714Y-56686128D01*
X191809523Y-57162319D02*
X191238095Y-57162319D01*
X191523809Y-57162319D02*
X191523809Y-56162319D01*
X191523809Y-56162319D02*
X191428571Y-56305176D01*
X191428571Y-56305176D02*
X191333333Y-56400414D01*
X191333333Y-56400414D02*
X191238095Y-56448033D01*
X192714285Y-56162319D02*
X192238095Y-56162319D01*
X192238095Y-56162319D02*
X192190476Y-56638509D01*
X192190476Y-56638509D02*
X192238095Y-56590890D01*
X192238095Y-56590890D02*
X192333333Y-56543271D01*
X192333333Y-56543271D02*
X192571428Y-56543271D01*
X192571428Y-56543271D02*
X192666666Y-56590890D01*
X192666666Y-56590890D02*
X192714285Y-56638509D01*
X192714285Y-56638509D02*
X192761904Y-56733747D01*
X192761904Y-56733747D02*
X192761904Y-56971842D01*
X192761904Y-56971842D02*
X192714285Y-57067080D01*
X192714285Y-57067080D02*
X192666666Y-57114700D01*
X192666666Y-57114700D02*
X192571428Y-57162319D01*
X192571428Y-57162319D02*
X192333333Y-57162319D01*
X192333333Y-57162319D02*
X192238095Y-57114700D01*
X192238095Y-57114700D02*
X192190476Y-57067080D01*
X213454819Y-54214285D02*
X212454819Y-54214285D01*
X212454819Y-54214285D02*
X212454819Y-53976190D01*
X212454819Y-53976190D02*
X212502438Y-53833333D01*
X212502438Y-53833333D02*
X212597676Y-53738095D01*
X212597676Y-53738095D02*
X212692914Y-53690476D01*
X212692914Y-53690476D02*
X212883390Y-53642857D01*
X212883390Y-53642857D02*
X213026247Y-53642857D01*
X213026247Y-53642857D02*
X213216723Y-53690476D01*
X213216723Y-53690476D02*
X213311961Y-53738095D01*
X213311961Y-53738095D02*
X213407200Y-53833333D01*
X213407200Y-53833333D02*
X213454819Y-53976190D01*
X213454819Y-53976190D02*
X213454819Y-54214285D01*
X213454819Y-52690476D02*
X213454819Y-53261904D01*
X213454819Y-52976190D02*
X212454819Y-52976190D01*
X212454819Y-52976190D02*
X212597676Y-53071428D01*
X212597676Y-53071428D02*
X212692914Y-53166666D01*
X212692914Y-53166666D02*
X212740533Y-53261904D01*
X212454819Y-51833333D02*
X212454819Y-52023809D01*
X212454819Y-52023809D02*
X212502438Y-52119047D01*
X212502438Y-52119047D02*
X212550057Y-52166666D01*
X212550057Y-52166666D02*
X212692914Y-52261904D01*
X212692914Y-52261904D02*
X212883390Y-52309523D01*
X212883390Y-52309523D02*
X213264342Y-52309523D01*
X213264342Y-52309523D02*
X213359580Y-52261904D01*
X213359580Y-52261904D02*
X213407200Y-52214285D01*
X213407200Y-52214285D02*
X213454819Y-52119047D01*
X213454819Y-52119047D02*
X213454819Y-51928571D01*
X213454819Y-51928571D02*
X213407200Y-51833333D01*
X213407200Y-51833333D02*
X213359580Y-51785714D01*
X213359580Y-51785714D02*
X213264342Y-51738095D01*
X213264342Y-51738095D02*
X213026247Y-51738095D01*
X213026247Y-51738095D02*
X212931009Y-51785714D01*
X212931009Y-51785714D02*
X212883390Y-51833333D01*
X212883390Y-51833333D02*
X212835771Y-51928571D01*
X212835771Y-51928571D02*
X212835771Y-52119047D01*
X212835771Y-52119047D02*
X212883390Y-52214285D01*
X212883390Y-52214285D02*
X212931009Y-52261904D01*
X212931009Y-52261904D02*
X213026247Y-52309523D01*
X199467261Y-88062557D02*
X199372023Y-88014938D01*
X199372023Y-88014938D02*
X199276785Y-87919700D01*
X199276785Y-87919700D02*
X199133928Y-87776842D01*
X199133928Y-87776842D02*
X199038690Y-87729223D01*
X199038690Y-87729223D02*
X198943452Y-87729223D01*
X198991071Y-87967319D02*
X198895833Y-87919700D01*
X198895833Y-87919700D02*
X198800595Y-87824461D01*
X198800595Y-87824461D02*
X198752976Y-87633985D01*
X198752976Y-87633985D02*
X198752976Y-87300652D01*
X198752976Y-87300652D02*
X198800595Y-87110176D01*
X198800595Y-87110176D02*
X198895833Y-87014938D01*
X198895833Y-87014938D02*
X198991071Y-86967319D01*
X198991071Y-86967319D02*
X199181547Y-86967319D01*
X199181547Y-86967319D02*
X199276785Y-87014938D01*
X199276785Y-87014938D02*
X199372023Y-87110176D01*
X199372023Y-87110176D02*
X199419642Y-87300652D01*
X199419642Y-87300652D02*
X199419642Y-87633985D01*
X199419642Y-87633985D02*
X199372023Y-87824461D01*
X199372023Y-87824461D02*
X199276785Y-87919700D01*
X199276785Y-87919700D02*
X199181547Y-87967319D01*
X199181547Y-87967319D02*
X198991071Y-87967319D01*
X200372023Y-87967319D02*
X199800595Y-87967319D01*
X200086309Y-87967319D02*
X200086309Y-86967319D01*
X200086309Y-86967319D02*
X199991071Y-87110176D01*
X199991071Y-87110176D02*
X199895833Y-87205414D01*
X199895833Y-87205414D02*
X199800595Y-87253033D01*
X104261905Y-43454819D02*
X104261905Y-42454819D01*
X104261905Y-42454819D02*
X104500000Y-42454819D01*
X104500000Y-42454819D02*
X104642857Y-42502438D01*
X104642857Y-42502438D02*
X104738095Y-42597676D01*
X104738095Y-42597676D02*
X104785714Y-42692914D01*
X104785714Y-42692914D02*
X104833333Y-42883390D01*
X104833333Y-42883390D02*
X104833333Y-43026247D01*
X104833333Y-43026247D02*
X104785714Y-43216723D01*
X104785714Y-43216723D02*
X104738095Y-43311961D01*
X104738095Y-43311961D02*
X104642857Y-43407200D01*
X104642857Y-43407200D02*
X104500000Y-43454819D01*
X104500000Y-43454819D02*
X104261905Y-43454819D01*
X105404762Y-42883390D02*
X105309524Y-42835771D01*
X105309524Y-42835771D02*
X105261905Y-42788152D01*
X105261905Y-42788152D02*
X105214286Y-42692914D01*
X105214286Y-42692914D02*
X105214286Y-42645295D01*
X105214286Y-42645295D02*
X105261905Y-42550057D01*
X105261905Y-42550057D02*
X105309524Y-42502438D01*
X105309524Y-42502438D02*
X105404762Y-42454819D01*
X105404762Y-42454819D02*
X105595238Y-42454819D01*
X105595238Y-42454819D02*
X105690476Y-42502438D01*
X105690476Y-42502438D02*
X105738095Y-42550057D01*
X105738095Y-42550057D02*
X105785714Y-42645295D01*
X105785714Y-42645295D02*
X105785714Y-42692914D01*
X105785714Y-42692914D02*
X105738095Y-42788152D01*
X105738095Y-42788152D02*
X105690476Y-42835771D01*
X105690476Y-42835771D02*
X105595238Y-42883390D01*
X105595238Y-42883390D02*
X105404762Y-42883390D01*
X105404762Y-42883390D02*
X105309524Y-42931009D01*
X105309524Y-42931009D02*
X105261905Y-42978628D01*
X105261905Y-42978628D02*
X105214286Y-43073866D01*
X105214286Y-43073866D02*
X105214286Y-43264342D01*
X105214286Y-43264342D02*
X105261905Y-43359580D01*
X105261905Y-43359580D02*
X105309524Y-43407200D01*
X105309524Y-43407200D02*
X105404762Y-43454819D01*
X105404762Y-43454819D02*
X105595238Y-43454819D01*
X105595238Y-43454819D02*
X105690476Y-43407200D01*
X105690476Y-43407200D02*
X105738095Y-43359580D01*
X105738095Y-43359580D02*
X105785714Y-43264342D01*
X105785714Y-43264342D02*
X105785714Y-43073866D01*
X105785714Y-43073866D02*
X105738095Y-42978628D01*
X105738095Y-42978628D02*
X105690476Y-42931009D01*
X105690476Y-42931009D02*
X105595238Y-42883390D01*
X138454819Y-54238094D02*
X137454819Y-54238094D01*
X137454819Y-54238094D02*
X137454819Y-53999999D01*
X137454819Y-53999999D02*
X137502438Y-53857142D01*
X137502438Y-53857142D02*
X137597676Y-53761904D01*
X137597676Y-53761904D02*
X137692914Y-53714285D01*
X137692914Y-53714285D02*
X137883390Y-53666666D01*
X137883390Y-53666666D02*
X138026247Y-53666666D01*
X138026247Y-53666666D02*
X138216723Y-53714285D01*
X138216723Y-53714285D02*
X138311961Y-53761904D01*
X138311961Y-53761904D02*
X138407200Y-53857142D01*
X138407200Y-53857142D02*
X138454819Y-53999999D01*
X138454819Y-53999999D02*
X138454819Y-54238094D01*
X137454819Y-53333332D02*
X137454819Y-52714285D01*
X137454819Y-52714285D02*
X137835771Y-53047618D01*
X137835771Y-53047618D02*
X137835771Y-52904761D01*
X137835771Y-52904761D02*
X137883390Y-52809523D01*
X137883390Y-52809523D02*
X137931009Y-52761904D01*
X137931009Y-52761904D02*
X138026247Y-52714285D01*
X138026247Y-52714285D02*
X138264342Y-52714285D01*
X138264342Y-52714285D02*
X138359580Y-52761904D01*
X138359580Y-52761904D02*
X138407200Y-52809523D01*
X138407200Y-52809523D02*
X138454819Y-52904761D01*
X138454819Y-52904761D02*
X138454819Y-53190475D01*
X138454819Y-53190475D02*
X138407200Y-53285713D01*
X138407200Y-53285713D02*
X138359580Y-53333332D01*
X201404761Y-64150057D02*
X201309523Y-64102438D01*
X201309523Y-64102438D02*
X201214285Y-64007200D01*
X201214285Y-64007200D02*
X201071428Y-63864342D01*
X201071428Y-63864342D02*
X200976190Y-63816723D01*
X200976190Y-63816723D02*
X200880952Y-63816723D01*
X200928571Y-64054819D02*
X200833333Y-64007200D01*
X200833333Y-64007200D02*
X200738095Y-63911961D01*
X200738095Y-63911961D02*
X200690476Y-63721485D01*
X200690476Y-63721485D02*
X200690476Y-63388152D01*
X200690476Y-63388152D02*
X200738095Y-63197676D01*
X200738095Y-63197676D02*
X200833333Y-63102438D01*
X200833333Y-63102438D02*
X200928571Y-63054819D01*
X200928571Y-63054819D02*
X201119047Y-63054819D01*
X201119047Y-63054819D02*
X201214285Y-63102438D01*
X201214285Y-63102438D02*
X201309523Y-63197676D01*
X201309523Y-63197676D02*
X201357142Y-63388152D01*
X201357142Y-63388152D02*
X201357142Y-63721485D01*
X201357142Y-63721485D02*
X201309523Y-63911961D01*
X201309523Y-63911961D02*
X201214285Y-64007200D01*
X201214285Y-64007200D02*
X201119047Y-64054819D01*
X201119047Y-64054819D02*
X200928571Y-64054819D01*
X201928571Y-63483390D02*
X201833333Y-63435771D01*
X201833333Y-63435771D02*
X201785714Y-63388152D01*
X201785714Y-63388152D02*
X201738095Y-63292914D01*
X201738095Y-63292914D02*
X201738095Y-63245295D01*
X201738095Y-63245295D02*
X201785714Y-63150057D01*
X201785714Y-63150057D02*
X201833333Y-63102438D01*
X201833333Y-63102438D02*
X201928571Y-63054819D01*
X201928571Y-63054819D02*
X202119047Y-63054819D01*
X202119047Y-63054819D02*
X202214285Y-63102438D01*
X202214285Y-63102438D02*
X202261904Y-63150057D01*
X202261904Y-63150057D02*
X202309523Y-63245295D01*
X202309523Y-63245295D02*
X202309523Y-63292914D01*
X202309523Y-63292914D02*
X202261904Y-63388152D01*
X202261904Y-63388152D02*
X202214285Y-63435771D01*
X202214285Y-63435771D02*
X202119047Y-63483390D01*
X202119047Y-63483390D02*
X201928571Y-63483390D01*
X201928571Y-63483390D02*
X201833333Y-63531009D01*
X201833333Y-63531009D02*
X201785714Y-63578628D01*
X201785714Y-63578628D02*
X201738095Y-63673866D01*
X201738095Y-63673866D02*
X201738095Y-63864342D01*
X201738095Y-63864342D02*
X201785714Y-63959580D01*
X201785714Y-63959580D02*
X201833333Y-64007200D01*
X201833333Y-64007200D02*
X201928571Y-64054819D01*
X201928571Y-64054819D02*
X202119047Y-64054819D01*
X202119047Y-64054819D02*
X202214285Y-64007200D01*
X202214285Y-64007200D02*
X202261904Y-63959580D01*
X202261904Y-63959580D02*
X202309523Y-63864342D01*
X202309523Y-63864342D02*
X202309523Y-63673866D01*
X202309523Y-63673866D02*
X202261904Y-63578628D01*
X202261904Y-63578628D02*
X202214285Y-63531009D01*
X202214285Y-63531009D02*
X202119047Y-63483390D01*
X193458333Y-82587319D02*
X193125000Y-82111128D01*
X192886905Y-82587319D02*
X192886905Y-81587319D01*
X192886905Y-81587319D02*
X193267857Y-81587319D01*
X193267857Y-81587319D02*
X193363095Y-81634938D01*
X193363095Y-81634938D02*
X193410714Y-81682557D01*
X193410714Y-81682557D02*
X193458333Y-81777795D01*
X193458333Y-81777795D02*
X193458333Y-81920652D01*
X193458333Y-81920652D02*
X193410714Y-82015890D01*
X193410714Y-82015890D02*
X193363095Y-82063509D01*
X193363095Y-82063509D02*
X193267857Y-82111128D01*
X193267857Y-82111128D02*
X192886905Y-82111128D01*
X193791667Y-81587319D02*
X194410714Y-81587319D01*
X194410714Y-81587319D02*
X194077381Y-81968271D01*
X194077381Y-81968271D02*
X194220238Y-81968271D01*
X194220238Y-81968271D02*
X194315476Y-82015890D01*
X194315476Y-82015890D02*
X194363095Y-82063509D01*
X194363095Y-82063509D02*
X194410714Y-82158747D01*
X194410714Y-82158747D02*
X194410714Y-82396842D01*
X194410714Y-82396842D02*
X194363095Y-82492080D01*
X194363095Y-82492080D02*
X194315476Y-82539700D01*
X194315476Y-82539700D02*
X194220238Y-82587319D01*
X194220238Y-82587319D02*
X193934524Y-82587319D01*
X193934524Y-82587319D02*
X193839286Y-82539700D01*
X193839286Y-82539700D02*
X193791667Y-82492080D01*
X204607142Y-65954819D02*
X204273809Y-65478628D01*
X204035714Y-65954819D02*
X204035714Y-64954819D01*
X204035714Y-64954819D02*
X204416666Y-64954819D01*
X204416666Y-64954819D02*
X204511904Y-65002438D01*
X204511904Y-65002438D02*
X204559523Y-65050057D01*
X204559523Y-65050057D02*
X204607142Y-65145295D01*
X204607142Y-65145295D02*
X204607142Y-65288152D01*
X204607142Y-65288152D02*
X204559523Y-65383390D01*
X204559523Y-65383390D02*
X204511904Y-65431009D01*
X204511904Y-65431009D02*
X204416666Y-65478628D01*
X204416666Y-65478628D02*
X204035714Y-65478628D01*
X204988095Y-65050057D02*
X205035714Y-65002438D01*
X205035714Y-65002438D02*
X205130952Y-64954819D01*
X205130952Y-64954819D02*
X205369047Y-64954819D01*
X205369047Y-64954819D02*
X205464285Y-65002438D01*
X205464285Y-65002438D02*
X205511904Y-65050057D01*
X205511904Y-65050057D02*
X205559523Y-65145295D01*
X205559523Y-65145295D02*
X205559523Y-65240533D01*
X205559523Y-65240533D02*
X205511904Y-65383390D01*
X205511904Y-65383390D02*
X204940476Y-65954819D01*
X204940476Y-65954819D02*
X205559523Y-65954819D01*
X206178571Y-64954819D02*
X206273809Y-64954819D01*
X206273809Y-64954819D02*
X206369047Y-65002438D01*
X206369047Y-65002438D02*
X206416666Y-65050057D01*
X206416666Y-65050057D02*
X206464285Y-65145295D01*
X206464285Y-65145295D02*
X206511904Y-65335771D01*
X206511904Y-65335771D02*
X206511904Y-65573866D01*
X206511904Y-65573866D02*
X206464285Y-65764342D01*
X206464285Y-65764342D02*
X206416666Y-65859580D01*
X206416666Y-65859580D02*
X206369047Y-65907200D01*
X206369047Y-65907200D02*
X206273809Y-65954819D01*
X206273809Y-65954819D02*
X206178571Y-65954819D01*
X206178571Y-65954819D02*
X206083333Y-65907200D01*
X206083333Y-65907200D02*
X206035714Y-65859580D01*
X206035714Y-65859580D02*
X205988095Y-65764342D01*
X205988095Y-65764342D02*
X205940476Y-65573866D01*
X205940476Y-65573866D02*
X205940476Y-65335771D01*
X205940476Y-65335771D02*
X205988095Y-65145295D01*
X205988095Y-65145295D02*
X206035714Y-65050057D01*
X206035714Y-65050057D02*
X206083333Y-65002438D01*
X206083333Y-65002438D02*
X206178571Y-64954819D01*
D11*
%TO.C,J8*%
X90865200Y-81084300D02*
X90865200Y-117736500D01*
X90865200Y-117736500D02*
X100314000Y-117736500D01*
X100314000Y-81084300D02*
X90865200Y-81084300D01*
X100314000Y-117736500D02*
X100314000Y-81084300D01*
D12*
X99368000Y-80195300D02*
G75*
G02*
X98606000Y-80195300I-381000J0D01*
G01*
X98606000Y-80195300D02*
G75*
G02*
X99368000Y-80195300I381000J0D01*
G01*
D13*
%TO.C,C2*%
X195990000Y-89766233D02*
X195990000Y-90058767D01*
X197010000Y-89766233D02*
X197010000Y-90058767D01*
%TO.C,R24*%
X207477500Y-49370276D02*
X207477500Y-49879724D01*
X208522500Y-49370276D02*
X208522500Y-49879724D01*
%TO.C,R7*%
X174977500Y-56245276D02*
X174977500Y-56754724D01*
X176022500Y-56245276D02*
X176022500Y-56754724D01*
%TO.C,R12*%
X202477500Y-88657776D02*
X202477500Y-89167224D01*
X203522500Y-88657776D02*
X203522500Y-89167224D01*
D11*
%TO.C,J6*%
X207436000Y-60011200D02*
X207436000Y-82668000D01*
X207436000Y-82668000D02*
X216884800Y-82668000D01*
X216884800Y-60011200D02*
X207436000Y-60011200D01*
X216884800Y-82668000D02*
X216884800Y-60011200D01*
D12*
X209144000Y-83557000D02*
G75*
G02*
X208382000Y-83557000I-381000J0D01*
G01*
X208382000Y-83557000D02*
G75*
G02*
X209144000Y-83557000I381000J0D01*
G01*
D13*
%TO.C,D5*%
X108760000Y-85850000D02*
X103250000Y-85850000D01*
X108760000Y-89150000D02*
X103250000Y-89150000D01*
X108760000Y-89150000D02*
X108760000Y-85850000D01*
%TO.C,C1*%
X196115000Y-84416233D02*
X196115000Y-84708767D01*
X197135000Y-84416233D02*
X197135000Y-84708767D01*
%TO.C,D14*%
X214265000Y-44825000D02*
X214265000Y-47285000D01*
X214265000Y-47285000D02*
X215735000Y-47285000D01*
X215735000Y-47285000D02*
X215735000Y-44825000D01*
%TO.C,U1*%
X121961016Y-56757984D02*
X122056016Y-56757984D01*
X121961016Y-60877984D02*
X121961016Y-56757984D01*
X122056016Y-60877984D02*
X121961016Y-60877984D01*
X126986016Y-56757984D02*
X127081016Y-56757984D01*
X127081016Y-56757984D02*
X127081016Y-60877984D01*
X127081016Y-60877984D02*
X126986016Y-60877984D01*
X122051016Y-61417984D02*
X121721016Y-61657984D01*
X121721016Y-61177984D01*
X122051016Y-61417984D01*
G36*
X122051016Y-61417984D02*
G01*
X121721016Y-61657984D01*
X121721016Y-61177984D01*
X122051016Y-61417984D01*
G37*
%TO.C,C7*%
X197490000Y-65991233D02*
X197490000Y-66283767D01*
X198510000Y-65991233D02*
X198510000Y-66283767D01*
%TO.C,D10*%
X198099598Y-48637000D02*
X192589598Y-48637000D01*
X198099598Y-51937000D02*
X192589598Y-51937000D01*
X198099598Y-51937000D02*
X198099598Y-48637000D01*
%TO.C,Q3*%
X186740000Y-59940000D02*
X188260000Y-59940000D01*
X186740000Y-59990000D02*
X186740000Y-59940000D01*
X186740000Y-61890000D02*
X186740000Y-61110000D01*
X186740000Y-63060000D02*
X186740000Y-63010000D01*
X188260000Y-59940000D02*
X188260000Y-60940000D01*
X188260000Y-62060000D02*
X188260000Y-63060000D01*
X188260000Y-63060000D02*
X186740000Y-63060000D01*
X186440000Y-61450000D02*
X185960000Y-61450000D01*
X186200000Y-61120000D01*
X186440000Y-61450000D01*
G36*
X186440000Y-61450000D02*
G01*
X185960000Y-61450000D01*
X186200000Y-61120000D01*
X186440000Y-61450000D01*
G37*
%TO.C,D4*%
X108760000Y-82100000D02*
X103250000Y-82100000D01*
X108760000Y-85400000D02*
X103250000Y-85400000D01*
X108760000Y-85400000D02*
X108760000Y-82100000D01*
%TO.C,R17*%
X194832776Y-57615000D02*
X195342224Y-57615000D01*
X194832776Y-58660000D02*
X195342224Y-58660000D01*
%TO.C,D9*%
X108510000Y-47600000D02*
X103000000Y-47600000D01*
X108510000Y-50900000D02*
X103000000Y-50900000D01*
X108510000Y-50900000D02*
X108510000Y-47600000D01*
%TO.C,C3*%
X120261016Y-58851751D02*
X120261016Y-58559217D01*
X121281016Y-58851751D02*
X121281016Y-58559217D01*
%TO.C,D6*%
X159265000Y-45287500D02*
X159265000Y-47747500D01*
X159265000Y-47747500D02*
X160735000Y-47747500D01*
X160735000Y-47747500D02*
X160735000Y-45287500D01*
%TO.C,R19*%
X205477500Y-61245276D02*
X205477500Y-61754724D01*
X206522500Y-61245276D02*
X206522500Y-61754724D01*
%TO.C,C4*%
X111761016Y-60807984D02*
X114511016Y-60807984D01*
X111761016Y-68263547D02*
X111761016Y-60807984D01*
X112825453Y-69327984D02*
X111761016Y-68263547D01*
X112825453Y-69327984D02*
X114511016Y-69327984D01*
X113011016Y-70067984D02*
X114011016Y-70067984D01*
X113511016Y-70567984D02*
X113511016Y-69567984D01*
X119216579Y-69327984D02*
X117531016Y-69327984D01*
X119216579Y-69327984D02*
X120281016Y-68263547D01*
X120281016Y-60807984D02*
X117531016Y-60807984D01*
X120281016Y-68263547D02*
X120281016Y-60807984D01*
%TO.C,R18*%
X194745276Y-64615000D02*
X195254724Y-64615000D01*
X194745276Y-65660000D02*
X195254724Y-65660000D01*
%TO.C,R22*%
X209477500Y-49370276D02*
X209477500Y-49879724D01*
X210522500Y-49370276D02*
X210522500Y-49879724D01*
%TO.C,R1*%
X147477500Y-49832776D02*
X147477500Y-50342224D01*
X148522500Y-49832776D02*
X148522500Y-50342224D01*
%TO.C,L1*%
X127933016Y-57613383D02*
X130933016Y-57613383D01*
X127933016Y-70213383D02*
X127933016Y-57613383D01*
X130933016Y-70213383D02*
X127933016Y-70213383D01*
X137533016Y-57613383D02*
X140533016Y-57613383D01*
X140533016Y-57613383D02*
X140533016Y-70213383D01*
X140533016Y-70213383D02*
X137533016Y-70213383D01*
%TO.C,SW2*%
X151620000Y-44590000D02*
X151620000Y-51410000D01*
X152930000Y-44590000D02*
X151620000Y-44590000D01*
X152930000Y-51410000D02*
X151620000Y-51410000D01*
X154365000Y-47396667D02*
X153095000Y-47396667D01*
X155470000Y-44590000D02*
X154530000Y-44590000D01*
X155470000Y-51410000D02*
X154530000Y-51410000D01*
X156905000Y-47396667D02*
X155635000Y-47396667D01*
X158380000Y-44590000D02*
X157070000Y-44590000D01*
X158380000Y-44590000D02*
X158380000Y-51410000D01*
X158380000Y-51410000D02*
X157070000Y-51410000D01*
X158620000Y-44350000D02*
X157237000Y-44350000D01*
X158620000Y-44350000D02*
X158620000Y-45733000D01*
X154365000Y-46190000D02*
X153095000Y-46190000D01*
X153095000Y-47396667D01*
X154365000Y-47396667D01*
X154365000Y-46190000D01*
G36*
X154365000Y-46190000D02*
G01*
X153095000Y-46190000D01*
X153095000Y-47396667D01*
X154365000Y-47396667D01*
X154365000Y-46190000D01*
G37*
X154365000Y-46190000D02*
X153095000Y-46190000D01*
X153095000Y-49810000D01*
X154365000Y-49810000D01*
X154365000Y-46190000D01*
X156905000Y-46190000D02*
X155635000Y-46190000D01*
X155635000Y-47396667D01*
X156905000Y-47396667D01*
X156905000Y-46190000D01*
G36*
X156905000Y-46190000D02*
G01*
X155635000Y-46190000D01*
X155635000Y-47396667D01*
X156905000Y-47396667D01*
X156905000Y-46190000D01*
G37*
X156905000Y-46190000D02*
X155635000Y-46190000D01*
X155635000Y-49810000D01*
X156905000Y-49810000D01*
X156905000Y-46190000D01*
%TO.C,C5*%
X127473016Y-71603383D02*
X127473016Y-74353383D01*
X127473016Y-80123383D02*
X127473016Y-77373383D01*
X134928579Y-71603383D02*
X127473016Y-71603383D01*
X134928579Y-80123383D02*
X127473016Y-80123383D01*
X135993016Y-72667820D02*
X134928579Y-71603383D01*
X135993016Y-72667820D02*
X135993016Y-74353383D01*
X135993016Y-79058946D02*
X134928579Y-80123383D01*
X135993016Y-79058946D02*
X135993016Y-77373383D01*
X136733016Y-78873383D02*
X136733016Y-77873383D01*
X137233016Y-78373383D02*
X136233016Y-78373383D01*
%TO.C,R13*%
X159477500Y-49832776D02*
X159477500Y-50342224D01*
X160522500Y-49832776D02*
X160522500Y-50342224D01*
%TO.C,R10*%
X189682776Y-88390000D02*
X190192224Y-88390000D01*
X189682776Y-89435000D02*
X190192224Y-89435000D01*
%TO.C,R11*%
X193245276Y-88390000D02*
X193754724Y-88390000D01*
X193245276Y-89435000D02*
X193754724Y-89435000D01*
%TO.C,SW1*%
X139620000Y-44590000D02*
X139620000Y-51410000D01*
X140930000Y-44590000D02*
X139620000Y-44590000D01*
X140930000Y-51410000D02*
X139620000Y-51410000D01*
X142365000Y-47396667D02*
X141095000Y-47396667D01*
X143470000Y-44590000D02*
X142530000Y-44590000D01*
X143470000Y-51410000D02*
X142530000Y-51410000D01*
X144905000Y-47396667D02*
X143635000Y-47396667D01*
X146380000Y-44590000D02*
X145070000Y-44590000D01*
X146380000Y-44590000D02*
X146380000Y-51410000D01*
X146380000Y-51410000D02*
X145070000Y-51410000D01*
X146620000Y-44350000D02*
X145237000Y-44350000D01*
X146620000Y-44350000D02*
X146620000Y-45733000D01*
X142365000Y-46190000D02*
X141095000Y-46190000D01*
X141095000Y-47396667D01*
X142365000Y-47396667D01*
X142365000Y-46190000D01*
G36*
X142365000Y-46190000D02*
G01*
X141095000Y-46190000D01*
X141095000Y-47396667D01*
X142365000Y-47396667D01*
X142365000Y-46190000D01*
G37*
X142365000Y-46190000D02*
X141095000Y-46190000D01*
X141095000Y-49810000D01*
X142365000Y-49810000D01*
X142365000Y-46190000D01*
X144905000Y-46190000D02*
X143635000Y-46190000D01*
X143635000Y-47396667D01*
X144905000Y-47396667D01*
X144905000Y-46190000D01*
G36*
X144905000Y-46190000D02*
G01*
X143635000Y-46190000D01*
X143635000Y-47396667D01*
X144905000Y-47396667D01*
X144905000Y-46190000D01*
G37*
X144905000Y-46190000D02*
X143635000Y-46190000D01*
X143635000Y-49810000D01*
X144905000Y-49810000D01*
X144905000Y-46190000D01*
%TO.C,C6*%
X197490000Y-58991233D02*
X197490000Y-59283767D01*
X198510000Y-58991233D02*
X198510000Y-59283767D01*
%TO.C,D15*%
X209265000Y-44825000D02*
X209265000Y-47285000D01*
X209265000Y-47285000D02*
X210735000Y-47285000D01*
X210735000Y-47285000D02*
X210735000Y-44825000D01*
D11*
%TO.C,J3*%
X123666699Y-42628200D02*
X123666699Y-52077000D01*
X123666699Y-52077000D02*
X135833299Y-52077000D01*
X135833299Y-42628200D02*
X123666699Y-42628200D01*
X135833299Y-52077000D02*
X135833299Y-42628200D01*
D12*
X137103299Y-50750000D02*
G75*
G02*
X136341299Y-50750000I-381000J0D01*
G01*
X136341299Y-50750000D02*
G75*
G02*
X137103299Y-50750000I381000J0D01*
G01*
D13*
%TO.C,R16*%
X191245276Y-64615000D02*
X191754724Y-64615000D01*
X191245276Y-65660000D02*
X191754724Y-65660000D01*
%TO.C,R5*%
X185427500Y-56307776D02*
X185427500Y-56817224D01*
X186472500Y-56307776D02*
X186472500Y-56817224D01*
D11*
%TO.C,J9*%
X90878200Y-43173898D02*
X90878200Y-79826098D01*
X90878200Y-79826098D02*
X100327000Y-79826098D01*
X100327000Y-43173898D02*
X90878200Y-43173898D01*
X100327000Y-79826098D02*
X100327000Y-43173898D01*
D12*
X99381000Y-42284898D02*
G75*
G02*
X98619000Y-42284898I-381000J0D01*
G01*
X98619000Y-42284898D02*
G75*
G02*
X99381000Y-42284898I381000J0D01*
G01*
D13*
%TO.C,Q6*%
X178740000Y-59940000D02*
X180260000Y-59940000D01*
X178740000Y-59990000D02*
X178740000Y-59940000D01*
X178740000Y-61890000D02*
X178740000Y-61110000D01*
X178740000Y-63060000D02*
X178740000Y-63010000D01*
X180260000Y-59940000D02*
X180260000Y-60940000D01*
X180260000Y-62060000D02*
X180260000Y-63060000D01*
X180260000Y-63060000D02*
X178740000Y-63060000D01*
X178440000Y-61450000D02*
X177960000Y-61450000D01*
X178200000Y-61120000D01*
X178440000Y-61450000D01*
G36*
X178440000Y-61450000D02*
G01*
X177960000Y-61450000D01*
X178200000Y-61120000D01*
X178440000Y-61450000D01*
G37*
%TO.C,D7*%
X149265000Y-45287500D02*
X149265000Y-47747500D01*
X149265000Y-47747500D02*
X150735000Y-47747500D01*
X150735000Y-47747500D02*
X150735000Y-45287500D01*
%TO.C,R8*%
X178477500Y-56245276D02*
X178477500Y-56754724D01*
X179522500Y-56245276D02*
X179522500Y-56754724D01*
%TO.C,D17*%
X207265000Y-44825000D02*
X207265000Y-47285000D01*
X207265000Y-47285000D02*
X208735000Y-47285000D01*
X208735000Y-47285000D02*
X208735000Y-44825000D01*
%TO.C,R4*%
X204477500Y-87407776D02*
X204477500Y-87917224D01*
X205522500Y-87407776D02*
X205522500Y-87917224D01*
%TO.C,R6*%
X181977500Y-56245276D02*
X181977500Y-56754724D01*
X183022500Y-56245276D02*
X183022500Y-56754724D01*
%TO.C,R14*%
X149477500Y-49832776D02*
X149477500Y-50342224D01*
X150522500Y-49832776D02*
X150522500Y-50342224D01*
%TO.C,R21*%
X214477500Y-49370276D02*
X214477500Y-49879724D01*
X215522500Y-49370276D02*
X215522500Y-49879724D01*
%TO.C,R9*%
X137477500Y-50120276D02*
X137477500Y-50629724D01*
X138522500Y-50120276D02*
X138522500Y-50629724D01*
%TO.C,Q4*%
X182740000Y-59940000D02*
X184260000Y-59940000D01*
X182740000Y-59990000D02*
X182740000Y-59940000D01*
X182740000Y-61890000D02*
X182740000Y-61110000D01*
X182740000Y-63060000D02*
X182740000Y-63010000D01*
X184260000Y-59940000D02*
X184260000Y-60940000D01*
X184260000Y-62060000D02*
X184260000Y-63060000D01*
X184260000Y-63060000D02*
X182740000Y-63060000D01*
X182440000Y-61450000D02*
X181960000Y-61450000D01*
X182200000Y-61120000D01*
X182440000Y-61450000D01*
G36*
X182440000Y-61450000D02*
G01*
X181960000Y-61450000D01*
X182200000Y-61120000D01*
X182440000Y-61450000D01*
G37*
%TO.C,D1*%
X147265000Y-45287500D02*
X147265000Y-47747500D01*
X147265000Y-47747500D02*
X148735000Y-47747500D01*
X148735000Y-47747500D02*
X148735000Y-45287500D01*
%TO.C,D11*%
X164079598Y-43087000D02*
X164079598Y-46387000D01*
X164079598Y-43087000D02*
X169589598Y-43087000D01*
X164079598Y-46387000D02*
X169589598Y-46387000D01*
%TO.C,Q2*%
X198802500Y-82940000D02*
X200322500Y-82940000D01*
X198802500Y-82990000D02*
X198802500Y-82940000D01*
X198802500Y-84890000D02*
X198802500Y-84110000D01*
X198802500Y-86060000D02*
X198802500Y-86010000D01*
X200322500Y-82940000D02*
X200322500Y-83940000D01*
X200322500Y-85060000D02*
X200322500Y-86060000D01*
X200322500Y-86060000D02*
X198802500Y-86060000D01*
X198502500Y-84450000D02*
X198022500Y-84450000D01*
X198262500Y-84120000D01*
X198502500Y-84450000D01*
G36*
X198502500Y-84450000D02*
G01*
X198022500Y-84450000D01*
X198262500Y-84120000D01*
X198502500Y-84450000D01*
G37*
D11*
%TO.C,J2*%
X109756300Y-42615200D02*
X109756300Y-52064000D01*
X109756300Y-52064000D02*
X121922900Y-52064000D01*
X121922900Y-42615200D02*
X109756300Y-42615200D01*
X121922900Y-52064000D02*
X121922900Y-42615200D01*
D12*
X123192900Y-50737000D02*
G75*
G02*
X122430900Y-50737000I-381000J0D01*
G01*
X122430900Y-50737000D02*
G75*
G02*
X123192900Y-50737000I381000J0D01*
G01*
D11*
%TO.C,J1*%
X207436000Y-84600800D02*
X207436000Y-107257600D01*
X207436000Y-107257600D02*
X216884800Y-107257600D01*
X216884800Y-84600800D02*
X207436000Y-84600800D01*
X216884800Y-107257600D02*
X216884800Y-84600800D01*
D12*
X209144000Y-108146600D02*
G75*
G02*
X208382000Y-108146600I-381000J0D01*
G01*
X208382000Y-108146600D02*
G75*
G02*
X209144000Y-108146600I381000J0D01*
G01*
D13*
%TO.C,D12*%
X198099598Y-44087000D02*
X192589598Y-44087000D01*
X198099598Y-47387000D02*
X192589598Y-47387000D01*
X198099598Y-47387000D02*
X198099598Y-44087000D01*
%TO.C,D2*%
X125988016Y-66546252D02*
G75*
G02*
X122548016Y-66546252I-1720000J-2107131D01*
G01*
%TO.C,D13*%
X164079598Y-48587000D02*
X164079598Y-51887000D01*
X164079598Y-48587000D02*
X169589598Y-48587000D01*
X164079598Y-51887000D02*
X169589598Y-51887000D01*
D11*
%TO.C,J7*%
X173016400Y-42615200D02*
X173016400Y-52064000D01*
X173016400Y-52064000D02*
X188662800Y-52064000D01*
X188662800Y-42615200D02*
X173016400Y-42615200D01*
X188662800Y-52064000D02*
X188662800Y-42615200D01*
D12*
X189932800Y-50737000D02*
G75*
G02*
X189170800Y-50737000I-381000J0D01*
G01*
X189170800Y-50737000D02*
G75*
G02*
X189932800Y-50737000I381000J0D01*
G01*
D13*
%TO.C,R23*%
X212477500Y-49370276D02*
X212477500Y-49879724D01*
X213522500Y-49370276D02*
X213522500Y-49879724D01*
%TO.C,Q7*%
X200740000Y-57440000D02*
X202260000Y-57440000D01*
X200740000Y-57490000D02*
X200740000Y-57440000D01*
X200740000Y-59390000D02*
X200740000Y-58610000D01*
X200740000Y-60560000D02*
X200740000Y-60510000D01*
X202260000Y-57440000D02*
X202260000Y-58440000D01*
X202260000Y-59560000D02*
X202260000Y-60560000D01*
X202260000Y-60560000D02*
X200740000Y-60560000D01*
X200440000Y-58950000D02*
X199960000Y-58950000D01*
X200200000Y-58620000D01*
X200440000Y-58950000D01*
G36*
X200440000Y-58950000D02*
G01*
X199960000Y-58950000D01*
X200200000Y-58620000D01*
X200440000Y-58950000D01*
G37*
%TO.C,Q5*%
X174740000Y-59940000D02*
X176260000Y-59940000D01*
X174740000Y-59990000D02*
X174740000Y-59940000D01*
X174740000Y-61890000D02*
X174740000Y-61110000D01*
X174740000Y-63060000D02*
X174740000Y-63010000D01*
X176260000Y-59940000D02*
X176260000Y-60940000D01*
X176260000Y-62060000D02*
X176260000Y-63060000D01*
X176260000Y-63060000D02*
X174740000Y-63060000D01*
X174440000Y-61450000D02*
X173960000Y-61450000D01*
X174200000Y-61120000D01*
X174440000Y-61450000D01*
G36*
X174440000Y-61450000D02*
G01*
X173960000Y-61450000D01*
X174200000Y-61120000D01*
X174440000Y-61450000D01*
G37*
%TO.C,R2*%
X189807776Y-82977500D02*
X190317224Y-82977500D01*
X189807776Y-84022500D02*
X190317224Y-84022500D01*
%TO.C,R15*%
X191245276Y-57615000D02*
X191754724Y-57615000D01*
X191245276Y-58660000D02*
X191754724Y-58660000D01*
%TO.C,D16*%
X212265000Y-44825000D02*
X212265000Y-47285000D01*
X212265000Y-47285000D02*
X213735000Y-47285000D01*
X213735000Y-47285000D02*
X213735000Y-44825000D01*
%TO.C,Q1*%
X198802500Y-88352500D02*
X200322500Y-88352500D01*
X198802500Y-88402500D02*
X198802500Y-88352500D01*
X198802500Y-90302500D02*
X198802500Y-89522500D01*
X198802500Y-91472500D02*
X198802500Y-91422500D01*
X200322500Y-88352500D02*
X200322500Y-89352500D01*
X200322500Y-90472500D02*
X200322500Y-91472500D01*
X200322500Y-91472500D02*
X198802500Y-91472500D01*
X198502500Y-89862500D02*
X198022500Y-89862500D01*
X198262500Y-89532500D01*
X198502500Y-89862500D01*
G36*
X198502500Y-89862500D02*
G01*
X198022500Y-89862500D01*
X198262500Y-89532500D01*
X198502500Y-89862500D01*
G37*
%TO.C,D8*%
X108510000Y-43900000D02*
X103000000Y-43900000D01*
X108510000Y-47200000D02*
X103000000Y-47200000D01*
X108510000Y-47200000D02*
X108510000Y-43900000D01*
%TO.C,D3*%
X137265000Y-45575000D02*
X137265000Y-48035000D01*
X137265000Y-48035000D02*
X138735000Y-48035000D01*
X138735000Y-48035000D02*
X138735000Y-45575000D01*
%TO.C,Q8*%
X200740000Y-64440000D02*
X202260000Y-64440000D01*
X200740000Y-64490000D02*
X200740000Y-64440000D01*
X200740000Y-66390000D02*
X200740000Y-65610000D01*
X200740000Y-67560000D02*
X200740000Y-67510000D01*
X202260000Y-64440000D02*
X202260000Y-65440000D01*
X202260000Y-66560000D02*
X202260000Y-67560000D01*
X202260000Y-67560000D02*
X200740000Y-67560000D01*
X200440000Y-65950000D02*
X199960000Y-65950000D01*
X200200000Y-65620000D01*
X200440000Y-65950000D01*
G36*
X200440000Y-65950000D02*
G01*
X199960000Y-65950000D01*
X200200000Y-65620000D01*
X200440000Y-65950000D01*
G37*
%TO.C,R3*%
X193370276Y-83040000D02*
X193879724Y-83040000D01*
X193370276Y-84085000D02*
X193879724Y-84085000D01*
%TO.C,R20*%
X202977500Y-62745276D02*
X202977500Y-63254724D01*
X204022500Y-62745276D02*
X204022500Y-63254724D01*
%TD*%
M02*
