%TF.GenerationSoftware,KiCad,Pcbnew,9.0.5*%
%TF.CreationDate,2026-03-13T11:36:52+01:00*%
%TF.ProjectId,Driver interface card,44726976-6572-4206-996e-746572666163,rev?*%
%TF.SameCoordinates,Original*%
%TF.FileFunction,Copper,L2,Bot*%
%TF.FilePolarity,Positive*%
%FSLAX46Y46*%
G04 Gerber Fmt 4.6, Leading zero omitted, Abs format (unit mm)*
G04 Created by KiCad (PCBNEW 9.0.5) date 2026-03-13 11:36:52*
%MOMM*%
%LPD*%
G01*
G04 APERTURE LIST*
G04 Aperture macros list*
%AMRoundRect*
0 Rectangle with rounded corners*
0 $1 Rounding radius*
0 $2 $3 $4 $5 $6 $7 $8 $9 X,Y pos of 4 corners*
0 Add a 4 corners polygon primitive as box body*
4,1,4,$2,$3,$4,$5,$6,$7,$8,$9,$2,$3,0*
0 Add four circle primitives for the rounded corners*
1,1,$1+$1,$2,$3*
1,1,$1+$1,$4,$5*
1,1,$1+$1,$6,$7*
1,1,$1+$1,$8,$9*
0 Add four rect primitives between the rounded corners*
20,1,$1+$1,$2,$3,$4,$5,0*
20,1,$1+$1,$4,$5,$6,$7,0*
20,1,$1+$1,$6,$7,$8,$9,0*
20,1,$1+$1,$8,$9,$2,$3,0*%
G04 Aperture macros list end*
%TA.AperFunction,ComponentPad*%
%ADD10C,1.803400*%
%TD*%
%TA.AperFunction,ComponentPad*%
%ADD11RoundRect,0.250000X-1.350000X1.350000X-1.350000X-1.350000X1.350000X-1.350000X1.350000X1.350000X0*%
%TD*%
%TA.AperFunction,ComponentPad*%
%ADD12C,3.200000*%
%TD*%
%TA.AperFunction,ViaPad*%
%ADD13C,0.600000*%
%TD*%
%TA.AperFunction,Conductor*%
%ADD14C,0.500000*%
%TD*%
%TA.AperFunction,Conductor*%
%ADD15C,0.200000*%
%TD*%
%TA.AperFunction,Conductor*%
%ADD16C,0.600000*%
%TD*%
%TA.AperFunction,Conductor*%
%ADD17C,0.300000*%
%TD*%
G04 APERTURE END LIST*
D10*
%TO.P,J8,1,1*%
%TO.N,/Logic converter/LimitIN.End*%
X98987000Y-83660395D03*
%TO.P,J8,2,2*%
%TO.N,/Logic converter/LimitIN.Home*%
X98987000Y-87160396D03*
%TO.P,J8,3,3*%
%TO.N,5V*%
X98987000Y-90660397D03*
%TO.P,J8,4,4*%
%TO.N,GND*%
X98987000Y-94160400D03*
%TO.P,J8,5,5*%
X98987000Y-97660400D03*
%TO.P,J8,6,6*%
%TO.N,VCC*%
X98987000Y-101160401D03*
%TO.P,J8,7,7*%
%TO.N,/Driver connector/Phase1.B-*%
X98987000Y-104660402D03*
%TO.P,J8,8,8*%
%TO.N,/Driver connector/Phase1.B+*%
X98987000Y-108160402D03*
%TO.P,J8,9,9*%
%TO.N,/Driver connector/Phase1.A-*%
X98987000Y-111660403D03*
%TO.P,J8,10,10*%
%TO.N,/Driver connector/Phase1.A+*%
X98987000Y-115160404D03*
%TD*%
%TO.P,J6,1,1*%
%TO.N,/Driver connector/Phase2.A+*%
X208763000Y-80089603D03*
%TO.P,J6,2,2*%
%TO.N,/Driver connector/Phase2.A-*%
X208763000Y-76589600D03*
%TO.P,J6,3,3*%
%TO.N,/Driver connector/Phase2.B+*%
X208763000Y-73089599D03*
%TO.P,J6,4,4*%
%TO.N,/Driver connector/Phase2.B-*%
X208763000Y-69589598D03*
%TO.P,J6,5,5*%
%TO.N,/Driver connector/LimitOUT2.Home*%
X208763000Y-66089598D03*
%TO.P,J6,6,6*%
%TO.N,/Driver connector/LimitOUT2.End*%
X208763000Y-62589597D03*
%TD*%
%TO.P,J3,1,1*%
%TO.N,VCC*%
X133250000Y-50750000D03*
%TO.P,J3,2,2*%
%TO.N,GND*%
X129749999Y-50750000D03*
%TO.P,J3,3,3*%
%TO.N,5V*%
X126249999Y-50750000D03*
%TD*%
%TO.P,J9,1,1*%
%TO.N,/Logic converter1/LimitIN.End*%
X99000000Y-45749993D03*
%TO.P,J9,2,2*%
%TO.N,/Logic converter1/LimitIN.Home*%
X99000000Y-49249994D03*
%TO.P,J9,3,3*%
%TO.N,5V*%
X99000000Y-52749995D03*
%TO.P,J9,4,4*%
%TO.N,GND*%
X99000000Y-56249998D03*
%TO.P,J9,5,5*%
X99000000Y-59749998D03*
%TO.P,J9,6,6*%
%TO.N,VCC*%
X99000000Y-63249999D03*
%TO.P,J9,7,7*%
%TO.N,/Driver connector/Phase2.B-*%
X99000000Y-66750000D03*
%TO.P,J9,8,8*%
%TO.N,/Driver connector/Phase2.B+*%
X99000000Y-70250000D03*
%TO.P,J9,9,9*%
%TO.N,/Driver connector/Phase2.A-*%
X99000000Y-73750001D03*
%TO.P,J9,10,10*%
%TO.N,/Driver connector/Phase2.A+*%
X99000000Y-77250002D03*
%TD*%
%TO.P,J2,1,1*%
%TO.N,VCC*%
X119339601Y-50737000D03*
%TO.P,J2,2,2*%
%TO.N,GND*%
X115839600Y-50737000D03*
%TO.P,J2,3,3*%
%TO.N,5V*%
X112339600Y-50737000D03*
%TD*%
%TO.P,J1,1,1*%
%TO.N,/Driver connector/Phase1.A+*%
X208763000Y-104679203D03*
%TO.P,J1,2,2*%
%TO.N,/Driver connector/Phase1.A-*%
X208763000Y-101179200D03*
%TO.P,J1,3,3*%
%TO.N,/Driver connector/Phase1.B+*%
X208763000Y-97679199D03*
%TO.P,J1,4,4*%
%TO.N,/Driver connector/Phase1.B-*%
X208763000Y-94179198D03*
%TO.P,J1,5,5*%
%TO.N,/Driver connector/LimitOUT1.Home*%
X208763000Y-90679198D03*
%TO.P,J1,6,6*%
%TO.N,/Driver connector/LimitOUT1.End*%
X208763000Y-87179197D03*
%TD*%
D11*
%TO.P,D2,1,K*%
%TO.N,Net-(D2-K)*%
X124268016Y-64843383D03*
D12*
%TO.P,D2,2,A*%
%TO.N,GND*%
X124268016Y-68653383D03*
%TD*%
D10*
%TO.P,J7,1,1*%
%TO.N,/Driver connector/Home1Pullup*%
X186089600Y-50737000D03*
%TO.P,J7,2,2*%
%TO.N,/Driver connector/End1Pullup*%
X182589599Y-50737000D03*
%TO.P,J7,3,3*%
%TO.N,/Driver connector/Home2Pullup*%
X179089599Y-50737000D03*
%TO.P,J7,4,4*%
%TO.N,/Driver connector/End2Pullup*%
X175589598Y-50737000D03*
%TD*%
D13*
%TO.N,GND*%
X124000000Y-58500000D03*
X199000000Y-46000000D03*
X197250000Y-62500000D03*
X117000000Y-58500000D03*
X212000000Y-73250000D03*
X120500000Y-72250000D03*
X102500000Y-55000000D03*
X191750000Y-93500000D03*
X189250000Y-106000000D03*
X214000000Y-80750000D03*
X211500000Y-52750000D03*
X211750000Y-107000000D03*
X191000000Y-68500000D03*
X123500000Y-89000000D03*
X142250000Y-56000000D03*
X110500000Y-86500000D03*
X139000000Y-63500000D03*
X184250000Y-54750000D03*
X110500000Y-83500000D03*
X162000000Y-62500000D03*
X198750000Y-74250000D03*
X128000000Y-54500000D03*
X178000000Y-87250000D03*
X206750000Y-52750000D03*
X122500000Y-54000000D03*
X216750000Y-43000000D03*
X178000000Y-81250000D03*
X121250000Y-56000000D03*
X101250000Y-65000000D03*
X138000000Y-75000000D03*
X119000000Y-43750000D03*
X193000000Y-42750000D03*
X121250000Y-54000000D03*
X142250000Y-63500000D03*
X209000000Y-85250000D03*
X95750000Y-77500000D03*
X128750000Y-43750000D03*
X123000000Y-72250000D03*
X163750000Y-45750000D03*
X151250000Y-48000000D03*
X181000000Y-46000000D03*
X163500000Y-48500000D03*
X191000000Y-87250000D03*
X211750000Y-46500000D03*
X212000000Y-104250000D03*
X181000000Y-59000000D03*
X178000000Y-83750000D03*
X212000000Y-75500000D03*
X111250000Y-75500000D03*
X189750000Y-59500000D03*
X137250000Y-73500000D03*
X185250000Y-86750000D03*
X200750000Y-87500000D03*
X95750000Y-74000000D03*
X119000000Y-71000000D03*
X212000000Y-87000000D03*
X162500000Y-93750000D03*
X173000000Y-65750000D03*
X206000000Y-84750000D03*
X139000000Y-55750000D03*
X145500000Y-47250000D03*
X132750000Y-55750000D03*
X180750000Y-54750000D03*
X136750000Y-55750000D03*
X159250000Y-53750000D03*
X212000000Y-102000000D03*
X126750000Y-86250000D03*
X95750000Y-115000000D03*
X165000000Y-80500000D03*
X181250000Y-68500000D03*
X130750000Y-55750000D03*
X139000000Y-62000000D03*
X147750000Y-74250000D03*
X153250000Y-65250000D03*
X144500000Y-68500000D03*
X102500000Y-59750000D03*
X95750000Y-71250000D03*
X139500000Y-48750000D03*
X146000000Y-53500000D03*
X163250000Y-89000000D03*
X212000000Y-98750000D03*
X184250000Y-63250000D03*
X202750000Y-56500000D03*
X187000000Y-89000000D03*
X142250000Y-59500000D03*
X174250000Y-59000000D03*
X160750000Y-50750000D03*
X185000000Y-80750000D03*
X192750000Y-63000000D03*
X173500000Y-54750000D03*
X136750000Y-71250000D03*
X185000000Y-58500000D03*
X212000000Y-92750000D03*
X187000000Y-63750000D03*
X144750000Y-80500000D03*
X212000000Y-95750000D03*
X132250000Y-77250000D03*
X143000000Y-50250000D03*
X214000000Y-52750000D03*
X100750000Y-72000000D03*
X115500000Y-71000000D03*
X107000000Y-95500000D03*
X177000000Y-66250000D03*
X181250000Y-66500000D03*
X212000000Y-68750000D03*
X125750000Y-72500000D03*
X197750000Y-56000000D03*
X128500000Y-55750000D03*
X139000000Y-59750000D03*
X102000000Y-90250000D03*
X113500000Y-68750000D03*
X216000000Y-74750000D03*
X166000000Y-68750000D03*
X122000000Y-93750000D03*
X185500000Y-74500000D03*
X117500000Y-51750000D03*
X139000000Y-68250000D03*
X95750000Y-112000000D03*
X194750000Y-48000000D03*
X142250000Y-61500000D03*
X202000000Y-43000000D03*
X95750000Y-105500000D03*
X147500000Y-89000000D03*
X134500000Y-106000000D03*
X212000000Y-61250000D03*
X123750000Y-54000000D03*
X113500000Y-66750000D03*
X216000000Y-78750000D03*
X95750000Y-75500000D03*
X95750000Y-108500000D03*
X95750000Y-65000000D03*
X180000000Y-93250000D03*
X110500000Y-88000000D03*
X146750000Y-93750000D03*
X212000000Y-70500000D03*
X199250000Y-50250000D03*
X180750000Y-62750000D03*
X130000000Y-49000000D03*
X95750000Y-102750000D03*
X139000000Y-71250000D03*
X134750000Y-55750000D03*
X200250000Y-68750000D03*
X122750000Y-58500000D03*
X139000000Y-57750000D03*
X161500000Y-105750000D03*
X125250000Y-54000000D03*
X216000000Y-52750000D03*
X154500000Y-47750000D03*
X95250000Y-43500000D03*
X195124327Y-86874327D03*
X163500000Y-51250000D03*
X111250000Y-105750000D03*
X152250000Y-46000000D03*
X113500000Y-65000000D03*
X205750000Y-80750000D03*
X125750000Y-76750000D03*
X177500000Y-59000000D03*
X187750000Y-54750000D03*
X95750000Y-68500000D03*
X110500000Y-85250000D03*
X110750000Y-43750000D03*
X142250000Y-65250000D03*
X186250000Y-68750000D03*
X165250000Y-59750000D03*
X201000000Y-62250000D03*
X165500000Y-74500000D03*
X212000000Y-79500000D03*
X212000000Y-77750000D03*
X110750000Y-80750000D03*
X154500000Y-63000000D03*
X212000000Y-82500000D03*
X209000000Y-52750000D03*
X157000000Y-46750000D03*
X193250000Y-91000000D03*
X117000000Y-56250000D03*
X117250000Y-64500000D03*
X177250000Y-54750000D03*
X171750000Y-61000000D03*
X214000000Y-76250000D03*
X170500000Y-47500000D03*
X139000000Y-65000000D03*
X177750000Y-74250000D03*
%TO.N,VCC*%
X206250000Y-86500000D03*
X217000000Y-45250000D03*
%TO.N,5V*%
X176500000Y-60500000D03*
X140000000Y-43000000D03*
X175750000Y-65250000D03*
X144750000Y-65250000D03*
%TO.N,Net-(D1-A)*%
X182250000Y-80750000D03*
X182250000Y-63250000D03*
%TO.N,Net-(D3-A)*%
X179750000Y-64487500D03*
X179500000Y-80250000D03*
%TO.N,/Logic converter/LimitIN.End*%
X108250000Y-90000000D03*
X191750000Y-84750000D03*
X185000000Y-88500000D03*
%TO.N,/Logic converter/LimitIN.Home*%
X107000000Y-91000000D03*
%TO.N,Net-(D7-A)*%
X178000000Y-65250000D03*
X177000000Y-62500000D03*
%TO.N,/Logic converter1/LimitIN.End*%
X177500000Y-93000000D03*
X194250000Y-59750000D03*
X107957700Y-92957700D03*
%TO.N,/Logic converter1/LimitIN.Home*%
X107000000Y-92000000D03*
X180000000Y-91750000D03*
X193000000Y-67000000D03*
%TD*%
D14*
%TO.N,VCC*%
X139750000Y-44250000D02*
X216000000Y-44250000D01*
X216000000Y-44250000D02*
X217000000Y-45250000D01*
D15*
X217000000Y-45250000D02*
X217000000Y-75750000D01*
X217000000Y-75750000D02*
X206250000Y-86500000D01*
D14*
X133250000Y-50750000D02*
X139750000Y-44250000D01*
%TO.N,5V*%
X175750000Y-61250000D02*
X175750000Y-65250000D01*
X128749999Y-53250000D02*
X126249999Y-50750000D01*
X140751000Y-55438925D02*
X138562075Y-53250000D01*
D16*
X115576600Y-47500000D02*
X112339600Y-50737000D01*
X126249999Y-50750000D02*
X122999999Y-47500000D01*
D14*
X144750000Y-65250000D02*
X144750000Y-60439925D01*
X176500000Y-60500000D02*
X175750000Y-61250000D01*
D16*
X122999999Y-47500000D02*
X115576600Y-47500000D01*
X97584300Y-89257697D02*
X98987000Y-90660397D01*
D14*
X138562075Y-53250000D02*
X128749999Y-53250000D01*
D16*
X99000000Y-52749995D02*
X97584300Y-54165695D01*
X97584300Y-54165695D02*
X97584300Y-89257697D01*
D15*
X126249999Y-50750000D02*
X133999999Y-43000000D01*
X133999999Y-43000000D02*
X140000000Y-43000000D01*
D14*
X144750000Y-60439925D02*
X140751000Y-56440925D01*
X140751000Y-56440925D02*
X140751000Y-55438925D01*
D17*
%TO.N,Net-(D1-A)*%
X182250000Y-80750000D02*
X182250000Y-63250000D01*
%TO.N,Net-(D3-A)*%
X179750000Y-80000000D02*
X179500000Y-80250000D01*
X179750000Y-64487500D02*
X179750000Y-80000000D01*
D15*
%TO.N,/Logic converter/LimitIN.End*%
X185000000Y-88500000D02*
X188500000Y-85000000D01*
X191500000Y-85000000D02*
X191750000Y-84750000D01*
X105326605Y-90000000D02*
X98987000Y-83660395D01*
X188500000Y-85000000D02*
X191500000Y-85000000D01*
X108250000Y-90000000D02*
X105326605Y-90000000D01*
%TO.N,/Logic converter/LimitIN.Home*%
X105500000Y-91000000D02*
X106250000Y-91000000D01*
X106250000Y-91000000D02*
X107000000Y-91000000D01*
X101660396Y-87160396D02*
X105500000Y-91000000D01*
X98987000Y-87160396D02*
X101660396Y-87160396D01*
D17*
%TO.N,Net-(D7-A)*%
X177000000Y-64625000D02*
X177000000Y-62500000D01*
X177625000Y-65250000D02*
X177000000Y-64625000D01*
X178000000Y-65250000D02*
X177625000Y-65250000D01*
D15*
%TO.N,/Logic converter1/LimitIN.End*%
X108000000Y-93000000D02*
X107957700Y-92957700D01*
X182851000Y-69149000D02*
X192250000Y-59750000D01*
X182851000Y-87649000D02*
X182851000Y-69149000D01*
X98488825Y-92957700D02*
X107957700Y-92957700D01*
X99000000Y-45749993D02*
X96582300Y-48167693D01*
X96582300Y-48167693D02*
X96582300Y-91051175D01*
X177500000Y-93000000D02*
X182851000Y-87649000D01*
X96582300Y-91051175D02*
X98488825Y-92957700D01*
X192250000Y-59750000D02*
X194250000Y-59750000D01*
%TO.N,/Logic converter1/LimitIN.Home*%
X193000000Y-67000000D02*
X185750000Y-67000000D01*
X99000000Y-49249994D02*
X96983300Y-51266694D01*
X96983300Y-51266694D02*
X96983300Y-90455825D01*
X98527475Y-92000000D02*
X107000000Y-92000000D01*
X185750000Y-67000000D02*
X183750000Y-69000000D01*
X96983300Y-90455825D02*
X98527475Y-92000000D01*
X183750000Y-88000000D02*
X180000000Y-91750000D01*
X183750000Y-69000000D02*
X183750000Y-88000000D01*
%TD*%
%TA.AperFunction,Conductor*%
%TO.N,GND*%
G36*
X101510180Y-87580581D02*
G01*
X101530822Y-87597215D01*
X105254087Y-91320480D01*
X105335898Y-91367714D01*
X105336589Y-91368113D01*
X105384804Y-91418681D01*
X105398026Y-91487288D01*
X105372058Y-91552153D01*
X105315143Y-91592680D01*
X105274588Y-91599500D01*
X100034065Y-91599500D01*
X99967026Y-91579815D01*
X99921271Y-91527011D01*
X99911327Y-91457853D01*
X99933746Y-91402615D01*
X100015213Y-91290487D01*
X100101122Y-91121881D01*
X100159597Y-90941913D01*
X100189200Y-90755012D01*
X100189200Y-90565782D01*
X100159597Y-90378881D01*
X100159596Y-90378877D01*
X100159596Y-90378876D01*
X100101123Y-90198915D01*
X100040052Y-90079057D01*
X100015213Y-90030307D01*
X99903986Y-89877217D01*
X99770180Y-89743411D01*
X99617090Y-89632184D01*
X99547382Y-89596666D01*
X99448481Y-89546273D01*
X99268518Y-89487800D01*
X99143915Y-89468064D01*
X99081615Y-89458197D01*
X98892385Y-89458197D01*
X98867469Y-89462143D01*
X98731762Y-89483637D01*
X98662468Y-89474682D01*
X98624683Y-89448845D01*
X98221119Y-89045281D01*
X98187634Y-88983958D01*
X98184800Y-88957600D01*
X98184800Y-88303264D01*
X98204485Y-88236225D01*
X98257289Y-88190470D01*
X98326447Y-88180526D01*
X98365092Y-88192778D01*
X98513134Y-88268209D01*
X98525518Y-88274519D01*
X98693379Y-88329060D01*
X98705484Y-88332993D01*
X98892385Y-88362596D01*
X98892386Y-88362596D01*
X99081614Y-88362596D01*
X99081615Y-88362596D01*
X99268516Y-88332993D01*
X99268519Y-88332992D01*
X99268520Y-88332992D01*
X99448481Y-88274519D01*
X99448481Y-88274518D01*
X99448484Y-88274518D01*
X99617090Y-88188609D01*
X99770180Y-88077382D01*
X99903986Y-87943576D01*
X100015213Y-87790486D01*
X100069527Y-87683886D01*
X100097698Y-87628601D01*
X100145673Y-87577805D01*
X100208183Y-87560896D01*
X101443141Y-87560896D01*
X101510180Y-87580581D01*
G37*
%TD.AperFunction*%
%TA.AperFunction,Conductor*%
G36*
X217942539Y-42020185D02*
G01*
X217988294Y-42072989D01*
X217999500Y-42124500D01*
X217999500Y-118875500D01*
X217979815Y-118942539D01*
X217927011Y-118988294D01*
X217875500Y-118999500D01*
X90374500Y-118999500D01*
X90307461Y-118979815D01*
X90261706Y-118927011D01*
X90250500Y-118875500D01*
X90250500Y-115065789D01*
X97784800Y-115065789D01*
X97784800Y-115255018D01*
X97814403Y-115441921D01*
X97814403Y-115441924D01*
X97872876Y-115621885D01*
X97872878Y-115621888D01*
X97958787Y-115790494D01*
X98070014Y-115943584D01*
X98203820Y-116077390D01*
X98356910Y-116188617D01*
X98525516Y-116274526D01*
X98525518Y-116274527D01*
X98693379Y-116329068D01*
X98705484Y-116333001D01*
X98892385Y-116362604D01*
X98892386Y-116362604D01*
X99081614Y-116362604D01*
X99081615Y-116362604D01*
X99268516Y-116333001D01*
X99268519Y-116333000D01*
X99268520Y-116333000D01*
X99448481Y-116274527D01*
X99448481Y-116274526D01*
X99448484Y-116274526D01*
X99617090Y-116188617D01*
X99770180Y-116077390D01*
X99903986Y-115943584D01*
X100015213Y-115790494D01*
X100101122Y-115621888D01*
X100159597Y-115441920D01*
X100189200Y-115255019D01*
X100189200Y-115065789D01*
X100159597Y-114878888D01*
X100159596Y-114878884D01*
X100159596Y-114878883D01*
X100101123Y-114698922D01*
X100015212Y-114530313D01*
X99903986Y-114377224D01*
X99770180Y-114243418D01*
X99617090Y-114132191D01*
X99484353Y-114064558D01*
X99448481Y-114046280D01*
X99268518Y-113987807D01*
X99143915Y-113968071D01*
X99081615Y-113958204D01*
X98892385Y-113958204D01*
X98830084Y-113968071D01*
X98705482Y-113987807D01*
X98705479Y-113987807D01*
X98525518Y-114046280D01*
X98356909Y-114132191D01*
X98269565Y-114195650D01*
X98203820Y-114243418D01*
X98203818Y-114243420D01*
X98203817Y-114243420D01*
X98070016Y-114377221D01*
X98070016Y-114377222D01*
X98070014Y-114377224D01*
X98022246Y-114442969D01*
X97958787Y-114530313D01*
X97872876Y-114698922D01*
X97814403Y-114878883D01*
X97814403Y-114878886D01*
X97784800Y-115065789D01*
X90250500Y-115065789D01*
X90250500Y-111565788D01*
X97784800Y-111565788D01*
X97784800Y-111755017D01*
X97814403Y-111941920D01*
X97814403Y-111941923D01*
X97872876Y-112121884D01*
X97880927Y-112137684D01*
X97958787Y-112290493D01*
X98070014Y-112443583D01*
X98203820Y-112577389D01*
X98356910Y-112688616D01*
X98525516Y-112774525D01*
X98525518Y-112774526D01*
X98693379Y-112829067D01*
X98705484Y-112833000D01*
X98892385Y-112862603D01*
X98892386Y-112862603D01*
X99081614Y-112862603D01*
X99081615Y-112862603D01*
X99268516Y-112833000D01*
X99268519Y-112832999D01*
X99268520Y-112832999D01*
X99448481Y-112774526D01*
X99448481Y-112774525D01*
X99448484Y-112774525D01*
X99617090Y-112688616D01*
X99770180Y-112577389D01*
X99903986Y-112443583D01*
X100015213Y-112290493D01*
X100101122Y-112121887D01*
X100159597Y-111941919D01*
X100172203Y-111862332D01*
X118399500Y-111862332D01*
X118399500Y-112137667D01*
X118399501Y-112137684D01*
X118435438Y-112410655D01*
X118435439Y-112410660D01*
X118435440Y-112410666D01*
X118444261Y-112443585D01*
X118506704Y-112676630D01*
X118612075Y-112931017D01*
X118612080Y-112931028D01*
X118691809Y-113069121D01*
X118749751Y-113169479D01*
X118749753Y-113169482D01*
X118749754Y-113169483D01*
X118917370Y-113387926D01*
X118917376Y-113387933D01*
X119112066Y-113582623D01*
X119112072Y-113582628D01*
X119330521Y-113750249D01*
X119483778Y-113838732D01*
X119568971Y-113887919D01*
X119568976Y-113887921D01*
X119568979Y-113887923D01*
X119823368Y-113993295D01*
X120089334Y-114064560D01*
X120362326Y-114100500D01*
X120362333Y-114100500D01*
X120637667Y-114100500D01*
X120637674Y-114100500D01*
X120910666Y-114064560D01*
X121176632Y-113993295D01*
X121431021Y-113887923D01*
X121669479Y-113750249D01*
X121887928Y-113582628D01*
X122082628Y-113387928D01*
X122250249Y-113169479D01*
X122387923Y-112931021D01*
X122493295Y-112676632D01*
X122564560Y-112410666D01*
X122600500Y-112137674D01*
X122600500Y-111862332D01*
X185399500Y-111862332D01*
X185399500Y-112137667D01*
X185399501Y-112137684D01*
X185435438Y-112410655D01*
X185435439Y-112410660D01*
X185435440Y-112410666D01*
X185444261Y-112443585D01*
X185506704Y-112676630D01*
X185612075Y-112931017D01*
X185612080Y-112931028D01*
X185691809Y-113069121D01*
X185749751Y-113169479D01*
X185749753Y-113169482D01*
X185749754Y-113169483D01*
X185917370Y-113387926D01*
X185917376Y-113387933D01*
X186112066Y-113582623D01*
X186112072Y-113582628D01*
X186330521Y-113750249D01*
X186483778Y-113838732D01*
X186568971Y-113887919D01*
X186568976Y-113887921D01*
X186568979Y-113887923D01*
X186823368Y-113993295D01*
X187089334Y-114064560D01*
X187362326Y-114100500D01*
X187362333Y-114100500D01*
X187637667Y-114100500D01*
X187637674Y-114100500D01*
X187910666Y-114064560D01*
X188176632Y-113993295D01*
X188431021Y-113887923D01*
X188669479Y-113750249D01*
X188887928Y-113582628D01*
X189082628Y-113387928D01*
X189250249Y-113169479D01*
X189387923Y-112931021D01*
X189493295Y-112676632D01*
X189564560Y-112410666D01*
X189600500Y-112137674D01*
X189600500Y-111862326D01*
X189564560Y-111589334D01*
X189493295Y-111323368D01*
X189387923Y-111068979D01*
X189387921Y-111068976D01*
X189387919Y-111068971D01*
X189338732Y-110983778D01*
X189250249Y-110830521D01*
X189082628Y-110612072D01*
X189082623Y-110612066D01*
X188887933Y-110417376D01*
X188887926Y-110417370D01*
X188669483Y-110249754D01*
X188669482Y-110249753D01*
X188669479Y-110249751D01*
X188574407Y-110194861D01*
X188431028Y-110112080D01*
X188431017Y-110112075D01*
X188176630Y-110006704D01*
X188043649Y-109971072D01*
X187910666Y-109935440D01*
X187910660Y-109935439D01*
X187910655Y-109935438D01*
X187637684Y-109899501D01*
X187637679Y-109899500D01*
X187637674Y-109899500D01*
X187362326Y-109899500D01*
X187362320Y-109899500D01*
X187362315Y-109899501D01*
X187089344Y-109935438D01*
X187089337Y-109935439D01*
X187089334Y-109935440D01*
X187033125Y-109950500D01*
X186823369Y-110006704D01*
X186568982Y-110112075D01*
X186568971Y-110112080D01*
X186330516Y-110249754D01*
X186112073Y-110417370D01*
X186112066Y-110417376D01*
X185917376Y-110612066D01*
X185917370Y-110612073D01*
X185749754Y-110830516D01*
X185612080Y-111068971D01*
X185612075Y-111068982D01*
X185506704Y-111323369D01*
X185435441Y-111589331D01*
X185435438Y-111589344D01*
X185399501Y-111862315D01*
X185399500Y-111862332D01*
X122600500Y-111862332D01*
X122600500Y-111862326D01*
X122564560Y-111589334D01*
X122493295Y-111323368D01*
X122387923Y-111068979D01*
X122387921Y-111068976D01*
X122387919Y-111068971D01*
X122338732Y-110983778D01*
X122250249Y-110830521D01*
X122082628Y-110612072D01*
X122082623Y-110612066D01*
X121887933Y-110417376D01*
X121887926Y-110417370D01*
X121669483Y-110249754D01*
X121669482Y-110249753D01*
X121669479Y-110249751D01*
X121574407Y-110194861D01*
X121431028Y-110112080D01*
X121431017Y-110112075D01*
X121176630Y-110006704D01*
X121043649Y-109971072D01*
X120910666Y-109935440D01*
X120910660Y-109935439D01*
X120910655Y-109935438D01*
X120637684Y-109899501D01*
X120637679Y-109899500D01*
X120637674Y-109899500D01*
X120362326Y-109899500D01*
X120362320Y-109899500D01*
X120362315Y-109899501D01*
X120089344Y-109935438D01*
X120089337Y-109935439D01*
X120089334Y-109935440D01*
X120033125Y-109950500D01*
X119823369Y-110006704D01*
X119568982Y-110112075D01*
X119568971Y-110112080D01*
X119330516Y-110249754D01*
X119112073Y-110417370D01*
X119112066Y-110417376D01*
X118917376Y-110612066D01*
X118917370Y-110612073D01*
X118749754Y-110830516D01*
X118612080Y-111068971D01*
X118612075Y-111068982D01*
X118506704Y-111323369D01*
X118435441Y-111589331D01*
X118435438Y-111589344D01*
X118399501Y-111862315D01*
X118399500Y-111862332D01*
X100172203Y-111862332D01*
X100189200Y-111755018D01*
X100189200Y-111565788D01*
X100159597Y-111378887D01*
X100159596Y-111378883D01*
X100159596Y-111378882D01*
X100101123Y-111198921D01*
X100083296Y-111163934D01*
X100015213Y-111030313D01*
X99903986Y-110877223D01*
X99770180Y-110743417D01*
X99617090Y-110632190D01*
X99577606Y-110612072D01*
X99448481Y-110546279D01*
X99268518Y-110487806D01*
X99143915Y-110468070D01*
X99081615Y-110458203D01*
X98892385Y-110458203D01*
X98830084Y-110468070D01*
X98705482Y-110487806D01*
X98705479Y-110487806D01*
X98525518Y-110546279D01*
X98356909Y-110632190D01*
X98269565Y-110695649D01*
X98203820Y-110743417D01*
X98203818Y-110743419D01*
X98203817Y-110743419D01*
X98070016Y-110877220D01*
X98070016Y-110877221D01*
X98070014Y-110877223D01*
X98022246Y-110942968D01*
X97958787Y-111030312D01*
X97872876Y-111198921D01*
X97814403Y-111378882D01*
X97814403Y-111378885D01*
X97784800Y-111565788D01*
X90250500Y-111565788D01*
X90250500Y-108065787D01*
X97784800Y-108065787D01*
X97784800Y-108255016D01*
X97814403Y-108441919D01*
X97814403Y-108441922D01*
X97872876Y-108621883D01*
X97872878Y-108621886D01*
X97958787Y-108790492D01*
X98070014Y-108943582D01*
X98203820Y-109077388D01*
X98356910Y-109188615D01*
X98525516Y-109274524D01*
X98525518Y-109274525D01*
X98693379Y-109329066D01*
X98705484Y-109332999D01*
X98892385Y-109362602D01*
X98892386Y-109362602D01*
X99081614Y-109362602D01*
X99081615Y-109362602D01*
X99268516Y-109332999D01*
X99268519Y-109332998D01*
X99268520Y-109332998D01*
X99448481Y-109274525D01*
X99448481Y-109274524D01*
X99448484Y-109274524D01*
X99617090Y-109188615D01*
X99770180Y-109077388D01*
X99903986Y-108943582D01*
X100015213Y-108790492D01*
X100101122Y-108621886D01*
X100159597Y-108441918D01*
X100189200Y-108255017D01*
X100189200Y-108065787D01*
X100159597Y-107878886D01*
X100159596Y-107878882D01*
X100159596Y-107878881D01*
X100101123Y-107698920D01*
X100015212Y-107530311D01*
X99903986Y-107377222D01*
X99770180Y-107243416D01*
X99617090Y-107132189D01*
X99448481Y-107046278D01*
X99268518Y-106987805D01*
X99143915Y-106968069D01*
X99081615Y-106958202D01*
X98892385Y-106958202D01*
X98830084Y-106968069D01*
X98705482Y-106987805D01*
X98705479Y-106987805D01*
X98525518Y-107046278D01*
X98356909Y-107132189D01*
X98269565Y-107195648D01*
X98203820Y-107243416D01*
X98203818Y-107243418D01*
X98203817Y-107243418D01*
X98070016Y-107377219D01*
X98070016Y-107377220D01*
X98070014Y-107377222D01*
X98022246Y-107442967D01*
X97958787Y-107530311D01*
X97872876Y-107698920D01*
X97814403Y-107878881D01*
X97814403Y-107878884D01*
X97784800Y-108065787D01*
X90250500Y-108065787D01*
X90250500Y-104565787D01*
X97784800Y-104565787D01*
X97784800Y-104755016D01*
X97814403Y-104941919D01*
X97814403Y-104941922D01*
X97872876Y-105121883D01*
X97958787Y-105290492D01*
X98070014Y-105443582D01*
X98203820Y-105577388D01*
X98356910Y-105688615D01*
X98525516Y-105774524D01*
X98525518Y-105774525D01*
X98693379Y-105829066D01*
X98705484Y-105832999D01*
X98892385Y-105862602D01*
X98892386Y-105862602D01*
X99081614Y-105862602D01*
X99081615Y-105862602D01*
X99268516Y-105832999D01*
X99268519Y-105832998D01*
X99268520Y-105832998D01*
X99448481Y-105774525D01*
X99448481Y-105774524D01*
X99448484Y-105774524D01*
X99617090Y-105688615D01*
X99770180Y-105577388D01*
X99903986Y-105443582D01*
X100015213Y-105290492D01*
X100101122Y-105121886D01*
X100159597Y-104941918D01*
X100189200Y-104755017D01*
X100189200Y-104584588D01*
X207560800Y-104584588D01*
X207560800Y-104773817D01*
X207590403Y-104960720D01*
X207590403Y-104960723D01*
X207648876Y-105140684D01*
X207648878Y-105140687D01*
X207734787Y-105309293D01*
X207846014Y-105462383D01*
X207979820Y-105596189D01*
X208132910Y-105707416D01*
X208264617Y-105774524D01*
X208301518Y-105793326D01*
X208423617Y-105832998D01*
X208481484Y-105851800D01*
X208668385Y-105881403D01*
X208668386Y-105881403D01*
X208857614Y-105881403D01*
X208857615Y-105881403D01*
X209044516Y-105851800D01*
X209044519Y-105851799D01*
X209044520Y-105851799D01*
X209224481Y-105793326D01*
X209224481Y-105793325D01*
X209224484Y-105793325D01*
X209393090Y-105707416D01*
X209546180Y-105596189D01*
X209679986Y-105462383D01*
X209791213Y-105309293D01*
X209877122Y-105140687D01*
X209935597Y-104960719D01*
X209965200Y-104773818D01*
X209965200Y-104584588D01*
X209935597Y-104397687D01*
X209935596Y-104397683D01*
X209935596Y-104397682D01*
X209877123Y-104217721D01*
X209791212Y-104049112D01*
X209777552Y-104030311D01*
X209679986Y-103896023D01*
X209546180Y-103762217D01*
X209393090Y-103650990D01*
X209356191Y-103632189D01*
X209224481Y-103565079D01*
X209044518Y-103506606D01*
X208919915Y-103486870D01*
X208857615Y-103477003D01*
X208668385Y-103477003D01*
X208606084Y-103486870D01*
X208481482Y-103506606D01*
X208481479Y-103506606D01*
X208301518Y-103565079D01*
X208132909Y-103650990D01*
X208045565Y-103714449D01*
X207979820Y-103762217D01*
X207979818Y-103762219D01*
X207979817Y-103762219D01*
X207846016Y-103896020D01*
X207846016Y-103896021D01*
X207846014Y-103896023D01*
X207798246Y-103961768D01*
X207734787Y-104049112D01*
X207648876Y-104217721D01*
X207590403Y-104397682D01*
X207590403Y-104397685D01*
X207560800Y-104584588D01*
X100189200Y-104584588D01*
X100189200Y-104565787D01*
X100159597Y-104378886D01*
X100159596Y-104378882D01*
X100159596Y-104378881D01*
X100101123Y-104198920D01*
X100101122Y-104198918D01*
X100015213Y-104030312D01*
X99903986Y-103877222D01*
X99770180Y-103743416D01*
X99617090Y-103632189D01*
X99448481Y-103546278D01*
X99268518Y-103487805D01*
X99143915Y-103468069D01*
X99081615Y-103458202D01*
X98892385Y-103458202D01*
X98830084Y-103468069D01*
X98705482Y-103487805D01*
X98705479Y-103487805D01*
X98525518Y-103546278D01*
X98356909Y-103632189D01*
X98269565Y-103695648D01*
X98203820Y-103743416D01*
X98203818Y-103743418D01*
X98203817Y-103743418D01*
X98070016Y-103877219D01*
X98070016Y-103877220D01*
X98070014Y-103877222D01*
X98022246Y-103942967D01*
X97958787Y-104030311D01*
X97872876Y-104198920D01*
X97814403Y-104378881D01*
X97814403Y-104378884D01*
X97784800Y-104565787D01*
X90250500Y-104565787D01*
X90250500Y-101065786D01*
X97784800Y-101065786D01*
X97784800Y-101255016D01*
X97787778Y-101273815D01*
X97814403Y-101441918D01*
X97814403Y-101441921D01*
X97872876Y-101621882D01*
X97958787Y-101790491D01*
X98070014Y-101943581D01*
X98203820Y-102077387D01*
X98356910Y-102188614D01*
X98525516Y-102274523D01*
X98525518Y-102274524D01*
X98693379Y-102329065D01*
X98705484Y-102332998D01*
X98892385Y-102362601D01*
X98892386Y-102362601D01*
X99081614Y-102362601D01*
X99081615Y-102362601D01*
X99268516Y-102332998D01*
X99268519Y-102332997D01*
X99268520Y-102332997D01*
X99448481Y-102274524D01*
X99448481Y-102274523D01*
X99448484Y-102274523D01*
X99617090Y-102188614D01*
X99770180Y-102077387D01*
X99903986Y-101943581D01*
X100015213Y-101790491D01*
X100101122Y-101621885D01*
X100159597Y-101441917D01*
X100189200Y-101255016D01*
X100189200Y-101084585D01*
X207560800Y-101084585D01*
X207560800Y-101273814D01*
X207590403Y-101460717D01*
X207590403Y-101460720D01*
X207648876Y-101640681D01*
X207648878Y-101640684D01*
X207734787Y-101809290D01*
X207846014Y-101962380D01*
X207979820Y-102096186D01*
X208132910Y-102207413D01*
X208264621Y-102274523D01*
X208301518Y-102293323D01*
X208423623Y-102332997D01*
X208481484Y-102351797D01*
X208668385Y-102381400D01*
X208668386Y-102381400D01*
X208857614Y-102381400D01*
X208857615Y-102381400D01*
X209044516Y-102351797D01*
X209044519Y-102351796D01*
X209044520Y-102351796D01*
X209224481Y-102293323D01*
X209224481Y-102293322D01*
X209224484Y-102293322D01*
X209393090Y-102207413D01*
X209546180Y-102096186D01*
X209679986Y-101962380D01*
X209791213Y-101809290D01*
X209877122Y-101640684D01*
X209935597Y-101460716D01*
X209965200Y-101273815D01*
X209965200Y-101084585D01*
X209935597Y-100897684D01*
X209935596Y-100897680D01*
X209935596Y-100897679D01*
X209877123Y-100717718D01*
X209791212Y-100549109D01*
X209679986Y-100396020D01*
X209546180Y-100262214D01*
X209393090Y-100150987D01*
X209356195Y-100132188D01*
X209224481Y-100065076D01*
X209044518Y-100006603D01*
X208919915Y-99986867D01*
X208857615Y-99977000D01*
X208668385Y-99977000D01*
X208606084Y-99986867D01*
X208481482Y-100006603D01*
X208481479Y-100006603D01*
X208301518Y-100065076D01*
X208132909Y-100150987D01*
X208045565Y-100214446D01*
X207979820Y-100262214D01*
X207979818Y-100262216D01*
X207979817Y-100262216D01*
X207846016Y-100396017D01*
X207846016Y-100396018D01*
X207846014Y-100396020D01*
X207798246Y-100461765D01*
X207734787Y-100549109D01*
X207648876Y-100717718D01*
X207590403Y-100897679D01*
X207590403Y-100897682D01*
X207560800Y-101084585D01*
X100189200Y-101084585D01*
X100189200Y-101065786D01*
X100159597Y-100878885D01*
X100159596Y-100878881D01*
X100159596Y-100878880D01*
X100101123Y-100698919D01*
X100101122Y-100698917D01*
X100015213Y-100530311D01*
X99903986Y-100377221D01*
X99770180Y-100243415D01*
X99617090Y-100132188D01*
X99448481Y-100046277D01*
X99268518Y-99987804D01*
X99143915Y-99968068D01*
X99081615Y-99958201D01*
X98892385Y-99958201D01*
X98830084Y-99968068D01*
X98705482Y-99987804D01*
X98705479Y-99987804D01*
X98525518Y-100046277D01*
X98356909Y-100132188D01*
X98269565Y-100195647D01*
X98203820Y-100243415D01*
X98203818Y-100243417D01*
X98203817Y-100243417D01*
X98070016Y-100377218D01*
X98070016Y-100377219D01*
X98070014Y-100377221D01*
X98056358Y-100396017D01*
X97958787Y-100530310D01*
X97872876Y-100698919D01*
X97814403Y-100878880D01*
X97814403Y-100878883D01*
X97811425Y-100897684D01*
X97784800Y-101065786D01*
X90250500Y-101065786D01*
X90250500Y-97550084D01*
X97585300Y-97550084D01*
X97585300Y-97770715D01*
X97619815Y-97988633D01*
X97619815Y-97988636D01*
X97687992Y-98198463D01*
X97788157Y-98395047D01*
X97834715Y-98459130D01*
X98387718Y-97906127D01*
X98413016Y-97967201D01*
X98483899Y-98073285D01*
X98574115Y-98163501D01*
X98680199Y-98234384D01*
X98741271Y-98259680D01*
X98188268Y-98812682D01*
X98188268Y-98812683D01*
X98252352Y-98859242D01*
X98448936Y-98959407D01*
X98658764Y-99027584D01*
X98876685Y-99062100D01*
X99097315Y-99062100D01*
X99315233Y-99027584D01*
X99315236Y-99027584D01*
X99525063Y-98959407D01*
X99721651Y-98859240D01*
X99785730Y-98812683D01*
X99785731Y-98812683D01*
X99232728Y-98259681D01*
X99293801Y-98234384D01*
X99399885Y-98163501D01*
X99490101Y-98073285D01*
X99560984Y-97967201D01*
X99586281Y-97906128D01*
X100139283Y-98459131D01*
X100139283Y-98459130D01*
X100185840Y-98395051D01*
X100286007Y-98198463D01*
X100354184Y-97988636D01*
X100354184Y-97988633D01*
X100388700Y-97770715D01*
X100388700Y-97584584D01*
X207560800Y-97584584D01*
X207560800Y-97773813D01*
X207590403Y-97960716D01*
X207590403Y-97960719D01*
X207648876Y-98140680D01*
X207648878Y-98140683D01*
X207734787Y-98309289D01*
X207846014Y-98462379D01*
X207979820Y-98596185D01*
X208132910Y-98707412D01*
X208301516Y-98793321D01*
X208301518Y-98793322D01*
X208361106Y-98812683D01*
X208481484Y-98851796D01*
X208668385Y-98881399D01*
X208668386Y-98881399D01*
X208857614Y-98881399D01*
X208857615Y-98881399D01*
X209044516Y-98851796D01*
X209044519Y-98851795D01*
X209044520Y-98851795D01*
X209224481Y-98793322D01*
X209224481Y-98793321D01*
X209224484Y-98793321D01*
X209393090Y-98707412D01*
X209546180Y-98596185D01*
X209679986Y-98462379D01*
X209791213Y-98309289D01*
X209877122Y-98140683D01*
X209935597Y-97960715D01*
X209965200Y-97773814D01*
X209965200Y-97584584D01*
X209935597Y-97397683D01*
X209935596Y-97397679D01*
X209935596Y-97397678D01*
X209877123Y-97217717D01*
X209877122Y-97217715D01*
X209791213Y-97049109D01*
X209679986Y-96896019D01*
X209546180Y-96762213D01*
X209393090Y-96650986D01*
X209224481Y-96565075D01*
X209044518Y-96506602D01*
X208919915Y-96486866D01*
X208857615Y-96476999D01*
X208668385Y-96476999D01*
X208606084Y-96486866D01*
X208481482Y-96506602D01*
X208481479Y-96506602D01*
X208301518Y-96565075D01*
X208132909Y-96650986D01*
X208045565Y-96714445D01*
X207979820Y-96762213D01*
X207979818Y-96762215D01*
X207979817Y-96762215D01*
X207846016Y-96896016D01*
X207846016Y-96896017D01*
X207846014Y-96896019D01*
X207824419Y-96925742D01*
X207734787Y-97049108D01*
X207648876Y-97217717D01*
X207590403Y-97397678D01*
X207590403Y-97397681D01*
X207560800Y-97584584D01*
X100388700Y-97584584D01*
X100388700Y-97550084D01*
X100354184Y-97332166D01*
X100354184Y-97332163D01*
X100286007Y-97122336D01*
X100185842Y-96925752D01*
X100139283Y-96861668D01*
X100139282Y-96861668D01*
X99586280Y-97414670D01*
X99560984Y-97353599D01*
X99490101Y-97247515D01*
X99399885Y-97157299D01*
X99293801Y-97086416D01*
X99232726Y-97061118D01*
X99785730Y-96508115D01*
X99721647Y-96461557D01*
X99525063Y-96361392D01*
X99315235Y-96293215D01*
X99097315Y-96258700D01*
X98876685Y-96258700D01*
X98658766Y-96293215D01*
X98658763Y-96293215D01*
X98448936Y-96361392D01*
X98252342Y-96461562D01*
X98188268Y-96508114D01*
X98188268Y-96508115D01*
X98741271Y-97061118D01*
X98680199Y-97086416D01*
X98574115Y-97157299D01*
X98483899Y-97247515D01*
X98413016Y-97353599D01*
X98387718Y-97414671D01*
X97834715Y-96861668D01*
X97834714Y-96861668D01*
X97788162Y-96925742D01*
X97687992Y-97122336D01*
X97619815Y-97332163D01*
X97619815Y-97332166D01*
X97585300Y-97550084D01*
X90250500Y-97550084D01*
X90250500Y-48114966D01*
X96181800Y-48114966D01*
X96181800Y-90998448D01*
X96181800Y-91103902D01*
X96191654Y-91140679D01*
X96209093Y-91205764D01*
X96224116Y-91231783D01*
X96261820Y-91297088D01*
X98168343Y-93203610D01*
X98168345Y-93203613D01*
X98242912Y-93278180D01*
X98312210Y-93318189D01*
X98334238Y-93330907D01*
X98436099Y-93358201D01*
X98436102Y-93358201D01*
X98486992Y-93358201D01*
X98554031Y-93377886D01*
X98574673Y-93394520D01*
X98741272Y-93561118D01*
X98680199Y-93586416D01*
X98574115Y-93657299D01*
X98483899Y-93747515D01*
X98413016Y-93853599D01*
X98387718Y-93914671D01*
X97834715Y-93361668D01*
X97834714Y-93361668D01*
X97788162Y-93425742D01*
X97687992Y-93622336D01*
X97619815Y-93832163D01*
X97619815Y-93832166D01*
X97585300Y-94050084D01*
X97585300Y-94270715D01*
X97619815Y-94488633D01*
X97619815Y-94488636D01*
X97687992Y-94698463D01*
X97788157Y-94895047D01*
X97834715Y-94959130D01*
X98387718Y-94406127D01*
X98413016Y-94467201D01*
X98483899Y-94573285D01*
X98574115Y-94663501D01*
X98680199Y-94734384D01*
X98741271Y-94759680D01*
X98188268Y-95312682D01*
X98188268Y-95312683D01*
X98252352Y-95359242D01*
X98448936Y-95459407D01*
X98658764Y-95527584D01*
X98876685Y-95562100D01*
X99097315Y-95562100D01*
X99315233Y-95527584D01*
X99315236Y-95527584D01*
X99525063Y-95459407D01*
X99721651Y-95359240D01*
X99785730Y-95312683D01*
X99785731Y-95312683D01*
X99232728Y-94759681D01*
X99293801Y-94734384D01*
X99399885Y-94663501D01*
X99490101Y-94573285D01*
X99560984Y-94467201D01*
X99586281Y-94406128D01*
X100139283Y-94959131D01*
X100139283Y-94959130D01*
X100185840Y-94895051D01*
X100286007Y-94698463D01*
X100354184Y-94488636D01*
X100354184Y-94488633D01*
X100388700Y-94270715D01*
X100388700Y-94084583D01*
X207560800Y-94084583D01*
X207560800Y-94273812D01*
X207590403Y-94460715D01*
X207590403Y-94460718D01*
X207648876Y-94640679D01*
X207721499Y-94783209D01*
X207734787Y-94809288D01*
X207846014Y-94962378D01*
X207979820Y-95096184D01*
X208132910Y-95207411D01*
X208301516Y-95293320D01*
X208301518Y-95293321D01*
X208361106Y-95312682D01*
X208481484Y-95351795D01*
X208668385Y-95381398D01*
X208668386Y-95381398D01*
X208857614Y-95381398D01*
X208857615Y-95381398D01*
X209044516Y-95351795D01*
X209044519Y-95351794D01*
X209044520Y-95351794D01*
X209224481Y-95293321D01*
X209224481Y-95293320D01*
X209224484Y-95293320D01*
X209393090Y-95207411D01*
X209546180Y-95096184D01*
X209679986Y-94962378D01*
X209791213Y-94809288D01*
X209877122Y-94640682D01*
X209926526Y-94488633D01*
X209935596Y-94460718D01*
X209935596Y-94460717D01*
X209935597Y-94460714D01*
X209965200Y-94273813D01*
X209965200Y-94084583D01*
X209935597Y-93897682D01*
X209935596Y-93897678D01*
X209935596Y-93897677D01*
X209877123Y-93717716D01*
X209846339Y-93657299D01*
X209791213Y-93549108D01*
X209679986Y-93396018D01*
X209546180Y-93262212D01*
X209393090Y-93150985D01*
X209224481Y-93065074D01*
X209044518Y-93006601D01*
X208919915Y-92986865D01*
X208857615Y-92976998D01*
X208668385Y-92976998D01*
X208606084Y-92986865D01*
X208481482Y-93006601D01*
X208481479Y-93006601D01*
X208301518Y-93065074D01*
X208132909Y-93150985D01*
X208073244Y-93194335D01*
X207979820Y-93262212D01*
X207979818Y-93262214D01*
X207979817Y-93262214D01*
X207846016Y-93396015D01*
X207846016Y-93396016D01*
X207846014Y-93396018D01*
X207798246Y-93461763D01*
X207734787Y-93549107D01*
X207648876Y-93717716D01*
X207590403Y-93897677D01*
X207590403Y-93897680D01*
X207560800Y-94084583D01*
X100388700Y-94084583D01*
X100388700Y-94050084D01*
X100354184Y-93832166D01*
X100354184Y-93832163D01*
X100286007Y-93622336D01*
X100243288Y-93538495D01*
X100230392Y-93469826D01*
X100256668Y-93405085D01*
X100313775Y-93364828D01*
X100353773Y-93358200D01*
X107457602Y-93358200D01*
X107524641Y-93377885D01*
X107545283Y-93394519D01*
X107588984Y-93438220D01*
X107588986Y-93438221D01*
X107588990Y-93438224D01*
X107662250Y-93480520D01*
X107725916Y-93517277D01*
X107878643Y-93558200D01*
X107878645Y-93558200D01*
X108036755Y-93558200D01*
X108036757Y-93558200D01*
X108189484Y-93517277D01*
X108326416Y-93438220D01*
X108438220Y-93326416D01*
X108517277Y-93189484D01*
X108558200Y-93036757D01*
X108558200Y-92920943D01*
X176899500Y-92920943D01*
X176899500Y-93079057D01*
X176929091Y-93189490D01*
X176940423Y-93231783D01*
X176940426Y-93231790D01*
X177019475Y-93368709D01*
X177019479Y-93368714D01*
X177019480Y-93368716D01*
X177131284Y-93480520D01*
X177131286Y-93480521D01*
X177131290Y-93480524D01*
X177250081Y-93549107D01*
X177268216Y-93559577D01*
X177420943Y-93600500D01*
X177420945Y-93600500D01*
X177579055Y-93600500D01*
X177579057Y-93600500D01*
X177731784Y-93559577D01*
X177868716Y-93480520D01*
X177980520Y-93368716D01*
X178059577Y-93231784D01*
X178100500Y-93079057D01*
X178100500Y-93017254D01*
X178120185Y-92950215D01*
X178136819Y-92929573D01*
X178669726Y-92396666D01*
X179213364Y-91853027D01*
X179274685Y-91819544D01*
X179344377Y-91824528D01*
X179400310Y-91866400D01*
X179420818Y-91908616D01*
X179440423Y-91981785D01*
X179440426Y-91981790D01*
X179519475Y-92118709D01*
X179519479Y-92118714D01*
X179519480Y-92118716D01*
X179631284Y-92230520D01*
X179631286Y-92230521D01*
X179631290Y-92230524D01*
X179768209Y-92309573D01*
X179768216Y-92309577D01*
X179920943Y-92350500D01*
X179920945Y-92350500D01*
X180079055Y-92350500D01*
X180079057Y-92350500D01*
X180231784Y-92309577D01*
X180368716Y-92230520D01*
X180480520Y-92118716D01*
X180559577Y-91981784D01*
X180600500Y-91829057D01*
X180600500Y-91767255D01*
X180620185Y-91700216D01*
X180636819Y-91679574D01*
X181731810Y-90584583D01*
X207560800Y-90584583D01*
X207560800Y-90773812D01*
X207590403Y-90960715D01*
X207590403Y-90960718D01*
X207648876Y-91140679D01*
X207648878Y-91140682D01*
X207734787Y-91309288D01*
X207846014Y-91462378D01*
X207979820Y-91596184D01*
X208132910Y-91707411D01*
X208250361Y-91767255D01*
X208301518Y-91793321D01*
X208411497Y-91829055D01*
X208481484Y-91851795D01*
X208668385Y-91881398D01*
X208668386Y-91881398D01*
X208857614Y-91881398D01*
X208857615Y-91881398D01*
X209044516Y-91851795D01*
X209044519Y-91851794D01*
X209044520Y-91851794D01*
X209224481Y-91793321D01*
X209224481Y-91793320D01*
X209224484Y-91793320D01*
X209393090Y-91707411D01*
X209546180Y-91596184D01*
X209679986Y-91462378D01*
X209791213Y-91309288D01*
X209877122Y-91140682D01*
X209897145Y-91079057D01*
X209935596Y-90960718D01*
X209935596Y-90960717D01*
X209935597Y-90960714D01*
X209965200Y-90773813D01*
X209965200Y-90584583D01*
X209935597Y-90397682D01*
X209935596Y-90397678D01*
X209935596Y-90397677D01*
X209877123Y-90217716D01*
X209867542Y-90198913D01*
X209791213Y-90049108D01*
X209679986Y-89896018D01*
X209546180Y-89762212D01*
X209393090Y-89650985D01*
X209356191Y-89632184D01*
X209224481Y-89565074D01*
X209044518Y-89506601D01*
X208899531Y-89483637D01*
X208857615Y-89476998D01*
X208668385Y-89476998D01*
X208626469Y-89483637D01*
X208481482Y-89506601D01*
X208481479Y-89506601D01*
X208301518Y-89565074D01*
X208132909Y-89650985D01*
X208045565Y-89714444D01*
X207979820Y-89762212D01*
X207979818Y-89762214D01*
X207979817Y-89762214D01*
X207846016Y-89896015D01*
X207846016Y-89896016D01*
X207846014Y-89896018D01*
X207798246Y-89961763D01*
X207734787Y-90049107D01*
X207648876Y-90217716D01*
X207590403Y-90397677D01*
X207590403Y-90397680D01*
X207560800Y-90584583D01*
X181731810Y-90584583D01*
X183895450Y-88420943D01*
X184399500Y-88420943D01*
X184399500Y-88579056D01*
X184440423Y-88731783D01*
X184440426Y-88731790D01*
X184519475Y-88868709D01*
X184519479Y-88868714D01*
X184519480Y-88868716D01*
X184631284Y-88980520D01*
X184631286Y-88980521D01*
X184631290Y-88980524D01*
X184680547Y-89008962D01*
X184768216Y-89059577D01*
X184920943Y-89100500D01*
X184920945Y-89100500D01*
X185079055Y-89100500D01*
X185079057Y-89100500D01*
X185231784Y-89059577D01*
X185368716Y-88980520D01*
X185480520Y-88868716D01*
X185559577Y-88731784D01*
X185600500Y-88579057D01*
X185600500Y-88517255D01*
X185620185Y-88450216D01*
X185636819Y-88429574D01*
X188629574Y-85436819D01*
X188690897Y-85403334D01*
X188717255Y-85400500D01*
X191552725Y-85400500D01*
X191552727Y-85400500D01*
X191654588Y-85373207D01*
X191657795Y-85371355D01*
X191665144Y-85367113D01*
X191727144Y-85350500D01*
X191829055Y-85350500D01*
X191829057Y-85350500D01*
X191981784Y-85309577D01*
X192118716Y-85230520D01*
X192230520Y-85118716D01*
X192309577Y-84981784D01*
X192350500Y-84829057D01*
X192350500Y-84670943D01*
X192309577Y-84518216D01*
X192309573Y-84518209D01*
X192230524Y-84381290D01*
X192230518Y-84381282D01*
X192118717Y-84269481D01*
X192118709Y-84269475D01*
X191981790Y-84190426D01*
X191981786Y-84190424D01*
X191981784Y-84190423D01*
X191829057Y-84149500D01*
X191670943Y-84149500D01*
X191518216Y-84190423D01*
X191518209Y-84190426D01*
X191381290Y-84269475D01*
X191381282Y-84269481D01*
X191269481Y-84381282D01*
X191269475Y-84381290D01*
X191190423Y-84518213D01*
X191188461Y-84522952D01*
X191144620Y-84577356D01*
X191078326Y-84599421D01*
X191073900Y-84599500D01*
X188447273Y-84599500D01*
X188345413Y-84626793D01*
X188345410Y-84626794D01*
X188281429Y-84663734D01*
X188254090Y-84679518D01*
X188254084Y-84679522D01*
X185070426Y-87863181D01*
X185009103Y-87896666D01*
X184982745Y-87899500D01*
X184920943Y-87899500D01*
X184768216Y-87940423D01*
X184768209Y-87940426D01*
X184631290Y-88019475D01*
X184631282Y-88019481D01*
X184519481Y-88131282D01*
X184519475Y-88131290D01*
X184440426Y-88268209D01*
X184440423Y-88268216D01*
X184399500Y-88420943D01*
X183895450Y-88420943D01*
X183991258Y-88325135D01*
X184023074Y-88293319D01*
X184070480Y-88245913D01*
X184123207Y-88154588D01*
X184150500Y-88052727D01*
X184150500Y-87947273D01*
X184150500Y-79994988D01*
X207560800Y-79994988D01*
X207560800Y-80184218D01*
X207566041Y-80217305D01*
X207590403Y-80371120D01*
X207590403Y-80371123D01*
X207648876Y-80551084D01*
X207683337Y-80618717D01*
X207734787Y-80719693D01*
X207846014Y-80872783D01*
X207979820Y-81006589D01*
X208132910Y-81117816D01*
X208301516Y-81203725D01*
X208301518Y-81203726D01*
X208383995Y-81230524D01*
X208481484Y-81262200D01*
X208668385Y-81291803D01*
X208668386Y-81291803D01*
X208857614Y-81291803D01*
X208857615Y-81291803D01*
X209044516Y-81262200D01*
X209044519Y-81262199D01*
X209044520Y-81262199D01*
X209224481Y-81203726D01*
X209224481Y-81203725D01*
X209224484Y-81203725D01*
X209393090Y-81117816D01*
X209546180Y-81006589D01*
X209679986Y-80872783D01*
X209791213Y-80719693D01*
X209877122Y-80551087D01*
X209899640Y-80481783D01*
X209935596Y-80371123D01*
X209935596Y-80371122D01*
X209935597Y-80371119D01*
X209965200Y-80184218D01*
X209965200Y-79994988D01*
X209935597Y-79808087D01*
X209935596Y-79808083D01*
X209935596Y-79808082D01*
X209877123Y-79628121D01*
X209791212Y-79459512D01*
X209679986Y-79306423D01*
X209546180Y-79172617D01*
X209393090Y-79061390D01*
X209224481Y-78975479D01*
X209044518Y-78917006D01*
X208919915Y-78897270D01*
X208857615Y-78887403D01*
X208668385Y-78887403D01*
X208606084Y-78897270D01*
X208481482Y-78917006D01*
X208481479Y-78917006D01*
X208301518Y-78975479D01*
X208132909Y-79061390D01*
X208045565Y-79124849D01*
X207979820Y-79172617D01*
X207979818Y-79172619D01*
X207979817Y-79172619D01*
X207846016Y-79306420D01*
X207846016Y-79306421D01*
X207846014Y-79306423D01*
X207798246Y-79372168D01*
X207734787Y-79459512D01*
X207648876Y-79628121D01*
X207590403Y-79808082D01*
X207590403Y-79808085D01*
X207590403Y-79808087D01*
X207560800Y-79994988D01*
X184150500Y-79994988D01*
X184150500Y-76494985D01*
X207560800Y-76494985D01*
X207560800Y-76684214D01*
X207590403Y-76871117D01*
X207590403Y-76871120D01*
X207648876Y-77051081D01*
X207648878Y-77051084D01*
X207734787Y-77219690D01*
X207846014Y-77372780D01*
X207979820Y-77506586D01*
X208132910Y-77617813D01*
X208301516Y-77703722D01*
X208301518Y-77703723D01*
X208469379Y-77758264D01*
X208481484Y-77762197D01*
X208668385Y-77791800D01*
X208668386Y-77791800D01*
X208857614Y-77791800D01*
X208857615Y-77791800D01*
X209044516Y-77762197D01*
X209044519Y-77762196D01*
X209044520Y-77762196D01*
X209224481Y-77703723D01*
X209224481Y-77703722D01*
X209224484Y-77703722D01*
X209393090Y-77617813D01*
X209546180Y-77506586D01*
X209679986Y-77372780D01*
X209791213Y-77219690D01*
X209877122Y-77051084D01*
X209935597Y-76871116D01*
X209965200Y-76684215D01*
X209965200Y-76494985D01*
X209935597Y-76308084D01*
X209935596Y-76308080D01*
X209935596Y-76308079D01*
X209877123Y-76128118D01*
X209809761Y-75995913D01*
X209791213Y-75959510D01*
X209679986Y-75806420D01*
X209546180Y-75672614D01*
X209393090Y-75561387D01*
X209336877Y-75532745D01*
X209224481Y-75475476D01*
X209044518Y-75417003D01*
X208919915Y-75397267D01*
X208857615Y-75387400D01*
X208668385Y-75387400D01*
X208606084Y-75397267D01*
X208481482Y-75417003D01*
X208481479Y-75417003D01*
X208301518Y-75475476D01*
X208132909Y-75561387D01*
X208080061Y-75599784D01*
X207979820Y-75672614D01*
X207979818Y-75672616D01*
X207979817Y-75672616D01*
X207846016Y-75806417D01*
X207846016Y-75806418D01*
X207846014Y-75806420D01*
X207798246Y-75872165D01*
X207734787Y-75959509D01*
X207648876Y-76128118D01*
X207590403Y-76308079D01*
X207590403Y-76308082D01*
X207560800Y-76494985D01*
X184150500Y-76494985D01*
X184150500Y-72994984D01*
X207560800Y-72994984D01*
X207560800Y-73184213D01*
X207590403Y-73371116D01*
X207590403Y-73371119D01*
X207648876Y-73551080D01*
X207648878Y-73551083D01*
X207734787Y-73719689D01*
X207846014Y-73872779D01*
X207979820Y-74006585D01*
X208132910Y-74117812D01*
X208301516Y-74203721D01*
X208301518Y-74203722D01*
X208469379Y-74258263D01*
X208481484Y-74262196D01*
X208668385Y-74291799D01*
X208668386Y-74291799D01*
X208857614Y-74291799D01*
X208857615Y-74291799D01*
X209044516Y-74262196D01*
X209044519Y-74262195D01*
X209044520Y-74262195D01*
X209224481Y-74203722D01*
X209224481Y-74203721D01*
X209224484Y-74203721D01*
X209393090Y-74117812D01*
X209546180Y-74006585D01*
X209679986Y-73872779D01*
X209791213Y-73719689D01*
X209877122Y-73551083D01*
X209935597Y-73371115D01*
X209965200Y-73184214D01*
X209965200Y-72994984D01*
X209935597Y-72808083D01*
X209935596Y-72808079D01*
X209935596Y-72808078D01*
X209877123Y-72628117D01*
X209791212Y-72459508D01*
X209679986Y-72306419D01*
X209546180Y-72172613D01*
X209393090Y-72061386D01*
X209224481Y-71975475D01*
X209044518Y-71917002D01*
X208919915Y-71897266D01*
X208857615Y-71887399D01*
X208668385Y-71887399D01*
X208606084Y-71897266D01*
X208481482Y-71917002D01*
X208481479Y-71917002D01*
X208301518Y-71975475D01*
X208132909Y-72061386D01*
X208045565Y-72124845D01*
X207979820Y-72172613D01*
X207979818Y-72172615D01*
X207979817Y-72172615D01*
X207846016Y-72306416D01*
X207846016Y-72306417D01*
X207846014Y-72306419D01*
X207798246Y-72372164D01*
X207734787Y-72459508D01*
X207648876Y-72628117D01*
X207590403Y-72808078D01*
X207590403Y-72808081D01*
X207560800Y-72994984D01*
X184150500Y-72994984D01*
X184150500Y-69494983D01*
X207560800Y-69494983D01*
X207560800Y-69684212D01*
X207590403Y-69871115D01*
X207590403Y-69871118D01*
X207648876Y-70051079D01*
X207648878Y-70051082D01*
X207734787Y-70219688D01*
X207846014Y-70372778D01*
X207979820Y-70506584D01*
X208132910Y-70617811D01*
X208188631Y-70646202D01*
X208301518Y-70703721D01*
X208454363Y-70753383D01*
X208481484Y-70762195D01*
X208668385Y-70791798D01*
X208668386Y-70791798D01*
X208857614Y-70791798D01*
X208857615Y-70791798D01*
X209044516Y-70762195D01*
X209044519Y-70762194D01*
X209044520Y-70762194D01*
X209224481Y-70703721D01*
X209224481Y-70703720D01*
X209224484Y-70703720D01*
X209393090Y-70617811D01*
X209546180Y-70506584D01*
X209679986Y-70372778D01*
X209791213Y-70219688D01*
X209877122Y-70051082D01*
X209935597Y-69871114D01*
X209965200Y-69684213D01*
X209965200Y-69494983D01*
X209935597Y-69308082D01*
X209935596Y-69308078D01*
X209935596Y-69308077D01*
X209877123Y-69128116D01*
X209791212Y-68959507D01*
X209679986Y-68806418D01*
X209546180Y-68672612D01*
X209393090Y-68561385D01*
X209380384Y-68554911D01*
X209224481Y-68475474D01*
X209044518Y-68417001D01*
X208919915Y-68397265D01*
X208857615Y-68387398D01*
X208668385Y-68387398D01*
X208606084Y-68397265D01*
X208481482Y-68417001D01*
X208481479Y-68417001D01*
X208301518Y-68475474D01*
X208132909Y-68561385D01*
X208045565Y-68624844D01*
X207979820Y-68672612D01*
X207979818Y-68672614D01*
X207979817Y-68672614D01*
X207846016Y-68806415D01*
X207846016Y-68806416D01*
X207846014Y-68806418D01*
X207798246Y-68872163D01*
X207734787Y-68959507D01*
X207648876Y-69128116D01*
X207590403Y-69308077D01*
X207590403Y-69308080D01*
X207560800Y-69494983D01*
X184150500Y-69494983D01*
X184150500Y-69217255D01*
X184170185Y-69150216D01*
X184186819Y-69129574D01*
X185879574Y-67436819D01*
X185940897Y-67403334D01*
X185967255Y-67400500D01*
X192499902Y-67400500D01*
X192566941Y-67420185D01*
X192587583Y-67436819D01*
X192631284Y-67480520D01*
X192631286Y-67480521D01*
X192631290Y-67480524D01*
X192722496Y-67533181D01*
X192768216Y-67559577D01*
X192920943Y-67600500D01*
X192920945Y-67600500D01*
X193079055Y-67600500D01*
X193079057Y-67600500D01*
X193231784Y-67559577D01*
X193368716Y-67480520D01*
X193480520Y-67368716D01*
X193559577Y-67231784D01*
X193600500Y-67079057D01*
X193600500Y-66920943D01*
X193559577Y-66768216D01*
X193546989Y-66746412D01*
X193480524Y-66631290D01*
X193480518Y-66631282D01*
X193368717Y-66519481D01*
X193368709Y-66519475D01*
X193231790Y-66440426D01*
X193231786Y-66440424D01*
X193231784Y-66440423D01*
X193079057Y-66399500D01*
X192920943Y-66399500D01*
X192768216Y-66440423D01*
X192768209Y-66440426D01*
X192631290Y-66519475D01*
X192631282Y-66519481D01*
X192587583Y-66563181D01*
X192526260Y-66596666D01*
X192499902Y-66599500D01*
X186266255Y-66599500D01*
X186199216Y-66579815D01*
X186153461Y-66527011D01*
X186143517Y-66457853D01*
X186172542Y-66394297D01*
X186178574Y-66387819D01*
X186571410Y-65994983D01*
X207560800Y-65994983D01*
X207560800Y-66184212D01*
X207590403Y-66371115D01*
X207590403Y-66371118D01*
X207648876Y-66551079D01*
X207663518Y-66579815D01*
X207734787Y-66719688D01*
X207846014Y-66872778D01*
X207979820Y-67006584D01*
X208132910Y-67117811D01*
X208301516Y-67203720D01*
X208301518Y-67203721D01*
X208469379Y-67258262D01*
X208481484Y-67262195D01*
X208668385Y-67291798D01*
X208668386Y-67291798D01*
X208857614Y-67291798D01*
X208857615Y-67291798D01*
X209044516Y-67262195D01*
X209044519Y-67262194D01*
X209044520Y-67262194D01*
X209224481Y-67203721D01*
X209224481Y-67203720D01*
X209224484Y-67203720D01*
X209393090Y-67117811D01*
X209546180Y-67006584D01*
X209679986Y-66872778D01*
X209791213Y-66719688D01*
X209877122Y-66551082D01*
X209926374Y-66399500D01*
X209935596Y-66371118D01*
X209935596Y-66371117D01*
X209935597Y-66371114D01*
X209965200Y-66184213D01*
X209965200Y-65994983D01*
X209935597Y-65808082D01*
X209935596Y-65808078D01*
X209935596Y-65808077D01*
X209877123Y-65628116D01*
X209802563Y-65481784D01*
X209791213Y-65459508D01*
X209679986Y-65306418D01*
X209546180Y-65172612D01*
X209393090Y-65061385D01*
X209308366Y-65018216D01*
X209224481Y-64975474D01*
X209044518Y-64917001D01*
X208919915Y-64897265D01*
X208857615Y-64887398D01*
X208668385Y-64887398D01*
X208606084Y-64897265D01*
X208481482Y-64917001D01*
X208481479Y-64917001D01*
X208301518Y-64975474D01*
X208132909Y-65061385D01*
X208045565Y-65124844D01*
X207979820Y-65172612D01*
X207979818Y-65172614D01*
X207979817Y-65172614D01*
X207846016Y-65306415D01*
X207846016Y-65306416D01*
X207846014Y-65306418D01*
X207829566Y-65329057D01*
X207734787Y-65459507D01*
X207648876Y-65628116D01*
X207590403Y-65808077D01*
X207590403Y-65808080D01*
X207560800Y-65994983D01*
X186571410Y-65994983D01*
X190071411Y-62494982D01*
X207560800Y-62494982D01*
X207560800Y-62684211D01*
X207590403Y-62871114D01*
X207590403Y-62871117D01*
X207648876Y-63051078D01*
X207648878Y-63051081D01*
X207734787Y-63219687D01*
X207846014Y-63372777D01*
X207979820Y-63506583D01*
X208132910Y-63617810D01*
X208193606Y-63648736D01*
X208301518Y-63703720D01*
X208469379Y-63758261D01*
X208481484Y-63762194D01*
X208668385Y-63791797D01*
X208668386Y-63791797D01*
X208857614Y-63791797D01*
X208857615Y-63791797D01*
X209044516Y-63762194D01*
X209044519Y-63762193D01*
X209044520Y-63762193D01*
X209224481Y-63703720D01*
X209224481Y-63703719D01*
X209224484Y-63703719D01*
X209393090Y-63617810D01*
X209546180Y-63506583D01*
X209679986Y-63372777D01*
X209791213Y-63219687D01*
X209877122Y-63051081D01*
X209877123Y-63051078D01*
X209935596Y-62871117D01*
X209935596Y-62871116D01*
X209935597Y-62871113D01*
X209965200Y-62684212D01*
X209965200Y-62494982D01*
X209935597Y-62308081D01*
X209935596Y-62308077D01*
X209935596Y-62308076D01*
X209877123Y-62128115D01*
X209850706Y-62076269D01*
X209791213Y-61959507D01*
X209679986Y-61806417D01*
X209546180Y-61672611D01*
X209393090Y-61561384D01*
X209224481Y-61475473D01*
X209044518Y-61417000D01*
X208919915Y-61397264D01*
X208857615Y-61387397D01*
X208668385Y-61387397D01*
X208606084Y-61397264D01*
X208481482Y-61417000D01*
X208481479Y-61417000D01*
X208301518Y-61475473D01*
X208132909Y-61561384D01*
X208045565Y-61624843D01*
X207979820Y-61672611D01*
X207979818Y-61672613D01*
X207979817Y-61672613D01*
X207846016Y-61806414D01*
X207846016Y-61806415D01*
X207846014Y-61806417D01*
X207798246Y-61872162D01*
X207734787Y-61959506D01*
X207648876Y-62128115D01*
X207590403Y-62308076D01*
X207590403Y-62308079D01*
X207560800Y-62494982D01*
X190071411Y-62494982D01*
X192379574Y-60186819D01*
X192440897Y-60153334D01*
X192467255Y-60150500D01*
X193749902Y-60150500D01*
X193816941Y-60170185D01*
X193837583Y-60186819D01*
X193881284Y-60230520D01*
X193881286Y-60230521D01*
X193881290Y-60230524D01*
X194018209Y-60309573D01*
X194018216Y-60309577D01*
X194170943Y-60350500D01*
X194170945Y-60350500D01*
X194329055Y-60350500D01*
X194329057Y-60350500D01*
X194481784Y-60309577D01*
X194618716Y-60230520D01*
X194730520Y-60118716D01*
X194809577Y-59981784D01*
X194850500Y-59829057D01*
X194850500Y-59670943D01*
X194809577Y-59518216D01*
X194753891Y-59421764D01*
X194730524Y-59381290D01*
X194730518Y-59381282D01*
X194618717Y-59269481D01*
X194618709Y-59269475D01*
X194481790Y-59190426D01*
X194481786Y-59190424D01*
X194481784Y-59190423D01*
X194329057Y-59149500D01*
X194170943Y-59149500D01*
X194018216Y-59190423D01*
X194018209Y-59190426D01*
X193881290Y-59269475D01*
X193881282Y-59269481D01*
X193837583Y-59313181D01*
X193776260Y-59346666D01*
X193749902Y-59349500D01*
X192197273Y-59349500D01*
X192095410Y-59376793D01*
X192004087Y-59429520D01*
X192004084Y-59429522D01*
X182912181Y-68521426D01*
X182850858Y-68554911D01*
X182781166Y-68549927D01*
X182725233Y-68508055D01*
X182700816Y-68442591D01*
X182700500Y-68433745D01*
X182700500Y-63699930D01*
X182720185Y-63632891D01*
X182726128Y-63624438D01*
X182730512Y-63618723D01*
X182730520Y-63618716D01*
X182809577Y-63481784D01*
X182850500Y-63329057D01*
X182850500Y-63170943D01*
X182809577Y-63018216D01*
X182772217Y-62953506D01*
X182730524Y-62881290D01*
X182730518Y-62881282D01*
X182618717Y-62769481D01*
X182618709Y-62769475D01*
X182481790Y-62690426D01*
X182481786Y-62690424D01*
X182481784Y-62690423D01*
X182329057Y-62649500D01*
X182170943Y-62649500D01*
X182018216Y-62690423D01*
X182018209Y-62690426D01*
X181881290Y-62769475D01*
X181881282Y-62769481D01*
X181769481Y-62881282D01*
X181769475Y-62881290D01*
X181690426Y-63018209D01*
X181690423Y-63018216D01*
X181649500Y-63170943D01*
X181649500Y-63329057D01*
X181661216Y-63372779D01*
X181690423Y-63481783D01*
X181690426Y-63481790D01*
X181769473Y-63618706D01*
X181769477Y-63618712D01*
X181769480Y-63618716D01*
X181769482Y-63618718D01*
X181773872Y-63624438D01*
X181799069Y-63689606D01*
X181799500Y-63699930D01*
X181799500Y-80300069D01*
X181779815Y-80367108D01*
X181773875Y-80375557D01*
X181769475Y-80381290D01*
X181690426Y-80518209D01*
X181690423Y-80518216D01*
X181649500Y-80670943D01*
X181649500Y-80829057D01*
X181661217Y-80872783D01*
X181690423Y-80981783D01*
X181690426Y-80981790D01*
X181769475Y-81118709D01*
X181769479Y-81118714D01*
X181769480Y-81118716D01*
X181881284Y-81230520D01*
X181881286Y-81230521D01*
X181881290Y-81230524D01*
X181987430Y-81291803D01*
X182018216Y-81309577D01*
X182170943Y-81350500D01*
X182170945Y-81350500D01*
X182326500Y-81350500D01*
X182393539Y-81370185D01*
X182439294Y-81422989D01*
X182450500Y-81474500D01*
X182450500Y-87431745D01*
X182430815Y-87498784D01*
X182414181Y-87519426D01*
X177570426Y-92363181D01*
X177509103Y-92396666D01*
X177482745Y-92399500D01*
X177420943Y-92399500D01*
X177268216Y-92440423D01*
X177268209Y-92440426D01*
X177131290Y-92519475D01*
X177131282Y-92519481D01*
X177019481Y-92631282D01*
X177019475Y-92631290D01*
X176940426Y-92768209D01*
X176940423Y-92768216D01*
X176899500Y-92920943D01*
X108558200Y-92920943D01*
X108558200Y-92878643D01*
X108517277Y-92725916D01*
X108517273Y-92725909D01*
X108438224Y-92588990D01*
X108438218Y-92588982D01*
X108326417Y-92477181D01*
X108326409Y-92477175D01*
X108189490Y-92398126D01*
X108189486Y-92398124D01*
X108189484Y-92398123D01*
X108036757Y-92357200D01*
X107878643Y-92357200D01*
X107725909Y-92398125D01*
X107718526Y-92401183D01*
X107649056Y-92408649D01*
X107586579Y-92377371D01*
X107550929Y-92317280D01*
X107553427Y-92247455D01*
X107556519Y-92239164D01*
X107559571Y-92231794D01*
X107559577Y-92231784D01*
X107600500Y-92079057D01*
X107600500Y-91920943D01*
X107559577Y-91768216D01*
X107503417Y-91670943D01*
X107480524Y-91631290D01*
X107480518Y-91631282D01*
X107436917Y-91587681D01*
X107403432Y-91526358D01*
X107408416Y-91456666D01*
X107436917Y-91412319D01*
X107448736Y-91400500D01*
X107480520Y-91368716D01*
X107559577Y-91231784D01*
X107600500Y-91079057D01*
X107600500Y-90920943D01*
X107559577Y-90768216D01*
X107551953Y-90755011D01*
X107480524Y-90631290D01*
X107480518Y-90631282D01*
X107461417Y-90612181D01*
X107450804Y-90592744D01*
X107436304Y-90576011D01*
X107434387Y-90562679D01*
X107427932Y-90550858D01*
X107429511Y-90528771D01*
X107426360Y-90506853D01*
X107431955Y-90494601D01*
X107432916Y-90481166D01*
X107446186Y-90463439D01*
X107455385Y-90443297D01*
X107466716Y-90436014D01*
X107474788Y-90425233D01*
X107495533Y-90417495D01*
X107514163Y-90405523D01*
X107536081Y-90402371D01*
X107540252Y-90400816D01*
X107549098Y-90400500D01*
X107749902Y-90400500D01*
X107816941Y-90420185D01*
X107837583Y-90436819D01*
X107881284Y-90480520D01*
X107881286Y-90480521D01*
X107881290Y-90480524D01*
X107948765Y-90519480D01*
X108018216Y-90559577D01*
X108170943Y-90600500D01*
X108170945Y-90600500D01*
X108329055Y-90600500D01*
X108329057Y-90600500D01*
X108481784Y-90559577D01*
X108618716Y-90480520D01*
X108730520Y-90368716D01*
X108809577Y-90231784D01*
X108850500Y-90079057D01*
X108850500Y-89920943D01*
X108809577Y-89768216D01*
X108795256Y-89743411D01*
X108730524Y-89631290D01*
X108730518Y-89631282D01*
X108618717Y-89519481D01*
X108618709Y-89519475D01*
X108481790Y-89440426D01*
X108481786Y-89440424D01*
X108481784Y-89440423D01*
X108329057Y-89399500D01*
X108170943Y-89399500D01*
X108018216Y-89440423D01*
X108018209Y-89440426D01*
X107881290Y-89519475D01*
X107881282Y-89519481D01*
X107837583Y-89563181D01*
X107776260Y-89596666D01*
X107749902Y-89599500D01*
X105543860Y-89599500D01*
X105476821Y-89579815D01*
X105456179Y-89563181D01*
X100505330Y-84612332D01*
X156399500Y-84612332D01*
X156399500Y-84887667D01*
X156399501Y-84887684D01*
X156435438Y-85160655D01*
X156435439Y-85160660D01*
X156435440Y-85160666D01*
X156471072Y-85293649D01*
X156506704Y-85426630D01*
X156612075Y-85681017D01*
X156612080Y-85681028D01*
X156691809Y-85819121D01*
X156749751Y-85919479D01*
X156749753Y-85919482D01*
X156749754Y-85919483D01*
X156917370Y-86137926D01*
X156917376Y-86137933D01*
X157112066Y-86332623D01*
X157112073Y-86332629D01*
X157227167Y-86420943D01*
X157330521Y-86500249D01*
X157467017Y-86579055D01*
X157568971Y-86637919D01*
X157568976Y-86637921D01*
X157568979Y-86637923D01*
X157823368Y-86743295D01*
X158089334Y-86814560D01*
X158362326Y-86850500D01*
X158362333Y-86850500D01*
X158637667Y-86850500D01*
X158637674Y-86850500D01*
X158910666Y-86814560D01*
X159176632Y-86743295D01*
X159431021Y-86637923D01*
X159669479Y-86500249D01*
X159887928Y-86332628D01*
X160082628Y-86137928D01*
X160250249Y-85919479D01*
X160387923Y-85681021D01*
X160493295Y-85426632D01*
X160564560Y-85160666D01*
X160600500Y-84887674D01*
X160600500Y-84612326D01*
X160564560Y-84339334D01*
X160493295Y-84073368D01*
X160387923Y-83818979D01*
X160387921Y-83818976D01*
X160387919Y-83818971D01*
X160338732Y-83733778D01*
X160250249Y-83580521D01*
X160181099Y-83490403D01*
X160082629Y-83362073D01*
X160082623Y-83362066D01*
X159887933Y-83167376D01*
X159887926Y-83167370D01*
X159669483Y-82999754D01*
X159669482Y-82999753D01*
X159669479Y-82999751D01*
X159574407Y-82944861D01*
X159431028Y-82862080D01*
X159431017Y-82862075D01*
X159176630Y-82756704D01*
X159043649Y-82721072D01*
X158910666Y-82685440D01*
X158910660Y-82685439D01*
X158910655Y-82685438D01*
X158637684Y-82649501D01*
X158637679Y-82649500D01*
X158637674Y-82649500D01*
X158362326Y-82649500D01*
X158362320Y-82649500D01*
X158362315Y-82649501D01*
X158089344Y-82685438D01*
X158089337Y-82685439D01*
X158089334Y-82685440D01*
X158033125Y-82700500D01*
X157823369Y-82756704D01*
X157568982Y-82862075D01*
X157568971Y-82862080D01*
X157330516Y-82999754D01*
X157112073Y-83167370D01*
X157112066Y-83167376D01*
X156917376Y-83362066D01*
X156917370Y-83362073D01*
X156749754Y-83580516D01*
X156612080Y-83818971D01*
X156612075Y-83818982D01*
X156506704Y-84073369D01*
X156435441Y-84339331D01*
X156435438Y-84339344D01*
X156399501Y-84612315D01*
X156399500Y-84612332D01*
X100505330Y-84612332D01*
X100133702Y-84240704D01*
X100100217Y-84179381D01*
X100103451Y-84114708D01*
X100159597Y-83941911D01*
X100189200Y-83755010D01*
X100189200Y-83565780D01*
X100159597Y-83378879D01*
X100159596Y-83378875D01*
X100159596Y-83378874D01*
X100101123Y-83198913D01*
X100015212Y-83030304D01*
X99993014Y-82999751D01*
X99903986Y-82877215D01*
X99770180Y-82743409D01*
X99617090Y-82632182D01*
X99582642Y-82614630D01*
X99448481Y-82546271D01*
X99268518Y-82487798D01*
X99143915Y-82468062D01*
X99081615Y-82458195D01*
X98892385Y-82458195D01*
X98830084Y-82468062D01*
X98705482Y-82487798D01*
X98705479Y-82487798D01*
X98525518Y-82546271D01*
X98365095Y-82628011D01*
X98296425Y-82640907D01*
X98231685Y-82614630D01*
X98191428Y-82557524D01*
X98184800Y-82517526D01*
X98184800Y-80170943D01*
X178899500Y-80170943D01*
X178899500Y-80329057D01*
X178910771Y-80371119D01*
X178940423Y-80481783D01*
X178940426Y-80481790D01*
X179019475Y-80618709D01*
X179019479Y-80618714D01*
X179019480Y-80618716D01*
X179131284Y-80730520D01*
X179131286Y-80730521D01*
X179131290Y-80730524D01*
X179268209Y-80809573D01*
X179268216Y-80809577D01*
X179420943Y-80850500D01*
X179420945Y-80850500D01*
X179579055Y-80850500D01*
X179579057Y-80850500D01*
X179731784Y-80809577D01*
X179868716Y-80730520D01*
X179980520Y-80618716D01*
X180059577Y-80481784D01*
X180100500Y-80329057D01*
X180100500Y-80327141D01*
X180100995Y-80325291D01*
X180101561Y-80320997D01*
X180102126Y-80321071D01*
X180117113Y-80265141D01*
X180144731Y-80217305D01*
X180169797Y-80173889D01*
X180169799Y-80173886D01*
X180200500Y-80059309D01*
X180200500Y-64937430D01*
X180220185Y-64870391D01*
X180226128Y-64861938D01*
X180230512Y-64856223D01*
X180230520Y-64856216D01*
X180309577Y-64719284D01*
X180350500Y-64566557D01*
X180350500Y-64408443D01*
X180309577Y-64255716D01*
X180239862Y-64134965D01*
X180230524Y-64118790D01*
X180230518Y-64118782D01*
X180118717Y-64006981D01*
X180118709Y-64006975D01*
X179981790Y-63927926D01*
X179981786Y-63927924D01*
X179981784Y-63927923D01*
X179829057Y-63887000D01*
X179670943Y-63887000D01*
X179518216Y-63927923D01*
X179518209Y-63927926D01*
X179381290Y-64006975D01*
X179381282Y-64006981D01*
X179269481Y-64118782D01*
X179269475Y-64118790D01*
X179190426Y-64255709D01*
X179190423Y-64255716D01*
X179149500Y-64408443D01*
X179149500Y-64566557D01*
X179189133Y-64714467D01*
X179190423Y-64719283D01*
X179190426Y-64719290D01*
X179269473Y-64856206D01*
X179269477Y-64856212D01*
X179269480Y-64856216D01*
X179269482Y-64856218D01*
X179273872Y-64861938D01*
X179299069Y-64927106D01*
X179299500Y-64937430D01*
X179299500Y-79600769D01*
X179279815Y-79667808D01*
X179237500Y-79708156D01*
X179131287Y-79769477D01*
X179131282Y-79769481D01*
X179019481Y-79881282D01*
X179019475Y-79881290D01*
X178940426Y-80018209D01*
X178940423Y-80018216D01*
X178899500Y-80170943D01*
X98184800Y-80170943D01*
X98184800Y-78386197D01*
X98204485Y-78319158D01*
X98257289Y-78273403D01*
X98326447Y-78263459D01*
X98364884Y-78277346D01*
X98365569Y-78276003D01*
X98538518Y-78364125D01*
X98706379Y-78418666D01*
X98718484Y-78422599D01*
X98905385Y-78452202D01*
X98905386Y-78452202D01*
X99094614Y-78452202D01*
X99094615Y-78452202D01*
X99281516Y-78422599D01*
X99281519Y-78422598D01*
X99281520Y-78422598D01*
X99461481Y-78364125D01*
X99461481Y-78364124D01*
X99461484Y-78364124D01*
X99630090Y-78278215D01*
X99783180Y-78166988D01*
X99916986Y-78033182D01*
X100028213Y-77880092D01*
X100114122Y-77711486D01*
X100144558Y-77617813D01*
X100172596Y-77531522D01*
X100172596Y-77531521D01*
X100172597Y-77531518D01*
X100202200Y-77344617D01*
X100202200Y-77155387D01*
X100172597Y-76968486D01*
X100172596Y-76968482D01*
X100172596Y-76968481D01*
X100114123Y-76788520D01*
X100028212Y-76619911D01*
X99916986Y-76466822D01*
X99783180Y-76333016D01*
X99630090Y-76221789D01*
X99619930Y-76216612D01*
X99461481Y-76135878D01*
X99281518Y-76077405D01*
X99156915Y-76057669D01*
X99094615Y-76047802D01*
X98905385Y-76047802D01*
X98843084Y-76057669D01*
X98718482Y-76077405D01*
X98718479Y-76077405D01*
X98538518Y-76135878D01*
X98388674Y-76212228D01*
X98380071Y-76216612D01*
X98365569Y-76224001D01*
X98364548Y-76221998D01*
X98306055Y-76237776D01*
X98239468Y-76216612D01*
X98194893Y-76162808D01*
X98184800Y-76113806D01*
X98184800Y-74886196D01*
X98204485Y-74819157D01*
X98257289Y-74773402D01*
X98326447Y-74763458D01*
X98364884Y-74777345D01*
X98365569Y-74776002D01*
X98538518Y-74864124D01*
X98706379Y-74918665D01*
X98718484Y-74922598D01*
X98905385Y-74952201D01*
X98905386Y-74952201D01*
X99094614Y-74952201D01*
X99094615Y-74952201D01*
X99281516Y-74922598D01*
X99281519Y-74922597D01*
X99281520Y-74922597D01*
X99461481Y-74864124D01*
X99461481Y-74864123D01*
X99461484Y-74864123D01*
X99630090Y-74778214D01*
X99783180Y-74666987D01*
X99916986Y-74533181D01*
X100028213Y-74380091D01*
X100114122Y-74211485D01*
X100144558Y-74117812D01*
X100172596Y-74031521D01*
X100172596Y-74031520D01*
X100172597Y-74031517D01*
X100202200Y-73844616D01*
X100202200Y-73655386D01*
X100172597Y-73468485D01*
X100172596Y-73468481D01*
X100172596Y-73468480D01*
X100114123Y-73288519D01*
X100028212Y-73119910D01*
X99916986Y-72966821D01*
X99783180Y-72833015D01*
X99630090Y-72721788D01*
X99619930Y-72716611D01*
X99461481Y-72635877D01*
X99281518Y-72577404D01*
X99156915Y-72557668D01*
X99094615Y-72547801D01*
X98905385Y-72547801D01*
X98843084Y-72557668D01*
X98718482Y-72577404D01*
X98718479Y-72577404D01*
X98538518Y-72635877D01*
X98388674Y-72712227D01*
X98380071Y-72716611D01*
X98365569Y-72724000D01*
X98364548Y-72721997D01*
X98306055Y-72737775D01*
X98239468Y-72716611D01*
X98194893Y-72662807D01*
X98184800Y-72613805D01*
X98184800Y-71386195D01*
X98204485Y-71319156D01*
X98257289Y-71273401D01*
X98326447Y-71263457D01*
X98364884Y-71277344D01*
X98365569Y-71276001D01*
X98538518Y-71364123D01*
X98706379Y-71418664D01*
X98718484Y-71422597D01*
X98905385Y-71452200D01*
X98905386Y-71452200D01*
X99094614Y-71452200D01*
X99094615Y-71452200D01*
X99281516Y-71422597D01*
X99281519Y-71422596D01*
X99281520Y-71422596D01*
X99461481Y-71364123D01*
X99461481Y-71364122D01*
X99461484Y-71364122D01*
X99630090Y-71278213D01*
X99783180Y-71166986D01*
X99916986Y-71033180D01*
X100028213Y-70880090D01*
X100114122Y-70711484D01*
X100144558Y-70617811D01*
X100172596Y-70531520D01*
X100172596Y-70531519D01*
X100172597Y-70531516D01*
X100202200Y-70344615D01*
X100202200Y-70155385D01*
X100172597Y-69968484D01*
X100172596Y-69968480D01*
X100172596Y-69968479D01*
X100114123Y-69788518D01*
X100028212Y-69619909D01*
X100002246Y-69584170D01*
X99916986Y-69466820D01*
X99783180Y-69333014D01*
X99630090Y-69221787D01*
X99515407Y-69163353D01*
X99461481Y-69135876D01*
X99281518Y-69077403D01*
X99156915Y-69057667D01*
X99094615Y-69047800D01*
X98905385Y-69047800D01*
X98843084Y-69057667D01*
X98718482Y-69077403D01*
X98718479Y-69077403D01*
X98538518Y-69135876D01*
X98388674Y-69212226D01*
X98380071Y-69216610D01*
X98365569Y-69223999D01*
X98364548Y-69221996D01*
X98306055Y-69237774D01*
X98239468Y-69216610D01*
X98194893Y-69162806D01*
X98184800Y-69113804D01*
X98184800Y-68515741D01*
X122168016Y-68515741D01*
X122168016Y-68791024D01*
X122203946Y-69063948D01*
X122275195Y-69329850D01*
X122380536Y-69584170D01*
X122380543Y-69584185D01*
X122518179Y-69822579D01*
X122616774Y-69951069D01*
X123552168Y-69015674D01*
X123559065Y-69032325D01*
X123646615Y-69163353D01*
X123758046Y-69274784D01*
X123889074Y-69362334D01*
X123905722Y-69369230D01*
X122970328Y-70304623D01*
X123098820Y-70403219D01*
X123337213Y-70540855D01*
X123337228Y-70540862D01*
X123591544Y-70646202D01*
X123857450Y-70717452D01*
X124130374Y-70753383D01*
X124405658Y-70753383D01*
X124678581Y-70717452D01*
X124944487Y-70646202D01*
X125198803Y-70540862D01*
X125198818Y-70540855D01*
X125437210Y-70403219D01*
X125437227Y-70403208D01*
X125565702Y-70304624D01*
X125565702Y-70304622D01*
X124630309Y-69369230D01*
X124646958Y-69362334D01*
X124777986Y-69274784D01*
X124889417Y-69163353D01*
X124976967Y-69032325D01*
X124983863Y-69015676D01*
X125919255Y-69951069D01*
X125919257Y-69951069D01*
X126017841Y-69822594D01*
X126017852Y-69822577D01*
X126155488Y-69584185D01*
X126155495Y-69584170D01*
X126260837Y-69329850D01*
X126332085Y-69063948D01*
X126368016Y-68791024D01*
X126368016Y-68515741D01*
X126332085Y-68242817D01*
X126260835Y-67976911D01*
X126155495Y-67722595D01*
X126155488Y-67722580D01*
X126017852Y-67484187D01*
X125919256Y-67355695D01*
X124983862Y-68291088D01*
X124976967Y-68274441D01*
X124889417Y-68143413D01*
X124777986Y-68031982D01*
X124646958Y-67944432D01*
X124630309Y-67937535D01*
X125565702Y-67002141D01*
X125518940Y-66966259D01*
X125477738Y-66909831D01*
X125473583Y-66840085D01*
X125507796Y-66779164D01*
X125569513Y-66746412D01*
X125594427Y-66743883D01*
X125661113Y-66743883D01*
X125661118Y-66743883D01*
X125749580Y-66733260D01*
X125890358Y-66677744D01*
X126010938Y-66586305D01*
X126102377Y-66465725D01*
X126157893Y-66324947D01*
X126168516Y-66236485D01*
X126168516Y-63450281D01*
X126157893Y-63361819D01*
X126102377Y-63221041D01*
X126102376Y-63221040D01*
X126102376Y-63221039D01*
X126010938Y-63100460D01*
X125890359Y-63009022D01*
X125749577Y-62953505D01*
X125703942Y-62948025D01*
X125661118Y-62942883D01*
X122874914Y-62942883D01*
X122835869Y-62947571D01*
X122786454Y-62953505D01*
X122645672Y-63009022D01*
X122525093Y-63100460D01*
X122433655Y-63221039D01*
X122378138Y-63361821D01*
X122372204Y-63411236D01*
X122367516Y-63450281D01*
X122367516Y-66236485D01*
X122373142Y-66283337D01*
X122378138Y-66324944D01*
X122433655Y-66465726D01*
X122525093Y-66586305D01*
X122645672Y-66677743D01*
X122645673Y-66677743D01*
X122645674Y-66677744D01*
X122786452Y-66733260D01*
X122874914Y-66743883D01*
X122874919Y-66743883D01*
X122941604Y-66743883D01*
X123008643Y-66763568D01*
X123054398Y-66816372D01*
X123064342Y-66885530D01*
X123035317Y-66949086D01*
X123017090Y-66966259D01*
X122970328Y-67002140D01*
X122970328Y-67002141D01*
X123905722Y-67937535D01*
X123889074Y-67944432D01*
X123758046Y-68031982D01*
X123646615Y-68143413D01*
X123559065Y-68274441D01*
X123552168Y-68291089D01*
X122616774Y-67355695D01*
X122616773Y-67355695D01*
X122518182Y-67484182D01*
X122380543Y-67722580D01*
X122380536Y-67722595D01*
X122275196Y-67976911D01*
X122203946Y-68242817D01*
X122168016Y-68515741D01*
X98184800Y-68515741D01*
X98184800Y-67886195D01*
X98204485Y-67819156D01*
X98257289Y-67773401D01*
X98326447Y-67763457D01*
X98364884Y-67777344D01*
X98365569Y-67776001D01*
X98538518Y-67864123D01*
X98706379Y-67918664D01*
X98718484Y-67922597D01*
X98905385Y-67952200D01*
X98905386Y-67952200D01*
X99094614Y-67952200D01*
X99094615Y-67952200D01*
X99281516Y-67922597D01*
X99281519Y-67922596D01*
X99281520Y-67922596D01*
X99461481Y-67864123D01*
X99461481Y-67864122D01*
X99461484Y-67864122D01*
X99630090Y-67778213D01*
X99783180Y-67666986D01*
X99916986Y-67533180D01*
X100028213Y-67380090D01*
X100114122Y-67211484D01*
X100144558Y-67117811D01*
X100172596Y-67031520D01*
X100172596Y-67031519D01*
X100172597Y-67031516D01*
X100202200Y-66844615D01*
X100202200Y-66655385D01*
X100172597Y-66468484D01*
X100172596Y-66468480D01*
X100172596Y-66468479D01*
X100114123Y-66288518D01*
X100028212Y-66119909D01*
X99916986Y-65966820D01*
X99783180Y-65833014D01*
X99630090Y-65721787D01*
X99528058Y-65669799D01*
X99461481Y-65635876D01*
X99281518Y-65577403D01*
X99156915Y-65557667D01*
X99094615Y-65547800D01*
X98905385Y-65547800D01*
X98843084Y-65557667D01*
X98718482Y-65577403D01*
X98718479Y-65577403D01*
X98538518Y-65635876D01*
X98411688Y-65700500D01*
X98380071Y-65716610D01*
X98365569Y-65723999D01*
X98364548Y-65721996D01*
X98306055Y-65737774D01*
X98239468Y-65716610D01*
X98194893Y-65662806D01*
X98184800Y-65613804D01*
X98184800Y-64386194D01*
X98204485Y-64319155D01*
X98257289Y-64273400D01*
X98326447Y-64263456D01*
X98364884Y-64277343D01*
X98365569Y-64276000D01*
X98538518Y-64364122D01*
X98690160Y-64413393D01*
X98718484Y-64422596D01*
X98905385Y-64452199D01*
X98905386Y-64452199D01*
X99094614Y-64452199D01*
X99094615Y-64452199D01*
X99281516Y-64422596D01*
X99281519Y-64422595D01*
X99281520Y-64422595D01*
X99461481Y-64364122D01*
X99461481Y-64364121D01*
X99461484Y-64364121D01*
X99630090Y-64278212D01*
X99783180Y-64166985D01*
X99916986Y-64033179D01*
X100028213Y-63880089D01*
X100114122Y-63711483D01*
X100144558Y-63617810D01*
X100172596Y-63531519D01*
X100172596Y-63531518D01*
X100172597Y-63531515D01*
X100202200Y-63344614D01*
X100202200Y-63155384D01*
X100172597Y-62968483D01*
X100172596Y-62968479D01*
X100172596Y-62968478D01*
X100114123Y-62788517D01*
X100085216Y-62731784D01*
X100028213Y-62619909D01*
X99916986Y-62466819D01*
X99783180Y-62333013D01*
X99630090Y-62221786D01*
X99619930Y-62216609D01*
X99461481Y-62135875D01*
X99281518Y-62077402D01*
X99117173Y-62051372D01*
X99094615Y-62047799D01*
X98905385Y-62047799D01*
X98882827Y-62051372D01*
X98718482Y-62077402D01*
X98718479Y-62077402D01*
X98538518Y-62135875D01*
X98388674Y-62212225D01*
X98380071Y-62216609D01*
X98365569Y-62223998D01*
X98364548Y-62221995D01*
X98306055Y-62237773D01*
X98239468Y-62216609D01*
X98194893Y-62162805D01*
X98184800Y-62113803D01*
X98184800Y-61110147D01*
X98204485Y-61043108D01*
X98257289Y-60997353D01*
X98326447Y-60987409D01*
X98365095Y-60999662D01*
X98461936Y-61049005D01*
X98671764Y-61117182D01*
X98889685Y-61151698D01*
X99110315Y-61151698D01*
X99328233Y-61117182D01*
X99328236Y-61117182D01*
X99538063Y-61049005D01*
X99734651Y-60948838D01*
X99798730Y-60902281D01*
X99798731Y-60902281D01*
X99245728Y-60349279D01*
X99306801Y-60323982D01*
X99412885Y-60253099D01*
X99503101Y-60162883D01*
X99573984Y-60056799D01*
X99599280Y-59995726D01*
X100152283Y-60548729D01*
X100152283Y-60548728D01*
X100198840Y-60484649D01*
X100299007Y-60288061D01*
X100367184Y-60078234D01*
X100367184Y-60078231D01*
X100401700Y-59860313D01*
X100401700Y-59639682D01*
X100367184Y-59421764D01*
X100367184Y-59421761D01*
X100299007Y-59211934D01*
X100198842Y-59015350D01*
X100152283Y-58951266D01*
X100152282Y-58951266D01*
X99599280Y-59504268D01*
X99573984Y-59443197D01*
X99503101Y-59337113D01*
X99412885Y-59246897D01*
X99306801Y-59176014D01*
X99245727Y-59150716D01*
X99798730Y-58597713D01*
X99734647Y-58551155D01*
X99538063Y-58450990D01*
X99328235Y-58382813D01*
X99110315Y-58348298D01*
X98889685Y-58348298D01*
X98671766Y-58382813D01*
X98671763Y-58382813D01*
X98461934Y-58450991D01*
X98461933Y-58450991D01*
X98365094Y-58500333D01*
X98296425Y-58513229D01*
X98231685Y-58486952D01*
X98191428Y-58429845D01*
X98184800Y-58389848D01*
X98184800Y-57961751D01*
X104649500Y-57961751D01*
X104649500Y-58237086D01*
X104649501Y-58237103D01*
X104685438Y-58510074D01*
X104685439Y-58510079D01*
X104685440Y-58510085D01*
X104688145Y-58520179D01*
X104756704Y-58776049D01*
X104862075Y-59030436D01*
X104862080Y-59030447D01*
X104917935Y-59127189D01*
X104999751Y-59268898D01*
X104999753Y-59268901D01*
X104999754Y-59268902D01*
X105167370Y-59487345D01*
X105167376Y-59487352D01*
X105362066Y-59682042D01*
X105362073Y-59682048D01*
X105450629Y-59749999D01*
X105580521Y-59849668D01*
X105733778Y-59938151D01*
X105818971Y-59987338D01*
X105818976Y-59987340D01*
X105818979Y-59987342D01*
X106073368Y-60092714D01*
X106339334Y-60163979D01*
X106612326Y-60199919D01*
X106612333Y-60199919D01*
X106887667Y-60199919D01*
X106887674Y-60199919D01*
X107160666Y-60163979D01*
X107426632Y-60092714D01*
X107681021Y-59987342D01*
X107919479Y-59849668D01*
X108137928Y-59682047D01*
X108332628Y-59487347D01*
X108500249Y-59268898D01*
X108637923Y-59030440D01*
X108743295Y-58776051D01*
X108814560Y-58510085D01*
X108850500Y-58237093D01*
X108850500Y-57961745D01*
X108814560Y-57688753D01*
X108743295Y-57422787D01*
X108637923Y-57168398D01*
X108637921Y-57168395D01*
X108637919Y-57168390D01*
X108568831Y-57048728D01*
X108500249Y-56929940D01*
X108332628Y-56711491D01*
X108332623Y-56711485D01*
X108137933Y-56516795D01*
X108137926Y-56516789D01*
X107919483Y-56349173D01*
X107919482Y-56349172D01*
X107919479Y-56349170D01*
X107824407Y-56294280D01*
X107681028Y-56211499D01*
X107681017Y-56211494D01*
X107426630Y-56106123D01*
X107258491Y-56061071D01*
X107160666Y-56034859D01*
X107160660Y-56034858D01*
X107160655Y-56034857D01*
X106887684Y-55998920D01*
X106887679Y-55998919D01*
X106887674Y-55998919D01*
X106612326Y-55998919D01*
X106612320Y-55998919D01*
X106612315Y-55998920D01*
X106339344Y-56034857D01*
X106339337Y-56034858D01*
X106339334Y-56034859D01*
X106283125Y-56049919D01*
X106073369Y-56106123D01*
X105818982Y-56211494D01*
X105818971Y-56211499D01*
X105580516Y-56349173D01*
X105362073Y-56516789D01*
X105362066Y-56516795D01*
X105167376Y-56711485D01*
X105167370Y-56711492D01*
X104999754Y-56929935D01*
X104862080Y-57168390D01*
X104862075Y-57168401D01*
X104756704Y-57422788D01*
X104685441Y-57688750D01*
X104685438Y-57688763D01*
X104649501Y-57961734D01*
X104649500Y-57961751D01*
X98184800Y-57961751D01*
X98184800Y-57610147D01*
X98204485Y-57543108D01*
X98257289Y-57497353D01*
X98326447Y-57487409D01*
X98365095Y-57499662D01*
X98461936Y-57549005D01*
X98671764Y-57617182D01*
X98889685Y-57651698D01*
X99110315Y-57651698D01*
X99328233Y-57617182D01*
X99328236Y-57617182D01*
X99538063Y-57549005D01*
X99734651Y-57448838D01*
X99798730Y-57402281D01*
X99798731Y-57402281D01*
X99245728Y-56849279D01*
X99306801Y-56823982D01*
X99412885Y-56753099D01*
X99503101Y-56662883D01*
X99573984Y-56556799D01*
X99599280Y-56495726D01*
X100152283Y-57048729D01*
X100152283Y-57048728D01*
X100198840Y-56984649D01*
X100299007Y-56788061D01*
X100367184Y-56578234D01*
X100367184Y-56578231D01*
X100401700Y-56360313D01*
X100401700Y-56139682D01*
X100367184Y-55921764D01*
X100367184Y-55921761D01*
X100299007Y-55711934D01*
X100198842Y-55515350D01*
X100152283Y-55451266D01*
X100152282Y-55451266D01*
X99599280Y-56004268D01*
X99573984Y-55943197D01*
X99503101Y-55837113D01*
X99412885Y-55746897D01*
X99306801Y-55676014D01*
X99245727Y-55650716D01*
X99798730Y-55097713D01*
X99734647Y-55051155D01*
X99538063Y-54950990D01*
X99328235Y-54882813D01*
X99110315Y-54848298D01*
X98889685Y-54848298D01*
X98671766Y-54882813D01*
X98671763Y-54882813D01*
X98461934Y-54950991D01*
X98461933Y-54950991D01*
X98365094Y-55000333D01*
X98296425Y-55013229D01*
X98231685Y-54986952D01*
X98191428Y-54929845D01*
X98184800Y-54889848D01*
X98184800Y-54465791D01*
X98204485Y-54398752D01*
X98221115Y-54378114D01*
X98637684Y-53961544D01*
X98699005Y-53928061D01*
X98744761Y-53926754D01*
X98905385Y-53952195D01*
X98905386Y-53952195D01*
X99094614Y-53952195D01*
X99094615Y-53952195D01*
X99281516Y-53922592D01*
X99281519Y-53922591D01*
X99281520Y-53922591D01*
X99461481Y-53864118D01*
X99461481Y-53864117D01*
X99461484Y-53864117D01*
X99630090Y-53778208D01*
X99783180Y-53666981D01*
X99916986Y-53533175D01*
X100028213Y-53380085D01*
X100114122Y-53211479D01*
X100172597Y-53031511D01*
X100202200Y-52844610D01*
X100202200Y-52655380D01*
X100172597Y-52468479D01*
X100172596Y-52468475D01*
X100172596Y-52468474D01*
X100114123Y-52288513D01*
X100044413Y-52151700D01*
X100028213Y-52119905D01*
X99916986Y-51966815D01*
X99783180Y-51833009D01*
X99630090Y-51721782D01*
X99522541Y-51666983D01*
X99461481Y-51635871D01*
X99281518Y-51577398D01*
X99156915Y-51557662D01*
X99094615Y-51547795D01*
X98905385Y-51547795D01*
X98843084Y-51557662D01*
X98718482Y-51577398D01*
X98718479Y-51577398D01*
X98538518Y-51635871D01*
X98369909Y-51721782D01*
X98292241Y-51778212D01*
X98216820Y-51833009D01*
X98216818Y-51833011D01*
X98216817Y-51833011D01*
X98083016Y-51966812D01*
X98083016Y-51966813D01*
X98083014Y-51966815D01*
X98035246Y-52032560D01*
X97971787Y-52119904D01*
X97885876Y-52288513D01*
X97827403Y-52468474D01*
X97827403Y-52468477D01*
X97797800Y-52655380D01*
X97797800Y-52844609D01*
X97823240Y-53005231D01*
X97814285Y-53074525D01*
X97788448Y-53112310D01*
X97595481Y-53305278D01*
X97534158Y-53338763D01*
X97464467Y-53333779D01*
X97408533Y-53291908D01*
X97384116Y-53226443D01*
X97383800Y-53217597D01*
X97383800Y-51483948D01*
X97403485Y-51416909D01*
X97420114Y-51396271D01*
X98174000Y-50642385D01*
X111137400Y-50642385D01*
X111137400Y-50831614D01*
X111167003Y-51018517D01*
X111167003Y-51018520D01*
X111225476Y-51198481D01*
X111289423Y-51323984D01*
X111311387Y-51367090D01*
X111422614Y-51520180D01*
X111556420Y-51653986D01*
X111709510Y-51765213D01*
X111842567Y-51833009D01*
X111878118Y-51851123D01*
X112013140Y-51894994D01*
X112058084Y-51909597D01*
X112244985Y-51939200D01*
X112244986Y-51939200D01*
X112434214Y-51939200D01*
X112434215Y-51939200D01*
X112621116Y-51909597D01*
X112621119Y-51909596D01*
X112621120Y-51909596D01*
X112801081Y-51851123D01*
X112801081Y-51851122D01*
X112801084Y-51851122D01*
X112969690Y-51765213D01*
X113122780Y-51653986D01*
X113256586Y-51520180D01*
X113367813Y-51367090D01*
X113453722Y-51198484D01*
X113497018Y-51065233D01*
X113512196Y-51018520D01*
X113512196Y-51018519D01*
X113512197Y-51018516D01*
X113541800Y-50831615D01*
X113541800Y-50642385D01*
X113539313Y-50626684D01*
X114437900Y-50626684D01*
X114437900Y-50847315D01*
X114472415Y-51065233D01*
X114472415Y-51065236D01*
X114540592Y-51275063D01*
X114640757Y-51471647D01*
X114687315Y-51535730D01*
X115240318Y-50982727D01*
X115265616Y-51043801D01*
X115336499Y-51149885D01*
X115426715Y-51240101D01*
X115532799Y-51310984D01*
X115593871Y-51336280D01*
X115040868Y-51889282D01*
X115040868Y-51889283D01*
X115104952Y-51935842D01*
X115301536Y-52036007D01*
X115511364Y-52104184D01*
X115729285Y-52138700D01*
X115949915Y-52138700D01*
X116167833Y-52104184D01*
X116167836Y-52104184D01*
X116377663Y-52036007D01*
X116574251Y-51935840D01*
X116638330Y-51889283D01*
X116638331Y-51889283D01*
X116085328Y-51336281D01*
X116146401Y-51310984D01*
X116252485Y-51240101D01*
X116342701Y-51149885D01*
X116413584Y-51043801D01*
X116438880Y-50982728D01*
X116991883Y-51535731D01*
X116991883Y-51535730D01*
X117038440Y-51471651D01*
X117138607Y-51275063D01*
X117206784Y-51065236D01*
X117206784Y-51065233D01*
X117241300Y-50847315D01*
X117241300Y-50642385D01*
X118137401Y-50642385D01*
X118137401Y-50831614D01*
X118167004Y-51018517D01*
X118167004Y-51018520D01*
X118225477Y-51198481D01*
X118289424Y-51323984D01*
X118311388Y-51367090D01*
X118422615Y-51520180D01*
X118556421Y-51653986D01*
X118709511Y-51765213D01*
X118842568Y-51833009D01*
X118878119Y-51851123D01*
X119013141Y-51894994D01*
X119058085Y-51909597D01*
X119244986Y-51939200D01*
X119244987Y-51939200D01*
X119434215Y-51939200D01*
X119434216Y-51939200D01*
X119621117Y-51909597D01*
X119621120Y-51909596D01*
X119621121Y-51909596D01*
X119801082Y-51851123D01*
X119801082Y-51851122D01*
X119801085Y-51851122D01*
X119969691Y-51765213D01*
X120122781Y-51653986D01*
X120256587Y-51520180D01*
X120367814Y-51367090D01*
X120453723Y-51198484D01*
X120497019Y-51065233D01*
X120512197Y-51018520D01*
X120512197Y-51018519D01*
X120512198Y-51018516D01*
X120541801Y-50831615D01*
X120541801Y-50642385D01*
X120512198Y-50455484D01*
X120512197Y-50455480D01*
X120512197Y-50455479D01*
X120453724Y-50275518D01*
X120432518Y-50233899D01*
X120367814Y-50106910D01*
X120256587Y-49953820D01*
X120122781Y-49820014D01*
X119969691Y-49708787D01*
X119883733Y-49664989D01*
X119801082Y-49622876D01*
X119621119Y-49564403D01*
X119494151Y-49544293D01*
X119434216Y-49534800D01*
X119244986Y-49534800D01*
X119185051Y-49544293D01*
X119058083Y-49564403D01*
X119058080Y-49564403D01*
X118878119Y-49622876D01*
X118709510Y-49708787D01*
X118627171Y-49768611D01*
X118556421Y-49820014D01*
X118556419Y-49820016D01*
X118556418Y-49820016D01*
X118422617Y-49953817D01*
X118422617Y-49953818D01*
X118422615Y-49953820D01*
X118413170Y-49966820D01*
X118311388Y-50106909D01*
X118225477Y-50275518D01*
X118167004Y-50455479D01*
X118167004Y-50455482D01*
X118137401Y-50642385D01*
X117241300Y-50642385D01*
X117241300Y-50626684D01*
X117206784Y-50408766D01*
X117206784Y-50408763D01*
X117138607Y-50198936D01*
X117038442Y-50002352D01*
X116991883Y-49938268D01*
X116991882Y-49938268D01*
X116438880Y-50491270D01*
X116413584Y-50430199D01*
X116342701Y-50324115D01*
X116252485Y-50233899D01*
X116146401Y-50163016D01*
X116085326Y-50137718D01*
X116638330Y-49584715D01*
X116574247Y-49538157D01*
X116377663Y-49437992D01*
X116167835Y-49369815D01*
X115949915Y-49335300D01*
X115729285Y-49335300D01*
X115511366Y-49369815D01*
X115511363Y-49369815D01*
X115301536Y-49437992D01*
X115104942Y-49538162D01*
X115040868Y-49584714D01*
X115040868Y-49584715D01*
X115593871Y-50137718D01*
X115532799Y-50163016D01*
X115426715Y-50233899D01*
X115336499Y-50324115D01*
X115265616Y-50430199D01*
X115240318Y-50491271D01*
X114687315Y-49938268D01*
X114687314Y-49938268D01*
X114640762Y-50002342D01*
X114540592Y-50198936D01*
X114472415Y-50408763D01*
X114472415Y-50408766D01*
X114437900Y-50626684D01*
X113539313Y-50626684D01*
X113516359Y-50481761D01*
X113525313Y-50412468D01*
X113551148Y-50374685D01*
X115789016Y-48136819D01*
X115850339Y-48103334D01*
X115876697Y-48100500D01*
X122699902Y-48100500D01*
X122766941Y-48120185D01*
X122787583Y-48136819D01*
X125038447Y-50387683D01*
X125071932Y-50449006D01*
X125073239Y-50494762D01*
X125047799Y-50655385D01*
X125047799Y-50844614D01*
X125077402Y-51031517D01*
X125077402Y-51031520D01*
X125135875Y-51211481D01*
X125211452Y-51359809D01*
X125221786Y-51380090D01*
X125333013Y-51533180D01*
X125466819Y-51666986D01*
X125619909Y-51778213D01*
X125763001Y-51851122D01*
X125788517Y-51864123D01*
X125928470Y-51909596D01*
X125968483Y-51922597D01*
X126155384Y-51952200D01*
X126155385Y-51952200D01*
X126344613Y-51952200D01*
X126344614Y-51952200D01*
X126531515Y-51922597D01*
X126544201Y-51918474D01*
X126614041Y-51916480D01*
X126670199Y-51948725D01*
X128411984Y-53690510D01*
X128537514Y-53762984D01*
X128677524Y-53800500D01*
X128677525Y-53800500D01*
X128822473Y-53800500D01*
X138282688Y-53800500D01*
X138349727Y-53820185D01*
X138370369Y-53836819D01*
X140164181Y-55630631D01*
X140197666Y-55691954D01*
X140200500Y-55718312D01*
X140200500Y-56368451D01*
X140200500Y-56513399D01*
X140217872Y-56578231D01*
X140238016Y-56653410D01*
X140310489Y-56778938D01*
X140310491Y-56778941D01*
X144163181Y-60631631D01*
X144196666Y-60692954D01*
X144199500Y-60719312D01*
X144199500Y-64971637D01*
X144191834Y-65010179D01*
X144192527Y-65010365D01*
X144149500Y-65170943D01*
X144149500Y-65329056D01*
X144190423Y-65481783D01*
X144190426Y-65481790D01*
X144269475Y-65618709D01*
X144269479Y-65618714D01*
X144269480Y-65618716D01*
X144381284Y-65730520D01*
X144381286Y-65730521D01*
X144381290Y-65730524D01*
X144518209Y-65809573D01*
X144518216Y-65809577D01*
X144670943Y-65850500D01*
X144670945Y-65850500D01*
X144829055Y-65850500D01*
X144829057Y-65850500D01*
X144981784Y-65809577D01*
X145118716Y-65730520D01*
X145230520Y-65618716D01*
X145309577Y-65481784D01*
X145350500Y-65329057D01*
X145350500Y-65170943D01*
X175149500Y-65170943D01*
X175149500Y-65178762D01*
X175149500Y-65329056D01*
X175190423Y-65481783D01*
X175190426Y-65481790D01*
X175269475Y-65618709D01*
X175269479Y-65618714D01*
X175269480Y-65618716D01*
X175381284Y-65730520D01*
X175381286Y-65730521D01*
X175381290Y-65730524D01*
X175518209Y-65809573D01*
X175518216Y-65809577D01*
X175670943Y-65850500D01*
X175670945Y-65850500D01*
X175829055Y-65850500D01*
X175829057Y-65850500D01*
X175981784Y-65809577D01*
X176118716Y-65730520D01*
X176230520Y-65618716D01*
X176309577Y-65481784D01*
X176350500Y-65329057D01*
X176350500Y-65170943D01*
X176309577Y-65018216D01*
X176309576Y-65018214D01*
X176307473Y-65010365D01*
X176308165Y-65010179D01*
X176300500Y-64971637D01*
X176300500Y-62948627D01*
X176308943Y-62919873D01*
X176314963Y-62890509D01*
X176318684Y-62886696D01*
X176320185Y-62881588D01*
X176342830Y-62861965D01*
X176363773Y-62840515D01*
X176368964Y-62839320D01*
X176372989Y-62835833D01*
X176402654Y-62831567D01*
X176431863Y-62824846D01*
X176436874Y-62826647D01*
X176442147Y-62825889D01*
X176469414Y-62838341D01*
X176497616Y-62848477D01*
X176502896Y-62853632D01*
X176505703Y-62854914D01*
X176522870Y-62873132D01*
X176523870Y-62874435D01*
X176549069Y-62939602D01*
X176549500Y-62949930D01*
X176549500Y-64684311D01*
X176558871Y-64719281D01*
X176558871Y-64719284D01*
X176558872Y-64719284D01*
X176580201Y-64798888D01*
X176609856Y-64850250D01*
X176639511Y-64901614D01*
X177348386Y-65610489D01*
X177348387Y-65610490D01*
X177348389Y-65610491D01*
X177370506Y-65623259D01*
X177400293Y-65640457D01*
X177451114Y-65669799D01*
X177565691Y-65700500D01*
X177573547Y-65700500D01*
X177590610Y-65706621D01*
X177608533Y-65719690D01*
X177624077Y-65726566D01*
X177624839Y-65725574D01*
X177631281Y-65730517D01*
X177631284Y-65730520D01*
X177631287Y-65730521D01*
X177631290Y-65730524D01*
X177768209Y-65809573D01*
X177768216Y-65809577D01*
X177920943Y-65850500D01*
X177920945Y-65850500D01*
X178079055Y-65850500D01*
X178079057Y-65850500D01*
X178231784Y-65809577D01*
X178368716Y-65730520D01*
X178480520Y-65618716D01*
X178559577Y-65481784D01*
X178600500Y-65329057D01*
X178600500Y-65170943D01*
X178559577Y-65018216D01*
X178492259Y-64901616D01*
X178480524Y-64881290D01*
X178480518Y-64881282D01*
X178368717Y-64769481D01*
X178368709Y-64769475D01*
X178231790Y-64690426D01*
X178231786Y-64690424D01*
X178231784Y-64690423D01*
X178079057Y-64649500D01*
X177920943Y-64649500D01*
X177785559Y-64685776D01*
X177715709Y-64684113D01*
X177665785Y-64653682D01*
X177486819Y-64474716D01*
X177453334Y-64413393D01*
X177450500Y-64387035D01*
X177450500Y-62949930D01*
X177470185Y-62882891D01*
X177476128Y-62874438D01*
X177480512Y-62868723D01*
X177480520Y-62868716D01*
X177559577Y-62731784D01*
X177600500Y-62579057D01*
X177600500Y-62420943D01*
X177559577Y-62268216D01*
X177504150Y-62172212D01*
X177480524Y-62131290D01*
X177480518Y-62131282D01*
X177368717Y-62019481D01*
X177368709Y-62019475D01*
X177231790Y-61940426D01*
X177231786Y-61940424D01*
X177231784Y-61940423D01*
X177079057Y-61899500D01*
X176920943Y-61899500D01*
X176768216Y-61940423D01*
X176768209Y-61940426D01*
X176631290Y-62019475D01*
X176631282Y-62019481D01*
X176513733Y-62137031D01*
X176511714Y-62135012D01*
X176466431Y-62168067D01*
X176396684Y-62172212D01*
X176335769Y-62137991D01*
X176303025Y-62076269D01*
X176300500Y-62051372D01*
X176300500Y-61529386D01*
X176320185Y-61462347D01*
X176336815Y-61441709D01*
X176692429Y-61086094D01*
X176725104Y-61064262D01*
X176724745Y-61063640D01*
X176731780Y-61059577D01*
X176731784Y-61059577D01*
X176868716Y-60980520D01*
X176980520Y-60868716D01*
X177059577Y-60731784D01*
X177100500Y-60579057D01*
X177100500Y-60420943D01*
X177059577Y-60268216D01*
X177037816Y-60230524D01*
X176980524Y-60131290D01*
X176980521Y-60131286D01*
X176980520Y-60131284D01*
X176868716Y-60019480D01*
X176868714Y-60019479D01*
X176868709Y-60019475D01*
X176731790Y-59940426D01*
X176731786Y-59940424D01*
X176731784Y-59940423D01*
X176579057Y-59899500D01*
X176420943Y-59899500D01*
X176268216Y-59940423D01*
X176268209Y-59940426D01*
X176131290Y-60019475D01*
X176131282Y-60019481D01*
X176019481Y-60131282D01*
X176019479Y-60131285D01*
X176001236Y-60162883D01*
X175940423Y-60268216D01*
X175940422Y-60268218D01*
X175936361Y-60275253D01*
X175935740Y-60274894D01*
X175913906Y-60307567D01*
X175309491Y-60911983D01*
X175309489Y-60911986D01*
X175237016Y-61037514D01*
X175224510Y-61084185D01*
X175199500Y-61177525D01*
X175199500Y-61177527D01*
X175199500Y-64971637D01*
X175195465Y-65003012D01*
X175192371Y-65014841D01*
X175190423Y-65018216D01*
X175149500Y-65170943D01*
X145350500Y-65170943D01*
X145309577Y-65018216D01*
X145307628Y-65014841D01*
X145304535Y-65003012D01*
X145304822Y-64993369D01*
X145300500Y-64971637D01*
X145300500Y-60367452D01*
X145300500Y-60367450D01*
X145262984Y-60227440D01*
X145226345Y-60163979D01*
X145190510Y-60101910D01*
X141337819Y-56249219D01*
X141304334Y-56187896D01*
X141301500Y-56161538D01*
X141301500Y-55366452D01*
X141301500Y-55366450D01*
X141263984Y-55226440D01*
X141191510Y-55100910D01*
X138900090Y-52809490D01*
X138774560Y-52737016D01*
X138774561Y-52737016D01*
X138739557Y-52727637D01*
X138634550Y-52699500D01*
X138634547Y-52699500D01*
X129029386Y-52699500D01*
X128962347Y-52679815D01*
X128941705Y-52663181D01*
X127448724Y-51170200D01*
X127415239Y-51108877D01*
X127418474Y-51044201D01*
X127418604Y-51043801D01*
X127422596Y-51031516D01*
X127452199Y-50844615D01*
X127452199Y-50655385D01*
X127449712Y-50639684D01*
X128348299Y-50639684D01*
X128348299Y-50860315D01*
X128382814Y-51078233D01*
X128382814Y-51078236D01*
X128450991Y-51288063D01*
X128551156Y-51484647D01*
X128597714Y-51548730D01*
X129150717Y-50995727D01*
X129176015Y-51056801D01*
X129246898Y-51162885D01*
X129337114Y-51253101D01*
X129443198Y-51323984D01*
X129504270Y-51349280D01*
X128951267Y-51902282D01*
X128951267Y-51902283D01*
X129015351Y-51948842D01*
X129211935Y-52049007D01*
X129421763Y-52117184D01*
X129639684Y-52151700D01*
X129860314Y-52151700D01*
X130078232Y-52117184D01*
X130078235Y-52117184D01*
X130288062Y-52049007D01*
X130484650Y-51948840D01*
X130548729Y-51902283D01*
X130548730Y-51902283D01*
X129995727Y-51349281D01*
X130056800Y-51323984D01*
X130162884Y-51253101D01*
X130253100Y-51162885D01*
X130323983Y-51056801D01*
X130349279Y-50995728D01*
X130902282Y-51548731D01*
X130902282Y-51548730D01*
X130948839Y-51484651D01*
X131049006Y-51288063D01*
X131117183Y-51078236D01*
X131117183Y-51078233D01*
X131151699Y-50860315D01*
X131151699Y-50639684D01*
X131117183Y-50421766D01*
X131117183Y-50421763D01*
X131049006Y-50211936D01*
X130948841Y-50015352D01*
X130902282Y-49951268D01*
X130349279Y-50504270D01*
X130323983Y-50443199D01*
X130253100Y-50337115D01*
X130162884Y-50246899D01*
X130056800Y-50176016D01*
X129995725Y-50150718D01*
X130548729Y-49597715D01*
X130484646Y-49551157D01*
X130288062Y-49450992D01*
X130078234Y-49382815D01*
X129860314Y-49348300D01*
X129639684Y-49348300D01*
X129421765Y-49382815D01*
X129421762Y-49382815D01*
X129211935Y-49450992D01*
X129015341Y-49551162D01*
X128951267Y-49597714D01*
X128951267Y-49597715D01*
X129504270Y-50150718D01*
X129443198Y-50176016D01*
X129337114Y-50246899D01*
X129246898Y-50337115D01*
X129176015Y-50443199D01*
X129150717Y-50504271D01*
X128597714Y-49951268D01*
X128597713Y-49951268D01*
X128551161Y-50015342D01*
X128450991Y-50211936D01*
X128382814Y-50421763D01*
X128382814Y-50421766D01*
X128348299Y-50639684D01*
X127449712Y-50639684D01*
X127422596Y-50468484D01*
X127422595Y-50468482D01*
X127394993Y-50383530D01*
X127366450Y-50295686D01*
X127364456Y-50225847D01*
X127396699Y-50169691D01*
X134129573Y-43436819D01*
X134190896Y-43403334D01*
X134217254Y-43400500D01*
X139499902Y-43400500D01*
X139524904Y-43407841D01*
X139550723Y-43411393D01*
X139560895Y-43418409D01*
X139566941Y-43420185D01*
X139580530Y-43430292D01*
X139584179Y-43433415D01*
X139631284Y-43480520D01*
X139655663Y-43494595D01*
X139664370Y-43502047D01*
X139677436Y-43522108D01*
X139693958Y-43539436D01*
X139696157Y-43550851D01*
X139702503Y-43560593D01*
X139702649Y-43584533D01*
X139707180Y-43608043D01*
X139702858Y-43618836D01*
X139702930Y-43630462D01*
X139690110Y-43650680D01*
X139681212Y-43672908D01*
X139671741Y-43679651D01*
X139665516Y-43689470D01*
X139643797Y-43699549D01*
X139624297Y-43713435D01*
X139615843Y-43716027D01*
X139575044Y-43726959D01*
X139537514Y-43737016D01*
X139411986Y-43809489D01*
X139411983Y-43809491D01*
X133670199Y-49551274D01*
X133608876Y-49584759D01*
X133544200Y-49581524D01*
X133531516Y-49577402D01*
X133365810Y-49551157D01*
X133344615Y-49547800D01*
X133155385Y-49547800D01*
X133134159Y-49551162D01*
X132968482Y-49577403D01*
X132968479Y-49577403D01*
X132788518Y-49635876D01*
X132619909Y-49721787D01*
X132547847Y-49774144D01*
X132466820Y-49833014D01*
X132466818Y-49833016D01*
X132466817Y-49833016D01*
X132333016Y-49966817D01*
X132333016Y-49966818D01*
X132333014Y-49966820D01*
X132297761Y-50015342D01*
X132221787Y-50119909D01*
X132135876Y-50288518D01*
X132077403Y-50468479D01*
X132077403Y-50468482D01*
X132047800Y-50655385D01*
X132047800Y-50844614D01*
X132077403Y-51031517D01*
X132077403Y-51031520D01*
X132135876Y-51211481D01*
X132211453Y-51359809D01*
X132221787Y-51380090D01*
X132333014Y-51533180D01*
X132466820Y-51666986D01*
X132619910Y-51778213D01*
X132763002Y-51851122D01*
X132788518Y-51864123D01*
X132928471Y-51909596D01*
X132968484Y-51922597D01*
X133155385Y-51952200D01*
X133155386Y-51952200D01*
X133344614Y-51952200D01*
X133344615Y-51952200D01*
X133531516Y-51922597D01*
X133531519Y-51922596D01*
X133531520Y-51922596D01*
X133711481Y-51864123D01*
X133711481Y-51864122D01*
X133711484Y-51864122D01*
X133880090Y-51778213D01*
X134033180Y-51666986D01*
X134166986Y-51533180D01*
X134278213Y-51380090D01*
X134364122Y-51211484D01*
X134411642Y-51065233D01*
X134422596Y-51031520D01*
X134422596Y-51031519D01*
X134422597Y-51031516D01*
X134452200Y-50844615D01*
X134452200Y-50655385D01*
X134450141Y-50642385D01*
X174387398Y-50642385D01*
X174387398Y-50831614D01*
X174417001Y-51018517D01*
X174417001Y-51018520D01*
X174475474Y-51198481D01*
X174539421Y-51323984D01*
X174561385Y-51367090D01*
X174672612Y-51520180D01*
X174806418Y-51653986D01*
X174959508Y-51765213D01*
X175092565Y-51833009D01*
X175128116Y-51851123D01*
X175263138Y-51894994D01*
X175308082Y-51909597D01*
X175494983Y-51939200D01*
X175494984Y-51939200D01*
X175684212Y-51939200D01*
X175684213Y-51939200D01*
X175871114Y-51909597D01*
X175871117Y-51909596D01*
X175871118Y-51909596D01*
X176051079Y-51851123D01*
X176051079Y-51851122D01*
X176051082Y-51851122D01*
X176219688Y-51765213D01*
X176372778Y-51653986D01*
X176506584Y-51520180D01*
X176617811Y-51367090D01*
X176703720Y-51198484D01*
X176747016Y-51065233D01*
X176762194Y-51018520D01*
X176762194Y-51018519D01*
X176762195Y-51018516D01*
X176791798Y-50831615D01*
X176791798Y-50642385D01*
X177887399Y-50642385D01*
X177887399Y-50831614D01*
X177917002Y-51018517D01*
X177917002Y-51018520D01*
X177975475Y-51198481D01*
X178039422Y-51323984D01*
X178061386Y-51367090D01*
X178172613Y-51520180D01*
X178306419Y-51653986D01*
X178459509Y-51765213D01*
X178592566Y-51833009D01*
X178628117Y-51851123D01*
X178763139Y-51894994D01*
X178808083Y-51909597D01*
X178994984Y-51939200D01*
X178994985Y-51939200D01*
X179184213Y-51939200D01*
X179184214Y-51939200D01*
X179371115Y-51909597D01*
X179371118Y-51909596D01*
X179371119Y-51909596D01*
X179551080Y-51851123D01*
X179551080Y-51851122D01*
X179551083Y-51851122D01*
X179719689Y-51765213D01*
X179872779Y-51653986D01*
X180006585Y-51520180D01*
X180117812Y-51367090D01*
X180203721Y-51198484D01*
X180247017Y-51065233D01*
X180262195Y-51018520D01*
X180262195Y-51018519D01*
X180262196Y-51018516D01*
X180291799Y-50831615D01*
X180291799Y-50642385D01*
X181387399Y-50642385D01*
X181387399Y-50831614D01*
X181417002Y-51018517D01*
X181417002Y-51018520D01*
X181475475Y-51198481D01*
X181539422Y-51323984D01*
X181561386Y-51367090D01*
X181672613Y-51520180D01*
X181806419Y-51653986D01*
X181959509Y-51765213D01*
X182092566Y-51833009D01*
X182128117Y-51851123D01*
X182263139Y-51894994D01*
X182308083Y-51909597D01*
X182494984Y-51939200D01*
X182494985Y-51939200D01*
X182684213Y-51939200D01*
X182684214Y-51939200D01*
X182871115Y-51909597D01*
X182871118Y-51909596D01*
X182871119Y-51909596D01*
X183051080Y-51851123D01*
X183051080Y-51851122D01*
X183051083Y-51851122D01*
X183219689Y-51765213D01*
X183372779Y-51653986D01*
X183506585Y-51520180D01*
X183617812Y-51367090D01*
X183703721Y-51198484D01*
X183747017Y-51065233D01*
X183762195Y-51018520D01*
X183762195Y-51018519D01*
X183762196Y-51018516D01*
X183791799Y-50831615D01*
X183791799Y-50642385D01*
X184887400Y-50642385D01*
X184887400Y-50831614D01*
X184917003Y-51018517D01*
X184917003Y-51018520D01*
X184975476Y-51198481D01*
X185039423Y-51323984D01*
X185061387Y-51367090D01*
X185172614Y-51520180D01*
X185306420Y-51653986D01*
X185459510Y-51765213D01*
X185592567Y-51833009D01*
X185628118Y-51851123D01*
X185763140Y-51894994D01*
X185808084Y-51909597D01*
X185994985Y-51939200D01*
X185994986Y-51939200D01*
X186184214Y-51939200D01*
X186184215Y-51939200D01*
X186371116Y-51909597D01*
X186371119Y-51909596D01*
X186371120Y-51909596D01*
X186551081Y-51851123D01*
X186551081Y-51851122D01*
X186551084Y-51851122D01*
X186719690Y-51765213D01*
X186872780Y-51653986D01*
X187006586Y-51520180D01*
X187117813Y-51367090D01*
X187203722Y-51198484D01*
X187247018Y-51065233D01*
X187262196Y-51018520D01*
X187262196Y-51018519D01*
X187262197Y-51018516D01*
X187291800Y-50831615D01*
X187291800Y-50642385D01*
X187262197Y-50455484D01*
X187262196Y-50455480D01*
X187262196Y-50455479D01*
X187203723Y-50275518D01*
X187182517Y-50233899D01*
X187117813Y-50106910D01*
X187006586Y-49953820D01*
X186872780Y-49820014D01*
X186719690Y-49708787D01*
X186633732Y-49664989D01*
X186551081Y-49622876D01*
X186371118Y-49564403D01*
X186244150Y-49544293D01*
X186184215Y-49534800D01*
X185994985Y-49534800D01*
X185935050Y-49544293D01*
X185808082Y-49564403D01*
X185808079Y-49564403D01*
X185628118Y-49622876D01*
X185459509Y-49708787D01*
X185377170Y-49768611D01*
X185306420Y-49820014D01*
X185306418Y-49820016D01*
X185306417Y-49820016D01*
X185172616Y-49953817D01*
X185172616Y-49953818D01*
X185172614Y-49953820D01*
X185163169Y-49966820D01*
X185061387Y-50106909D01*
X184975476Y-50275518D01*
X184917003Y-50455479D01*
X184917003Y-50455482D01*
X184887400Y-50642385D01*
X183791799Y-50642385D01*
X183762196Y-50455484D01*
X183762195Y-50455480D01*
X183762195Y-50455479D01*
X183703722Y-50275518D01*
X183682516Y-50233899D01*
X183617812Y-50106910D01*
X183506585Y-49953820D01*
X183372779Y-49820014D01*
X183219689Y-49708787D01*
X183133731Y-49664989D01*
X183051080Y-49622876D01*
X182871117Y-49564403D01*
X182744149Y-49544293D01*
X182684214Y-49534800D01*
X182494984Y-49534800D01*
X182435049Y-49544293D01*
X182308081Y-49564403D01*
X182308078Y-49564403D01*
X182128117Y-49622876D01*
X181959508Y-49708787D01*
X181877169Y-49768611D01*
X181806419Y-49820014D01*
X181806417Y-49820016D01*
X181806416Y-49820016D01*
X181672615Y-49953817D01*
X181672615Y-49953818D01*
X181672613Y-49953820D01*
X181663168Y-49966820D01*
X181561386Y-50106909D01*
X181475475Y-50275518D01*
X181417002Y-50455479D01*
X181417002Y-50455482D01*
X181387399Y-50642385D01*
X180291799Y-50642385D01*
X180262196Y-50455484D01*
X180262195Y-50455480D01*
X180262195Y-50455479D01*
X180203722Y-50275518D01*
X180182516Y-50233899D01*
X180117812Y-50106910D01*
X180006585Y-49953820D01*
X179872779Y-49820014D01*
X179719689Y-49708787D01*
X179633731Y-49664989D01*
X179551080Y-49622876D01*
X179371117Y-49564403D01*
X179244149Y-49544293D01*
X179184214Y-49534800D01*
X178994984Y-49534800D01*
X178935049Y-49544293D01*
X178808081Y-49564403D01*
X178808078Y-49564403D01*
X178628117Y-49622876D01*
X178459508Y-49708787D01*
X178377169Y-49768611D01*
X178306419Y-49820014D01*
X178306417Y-49820016D01*
X178306416Y-49820016D01*
X178172615Y-49953817D01*
X178172615Y-49953818D01*
X178172613Y-49953820D01*
X178163168Y-49966820D01*
X178061386Y-50106909D01*
X177975475Y-50275518D01*
X177917002Y-50455479D01*
X177917002Y-50455482D01*
X177887399Y-50642385D01*
X176791798Y-50642385D01*
X176762195Y-50455484D01*
X176762194Y-50455480D01*
X176762194Y-50455479D01*
X176703721Y-50275518D01*
X176682515Y-50233899D01*
X176617811Y-50106910D01*
X176506584Y-49953820D01*
X176372778Y-49820014D01*
X176219688Y-49708787D01*
X176133730Y-49664989D01*
X176051079Y-49622876D01*
X175871116Y-49564403D01*
X175744148Y-49544293D01*
X175684213Y-49534800D01*
X175494983Y-49534800D01*
X175435048Y-49544293D01*
X175308080Y-49564403D01*
X175308077Y-49564403D01*
X175128116Y-49622876D01*
X174959507Y-49708787D01*
X174877168Y-49768611D01*
X174806418Y-49820014D01*
X174806416Y-49820016D01*
X174806415Y-49820016D01*
X174672614Y-49953817D01*
X174672614Y-49953818D01*
X174672612Y-49953820D01*
X174663167Y-49966820D01*
X174561385Y-50106909D01*
X174475474Y-50275518D01*
X174417001Y-50455479D01*
X174417001Y-50455482D01*
X174387398Y-50642385D01*
X134450141Y-50642385D01*
X134422597Y-50468484D01*
X134415772Y-50447479D01*
X134414263Y-50438856D01*
X134417237Y-50412485D01*
X134416480Y-50385956D01*
X134421147Y-50377827D01*
X134422095Y-50369427D01*
X134435229Y-50353302D01*
X134448723Y-50329800D01*
X139941706Y-44836819D01*
X140003029Y-44803334D01*
X140029387Y-44800500D01*
X215720613Y-44800500D01*
X215787652Y-44820185D01*
X215808294Y-44836819D01*
X216413904Y-45442428D01*
X216435738Y-45475104D01*
X216436359Y-45474746D01*
X216519475Y-45618709D01*
X216519481Y-45618717D01*
X216563181Y-45662417D01*
X216596666Y-45723740D01*
X216599500Y-45750098D01*
X216599500Y-75532745D01*
X216579815Y-75599784D01*
X216563181Y-75620426D01*
X206320426Y-85863181D01*
X206259103Y-85896666D01*
X206232745Y-85899500D01*
X206170943Y-85899500D01*
X206018216Y-85940423D01*
X206018209Y-85940426D01*
X205881290Y-86019475D01*
X205881282Y-86019481D01*
X205769481Y-86131282D01*
X205769475Y-86131290D01*
X205690426Y-86268209D01*
X205690423Y-86268216D01*
X205649500Y-86420943D01*
X205649500Y-86579057D01*
X205665274Y-86637924D01*
X205690423Y-86731783D01*
X205690426Y-86731790D01*
X205769475Y-86868709D01*
X205769479Y-86868714D01*
X205769480Y-86868716D01*
X205881284Y-86980520D01*
X205881286Y-86980521D01*
X205881290Y-86980524D01*
X206018209Y-87059573D01*
X206018216Y-87059577D01*
X206170943Y-87100500D01*
X206170945Y-87100500D01*
X206329055Y-87100500D01*
X206329057Y-87100500D01*
X206388464Y-87084582D01*
X207560800Y-87084582D01*
X207560800Y-87273811D01*
X207590403Y-87460714D01*
X207590403Y-87460717D01*
X207648876Y-87640678D01*
X207648878Y-87640681D01*
X207734787Y-87809287D01*
X207846014Y-87962377D01*
X207979820Y-88096183D01*
X208132910Y-88207410D01*
X208252235Y-88268209D01*
X208301518Y-88293320D01*
X208423617Y-88332992D01*
X208481484Y-88351794D01*
X208668385Y-88381397D01*
X208668386Y-88381397D01*
X208857614Y-88381397D01*
X208857615Y-88381397D01*
X209044516Y-88351794D01*
X209044519Y-88351793D01*
X209044520Y-88351793D01*
X209224481Y-88293320D01*
X209224481Y-88293319D01*
X209224484Y-88293319D01*
X209393090Y-88207410D01*
X209546180Y-88096183D01*
X209679986Y-87962377D01*
X209791213Y-87809287D01*
X209877122Y-87640681D01*
X209935597Y-87460713D01*
X209965200Y-87273812D01*
X209965200Y-87084582D01*
X209935597Y-86897681D01*
X209935596Y-86897677D01*
X209935596Y-86897676D01*
X209877123Y-86717715D01*
X209806473Y-86579057D01*
X209791213Y-86549107D01*
X209679986Y-86396017D01*
X209546180Y-86262211D01*
X209393090Y-86150984D01*
X209356191Y-86132183D01*
X209224481Y-86065073D01*
X209044518Y-86006600D01*
X208919915Y-85986864D01*
X208857615Y-85976997D01*
X208668385Y-85976997D01*
X208606084Y-85986864D01*
X208481482Y-86006600D01*
X208481479Y-86006600D01*
X208301518Y-86065073D01*
X208132909Y-86150984D01*
X208045565Y-86214443D01*
X207979820Y-86262211D01*
X207979818Y-86262213D01*
X207979817Y-86262213D01*
X207846016Y-86396014D01*
X207846016Y-86396015D01*
X207846014Y-86396017D01*
X207806636Y-86450216D01*
X207734787Y-86549106D01*
X207648876Y-86717715D01*
X207590403Y-86897676D01*
X207590403Y-86897679D01*
X207560800Y-87084582D01*
X206388464Y-87084582D01*
X206481784Y-87059577D01*
X206618716Y-86980520D01*
X206730520Y-86868716D01*
X206809577Y-86731784D01*
X206850500Y-86579057D01*
X206850500Y-86517255D01*
X206870185Y-86450216D01*
X206886819Y-86429574D01*
X212085875Y-81230518D01*
X217320480Y-75995913D01*
X217373207Y-75904588D01*
X217400500Y-75802727D01*
X217400500Y-75697273D01*
X217400500Y-45750098D01*
X217420185Y-45683059D01*
X217436819Y-45662417D01*
X217443858Y-45655378D01*
X217480520Y-45618716D01*
X217559577Y-45481784D01*
X217600500Y-45329057D01*
X217600500Y-45170943D01*
X217559577Y-45018216D01*
X217529898Y-44966810D01*
X217480524Y-44881290D01*
X217480518Y-44881282D01*
X217368717Y-44769481D01*
X217368709Y-44769475D01*
X217224746Y-44686359D01*
X217225104Y-44685738D01*
X217192428Y-44663904D01*
X216338016Y-43809491D01*
X216338015Y-43809490D01*
X216212485Y-43737016D01*
X216212486Y-43737016D01*
X216177482Y-43727637D01*
X216072475Y-43699500D01*
X140448628Y-43699500D01*
X140381589Y-43679815D01*
X140335834Y-43627011D01*
X140325890Y-43557853D01*
X140354915Y-43494297D01*
X140363195Y-43486493D01*
X140362969Y-43486267D01*
X140418944Y-43430292D01*
X140480520Y-43368716D01*
X140559577Y-43231784D01*
X140600500Y-43079057D01*
X140600500Y-42920943D01*
X140559577Y-42768216D01*
X140508369Y-42679520D01*
X140480524Y-42631290D01*
X140480518Y-42631282D01*
X140368717Y-42519481D01*
X140368709Y-42519475D01*
X140231790Y-42440426D01*
X140231786Y-42440424D01*
X140231784Y-42440423D01*
X140079057Y-42399500D01*
X139920943Y-42399500D01*
X139768216Y-42440423D01*
X139768209Y-42440426D01*
X139631290Y-42519475D01*
X139631282Y-42519481D01*
X139587583Y-42563181D01*
X139526260Y-42596666D01*
X139499902Y-42599500D01*
X133947272Y-42599500D01*
X133845409Y-42626793D01*
X133754086Y-42679520D01*
X133754083Y-42679522D01*
X126830307Y-49603297D01*
X126768984Y-49636782D01*
X126704309Y-49633547D01*
X126638318Y-49612105D01*
X126531515Y-49577402D01*
X126365809Y-49551157D01*
X126344614Y-49547800D01*
X126155384Y-49547800D01*
X126134189Y-49551157D01*
X125994761Y-49573240D01*
X125925467Y-49564285D01*
X125887682Y-49538448D01*
X123487589Y-47138355D01*
X123487587Y-47138352D01*
X123368716Y-47019481D01*
X123368715Y-47019480D01*
X123281903Y-46969360D01*
X123281903Y-46969359D01*
X123281899Y-46969358D01*
X123231784Y-46940423D01*
X123079056Y-46899499D01*
X122920942Y-46899499D01*
X122913346Y-46899499D01*
X122913330Y-46899500D01*
X115655657Y-46899500D01*
X115497542Y-46899500D01*
X115344815Y-46940423D01*
X115344814Y-46940423D01*
X115344812Y-46940424D01*
X115344809Y-46940425D01*
X115294696Y-46969359D01*
X115294695Y-46969360D01*
X115251289Y-46994420D01*
X115207885Y-47019479D01*
X115207882Y-47019481D01*
X115096078Y-47131286D01*
X112701915Y-49525448D01*
X112640592Y-49558933D01*
X112594836Y-49560240D01*
X112455441Y-49538162D01*
X112434215Y-49534800D01*
X112244985Y-49534800D01*
X112185050Y-49544293D01*
X112058082Y-49564403D01*
X112058079Y-49564403D01*
X111878118Y-49622876D01*
X111709509Y-49708787D01*
X111627170Y-49768611D01*
X111556420Y-49820014D01*
X111556418Y-49820016D01*
X111556417Y-49820016D01*
X111422616Y-49953817D01*
X111422616Y-49953818D01*
X111422614Y-49953820D01*
X111413169Y-49966820D01*
X111311387Y-50106909D01*
X111225476Y-50275518D01*
X111167003Y-50455479D01*
X111167003Y-50455482D01*
X111137400Y-50642385D01*
X98174000Y-50642385D01*
X98419691Y-50396694D01*
X98481012Y-50363211D01*
X98545686Y-50366445D01*
X98653382Y-50401438D01*
X98718483Y-50422591D01*
X98808825Y-50436900D01*
X98905385Y-50452194D01*
X98905386Y-50452194D01*
X99094614Y-50452194D01*
X99094615Y-50452194D01*
X99281516Y-50422591D01*
X99281519Y-50422590D01*
X99281520Y-50422590D01*
X99461481Y-50364117D01*
X99461481Y-50364116D01*
X99461484Y-50364116D01*
X99630090Y-50278207D01*
X99783180Y-50166980D01*
X99916986Y-50033174D01*
X100028213Y-49880084D01*
X100114122Y-49711478D01*
X100142910Y-49622878D01*
X100172596Y-49531514D01*
X100172596Y-49531513D01*
X100172597Y-49531510D01*
X100202200Y-49344609D01*
X100202200Y-49155379D01*
X100172597Y-48968478D01*
X100172596Y-48968474D01*
X100172596Y-48968473D01*
X100114123Y-48788512D01*
X100028212Y-48619903D01*
X99916986Y-48466814D01*
X99783180Y-48333008D01*
X99630090Y-48221781D01*
X99461481Y-48135870D01*
X99281518Y-48077397D01*
X99156915Y-48057661D01*
X99094615Y-48047794D01*
X98905385Y-48047794D01*
X98843084Y-48057661D01*
X98718482Y-48077397D01*
X98718479Y-48077397D01*
X98538518Y-48135870D01*
X98369909Y-48221781D01*
X98282565Y-48285240D01*
X98216820Y-48333008D01*
X98216818Y-48333010D01*
X98216817Y-48333010D01*
X98083016Y-48466811D01*
X98083016Y-48466812D01*
X98083014Y-48466814D01*
X98035246Y-48532559D01*
X97971787Y-48619903D01*
X97885876Y-48788512D01*
X97827403Y-48968473D01*
X97827403Y-48968476D01*
X97797800Y-49155379D01*
X97797800Y-49344608D01*
X97827402Y-49531510D01*
X97857090Y-49622878D01*
X97883547Y-49704304D01*
X97885542Y-49774144D01*
X97853297Y-49830302D01*
X97194481Y-50489119D01*
X97133158Y-50522604D01*
X97063467Y-50517620D01*
X97007533Y-50475749D01*
X96983116Y-50410284D01*
X96982800Y-50401438D01*
X96982800Y-48384947D01*
X97002485Y-48317908D01*
X97019114Y-48297271D01*
X98419691Y-46896693D01*
X98481012Y-46863210D01*
X98545686Y-46866444D01*
X98647417Y-46899499D01*
X98718483Y-46922590D01*
X98811934Y-46937391D01*
X98905385Y-46952193D01*
X98905386Y-46952193D01*
X99094614Y-46952193D01*
X99094615Y-46952193D01*
X99281516Y-46922590D01*
X99281519Y-46922589D01*
X99281520Y-46922589D01*
X99461481Y-46864116D01*
X99461481Y-46864115D01*
X99461484Y-46864115D01*
X99630090Y-46778206D01*
X99783180Y-46666979D01*
X99916986Y-46533173D01*
X100028213Y-46380083D01*
X100114122Y-46211477D01*
X100172597Y-46031509D01*
X100202200Y-45844608D01*
X100202200Y-45655378D01*
X100172597Y-45468477D01*
X100172596Y-45468473D01*
X100172596Y-45468472D01*
X100114123Y-45288511D01*
X100028212Y-45119902D01*
X99916986Y-44966813D01*
X99783180Y-44833007D01*
X99630090Y-44721780D01*
X99461481Y-44635869D01*
X99281518Y-44577396D01*
X99156915Y-44557660D01*
X99094615Y-44547793D01*
X98905385Y-44547793D01*
X98843084Y-44557660D01*
X98718482Y-44577396D01*
X98718479Y-44577396D01*
X98538518Y-44635869D01*
X98369909Y-44721780D01*
X98282565Y-44785239D01*
X98216820Y-44833007D01*
X98216818Y-44833009D01*
X98216817Y-44833009D01*
X98083016Y-44966810D01*
X98083016Y-44966811D01*
X98083014Y-44966813D01*
X98045667Y-45018216D01*
X97971787Y-45119902D01*
X97885876Y-45288511D01*
X97827403Y-45468472D01*
X97827403Y-45468475D01*
X97797800Y-45655378D01*
X97797800Y-45844607D01*
X97827402Y-46031509D01*
X97862105Y-46138312D01*
X97883547Y-46204303D01*
X97885542Y-46274143D01*
X97853297Y-46330301D01*
X96261822Y-47921777D01*
X96261818Y-47921783D01*
X96209092Y-48013105D01*
X96209093Y-48013106D01*
X96181800Y-48114966D01*
X90250500Y-48114966D01*
X90250500Y-42124500D01*
X90270185Y-42057461D01*
X90322989Y-42011706D01*
X90374500Y-42000500D01*
X217875500Y-42000500D01*
X217942539Y-42020185D01*
G37*
%TD.AperFunction*%
%TD*%
M02*
