%TF.GenerationSoftware,KiCad,Pcbnew,9.0.5*%
%TF.CreationDate,2026-03-13T11:36:52+01:00*%
%TF.ProjectId,Driver interface card,44726976-6572-4206-996e-746572666163,rev?*%
%TF.SameCoordinates,Original*%
%TF.FileFunction,Legend,Bot*%
%TF.FilePolarity,Positive*%
%FSLAX46Y46*%
G04 Gerber Fmt 4.6, Leading zero omitted, Abs format (unit mm)*
G04 Created by KiCad (PCBNEW 9.0.5) date 2026-03-13 11:36:52*
%MOMM*%
%LPD*%
G01*
G04 APERTURE LIST*
%ADD10C,0.150000*%
%ADD11C,0.508000*%
%ADD12C,0.000000*%
G04 APERTURE END LIST*
D10*
X177972744Y-115247438D02*
X178925125Y-115247438D01*
X178925125Y-115247438D02*
X178925125Y-113247438D01*
X176448934Y-113914104D02*
X176448934Y-115247438D01*
X176925125Y-113152200D02*
X177401315Y-114580771D01*
X177401315Y-114580771D02*
X176163220Y-114580771D01*
X175401315Y-115247438D02*
X175401315Y-113247438D01*
X175401315Y-114009342D02*
X175210839Y-113914104D01*
X175210839Y-113914104D02*
X174829886Y-113914104D01*
X174829886Y-113914104D02*
X174639410Y-114009342D01*
X174639410Y-114009342D02*
X174544172Y-114104580D01*
X174544172Y-114104580D02*
X174448934Y-114295057D01*
X174448934Y-114295057D02*
X174448934Y-114866485D01*
X174448934Y-114866485D02*
X174544172Y-115056961D01*
X174544172Y-115056961D02*
X174639410Y-115152200D01*
X174639410Y-115152200D02*
X174829886Y-115247438D01*
X174829886Y-115247438D02*
X175210839Y-115247438D01*
X175210839Y-115247438D02*
X175401315Y-115152200D01*
X172067981Y-115247438D02*
X172067981Y-113247438D01*
X172067981Y-113247438D02*
X171591791Y-113247438D01*
X171591791Y-113247438D02*
X171306076Y-113342676D01*
X171306076Y-113342676D02*
X171115600Y-113533152D01*
X171115600Y-113533152D02*
X171020362Y-113723628D01*
X171020362Y-113723628D02*
X170925124Y-114104580D01*
X170925124Y-114104580D02*
X170925124Y-114390295D01*
X170925124Y-114390295D02*
X171020362Y-114771247D01*
X171020362Y-114771247D02*
X171115600Y-114961723D01*
X171115600Y-114961723D02*
X171306076Y-115152200D01*
X171306076Y-115152200D02*
X171591791Y-115247438D01*
X171591791Y-115247438D02*
X172067981Y-115247438D01*
X170067981Y-115247438D02*
X170067981Y-113914104D01*
X170067981Y-114295057D02*
X169972743Y-114104580D01*
X169972743Y-114104580D02*
X169877505Y-114009342D01*
X169877505Y-114009342D02*
X169687029Y-113914104D01*
X169687029Y-113914104D02*
X169496552Y-113914104D01*
X168829886Y-115247438D02*
X168829886Y-113914104D01*
X168829886Y-113247438D02*
X168925124Y-113342676D01*
X168925124Y-113342676D02*
X168829886Y-113437914D01*
X168829886Y-113437914D02*
X168734648Y-113342676D01*
X168734648Y-113342676D02*
X168829886Y-113247438D01*
X168829886Y-113247438D02*
X168829886Y-113437914D01*
X168067981Y-113914104D02*
X167591791Y-115247438D01*
X167591791Y-115247438D02*
X167115600Y-113914104D01*
X165591790Y-115152200D02*
X165782266Y-115247438D01*
X165782266Y-115247438D02*
X166163219Y-115247438D01*
X166163219Y-115247438D02*
X166353695Y-115152200D01*
X166353695Y-115152200D02*
X166448933Y-114961723D01*
X166448933Y-114961723D02*
X166448933Y-114199819D01*
X166448933Y-114199819D02*
X166353695Y-114009342D01*
X166353695Y-114009342D02*
X166163219Y-113914104D01*
X166163219Y-113914104D02*
X165782266Y-113914104D01*
X165782266Y-113914104D02*
X165591790Y-114009342D01*
X165591790Y-114009342D02*
X165496552Y-114199819D01*
X165496552Y-114199819D02*
X165496552Y-114390295D01*
X165496552Y-114390295D02*
X166448933Y-114580771D01*
X164639409Y-115247438D02*
X164639409Y-113914104D01*
X164639409Y-114295057D02*
X164544171Y-114104580D01*
X164544171Y-114104580D02*
X164448933Y-114009342D01*
X164448933Y-114009342D02*
X164258457Y-113914104D01*
X164258457Y-113914104D02*
X164067980Y-113914104D01*
X161877504Y-115247438D02*
X161877504Y-113914104D01*
X161877504Y-113247438D02*
X161972742Y-113342676D01*
X161972742Y-113342676D02*
X161877504Y-113437914D01*
X161877504Y-113437914D02*
X161782266Y-113342676D01*
X161782266Y-113342676D02*
X161877504Y-113247438D01*
X161877504Y-113247438D02*
X161877504Y-113437914D01*
X160925123Y-113914104D02*
X160925123Y-115247438D01*
X160925123Y-114104580D02*
X160829885Y-114009342D01*
X160829885Y-114009342D02*
X160639409Y-113914104D01*
X160639409Y-113914104D02*
X160353694Y-113914104D01*
X160353694Y-113914104D02*
X160163218Y-114009342D01*
X160163218Y-114009342D02*
X160067980Y-114199819D01*
X160067980Y-114199819D02*
X160067980Y-115247438D01*
X159401313Y-113914104D02*
X158639409Y-113914104D01*
X159115599Y-113247438D02*
X159115599Y-114961723D01*
X159115599Y-114961723D02*
X159020361Y-115152200D01*
X159020361Y-115152200D02*
X158829885Y-115247438D01*
X158829885Y-115247438D02*
X158639409Y-115247438D01*
X157210837Y-115152200D02*
X157401313Y-115247438D01*
X157401313Y-115247438D02*
X157782266Y-115247438D01*
X157782266Y-115247438D02*
X157972742Y-115152200D01*
X157972742Y-115152200D02*
X158067980Y-114961723D01*
X158067980Y-114961723D02*
X158067980Y-114199819D01*
X158067980Y-114199819D02*
X157972742Y-114009342D01*
X157972742Y-114009342D02*
X157782266Y-113914104D01*
X157782266Y-113914104D02*
X157401313Y-113914104D01*
X157401313Y-113914104D02*
X157210837Y-114009342D01*
X157210837Y-114009342D02*
X157115599Y-114199819D01*
X157115599Y-114199819D02*
X157115599Y-114390295D01*
X157115599Y-114390295D02*
X158067980Y-114580771D01*
X156258456Y-115247438D02*
X156258456Y-113914104D01*
X156258456Y-114295057D02*
X156163218Y-114104580D01*
X156163218Y-114104580D02*
X156067980Y-114009342D01*
X156067980Y-114009342D02*
X155877504Y-113914104D01*
X155877504Y-113914104D02*
X155687027Y-113914104D01*
X155306075Y-113914104D02*
X154544171Y-113914104D01*
X155020361Y-115247438D02*
X155020361Y-113533152D01*
X155020361Y-113533152D02*
X154925123Y-113342676D01*
X154925123Y-113342676D02*
X154734647Y-113247438D01*
X154734647Y-113247438D02*
X154544171Y-113247438D01*
X153020361Y-115247438D02*
X153020361Y-114199819D01*
X153020361Y-114199819D02*
X153115599Y-114009342D01*
X153115599Y-114009342D02*
X153306075Y-113914104D01*
X153306075Y-113914104D02*
X153687028Y-113914104D01*
X153687028Y-113914104D02*
X153877504Y-114009342D01*
X153020361Y-115152200D02*
X153210837Y-115247438D01*
X153210837Y-115247438D02*
X153687028Y-115247438D01*
X153687028Y-115247438D02*
X153877504Y-115152200D01*
X153877504Y-115152200D02*
X153972742Y-114961723D01*
X153972742Y-114961723D02*
X153972742Y-114771247D01*
X153972742Y-114771247D02*
X153877504Y-114580771D01*
X153877504Y-114580771D02*
X153687028Y-114485533D01*
X153687028Y-114485533D02*
X153210837Y-114485533D01*
X153210837Y-114485533D02*
X153020361Y-114390295D01*
X151210837Y-115152200D02*
X151401313Y-115247438D01*
X151401313Y-115247438D02*
X151782266Y-115247438D01*
X151782266Y-115247438D02*
X151972742Y-115152200D01*
X151972742Y-115152200D02*
X152067980Y-115056961D01*
X152067980Y-115056961D02*
X152163218Y-114866485D01*
X152163218Y-114866485D02*
X152163218Y-114295057D01*
X152163218Y-114295057D02*
X152067980Y-114104580D01*
X152067980Y-114104580D02*
X151972742Y-114009342D01*
X151972742Y-114009342D02*
X151782266Y-113914104D01*
X151782266Y-113914104D02*
X151401313Y-113914104D01*
X151401313Y-113914104D02*
X151210837Y-114009342D01*
X149591789Y-115152200D02*
X149782265Y-115247438D01*
X149782265Y-115247438D02*
X150163218Y-115247438D01*
X150163218Y-115247438D02*
X150353694Y-115152200D01*
X150353694Y-115152200D02*
X150448932Y-114961723D01*
X150448932Y-114961723D02*
X150448932Y-114199819D01*
X150448932Y-114199819D02*
X150353694Y-114009342D01*
X150353694Y-114009342D02*
X150163218Y-113914104D01*
X150163218Y-113914104D02*
X149782265Y-113914104D01*
X149782265Y-113914104D02*
X149591789Y-114009342D01*
X149591789Y-114009342D02*
X149496551Y-114199819D01*
X149496551Y-114199819D02*
X149496551Y-114390295D01*
X149496551Y-114390295D02*
X150448932Y-114580771D01*
X147115598Y-115247438D02*
X147115598Y-113247438D01*
X147115598Y-114009342D02*
X146925122Y-113914104D01*
X146925122Y-113914104D02*
X146544169Y-113914104D01*
X146544169Y-113914104D02*
X146353693Y-114009342D01*
X146353693Y-114009342D02*
X146258455Y-114104580D01*
X146258455Y-114104580D02*
X146163217Y-114295057D01*
X146163217Y-114295057D02*
X146163217Y-114866485D01*
X146163217Y-114866485D02*
X146258455Y-115056961D01*
X146258455Y-115056961D02*
X146353693Y-115152200D01*
X146353693Y-115152200D02*
X146544169Y-115247438D01*
X146544169Y-115247438D02*
X146925122Y-115247438D01*
X146925122Y-115247438D02*
X147115598Y-115152200D01*
X145020360Y-115247438D02*
X145210836Y-115152200D01*
X145210836Y-115152200D02*
X145306074Y-115056961D01*
X145306074Y-115056961D02*
X145401312Y-114866485D01*
X145401312Y-114866485D02*
X145401312Y-114295057D01*
X145401312Y-114295057D02*
X145306074Y-114104580D01*
X145306074Y-114104580D02*
X145210836Y-114009342D01*
X145210836Y-114009342D02*
X145020360Y-113914104D01*
X145020360Y-113914104D02*
X144734645Y-113914104D01*
X144734645Y-113914104D02*
X144544169Y-114009342D01*
X144544169Y-114009342D02*
X144448931Y-114104580D01*
X144448931Y-114104580D02*
X144353693Y-114295057D01*
X144353693Y-114295057D02*
X144353693Y-114866485D01*
X144353693Y-114866485D02*
X144448931Y-115056961D01*
X144448931Y-115056961D02*
X144544169Y-115152200D01*
X144544169Y-115152200D02*
X144734645Y-115247438D01*
X144734645Y-115247438D02*
X145020360Y-115247438D01*
X142639407Y-115247438D02*
X142639407Y-114199819D01*
X142639407Y-114199819D02*
X142734645Y-114009342D01*
X142734645Y-114009342D02*
X142925121Y-113914104D01*
X142925121Y-113914104D02*
X143306074Y-113914104D01*
X143306074Y-113914104D02*
X143496550Y-114009342D01*
X142639407Y-115152200D02*
X142829883Y-115247438D01*
X142829883Y-115247438D02*
X143306074Y-115247438D01*
X143306074Y-115247438D02*
X143496550Y-115152200D01*
X143496550Y-115152200D02*
X143591788Y-114961723D01*
X143591788Y-114961723D02*
X143591788Y-114771247D01*
X143591788Y-114771247D02*
X143496550Y-114580771D01*
X143496550Y-114580771D02*
X143306074Y-114485533D01*
X143306074Y-114485533D02*
X142829883Y-114485533D01*
X142829883Y-114485533D02*
X142639407Y-114390295D01*
X141687026Y-115247438D02*
X141687026Y-113914104D01*
X141687026Y-114295057D02*
X141591788Y-114104580D01*
X141591788Y-114104580D02*
X141496550Y-114009342D01*
X141496550Y-114009342D02*
X141306074Y-113914104D01*
X141306074Y-113914104D02*
X141115597Y-113914104D01*
X139591788Y-115247438D02*
X139591788Y-113247438D01*
X139591788Y-115152200D02*
X139782264Y-115247438D01*
X139782264Y-115247438D02*
X140163217Y-115247438D01*
X140163217Y-115247438D02*
X140353693Y-115152200D01*
X140353693Y-115152200D02*
X140448931Y-115056961D01*
X140448931Y-115056961D02*
X140544169Y-114866485D01*
X140544169Y-114866485D02*
X140544169Y-114295057D01*
X140544169Y-114295057D02*
X140448931Y-114104580D01*
X140448931Y-114104580D02*
X140353693Y-114009342D01*
X140353693Y-114009342D02*
X140163217Y-113914104D01*
X140163217Y-113914104D02*
X139782264Y-113914104D01*
X139782264Y-113914104D02*
X139591788Y-114009342D01*
X135972740Y-115247438D02*
X136639407Y-114295057D01*
X137115597Y-115247438D02*
X137115597Y-113247438D01*
X137115597Y-113247438D02*
X136353692Y-113247438D01*
X136353692Y-113247438D02*
X136163216Y-113342676D01*
X136163216Y-113342676D02*
X136067978Y-113437914D01*
X136067978Y-113437914D02*
X135972740Y-113628390D01*
X135972740Y-113628390D02*
X135972740Y-113914104D01*
X135972740Y-113914104D02*
X136067978Y-114104580D01*
X136067978Y-114104580D02*
X136163216Y-114199819D01*
X136163216Y-114199819D02*
X136353692Y-114295057D01*
X136353692Y-114295057D02*
X137115597Y-114295057D01*
X135115597Y-114199819D02*
X134448930Y-114199819D01*
X134163216Y-115247438D02*
X135115597Y-115247438D01*
X135115597Y-115247438D02*
X135115597Y-113247438D01*
X135115597Y-113247438D02*
X134163216Y-113247438D01*
X133591787Y-113247438D02*
X132925121Y-115247438D01*
X132925121Y-115247438D02*
X132258454Y-113247438D01*
X131591787Y-115056961D02*
X131496549Y-115152200D01*
X131496549Y-115152200D02*
X131591787Y-115247438D01*
X131591787Y-115247438D02*
X131687025Y-115152200D01*
X131687025Y-115152200D02*
X131591787Y-115056961D01*
X131591787Y-115056961D02*
X131591787Y-115247438D01*
X128067977Y-115247438D02*
X129210834Y-115247438D01*
X128639406Y-115247438D02*
X128639406Y-113247438D01*
X128639406Y-113247438D02*
X128829882Y-113533152D01*
X128829882Y-113533152D02*
X129020358Y-113723628D01*
X129020358Y-113723628D02*
X129210834Y-113818866D01*
D11*
%TO.C,J8*%
X99368000Y-80195300D02*
G75*
G02*
X98606000Y-80195300I-381000J0D01*
G01*
X98606000Y-80195300D02*
G75*
G02*
X99368000Y-80195300I381000J0D01*
G01*
%TO.C,J6*%
X209144000Y-83557000D02*
G75*
G02*
X208382000Y-83557000I-381000J0D01*
G01*
X208382000Y-83557000D02*
G75*
G02*
X209144000Y-83557000I381000J0D01*
G01*
%TO.C,J3*%
X137103299Y-50750000D02*
G75*
G02*
X136341299Y-50750000I-381000J0D01*
G01*
X136341299Y-50750000D02*
G75*
G02*
X137103299Y-50750000I381000J0D01*
G01*
%TO.C,J9*%
X99381000Y-42284898D02*
G75*
G02*
X98619000Y-42284898I-381000J0D01*
G01*
X98619000Y-42284898D02*
G75*
G02*
X99381000Y-42284898I381000J0D01*
G01*
%TO.C,J2*%
X123192900Y-50737000D02*
G75*
G02*
X122430900Y-50737000I-381000J0D01*
G01*
X122430900Y-50737000D02*
G75*
G02*
X123192900Y-50737000I381000J0D01*
G01*
%TO.C,J1*%
X209144000Y-108146600D02*
G75*
G02*
X208382000Y-108146600I-381000J0D01*
G01*
X208382000Y-108146600D02*
G75*
G02*
X209144000Y-108146600I381000J0D01*
G01*
%TO.C,J7*%
X189932800Y-50737000D02*
G75*
G02*
X189170800Y-50737000I-381000J0D01*
G01*
X189170800Y-50737000D02*
G75*
G02*
X189932800Y-50737000I381000J0D01*
G01*
D12*
%TO.C,*%
G36*
X148906166Y-105894352D02*
G01*
X148906166Y-106407616D01*
X148563990Y-106407616D01*
X148221814Y-106407616D01*
X148221814Y-108601053D01*
X148221739Y-108802850D01*
X148221296Y-109129466D01*
X148220481Y-109438554D01*
X148219324Y-109726211D01*
X148217857Y-109988536D01*
X148216110Y-110221629D01*
X148214114Y-110421586D01*
X148211901Y-110584507D01*
X148209502Y-110706491D01*
X148206946Y-110783635D01*
X148204266Y-110812038D01*
X148196020Y-110814495D01*
X148143517Y-110819328D01*
X148049795Y-110823478D01*
X147922610Y-110826721D01*
X147769719Y-110828832D01*
X147598877Y-110829585D01*
X147011036Y-110829585D01*
X147011036Y-108105337D01*
X147011036Y-105381088D01*
X147958601Y-105381088D01*
X148906166Y-105381088D01*
X148906166Y-105894352D01*
G37*
G36*
X151084869Y-106440518D02*
G01*
X151077668Y-109579326D01*
X151004783Y-109785364D01*
X151002006Y-109793141D01*
X150953612Y-109913594D01*
X150897309Y-110033394D01*
X150844718Y-110127688D01*
X150791325Y-110204142D01*
X150620954Y-110386360D01*
X150410381Y-110539530D01*
X150163597Y-110661523D01*
X149884592Y-110750213D01*
X149577358Y-110803470D01*
X149482342Y-110811770D01*
X149349429Y-110818708D01*
X149235181Y-110819974D01*
X149077254Y-110816425D01*
X149077254Y-110276839D01*
X149077254Y-109737254D01*
X149274663Y-109722660D01*
X149446970Y-109696652D01*
X149599727Y-109637976D01*
X149722574Y-109543345D01*
X149823402Y-109408238D01*
X149893213Y-109289793D01*
X149900230Y-106295751D01*
X149907248Y-103301710D01*
X150499659Y-103301710D01*
X151092069Y-103301710D01*
X151084869Y-106440518D01*
G37*
G36*
X147936463Y-103495956D02*
G01*
X148092930Y-103568000D01*
X148229983Y-103679768D01*
X148339256Y-103830225D01*
X148361002Y-103871538D01*
X148396258Y-103956707D01*
X148412983Y-104043469D01*
X148417216Y-104157150D01*
X148416644Y-104206920D01*
X148408135Y-104307287D01*
X148384765Y-104390446D01*
X148340599Y-104481521D01*
X148258887Y-104602238D01*
X148124325Y-104729321D01*
X147967052Y-104814057D01*
X147867295Y-104841888D01*
X147687395Y-104852299D01*
X147510846Y-104815633D01*
X147347559Y-104734533D01*
X147207443Y-104611637D01*
X147146074Y-104529756D01*
X147076666Y-104403102D01*
X147028847Y-104273808D01*
X147011036Y-104161185D01*
X147013357Y-104128451D01*
X147039276Y-104021538D01*
X147087307Y-103900323D01*
X147149126Y-103783854D01*
X147216410Y-103691179D01*
X147283795Y-103625749D01*
X147434248Y-103528533D01*
X147598755Y-103475187D01*
X147768949Y-103464673D01*
X147936463Y-103495956D01*
G37*
G36*
X166689357Y-104104420D02*
G01*
X166703677Y-104129477D01*
X166715481Y-104169580D01*
X166721641Y-104226719D01*
X166721967Y-104306757D01*
X166716266Y-104415554D01*
X166704350Y-104558971D01*
X166686027Y-104742869D01*
X166661106Y-104973109D01*
X166638479Y-105181360D01*
X166579438Y-105776473D01*
X166533800Y-106332676D01*
X166501546Y-106858965D01*
X166482655Y-107364336D01*
X166477107Y-107857787D01*
X166484883Y-108348312D01*
X166505961Y-108844908D01*
X166540322Y-109356572D01*
X166587946Y-109892300D01*
X166648812Y-110461088D01*
X166654116Y-110507997D01*
X166677763Y-110738512D01*
X166694743Y-110943499D01*
X166704814Y-111117653D01*
X166707739Y-111255670D01*
X166703278Y-111352245D01*
X166691193Y-111402072D01*
X166673308Y-111422105D01*
X166624437Y-111429992D01*
X166563481Y-111390588D01*
X166492169Y-111306148D01*
X166412228Y-111178925D01*
X166325387Y-111011171D01*
X166233374Y-110805140D01*
X166207310Y-110741761D01*
X166039318Y-110264309D01*
X165904869Y-109748080D01*
X165804309Y-109194939D01*
X165737988Y-108606746D01*
X165706254Y-107985364D01*
X165703831Y-107841958D01*
X165711826Y-107270600D01*
X165749878Y-106731121D01*
X165819245Y-106213541D01*
X165921185Y-105707876D01*
X166056957Y-105204145D01*
X166127167Y-104989095D01*
X166205993Y-104778167D01*
X166288761Y-104582592D01*
X166372041Y-104409492D01*
X166452403Y-104265986D01*
X166526417Y-104159198D01*
X166590652Y-104096246D01*
X166626634Y-104074426D01*
X166658898Y-104071680D01*
X166689357Y-104104420D01*
G37*
G36*
X167746132Y-105423588D02*
G01*
X167749044Y-105427788D01*
X167758378Y-105449223D01*
X167765559Y-105483178D01*
X167770531Y-105533657D01*
X167773238Y-105604665D01*
X167773626Y-105700208D01*
X167771638Y-105824292D01*
X167767220Y-105980921D01*
X167760315Y-106174102D01*
X167750869Y-106407839D01*
X167738826Y-106686138D01*
X167724130Y-107013005D01*
X167722732Y-107044015D01*
X167716041Y-107204597D01*
X167711020Y-107354754D01*
X167707754Y-107500787D01*
X167706330Y-107648994D01*
X167706836Y-107805679D01*
X167709356Y-107977141D01*
X167713978Y-108169680D01*
X167720789Y-108389598D01*
X167729875Y-108643196D01*
X167741321Y-108936774D01*
X167755216Y-109276632D01*
X167758472Y-109356711D01*
X167766147Y-109568160D01*
X167770407Y-109734252D01*
X167771236Y-109860388D01*
X167768619Y-109951974D01*
X167762541Y-110014413D01*
X167752985Y-110053109D01*
X167721814Y-110132072D01*
X167660407Y-110060982D01*
X167656267Y-110056044D01*
X167601952Y-109967772D01*
X167544421Y-109835782D01*
X167486013Y-109668046D01*
X167429063Y-109472535D01*
X167375912Y-109257223D01*
X167328895Y-109030082D01*
X167290352Y-108799083D01*
X167283836Y-108751273D01*
X167262935Y-108547839D01*
X167246852Y-108309992D01*
X167235921Y-108051902D01*
X167230474Y-107787738D01*
X167230846Y-107531668D01*
X167237370Y-107297862D01*
X167250379Y-107100488D01*
X167281277Y-106822517D01*
X167326309Y-106520144D01*
X167380349Y-106238782D01*
X167441845Y-105984754D01*
X167509245Y-105764384D01*
X167580997Y-105583994D01*
X167655548Y-105449909D01*
X167661488Y-105441367D01*
X167695644Y-105397996D01*
X167718646Y-105393584D01*
X167746132Y-105423588D01*
G37*
G36*
X165478597Y-103224825D02*
G01*
X165496126Y-103296905D01*
X165500437Y-103417444D01*
X165491500Y-103586936D01*
X165469288Y-103805872D01*
X165433773Y-104074743D01*
X165384927Y-104394041D01*
X165384900Y-104394205D01*
X165304503Y-104917013D01*
X165238671Y-105400715D01*
X165186550Y-105856533D01*
X165147283Y-106295692D01*
X165120015Y-106729413D01*
X165103890Y-107168922D01*
X165098054Y-107625440D01*
X165101650Y-108110191D01*
X165102107Y-108138202D01*
X165110486Y-108517560D01*
X165123014Y-108862498D01*
X165140760Y-109185269D01*
X165164799Y-109498124D01*
X165196200Y-109813312D01*
X165236035Y-110143085D01*
X165285377Y-110499693D01*
X165345297Y-110895388D01*
X165376769Y-111097198D01*
X165416750Y-111356284D01*
X165449160Y-111571226D01*
X165474525Y-111746694D01*
X165493369Y-111887357D01*
X165506218Y-111997885D01*
X165513595Y-112082948D01*
X165516027Y-112147216D01*
X165514037Y-112195357D01*
X165508151Y-112232042D01*
X165498894Y-112261940D01*
X165472456Y-112295074D01*
X165417663Y-112301421D01*
X165347562Y-112269516D01*
X165271040Y-112201710D01*
X165183409Y-112090574D01*
X165071358Y-111912533D01*
X164956579Y-111693817D01*
X164842061Y-111440654D01*
X164730791Y-111159274D01*
X164625755Y-110855907D01*
X164556822Y-110632135D01*
X164393809Y-109989540D01*
X164274168Y-109325755D01*
X164197875Y-108647112D01*
X164164906Y-107959942D01*
X164175237Y-107270575D01*
X164228845Y-106585344D01*
X164325707Y-105910579D01*
X164465798Y-105252611D01*
X164649094Y-104617772D01*
X164665733Y-104568002D01*
X164754501Y-104322045D01*
X164849206Y-104088584D01*
X164947164Y-103872347D01*
X165045693Y-103678057D01*
X165142113Y-103510442D01*
X165233740Y-103374226D01*
X165317892Y-103274136D01*
X165391888Y-103214897D01*
X165453045Y-103201234D01*
X165478597Y-103224825D01*
G37*
G36*
X159635748Y-104457745D02*
G01*
X159660836Y-104529408D01*
X159662129Y-104540706D01*
X159662438Y-104607524D01*
X159657627Y-104718149D01*
X159648139Y-104866166D01*
X159634414Y-105045157D01*
X159616896Y-105248705D01*
X159596025Y-105470392D01*
X159584763Y-105585910D01*
X159553715Y-105912684D01*
X159528160Y-106198287D01*
X159507602Y-106451120D01*
X159491543Y-106679585D01*
X159479489Y-106892083D01*
X159470943Y-107097017D01*
X159465409Y-107302788D01*
X159462390Y-107517798D01*
X159461392Y-107750449D01*
X159461556Y-107871350D01*
X159463780Y-108119530D01*
X159468998Y-108355153D01*
X159477749Y-108587472D01*
X159490568Y-108825738D01*
X159507994Y-109079205D01*
X159530562Y-109357123D01*
X159558810Y-109668744D01*
X159593274Y-110023321D01*
X159601923Y-110110386D01*
X159625114Y-110347406D01*
X159643072Y-110539207D01*
X159656057Y-110691176D01*
X159664335Y-110808700D01*
X159668167Y-110897167D01*
X159667817Y-110961964D01*
X159663549Y-111008478D01*
X159655624Y-111042096D01*
X159644307Y-111068207D01*
X159629007Y-111093285D01*
X159597895Y-111115254D01*
X159558478Y-111096890D01*
X159501013Y-111036005D01*
X159471008Y-110997466D01*
X159385128Y-110859370D01*
X159296214Y-110679930D01*
X159207209Y-110467075D01*
X159121053Y-110228735D01*
X159040687Y-109972841D01*
X158969054Y-109707323D01*
X158909093Y-109440110D01*
X158879910Y-109287697D01*
X158784814Y-108627612D01*
X158741808Y-107971586D01*
X158750904Y-107316797D01*
X158812118Y-106660421D01*
X158925461Y-105999637D01*
X158951916Y-105880205D01*
X159008901Y-105655544D01*
X159072827Y-105438149D01*
X159141725Y-105231953D01*
X159213627Y-105040892D01*
X159286565Y-104868901D01*
X159358571Y-104719913D01*
X159427678Y-104597864D01*
X159491917Y-104506688D01*
X159549320Y-104450320D01*
X159597920Y-104432694D01*
X159635748Y-104457745D01*
G37*
G36*
X162716224Y-102765420D02*
G01*
X162724359Y-102772172D01*
X162747656Y-102824145D01*
X162759745Y-102919360D01*
X162760559Y-103059169D01*
X162750029Y-103244922D01*
X162728089Y-103477969D01*
X162694669Y-103759660D01*
X162649703Y-104091347D01*
X162623170Y-104279572D01*
X162565996Y-104699603D01*
X162517690Y-105080428D01*
X162477580Y-105430887D01*
X162444995Y-105759818D01*
X162419264Y-106076061D01*
X162399717Y-106388455D01*
X162385682Y-106705839D01*
X162376487Y-107037052D01*
X162371463Y-107390933D01*
X162369937Y-107776321D01*
X162370665Y-108029711D01*
X162375440Y-108427225D01*
X162385295Y-108800487D01*
X162400957Y-109158964D01*
X162423151Y-109512128D01*
X162452602Y-109869448D01*
X162490037Y-110240394D01*
X162536179Y-110634434D01*
X162591755Y-111061041D01*
X162657491Y-111529682D01*
X162675338Y-111654675D01*
X162712346Y-111925056D01*
X162740250Y-112148760D01*
X162759346Y-112329404D01*
X162769934Y-112470607D01*
X162772313Y-112575983D01*
X162766782Y-112649151D01*
X162753638Y-112693726D01*
X162737969Y-112718050D01*
X162689284Y-112748428D01*
X162628462Y-112730349D01*
X162554328Y-112663212D01*
X162465709Y-112546416D01*
X162341800Y-112344312D01*
X162200768Y-112067136D01*
X162064305Y-111749673D01*
X161934660Y-111398546D01*
X161814086Y-111020380D01*
X161704832Y-110621800D01*
X161609148Y-110209431D01*
X161529285Y-109789896D01*
X161488765Y-109531829D01*
X161411708Y-108865041D01*
X161371621Y-108188973D01*
X161367931Y-107509975D01*
X161400061Y-106834395D01*
X161467439Y-106168582D01*
X161569487Y-105518885D01*
X161705633Y-104891654D01*
X161875301Y-104293237D01*
X162077916Y-103729983D01*
X162153655Y-103550670D01*
X162249553Y-103346157D01*
X162345065Y-103165183D01*
X162437316Y-103012091D01*
X162523432Y-102891224D01*
X162600539Y-102806928D01*
X162665761Y-102763545D01*
X162716224Y-102765420D01*
G37*
G36*
X161189515Y-103212322D02*
G01*
X161227847Y-103268808D01*
X161233210Y-103285106D01*
X161240966Y-103327343D01*
X161244702Y-103386599D01*
X161244116Y-103467277D01*
X161238903Y-103573782D01*
X161228761Y-103710515D01*
X161213386Y-103881882D01*
X161192474Y-104092284D01*
X161165722Y-104346126D01*
X161132827Y-104647810D01*
X161096432Y-104985357D01*
X161057535Y-105370880D01*
X161025559Y-105723254D01*
X160999770Y-106052974D01*
X160979435Y-106370533D01*
X160963824Y-106686424D01*
X160952202Y-107011143D01*
X160943838Y-107355181D01*
X160942643Y-107420355D01*
X160938999Y-107832285D01*
X160942716Y-108236523D01*
X160954266Y-108641532D01*
X160974123Y-109055775D01*
X161002759Y-109487716D01*
X161040647Y-109945817D01*
X161088261Y-110438541D01*
X161146072Y-110974352D01*
X161156703Y-111069265D01*
X161187019Y-111347554D01*
X161210657Y-111579263D01*
X161227895Y-111768677D01*
X161239013Y-111920076D01*
X161244288Y-112037745D01*
X161244000Y-112125965D01*
X161238426Y-112189020D01*
X161227847Y-112231191D01*
X161226540Y-112234463D01*
X161185960Y-112292451D01*
X161132547Y-112300222D01*
X161066985Y-112258407D01*
X160989958Y-112167635D01*
X160902152Y-112028535D01*
X160804251Y-111841737D01*
X160746161Y-111717664D01*
X160597443Y-111349524D01*
X160461668Y-110937271D01*
X160340190Y-110486267D01*
X160234363Y-110001875D01*
X160145541Y-109489456D01*
X160075078Y-108954374D01*
X160056683Y-108745137D01*
X160042804Y-108493900D01*
X160033563Y-108213379D01*
X160028960Y-107915185D01*
X160028991Y-107610932D01*
X160033657Y-107312230D01*
X160042954Y-107030690D01*
X160056881Y-106777924D01*
X160075436Y-106565544D01*
X160088653Y-106450325D01*
X160178537Y-105818251D01*
X160294043Y-105223160D01*
X160300490Y-105194391D01*
X160367038Y-104920751D01*
X160440683Y-104654849D01*
X160519706Y-104400280D01*
X160602390Y-104160639D01*
X160687016Y-103939522D01*
X160771868Y-103740522D01*
X160855227Y-103567236D01*
X160935375Y-103423258D01*
X161010596Y-103312182D01*
X161079172Y-103237604D01*
X161139384Y-103203119D01*
X161189515Y-103212322D01*
G37*
G36*
X164185197Y-102867692D02*
G01*
X164215076Y-102923058D01*
X164220861Y-102956341D01*
X164223804Y-103021743D01*
X164219950Y-103111909D01*
X164208783Y-103231329D01*
X164189785Y-103384493D01*
X164162440Y-103575891D01*
X164126232Y-103810012D01*
X164080644Y-104091347D01*
X164077606Y-104109814D01*
X164006464Y-104554577D01*
X163946228Y-104958982D01*
X163895758Y-105333497D01*
X163853910Y-105688587D01*
X163819546Y-106034717D01*
X163791522Y-106382355D01*
X163768699Y-106741966D01*
X163749934Y-107124017D01*
X163743235Y-107298556D01*
X163734198Y-107731797D01*
X163736664Y-108163968D01*
X163751151Y-108601485D01*
X163778179Y-109050765D01*
X163818265Y-109518225D01*
X163871929Y-110010280D01*
X163939688Y-110533348D01*
X164022062Y-111093844D01*
X164119569Y-111698186D01*
X164129618Y-111758456D01*
X164164989Y-111977196D01*
X164190966Y-112152576D01*
X164208141Y-112291275D01*
X164217107Y-112399972D01*
X164218456Y-112485347D01*
X164212779Y-112554080D01*
X164200670Y-112612850D01*
X164190553Y-112645938D01*
X164157010Y-112706704D01*
X164112014Y-112721239D01*
X164051040Y-112689517D01*
X163969559Y-112611511D01*
X163912156Y-112544918D01*
X163771147Y-112345105D01*
X163632943Y-112099297D01*
X163499079Y-111812228D01*
X163371091Y-111488631D01*
X163250514Y-111133238D01*
X163138883Y-110750783D01*
X163037734Y-110345997D01*
X162948602Y-109923614D01*
X162873022Y-109488367D01*
X162812531Y-109044988D01*
X162811319Y-109034522D01*
X162793869Y-108841054D01*
X162780319Y-108607786D01*
X162770671Y-108344974D01*
X162764924Y-108062873D01*
X162763080Y-107771738D01*
X162765138Y-107481824D01*
X162771099Y-107203386D01*
X162780964Y-106946681D01*
X162794734Y-106721962D01*
X162812408Y-106539485D01*
X162902441Y-105927556D01*
X163021577Y-105323548D01*
X163165707Y-104757239D01*
X163333985Y-104231934D01*
X163525567Y-103750937D01*
X163619020Y-103551790D01*
X163718772Y-103362513D01*
X163816850Y-103198211D01*
X163910483Y-103062209D01*
X163996903Y-102957832D01*
X164073342Y-102888403D01*
X164137029Y-102857249D01*
X164185197Y-102867692D01*
G37*
G36*
X156656242Y-107383009D02*
G01*
X156695357Y-107648694D01*
X156715792Y-107949813D01*
X156718288Y-108217650D01*
X156690165Y-108606030D01*
X156622164Y-108962958D01*
X156513226Y-109291375D01*
X156362296Y-109594220D01*
X156168317Y-109874433D01*
X155930230Y-110134954D01*
X155799365Y-110253862D01*
X155521937Y-110459224D01*
X155225191Y-110617657D01*
X154903894Y-110731703D01*
X154552809Y-110803904D01*
X154539391Y-110805689D01*
X154400911Y-110815636D01*
X154227499Y-110817020D01*
X154034231Y-110810579D01*
X153836185Y-110797049D01*
X153648437Y-110777171D01*
X153486062Y-110751681D01*
X153264680Y-110702326D01*
X152985515Y-110616719D01*
X152709586Y-110502340D01*
X152647099Y-110471006D01*
X152538392Y-110408016D01*
X152431438Y-110337478D01*
X152337437Y-110267420D01*
X152267593Y-110205871D01*
X152233107Y-110160858D01*
X152232878Y-110159971D01*
X152243347Y-110124856D01*
X152276668Y-110052689D01*
X152328948Y-109951056D01*
X152396296Y-109827543D01*
X152474819Y-109689736D01*
X152729343Y-109251999D01*
X152864231Y-109370928D01*
X152933492Y-109427895D01*
X153157316Y-109569375D01*
X153408620Y-109675238D01*
X153677888Y-109744195D01*
X153955605Y-109774961D01*
X154232253Y-109766247D01*
X154498317Y-109716767D01*
X154744280Y-109625234D01*
X154910627Y-109521265D01*
X155070257Y-109379063D01*
X155209628Y-109212602D01*
X155315204Y-109035855D01*
X155379634Y-108878916D01*
X155434958Y-108699247D01*
X155472108Y-108524788D01*
X155486020Y-108375129D01*
X155486477Y-108276425D01*
X153684486Y-108276425D01*
X151882495Y-108276425D01*
X151855696Y-108176898D01*
X151808550Y-107941755D01*
X151785807Y-107647945D01*
X151795745Y-107355181D01*
X152957252Y-107355181D01*
X154208704Y-107355181D01*
X154211701Y-107355181D01*
X154462571Y-107354993D01*
X154696573Y-107354462D01*
X154908596Y-107353625D01*
X155093529Y-107352518D01*
X155246262Y-107351180D01*
X155361685Y-107349646D01*
X155434686Y-107347954D01*
X155460156Y-107346141D01*
X155454152Y-107324517D01*
X155435051Y-107265484D01*
X155407398Y-107183758D01*
X155385584Y-107125216D01*
X155269106Y-106902921D01*
X155112344Y-106709123D01*
X154921428Y-106549211D01*
X154702490Y-106428571D01*
X154461659Y-106352592D01*
X154353024Y-106337555D01*
X154182906Y-106332253D01*
X154001569Y-106342256D01*
X153829895Y-106366209D01*
X153688767Y-106402756D01*
X153485736Y-106499708D01*
X153302069Y-106641208D01*
X153152698Y-106818149D01*
X153042196Y-107025062D01*
X152975135Y-107256476D01*
X152957252Y-107355181D01*
X151795745Y-107355181D01*
X151796113Y-107344346D01*
X151838185Y-107044561D01*
X151910745Y-106762195D01*
X152012511Y-106510849D01*
X152149639Y-106271968D01*
X152351441Y-106009977D01*
X152587350Y-105788043D01*
X152857407Y-105606138D01*
X153161655Y-105464235D01*
X153500136Y-105362307D01*
X153872891Y-105300326D01*
X154135446Y-105284127D01*
X154499608Y-105303422D01*
X154847164Y-105371331D01*
X155175228Y-105486258D01*
X155480916Y-105646607D01*
X155761341Y-105850783D01*
X156013618Y-106097190D01*
X156234861Y-106384231D01*
X156422185Y-106710311D01*
X156507768Y-106897990D01*
X156594895Y-107137771D01*
X156647019Y-107346141D01*
X156656242Y-107383009D01*
G37*
%TD*%
M02*
