M48
; DRILL file {KiCad 9.0.5} date 2026-03-13T11:36:48+0100
; FORMAT={-:-/ absolute / metric / decimal}
; #@! TF.CreationDate,2026-03-13T11:36:48+01:00
; #@! TF.GenerationSoftware,Kicad,Pcbnew,9.0.5
; #@! TF.FileFunction,Plated,1,2,PTH
FMAT,2
METRIC
; #@! TA.AperFunction,Plated,PTH,ViaDrill
T1C0.300
; #@! TA.AperFunction,Plated,PTH,ComponentDrill
T2C1.295
; #@! TA.AperFunction,Plated,PTH,ComponentDrill
T3C1.600
%
G90
G05
T1
X95.25Y-43.5
X95.75Y-65.0
X95.75Y-68.5
X95.75Y-71.25
X95.75Y-74.0
X95.75Y-75.5
X95.75Y-77.5
X95.75Y-102.75
X95.75Y-105.5
X95.75Y-108.5
X95.75Y-112.0
X95.75Y-115.0
X100.75Y-72.0
X101.25Y-65.0
X102.0Y-90.25
X102.5Y-55.0
X102.5Y-59.75
X107.0Y-91.0
X107.0Y-92.0
X107.0Y-95.5
X107.958Y-92.958
X108.25Y-90.0
X110.5Y-83.5
X110.5Y-85.25
X110.5Y-86.5
X110.5Y-88.0
X110.75Y-43.75
X110.75Y-80.75
X111.25Y-75.5
X111.25Y-105.75
X113.5Y-65.0
X113.5Y-66.75
X113.5Y-68.75
X115.5Y-71.0
X117.0Y-56.25
X117.0Y-58.5
X117.25Y-64.5
X117.5Y-51.75
X119.0Y-43.75
X119.0Y-71.0
X120.5Y-72.25
X121.25Y-54.0
X121.25Y-56.0
X122.0Y-93.75
X122.5Y-54.0
X122.75Y-58.5
X123.0Y-72.25
X123.5Y-89.0
X123.75Y-54.0
X124.0Y-58.5
X125.25Y-54.0
X125.75Y-72.5
X125.75Y-76.75
X126.75Y-86.25
X128.0Y-54.5
X128.5Y-55.75
X128.75Y-43.75
X130.0Y-49.0
X130.75Y-55.75
X132.25Y-77.25
X132.75Y-55.75
X134.5Y-106.0
X134.75Y-55.75
X136.75Y-55.75
X136.75Y-71.25
X137.25Y-73.5
X138.0Y-75.0
X139.0Y-55.75
X139.0Y-57.75
X139.0Y-59.75
X139.0Y-62.0
X139.0Y-63.5
X139.0Y-65.0
X139.0Y-68.25
X139.0Y-71.25
X139.5Y-48.75
X140.0Y-43.0
X142.25Y-56.0
X142.25Y-59.5
X142.25Y-61.5
X142.25Y-63.5
X142.25Y-65.25
X143.0Y-50.25
X144.5Y-68.5
X144.75Y-65.25
X144.75Y-80.5
X145.5Y-47.25
X146.0Y-53.5
X146.75Y-93.75
X147.5Y-89.0
X147.75Y-74.25
X151.25Y-48.0
X152.25Y-46.0
X153.25Y-65.25
X154.5Y-47.75
X154.5Y-63.0
X157.0Y-46.75
X159.25Y-53.75
X160.75Y-50.75
X161.5Y-105.75
X162.0Y-62.5
X162.5Y-93.75
X163.25Y-89.0
X163.5Y-48.5
X163.5Y-51.25
X163.75Y-45.75
X165.0Y-80.5
X165.25Y-59.75
X165.5Y-74.5
X166.0Y-68.75
X170.5Y-47.5
X171.75Y-61.0
X173.0Y-65.75
X173.5Y-54.75
X174.25Y-59.0
X175.75Y-65.25
X176.5Y-60.5
X177.0Y-62.5
X177.0Y-66.25
X177.25Y-54.75
X177.5Y-59.0
X177.5Y-93.0
X177.75Y-74.25
X178.0Y-65.25
X178.0Y-81.25
X178.0Y-83.75
X178.0Y-87.25
X179.5Y-80.25
X179.75Y-64.487
X180.0Y-91.75
X180.0Y-93.25
X180.75Y-54.75
X180.75Y-62.75
X181.0Y-46.0
X181.0Y-59.0
X181.25Y-66.5
X181.25Y-68.5
X182.25Y-63.25
X182.25Y-80.75
X184.25Y-54.75
X184.25Y-63.25
X185.0Y-58.5
X185.0Y-80.75
X185.0Y-88.5
X185.25Y-86.75
X185.5Y-74.5
X186.25Y-68.75
X187.0Y-63.75
X187.0Y-89.0
X187.75Y-54.75
X189.25Y-106.0
X189.75Y-59.5
X191.0Y-68.5
X191.0Y-87.25
X191.75Y-84.75
X191.75Y-93.5
X192.75Y-63.0
X193.0Y-42.75
X193.0Y-67.0
X193.25Y-91.0
X194.25Y-59.75
X194.75Y-48.0
X195.124Y-86.874
X197.25Y-62.5
X197.75Y-56.0
X198.75Y-74.25
X199.0Y-46.0
X199.25Y-50.25
X200.25Y-68.75
X200.75Y-87.5
X201.0Y-62.25
X202.0Y-43.0
X202.75Y-56.5
X205.75Y-80.75
X206.0Y-84.75
X206.25Y-86.5
X206.75Y-52.75
X209.0Y-52.75
X209.0Y-85.25
X211.5Y-52.75
X211.75Y-46.5
X211.75Y-107.0
X212.0Y-61.25
X212.0Y-68.75
X212.0Y-70.5
X212.0Y-73.25
X212.0Y-75.5
X212.0Y-77.75
X212.0Y-79.5
X212.0Y-82.5
X212.0Y-87.0
X212.0Y-92.75
X212.0Y-95.75
X212.0Y-98.75
X212.0Y-102.0
X212.0Y-104.25
X214.0Y-52.75
X214.0Y-76.25
X214.0Y-80.75
X216.0Y-52.75
X216.0Y-74.75
X216.0Y-78.75
X216.75Y-43.0
X217.0Y-45.25
T2
X98.987Y-83.66
X98.987Y-87.16
X98.987Y-90.66
X98.987Y-94.16
X98.987Y-97.66
X98.987Y-101.16
X98.987Y-104.66
X98.987Y-108.16
X98.987Y-111.66
X98.987Y-115.16
X99.0Y-45.75
X99.0Y-49.25
X99.0Y-52.75
X99.0Y-56.25
X99.0Y-59.75
X99.0Y-63.25
X99.0Y-66.75
X99.0Y-70.25
X99.0Y-73.75
X99.0Y-77.25
X112.34Y-50.737
X115.84Y-50.737
X119.34Y-50.737
X126.25Y-50.75
X129.75Y-50.75
X133.25Y-50.75
X175.59Y-50.737
X179.09Y-50.737
X182.59Y-50.737
X186.09Y-50.737
X208.763Y-62.59
X208.763Y-66.09
X208.763Y-69.59
X208.763Y-73.09
X208.763Y-76.59
X208.763Y-80.09
X208.763Y-87.179
X208.763Y-90.679
X208.763Y-94.179
X208.763Y-97.679
X208.763Y-101.179
X208.763Y-104.679
T3
X124.268Y-64.843
X124.268Y-68.653
M30
